<?xml version="1.0" standalone="no"?>
<!DOCTYPE svg PUBLIC "-//W3C//DTD SVG 20010904//EN"
 "http://www.w3.org/TR/2001/REC-SVG-20010904/DTD/svg10.dtd">
<svg version="1.0" xmlns="http://www.w3.org/2000/svg"
 width="700.000000pt" height="700.000000pt" viewBox="0 0 700.000000 700.000000"
 preserveAspectRatio="xMidYMid meet">
<metadata>
Created by potrace 1.11, written by Peter Selinger 2001-2013
</metadata>
<g transform="translate(0.000000,700.000000) scale(0.100000,-0.100000)"
fill="#000000" stroke="none">
<path d="M848 6995 c-2 -2 -24 -7 -48 -10 -94 -12 -250 -72 -355 -138 -196
-121 -355 -342 -414 -572 -5 -22 -14 -53 -18 -70 -4 -16 -8 -1094 -9 -2395 -2
-1904 0 -2352 10 -2300 72 376 354 668 725 748 86 19 131 20 823 20 l733 0 0
-681 c-1 -375 3 -713 7 -751 17 -146 86 -320 172 -439 142 -196 309 -310 556
-380 l75 -22 1510 -2 c1623 -2 1568 -4 1725 48 236 78 443 257 555 478 32 63
49 109 78 206 l21 70 2 2385 c1 1312 -1 2372 -3 2355 -19 -147 -92 -341 -156
-416 -10 -11 -17 -21 -17 -24 0 -19 -133 -150 -212 -210 -66 -49 -188 -111
-262 -132 -142 -40 -159 -41 -908 -41 -401 0 -728 3 -729 7 0 3 -2 323 -3 711
-1 388 -6 723 -10 745 -81 420 -377 721 -786 800 -63 12 -311 14 -1566 14
-820 0 -1493 -2 -1496 -4z"/>
</g>
</svg>
