<?xml version="1.0" encoding="UTF-8" standalone="no"?>
<svg
   xmlns:dc="http://purl.org/dc/elements/1.1/"
   xmlns:cc="http://creativecommons.org/ns#"
   xmlns:rdf="http://www.w3.org/1999/02/22-rdf-syntax-ns#"
   xmlns:svg="http://www.w3.org/2000/svg"
   xmlns="http://www.w3.org/2000/svg"
   viewBox="0 0 102.0625 94.175003"
   height="94.175003"
   width="102.0625"
   xml:space="preserve"
   version="1.1"
   id="svg2"><metadata
     id="metadata8"><rdf:RDF><cc:Work
         rdf:about=""><dc:format>image/svg+xml</dc:format><dc:type
           rdf:resource="http://purl.org/dc/dcmitype/StillImage" /></cc:Work></rdf:RDF></metadata><defs
     id="defs6" /><g
     transform="matrix(1.25,0,0,-1.25,0,94.175)"
     id="g10"><g
       transform="scale(0.1,0.1)"
       id="g12"><path
         id="path14"
         style="fill:none;stroke:#4278c4;stroke-width:17.00799942;stroke-linecap:round;stroke-linejoin:round;stroke-miterlimit:22.92560005;stroke-dasharray:none;stroke-opacity:1"
         d="M 750.426,614.973 C 786.949,554.648 807.973,483.898 807.973,408.234 807.973,187.469 629,8.50391 408.238,8.50391 187.469,8.50391 8.50391,187.469 8.50391,408.234 c 0,75.047 20.67969,145.27 56.65239,205.262" /><path
         id="path16"
         style="fill:#fbc31e;fill-opacity:1;fill-rule:evenodd;stroke:none"
         d="m 261.766,744.91 292.945,0 c 67.082,0 121.965,-54.883 121.965,-121.965 l 0,-292.949 c 0,-67.078 -54.883,-121.965 -121.965,-121.965 l -292.945,0 c -67.078,0 -121.961,54.887 -121.961,121.965 l 0,292.949 c 0,67.082 54.883,121.965 121.961,121.965" /><path
         id="path18"
         style="fill:none;stroke:#6452a0;stroke-width:17.00799942;stroke-linecap:round;stroke-linejoin:round;stroke-miterlimit:22.92560005;stroke-dasharray:none;stroke-opacity:1"
         d="m 261.766,744.91 292.945,0 c 67.082,0 121.965,-54.883 121.965,-121.965 l 0,-292.949 c 0,-67.078 -54.883,-121.965 -121.965,-121.965 l -292.945,0 c -67.078,0 -121.961,54.887 -121.961,121.965 l 0,292.949 c 0,67.082 54.883,121.965 121.961,121.965 z" /><path
         id="path20"
         style="fill:#ffffff;fill-opacity:1;fill-rule:evenodd;stroke:none"
         d="m 408.242,71.5703 c 80.719,0 146.559,65.8357 146.559,146.5627 0,80.722 -65.84,146.562 -146.559,146.562 -80.722,0 -146.562,-65.84 -146.562,-146.562 0,-80.727 65.84,-146.5627 146.562,-146.5627" /><path
         id="path22"
         style="fill:none;stroke:#6452a0;stroke-width:17.00799942;stroke-linecap:round;stroke-linejoin:round;stroke-miterlimit:22.92560005;stroke-dasharray:none;stroke-opacity:1"
         d="m 408.242,71.5703 c 80.719,0 146.559,65.8357 146.559,146.5627 0,80.722 -65.84,146.562 -146.559,146.562 -80.722,0 -146.562,-65.84 -146.562,-146.562 0,-80.727 65.84,-146.5627 146.562,-146.5627 z" /><path
         id="path24"
         style="fill:none;stroke:#6452a0;stroke-width:17.00799942;stroke-linecap:round;stroke-linejoin:round;stroke-miterlimit:22.92560005;stroke-dasharray:none;stroke-opacity:1"
         d="m 461.617,285.145 -36.769,-77.817 67.609,0" /><path
         id="path26"
         style="fill:none;stroke:#6452a0;stroke-width:17.00799942;stroke-linecap:round;stroke-linejoin:round;stroke-miterlimit:22.92560005;stroke-dasharray:none;stroke-opacity:1"
         d="m 492.445,283.961 0,-132.852" /><path
         id="path28"
         style="fill:none;stroke:#6452a0;stroke-width:17.00799942;stroke-linecap:round;stroke-linejoin:round;stroke-miterlimit:22.92560005;stroke-dasharray:none;stroke-opacity:1"
         d="m 324.02,228.805 0,18.39 c 0,20.879 17.078,37.95 37.953,37.95 l 0.004,0 c 20.878,0 37.953,-17.082 37.953,-37.95 l 0,-27.871 c 0,-3.168 0,-6.332 0,-9.496 -62.371,0 -75.91,-21.551 -75.91,-58.125 l 75.91,0" /><path
         id="path30"
         style="fill:none;stroke:#6452a0;stroke-width:17.00799942;stroke-linecap:round;stroke-linejoin:round;stroke-miterlimit:22.92560005;stroke-dasharray:none;stroke-opacity:1"
         d="m 408.242,476.477 0,198.558" /><path
         id="path32"
         style="fill:none;stroke:#6452a0;stroke-width:17.00799942;stroke-linecap:round;stroke-linejoin:round;stroke-miterlimit:22.92560005;stroke-dasharray:none;stroke-opacity:1"
         d="M 408.242,476.477 289.438,408.395" /><path
         id="path34"
         style="fill:none;stroke:#6452a0;stroke-width:17.00799942;stroke-linecap:round;stroke-linejoin:round;stroke-miterlimit:22.92560005;stroke-dasharray:none;stroke-opacity:1"
         d="m 628.09,476.473 -39.102,0" /><path
         id="path36"
         style="fill:none;stroke:#6452a0;stroke-width:17.00799942;stroke-linecap:round;stroke-linejoin:round;stroke-miterlimit:22.92560005;stroke-dasharray:none;stroke-opacity:1"
         d="m 227.48,476.473 -39.097,0" /><path
         id="path38"
         style="fill:none;stroke:#6452a0;stroke-width:17.00799942;stroke-linecap:round;stroke-linejoin:round;stroke-miterlimit:22.92560005;stroke-dasharray:none;stroke-opacity:1"
         d="M 598.637,586.402 564.77,566.852" /><path
         id="path40"
         style="fill:none;stroke:#6452a0;stroke-width:17.00799942;stroke-linecap:round;stroke-linejoin:round;stroke-miterlimit:22.92560005;stroke-dasharray:none;stroke-opacity:1"
         d="M 251.699,386.094 217.84,366.551" /><path
         id="path42"
         style="fill:none;stroke:#6452a0;stroke-width:17.00799942;stroke-linecap:round;stroke-linejoin:round;stroke-miterlimit:22.92560005;stroke-dasharray:none;stroke-opacity:1"
         d="M 518.16,666.871 498.617,633.008" /><path
         id="path44"
         style="fill:none;stroke:#6452a0;stroke-width:17.00799942;stroke-linecap:round;stroke-linejoin:round;stroke-miterlimit:22.92560005;stroke-dasharray:none;stroke-opacity:1"
         d="m 298.316,666.871 19.543,-33.863" /><path
         id="path46"
         style="fill:none;stroke:#6452a0;stroke-width:17.00799942;stroke-linecap:round;stroke-linejoin:round;stroke-miterlimit:22.92560005;stroke-dasharray:none;stroke-opacity:1"
         d="m 217.84,586.398 33.863,-19.546" /><path
         id="path48"
         style="fill:none;stroke:#6452a0;stroke-width:17.00799942;stroke-linecap:round;stroke-linejoin:round;stroke-miterlimit:22.92560005;stroke-dasharray:none;stroke-opacity:1"
         d="m 564.781,386.094 33.856,-19.555" /><path
         id="path50"
         style="fill:#6452a0;fill-opacity:1;fill-rule:evenodd;stroke:none"
         d="m 408.242,426.359 c 27.602,0 50.121,22.512 50.121,50.118 0,27.605 -22.519,50.117 -50.121,50.117 -27.609,0 -50.121,-22.512 -50.121,-50.117 0,-27.606 22.512,-50.118 50.121,-50.118" /></g></g></svg>