<?xml version="1.0" encoding="UTF-8" standalone="no"?>
<svg
   xmlns:dc="http://purl.org/dc/elements/1.1/"
   xmlns:cc="http://creativecommons.org/ns#"
   xmlns:rdf="http://www.w3.org/1999/02/22-rdf-syntax-ns#"
   xmlns:svg="http://www.w3.org/2000/svg"
   xmlns="http://www.w3.org/2000/svg"
   viewBox="0 0 101.4 97.099998"
   height="97.099998"
   width="101.4"
   xml:space="preserve"
   version="1.1"
   id="svg2"><metadata
     id="metadata8"><rdf:RDF><cc:Work
         rdf:about=""><dc:format>image/svg+xml</dc:format><dc:type
           rdf:resource="http://purl.org/dc/dcmitype/StillImage" /></cc:Work></rdf:RDF></metadata><defs
     id="defs6"><clipPath
       id="clipPath18"
       clipPathUnits="userSpaceOnUse"><path
         id="path20"
         d="m 0,0 811,0 0,776.836 -811,0 L 0,0 Z" /></clipPath></defs><g
     transform="matrix(1.25,0,0,-1.25,0,97.1)"
     id="g10"><g
       transform="scale(0.1,0.1)"
       id="g12"><g
         id="g14"><g
           clip-path="url(#clipPath18)"
           id="g16"><path
             id="path22"
             style="fill:none;stroke:#4278c4;stroke-width:17.00799942;stroke-linecap:round;stroke-linejoin:round;stroke-miterlimit:22.92560005;stroke-dasharray:none;stroke-opacity:1"
             d="M 257.203,20 C 111.406,78.7773 8.50391,221.57 8.50391,388.418 c 0,158.883 93.32409,295.953 228.13709,359.437 m 337.937,0 C 709.391,684.371 802.723,547.301 802.723,388.418 802.723,221.57 699.813,78.7773 554.02,20" /><path
             id="path24"
             style="fill:#fbc31e;fill-opacity:1;fill-rule:evenodd;stroke:none"
             d="m 187.605,567.91 c 144.961,0 289.93,0 434.891,0 26.262,0 41.094,-19.703 40.5,-41.988 L 643.367,172.668 c -1.562,-28.215 -24.484,-37.316 -39.375,-37.316 -132.316,0 -264.629,0 -396.945,0 -23.227,0 -36.621,17.5 -39.164,36.882 l -19.621,353.125 c 0,21.848 13.074,42.551 39.343,42.551" /><path
             id="path26"
             style="fill:none;stroke:#6452a0;stroke-width:17.00799942;stroke-linecap:round;stroke-linejoin:round;stroke-miterlimit:22.92560005;stroke-dasharray:none;stroke-opacity:1"
             d="m 187.605,567.91 c 144.961,0 289.93,0 434.891,0 26.262,0 41.094,-19.703 40.5,-41.988 L 643.367,172.668 c -1.562,-28.215 -24.484,-37.316 -39.375,-37.316 -132.316,0 -264.629,0 -396.945,0 -23.227,0 -36.621,17.5 -39.164,36.882 l -19.621,353.125 c 0,21.848 13.074,42.551 39.343,42.551 z" /><path
             id="path28"
             style="fill:none;stroke:#6452a0;stroke-width:17.00799942;stroke-linecap:round;stroke-linejoin:round;stroke-miterlimit:22.92560005;stroke-dasharray:none;stroke-opacity:1"
             d="m 554.723,489.684 0,129.546 c 0,82.004 -67.098,149.102 -149.11,149.102 l 0,0 c -82.008,0 -149.101,-67.121 -149.101,-149.102 l 0,-129.546" /><path
             id="path30"
             style="fill:#ffffff;fill-opacity:1;fill-rule:evenodd;stroke:none"
             d="m 405.613,8.50781 c 69.871,0 126.856,56.98049 126.856,126.84419 0,69.875 -56.985,126.855 -126.856,126.855 -69.871,0 -126.855,-56.98 -126.855,-126.855 0,-69.8637 56.984,-126.84419 126.855,-126.84419" /><path
             id="path32"
             style="fill:none;stroke:#6452a0;stroke-width:17.00799942;stroke-linecap:round;stroke-linejoin:round;stroke-miterlimit:22.92560005;stroke-dasharray:none;stroke-opacity:1"
             d="m 405.613,8.50781 c 69.871,0 126.856,56.98049 126.856,126.84419 0,69.875 -56.985,126.855 -126.856,126.855 -69.871,0 -126.855,-56.98 -126.855,-126.855 0,-69.8637 56.984,-126.84419 126.855,-126.84419 z" /><path
             id="path34"
             style="fill:#ffffff;fill-opacity:1;fill-rule:evenodd;stroke:none"
             d="m 364.379,195.051 0.004,0 c 11.078,0 20.14,-9.067 20.14,-20.149 l 0,-22.011 c 0,-11.082 -9.062,-20.149 -20.14,-20.149 l -0.004,0 c -11.082,0 -20.149,9.067 -20.149,20.149 l 0,22.011 c 0,11.082 9.067,20.149 20.149,20.149" /><path
             id="path36"
             style="fill:none;stroke:#6452a0;stroke-width:17.00799942;stroke-linecap:round;stroke-linejoin:round;stroke-miterlimit:22.92560005;stroke-dasharray:none;stroke-opacity:1"
             d="m 364.379,195.051 0.004,0 c 11.078,0 20.14,-9.067 20.14,-20.149 l 0,-22.011 c 0,-11.082 -9.062,-20.149 -20.14,-20.149 l -0.004,0 c -11.082,0 -20.149,9.067 -20.149,20.149 l 0,22.011 c 0,11.082 9.067,20.149 20.149,20.149 z" /><path
             id="path38"
             style="fill:#ffffff;fill-opacity:1;fill-rule:evenodd;stroke:none"
             d="m 447.125,137.961 0,0 c 11.086,0 20.148,-9.063 20.148,-20.141 l 0,-22.0192 c 0,-11.082 -9.062,-20.1485 -20.148,-20.1485 l 0,0 c -11.082,0 -20.145,9.0665 -20.145,20.1485 l 0,22.0192 c 0,11.078 9.063,20.141 20.145,20.141" /><path
             id="path40"
             style="fill:none;stroke:#6452a0;stroke-width:17.00799942;stroke-linecap:round;stroke-linejoin:round;stroke-miterlimit:22.92560005;stroke-dasharray:none;stroke-opacity:1"
             d="m 447.125,137.961 0,0 c 11.086,0 20.148,-9.063 20.148,-20.141 l 0,-22.0192 c 0,-11.082 -9.062,-20.1485 -20.148,-20.1485 l 0,0 c -11.082,0 -20.145,9.0665 -20.145,20.1485 l 0,22.0192 c 0,11.078 9.063,20.141 20.145,20.141 z" /><path
             id="path42"
             style="fill:none;stroke:#6452a0;stroke-width:17.00799942;stroke-linecap:round;stroke-linejoin:round;stroke-miterlimit:22.92560005;stroke-dasharray:none;stroke-opacity:1"
             d="M 440.211,195.051 371.281,75.6523" /><path
             id="path44"
             style="fill:#6452a0;fill-opacity:1;fill-rule:evenodd;stroke:none"
             d="m 277.465,340.793 c 20.484,0 37.195,16.707 37.195,37.195 0,20.492 -16.711,37.203 -37.195,37.203 -20.492,0 -37.203,-16.711 -37.203,-37.203 0,-20.488 16.711,-37.195 37.203,-37.195" /><path
             id="path46"
             style="fill:#6452a0;fill-opacity:1;fill-rule:evenodd;stroke:none"
             d="m 405.617,340.793 c 20.485,0 37.192,16.707 37.192,37.195 0,20.492 -16.707,37.203 -37.192,37.203 -20.488,0 -37.203,-16.711 -37.203,-37.203 0,-20.488 16.715,-37.195 37.203,-37.195" /><path
             id="path48"
             style="fill:#6452a0;fill-opacity:1;fill-rule:evenodd;stroke:none"
             d="m 533.766,340.793 c 20.488,0 37.199,16.707 37.199,37.195 0,20.492 -16.711,37.203 -37.199,37.203 -20.489,0 -37.196,-16.711 -37.196,-37.203 0,-20.488 16.707,-37.195 37.196,-37.195" /></g></g></g></g></svg>