<?xml version="1.0" encoding="UTF-8" standalone="no"?>
<svg
   xmlns:dc="http://purl.org/dc/elements/1.1/"
   xmlns:cc="http://creativecommons.org/ns#"
   xmlns:rdf="http://www.w3.org/1999/02/22-rdf-syntax-ns#"
   xmlns:svg="http://www.w3.org/2000/svg"
   xmlns="http://www.w3.org/2000/svg"
   viewBox="0 0 118.5625 101.7"
   height="101.7"
   width="118.5625"
   xml:space="preserve"
   version="1.1"
   id="svg2"><metadata
     id="metadata8"><rdf:RDF><cc:Work
         rdf:about=""><dc:format>image/svg+xml</dc:format><dc:type
           rdf:resource="http://purl.org/dc/dcmitype/StillImage" /></cc:Work></rdf:RDF></metadata><defs
     id="defs6"><clipPath
       id="clipPath18"
       clipPathUnits="userSpaceOnUse"><path
         id="path20"
         d="M 0,813.586 0,0 l 948.508,0 0,813.586 -948.508,0 z" /></clipPath></defs><g
     transform="matrix(1.25,0,0,-1.25,0,101.7)"
     id="g10"><g
       transform="scale(0.1,0.1)"
       id="g12"><g
         id="g14"><g
           clip-path="url(#clipPath18)"
           id="g16"><path
             id="path22"
             style="fill:none;stroke:#4278c4;stroke-width:17.00799942;stroke-linecap:round;stroke-linejoin:round;stroke-miterlimit:22.92560005;stroke-dasharray:none;stroke-opacity:1"
             d="M 489.105,8.50781 C 352.949,11.9336 233.789,83.7891 164.645,190.996 M 872.68,268.41 c -5.106,-13.808 -10.957,-27.258 -17.508,-40.293 m -3.613,364.356 c 8.027,-15.211 15.086,-31.004 21.121,-47.297 m -622.637,172.23 c 65.758,52.938 148.66,85.399 239.062,87.672" /><path
             id="path24"
             style="fill:#fbc31e;fill-opacity:1;fill-rule:evenodd;stroke:none"
             d="m 122.035,582.398 272.09,0 c 62.441,0 113.535,-51.089 113.535,-113.531 l 0,-119.168 c 0,-62.441 -51.094,-113.535 -113.535,-113.535 l -272.09,0 c -62.4412,0 -113.52719,51.094 -113.52719,113.535 l 0,119.168 c 0,62.442 51.08599,113.531 113.52719,113.531" /><path
             id="path26"
             style="fill:none;stroke:#6452a0;stroke-width:17.00799942;stroke-linecap:round;stroke-linejoin:round;stroke-miterlimit:22.92560005;stroke-dasharray:none;stroke-opacity:1"
             d="m 122.035,582.398 272.09,0 c 62.441,0 113.535,-51.089 113.535,-113.531 l 0,-119.168 c 0,-62.441 -51.094,-113.535 -113.535,-113.535 l -272.09,0 c -62.4412,0 -113.52719,51.094 -113.52719,113.535 l 0,119.168 c 0,62.442 51.08599,113.531 113.52719,113.531 z" /><path
             id="path28"
             style="fill:none;stroke:#6452a0;stroke-width:17.00799942;stroke-linecap:round;stroke-linejoin:round;stroke-miterlimit:22.92560005;stroke-dasharray:none;stroke-opacity:1"
             d="m 245.742,582.398 0,35.59" /><path
             id="path30"
             style="fill:#ffffff;fill-opacity:1;fill-rule:evenodd;stroke:none"
             d="m 157.492,417.652 c 19.09,0 34.66,15.567 34.66,34.657 0,19.089 -15.57,34.66 -34.66,34.66 -19.09,0 -34.66,-15.571 -34.66,-34.66 0,-19.09 15.57,-34.657 34.66,-34.657" /><path
             id="path32"
             style="fill:none;stroke:#6452a0;stroke-width:17.00799942;stroke-linecap:round;stroke-linejoin:round;stroke-miterlimit:22.92560005;stroke-dasharray:none;stroke-opacity:1"
             d="m 157.492,417.652 c 19.09,0 34.66,15.567 34.66,34.657 0,19.089 -15.57,34.66 -34.66,34.66 -19.09,0 -34.66,-15.571 -34.66,-34.66 0,-19.09 15.57,-34.657 34.66,-34.657 z" /><path
             id="path34"
             style="fill:#ffffff;fill-opacity:1;fill-rule:evenodd;stroke:none"
             d="m 359.023,417.652 c 19.094,0 34.665,15.567 34.665,34.657 0,19.089 -15.571,34.66 -34.665,34.66 -19.085,0 -34.656,-15.571 -34.656,-34.66 0,-19.09 15.571,-34.657 34.656,-34.657" /><path
             id="path36"
             style="fill:none;stroke:#6452a0;stroke-width:17.00799942;stroke-linecap:round;stroke-linejoin:round;stroke-miterlimit:22.92560005;stroke-dasharray:none;stroke-opacity:1"
             d="m 359.023,417.652 c 19.094,0 34.665,15.567 34.665,34.657 0,19.089 -15.571,34.66 -34.665,34.66 -19.085,0 -34.656,-15.571 -34.656,-34.66 0,-19.09 15.571,-34.657 34.656,-34.657 z" /><path
             id="path38"
             style="fill:none;stroke:#6452a0;stroke-width:17.00799942;stroke-linecap:round;stroke-linejoin:round;stroke-miterlimit:22.92560005;stroke-dasharray:none;stroke-opacity:1"
             d="m 394.379,351.281 c -43.195,-12.804 -88.938,-19.687 -136.297,-19.687 -47.355,0 -93.098,6.883 -136.301,19.687" /><path
             id="path40"
             style="fill:#ffffff;fill-opacity:1;fill-rule:evenodd;stroke:none"
             d="m 245.742,617.238 c 15.492,0 28.137,12.637 28.137,28.133 0,15.492 -12.645,28.129 -28.137,28.129 -15.5,0 -28.133,-12.637 -28.133,-28.129 0,-15.496 12.633,-28.133 28.133,-28.133" /><path
             id="path42"
             style="fill:none;stroke:#6452a0;stroke-width:17.00799942;stroke-linecap:round;stroke-linejoin:round;stroke-miterlimit:22.92560005;stroke-dasharray:none;stroke-opacity:1"
             d="m 245.742,617.238 c 15.492,0 28.137,12.637 28.137,28.133 0,15.492 -12.645,28.129 -28.137,28.129 -15.5,0 -28.133,-12.637 -28.133,-28.129 0,-15.496 12.633,-28.133 28.133,-28.133 z" /><path
             id="path44"
             style="fill:#6452a0;fill-opacity:1;fill-rule:evenodd;stroke:none"
             d="m 547.133,805.215 252.59,0 c 12.879,0 23.418,-10.543 23.418,-23.426 l 0,-140.535 c 0,-12.879 -10.547,-23.426 -23.418,-23.426 l -211.504,0 -64.504,-53.344 0,217.305 c 0,12.883 10.539,23.426 23.418,23.426" /><path
             id="path46"
             style="fill:none;stroke:#fbc31e;stroke-width:17.00799942;stroke-linecap:round;stroke-linejoin:round;stroke-miterlimit:22.92560005;stroke-dasharray:none;stroke-opacity:1"
             d="m 576.449,743.184 101.953,0" /><path
             id="path48"
             style="fill:none;stroke:#fbc31e;stroke-width:17.00799942;stroke-linecap:round;stroke-linejoin:round;stroke-miterlimit:22.92560005;stroke-dasharray:none;stroke-opacity:1"
             d="m 719.43,743.184 50.976,0" /><path
             id="path50"
             style="fill:none;stroke:#fbc31e;stroke-width:17.00799942;stroke-linecap:round;stroke-linejoin:round;stroke-miterlimit:22.92560005;stroke-dasharray:none;stroke-opacity:1"
             d="m 576.449,680.25 44.668,0" /><path
             id="path52"
             style="fill:none;stroke:#fbc31e;stroke-width:17.00799942;stroke-linecap:round;stroke-linejoin:round;stroke-miterlimit:22.92560005;stroke-dasharray:none;stroke-opacity:1"
             d="m 770.406,680.91 -108.828,0" /><path
             id="path54"
             style="fill:#6452a0;fill-opacity:1;fill-rule:evenodd;stroke:none"
             d="m 547.133,805.215 252.59,0 c 12.879,0 23.418,-10.543 23.418,-23.426 l 0,-140.535 c 0,-12.879 -10.547,-23.426 -23.418,-23.426 l -211.504,0 -64.504,-53.344 0,217.305 c 0,12.883 10.539,23.426 23.418,23.426" /><path
             id="path56"
             style="fill:none;stroke:#fbc31e;stroke-width:17.00799942;stroke-linecap:round;stroke-linejoin:round;stroke-miterlimit:22.92560005;stroke-dasharray:none;stroke-opacity:1"
             d="m 576.449,743.184 101.953,0" /><path
             id="path58"
             style="fill:none;stroke:#fbc31e;stroke-width:17.00799942;stroke-linecap:round;stroke-linejoin:round;stroke-miterlimit:22.92560005;stroke-dasharray:none;stroke-opacity:1"
             d="m 719.43,743.184 50.976,0" /><path
             id="path60"
             style="fill:none;stroke:#fbc31e;stroke-width:17.00799942;stroke-linecap:round;stroke-linejoin:round;stroke-miterlimit:22.92560005;stroke-dasharray:none;stroke-opacity:1"
             d="m 576.449,680.25 44.668,0" /><path
             id="path62"
             style="fill:none;stroke:#fbc31e;stroke-width:17.00799942;stroke-linecap:round;stroke-linejoin:round;stroke-miterlimit:22.92560005;stroke-dasharray:none;stroke-opacity:1"
             d="m 770.406,680.91 -108.828,0" /><path
             id="path64"
             style="fill:#6452a0;fill-opacity:1;fill-rule:evenodd;stroke:none"
             d="m 547.133,8.35938 252.59,0 c 12.879,0 23.418,10.54692 23.418,23.42972 l 0,140.5349 c 0,12.883 -10.547,23.418 -23.418,23.418 l -211.504,0 -64.504,53.352 0,-217.3049 c 0,-12.8828 10.539,-23.42972 23.418,-23.42972" /><path
             id="path66"
             style="fill:none;stroke:#fbc31e;stroke-width:17.00799942;stroke-linecap:round;stroke-linejoin:round;stroke-miterlimit:22.92560005;stroke-dasharray:none;stroke-opacity:1"
             d="m 576.449,70.3906 101.953,0" /><path
             id="path68"
             style="fill:none;stroke:#fbc31e;stroke-width:17.00799942;stroke-linecap:round;stroke-linejoin:round;stroke-miterlimit:22.92560005;stroke-dasharray:none;stroke-opacity:1"
             d="m 719.43,70.3906 50.976,0" /><path
             id="path70"
             style="fill:none;stroke:#fbc31e;stroke-width:17.00799942;stroke-linecap:round;stroke-linejoin:round;stroke-miterlimit:22.92560005;stroke-dasharray:none;stroke-opacity:1"
             d="m 576.449,133.332 44.668,0" /><path
             id="path72"
             style="fill:none;stroke:#fbc31e;stroke-width:17.00799942;stroke-linecap:round;stroke-linejoin:round;stroke-miterlimit:22.92560005;stroke-dasharray:none;stroke-opacity:1"
             d="m 770.406,132.668 -108.828,0" /><path
             id="path74"
             style="fill:#6452a0;fill-opacity:1;fill-rule:evenodd;stroke:none"
             d="m 547.133,8.35938 252.59,0 c 12.879,0 23.418,10.54692 23.418,23.42972 l 0,140.5349 c 0,12.883 -10.547,23.418 -23.418,23.418 l -211.504,0 -64.504,53.352 0,-217.3049 c 0,-12.8828 10.539,-23.42972 23.418,-23.42972" /><path
             id="path76"
             style="fill:none;stroke:#fbc31e;stroke-width:17.00799942;stroke-linecap:round;stroke-linejoin:round;stroke-miterlimit:22.92560005;stroke-dasharray:none;stroke-opacity:1"
             d="m 576.449,70.3906 101.953,0" /><path
             id="path78"
             style="fill:none;stroke:#fbc31e;stroke-width:17.00799942;stroke-linecap:round;stroke-linejoin:round;stroke-miterlimit:22.92560005;stroke-dasharray:none;stroke-opacity:1"
             d="m 719.43,70.3906 50.976,0" /><path
             id="path80"
             style="fill:none;stroke:#fbc31e;stroke-width:17.00799942;stroke-linecap:round;stroke-linejoin:round;stroke-miterlimit:22.92560005;stroke-dasharray:none;stroke-opacity:1"
             d="m 576.449,133.332 44.668,0" /><path
             id="path82"
             style="fill:none;stroke:#fbc31e;stroke-width:17.00799942;stroke-linecap:round;stroke-linejoin:round;stroke-miterlimit:22.92560005;stroke-dasharray:none;stroke-opacity:1"
             d="m 770.406,132.668 -108.828,0" /><path
             id="path84"
             style="fill:#ffffff;fill-opacity:1;fill-rule:evenodd;stroke:none"
             d="m 728.949,312.93 187.629,0 c 12.891,0 23.426,10.547 23.426,23.429 l 0,140.532 c 0,12.879 -10.547,23.425 -23.426,23.425 l -59.504,0 0,0.332 -64.5,-0.332 -22.539,0 -64.504,0.332 0,-0.332 -41.531,0 c -12.883,0 -23.43,-10.546 -23.43,-23.425 l 0,-42.399 -61.23,0 61.23,-50.644 0,-47.489 c 0,-12.882 10.547,-23.429 23.43,-23.429 l 64.949,0" /><path
             id="path86"
             style="fill:none;stroke:#6452a0;stroke-width:17.00799942;stroke-linecap:round;stroke-linejoin:round;stroke-miterlimit:22.92560005;stroke-dasharray:none;stroke-opacity:1"
             d="m 728.949,312.93 187.629,0 c 12.891,0 23.426,10.547 23.426,23.429 l 0,140.532 c 0,12.879 -10.547,23.425 -23.426,23.425 l -59.504,0 0,0.332 -64.5,-0.332 -22.539,0 -64.504,0.332 0,-0.332 -41.531,0 c -12.883,0 -23.43,-10.546 -23.43,-23.425 l 0,-42.399 -61.23,0 61.23,-50.644 0,-47.489 c 0,-12.882 10.547,-23.429 23.43,-23.429 l 64.949,0 z" /><path
             id="path88"
             style="fill:none;stroke:#6452a0;stroke-width:17.00799942;stroke-linecap:round;stroke-linejoin:round;stroke-miterlimit:22.92560005;stroke-dasharray:none;stroke-opacity:1"
             d="m 693.305,375.324 101.953,0" /><path
             id="path90"
             style="fill:none;stroke:#6452a0;stroke-width:17.00799942;stroke-linecap:round;stroke-linejoin:round;stroke-miterlimit:22.92560005;stroke-dasharray:none;stroke-opacity:1"
             d="m 836.285,375.324 50.977,0" /><path
             id="path92"
             style="fill:none;stroke:#6452a0;stroke-width:17.00799942;stroke-linecap:round;stroke-linejoin:round;stroke-miterlimit:22.92560005;stroke-dasharray:none;stroke-opacity:1"
             d="m 693.305,438.262 44.668,0" /><path
             id="path94"
             style="fill:none;stroke:#6452a0;stroke-width:17.00799942;stroke-linecap:round;stroke-linejoin:round;stroke-miterlimit:22.92560005;stroke-dasharray:none;stroke-opacity:1"
             d="m 887.27,437.598 -108.829,0" /></g></g></g></g></svg>