<?xml version="1.0" encoding="UTF-8" standalone="no"?>
<svg
   xmlns:dc="http://purl.org/dc/elements/1.1/"
   xmlns:cc="http://creativecommons.org/ns#"
   xmlns:rdf="http://www.w3.org/1999/02/22-rdf-syntax-ns#"
   xmlns:svg="http://www.w3.org/2000/svg"
   xmlns="http://www.w3.org/2000/svg"
   viewBox="0 0 116.7375 102.35"
   height="102.35"
   width="116.7375"
   xml:space="preserve"
   version="1.1"
   id="svg2"><metadata
     id="metadata8"><rdf:RDF><cc:Work
         rdf:about=""><dc:format>image/svg+xml</dc:format><dc:type
           rdf:resource="http://purl.org/dc/dcmitype/StillImage" /></cc:Work></rdf:RDF></metadata><defs
     id="defs6"><clipPath
       id="clipPath18"
       clipPathUnits="userSpaceOnUse"><path
         id="path20"
         d="M 0,818.844 0,0 l 933.871,0 0,818.844 -933.871,0 z" /></clipPath></defs><g
     transform="matrix(1.25,0,0,-1.25,0,102.35)"
     id="g10"><g
       transform="scale(0.1,0.1)"
       id="g12"><g
         id="g14"><g
           clip-path="url(#clipPath18)"
           id="g16"><path
             id="path22"
             style="fill:none;stroke:#4278c4;stroke-width:17.00799942;stroke-linecap:round;stroke-linejoin:round;stroke-miterlimit:22.92560005;stroke-dasharray:none;stroke-opacity:1"
             d="M 807.23,286.148 C 755.227,125.047 604.027,8.50391 425.613,8.50391 326.898,8.50391 236.512,44.1758 166.656,103.348 M 76.7188,607.059 C 145.621,728.445 276.059,810.34 425.613,810.34 c 43.571,0 85.524,-6.953 124.801,-19.805" /><path
             id="path24"
             style="fill:#fbc31e;fill-opacity:1;fill-rule:evenodd;stroke:none"
             d="m 53.4961,531.48 485.1599,0 c 24.746,0 44.989,-20.253 44.989,-44.992 l 0,-269.945 c 0,-24.738 -20.254,-44.992 -44.989,-44.992 l -406.258,0 L 8.50781,69.0898 l 0,101.8162 -0.0039,45.637 0,269.945 c 0,24.746 20.24609,44.992 44.99219,44.992" /><path
             id="path26"
             style="fill:none;stroke:#6452a0;stroke-width:17.00799942;stroke-linecap:round;stroke-linejoin:round;stroke-miterlimit:22.92560005;stroke-dasharray:none;stroke-opacity:1"
             d="m 53.4961,531.48 485.1599,0 c 24.746,0 44.989,-20.253 44.989,-44.992 l 0,-269.945 c 0,-24.738 -20.254,-44.992 -44.989,-44.992 l -406.258,0 L 8.50781,69.0898 l 0,101.8162 -0.0039,45.637 0,269.945 c 0,24.746 20.24609,44.992 44.99219,44.992 z" /><path
             id="path28"
             style="fill:#fbc31e;fill-opacity:1;fill-rule:evenodd;stroke:none"
             d="m 880.375,731.672 -485.156,0 c -24.746,0 -44.992,-20.254 -44.992,-44.988 l 0,-269.95 c 0,-24.734 20.253,-44.988 44.992,-44.988 l 406.258,0 123.886,-102.473 0,101.829 0.012,45.632 0,269.95 c 0,24.746 -20.254,44.988 -45,44.988" /><path
             id="path30"
             style="fill:none;stroke:#6452a0;stroke-width:17.00799942;stroke-linecap:round;stroke-linejoin:round;stroke-miterlimit:22.92560005;stroke-dasharray:none;stroke-opacity:1"
             d="m 880.375,731.672 -485.156,0 c -24.746,0 -44.992,-20.254 -44.992,-44.988 l 0,-269.95 c 0,-24.734 20.253,-44.988 44.992,-44.988 l 406.258,0 123.886,-102.473 0,101.829 0.012,45.632 0,269.95 c 0,24.746 -20.254,44.988 -45,44.988 z" /><path
             id="path32"
             style="fill:none;stroke:#6452a0;stroke-width:17.00799942;stroke-linecap:round;stroke-linejoin:round;stroke-miterlimit:22.92560005;stroke-dasharray:none;stroke-opacity:1"
             d="m 74.9922,459.488 180.9138,0" /><path
             id="path34"
             style="fill:none;stroke:#6452a0;stroke-width:17.00799942;stroke-linecap:round;stroke-linejoin:round;stroke-miterlimit:22.92560005;stroke-dasharray:none;stroke-opacity:1"
             d="m 74.9922,387.508 180.9138,0" /><path
             id="path36"
             style="fill:none;stroke:#6452a0;stroke-width:17.00799942;stroke-linecap:round;stroke-linejoin:round;stroke-miterlimit:22.92560005;stroke-dasharray:none;stroke-opacity:1"
             d="m 74.9922,315.523 216.3478,0" /><path
             id="path38"
             style="fill:none;stroke:#6452a0;stroke-width:17.00799942;stroke-linecap:round;stroke-linejoin:round;stroke-miterlimit:22.92560005;stroke-dasharray:none;stroke-opacity:1"
             d="m 323.992,315.523 97.918,0" /><path
             id="path40"
             style="fill:none;stroke:#6452a0;stroke-width:17.00799942;stroke-linecap:round;stroke-linejoin:round;stroke-miterlimit:22.92560005;stroke-dasharray:none;stroke-opacity:1"
             d="m 74.9922,243.543 85.7928,0" /><path
             id="path42"
             style="fill:none;stroke:#6452a0;stroke-width:17.00799942;stroke-linecap:round;stroke-linejoin:round;stroke-miterlimit:22.92560005;stroke-dasharray:none;stroke-opacity:1"
             d="m 194.359,244.031 163.825,0" /><path
             id="path44"
             style="fill:none;stroke:#6452a0;stroke-width:17.00799942;stroke-linecap:round;stroke-linejoin:round;stroke-miterlimit:22.92560005;stroke-dasharray:none;stroke-opacity:1"
             d="m 447.547,244.031 -57.094,0" /><path
             id="path46"
             style="fill:#ffffff;fill-opacity:1;fill-rule:evenodd;stroke:none"
             d="m 585.539,622.047 84.524,0 c 52.625,0 95.691,-43.055 95.691,-95.688 l 0,0 c 0,-52.625 -43.066,-95.687 -95.691,-95.687 l -84.524,0 c -52.637,0 -95.691,43.062 -95.691,95.687 l 0,0 c 0,52.633 43.054,95.688 95.691,95.688" /><path
             id="path48"
             style="fill:none;stroke:#6452a0;stroke-width:17.00799942;stroke-linecap:round;stroke-linejoin:round;stroke-miterlimit:22.92560005;stroke-dasharray:none;stroke-opacity:1"
             d="m 585.539,622.047 84.524,0 c 52.625,0 95.691,-43.055 95.691,-95.688 l 0,0 c 0,-52.625 -43.066,-95.687 -95.691,-95.687 l -84.524,0 c -52.637,0 -95.691,43.062 -95.691,95.687 l 0,0 c 0,52.633 43.054,95.688 95.691,95.688 z" /><path
             id="path50"
             style="fill:none;stroke:#6452a0;stroke-width:17.00799942;stroke-linecap:round;stroke-linejoin:round;stroke-miterlimit:22.92560005;stroke-dasharray:none;stroke-opacity:1"
             d="m 620.98,630.824 0,19.672" /><path
             id="path52"
             style="fill:#ffffff;fill-opacity:1;fill-rule:evenodd;stroke:none"
             d="m 572.199,530.984 c 10.547,0 19.16,8.61 19.16,19.157 0,10.55 -8.613,19.16 -19.16,19.16 -10.554,0 -19.16,-8.61 -19.16,-19.16 0,-10.547 8.606,-19.157 19.16,-19.157" /><path
             id="path54"
             style="fill:none;stroke:#6452a0;stroke-width:17.00799942;stroke-linecap:round;stroke-linejoin:round;stroke-miterlimit:22.92560005;stroke-dasharray:none;stroke-opacity:1"
             d="m 572.199,530.984 c 10.547,0 19.16,8.61 19.16,19.157 0,10.55 -8.613,19.16 -19.16,19.16 -10.554,0 -19.16,-8.61 -19.16,-19.16 0,-10.547 8.606,-19.157 19.16,-19.157 z" /><path
             id="path56"
             style="fill:#ffffff;fill-opacity:1;fill-rule:evenodd;stroke:none"
             d="m 683.598,530.984 c 10.547,0 19.148,8.61 19.148,19.157 0,10.55 -8.601,19.16 -19.148,19.16 -10.559,0 -19.16,-8.61 -19.16,-19.16 0,-10.547 8.601,-19.157 19.16,-19.157" /><path
             id="path58"
             style="fill:none;stroke:#6452a0;stroke-width:17.00799942;stroke-linecap:round;stroke-linejoin:round;stroke-miterlimit:22.92560005;stroke-dasharray:none;stroke-opacity:1"
             d="m 683.598,530.984 c 10.547,0 19.148,8.61 19.148,19.157 0,10.55 -8.601,19.16 -19.148,19.16 -10.559,0 -19.16,-8.61 -19.16,-19.16 0,-10.547 8.601,-19.157 19.16,-19.157 z" /><path
             id="path60"
             style="fill:none;stroke:#6452a0;stroke-width:17.00799942;stroke-linecap:round;stroke-linejoin:round;stroke-miterlimit:22.92560005;stroke-dasharray:none;stroke-opacity:1"
             d="m 703.137,494.301 c -23.875,-7.078 -49.16,-10.879 -75.34,-10.879 -26.172,0 -51.457,3.801 -75.332,10.879" /><path
             id="path62"
             style="fill:#ffffff;fill-opacity:1;fill-rule:evenodd;stroke:none"
             d="m 620.98,656.742 c 8.563,0 15.547,6.985 15.547,15.551 0,8.562 -6.984,15.547 -15.547,15.547 -8.566,0 -15.558,-6.985 -15.558,-15.547 0,-8.566 6.992,-15.551 15.558,-15.551" /><path
             id="path64"
             style="fill:none;stroke:#6452a0;stroke-width:17.00799942;stroke-linecap:round;stroke-linejoin:round;stroke-miterlimit:22.92560005;stroke-dasharray:none;stroke-opacity:1"
             d="m 620.98,656.742 c 8.563,0 15.547,6.985 15.547,15.551 0,8.562 -6.984,15.547 -15.547,15.547 -8.566,0 -15.558,-6.985 -15.558,-15.547 0,-8.566 6.992,-15.551 15.558,-15.551 z" /></g></g></g></g></svg>