<?xml version="1.0" encoding="UTF-8" standalone="no"?>
<svg
   xmlns:dc="http://purl.org/dc/elements/1.1/"
   xmlns:cc="http://creativecommons.org/ns#"
   xmlns:rdf="http://www.w3.org/1999/02/22-rdf-syntax-ns#"
   xmlns:svg="http://www.w3.org/2000/svg"
   xmlns="http://www.w3.org/2000/svg"
   viewBox="0 0 101.1875 102.0625"
   height="102.0625"
   width="101.1875"
   xml:space="preserve"
   version="1.1"
   id="svg2"><metadata
     id="metadata8"><rdf:RDF><cc:Work
         rdf:about=""><dc:format>image/svg+xml</dc:format><dc:type
           rdf:resource="http://purl.org/dc/dcmitype/StillImage" /></cc:Work></rdf:RDF></metadata><defs
     id="defs6" /><g
     transform="matrix(1.25,0,0,-1.25,0,102.0625)"
     id="g10"><g
       transform="scale(0.1,0.1)"
       id="g12"><path
         id="path14"
         style="fill:none;stroke:#4278c4;stroke-width:17.00799942;stroke-linecap:round;stroke-linejoin:round;stroke-miterlimit:22.92560005;stroke-dasharray:none;stroke-opacity:1"
         d="M 777.738,242.973 C 714.859,104.672 575.531,8.5 413.711,8.5 251.891,8.5 112.566,104.672 49.6836,242.973" /><path
         id="path16"
         style="fill:#ffffff;fill-opacity:1;fill-rule:evenodd;stroke:none"
         d="m 157.863,580.469 c 38.184,0 69.133,-30.946 69.133,-69.129 0,-25.457 -13.758,-47.692 -34.242,-59.688 65.391,-15.422 114.234,-73.699 115.25,-143.55 l -299.50009,0 C 9.51953,377.758 58.0859,435.898 123.199,451.516 102.59,463.48 88.7305,485.789 88.7305,511.34 c 0,38.183 30.9535,69.129 69.1325,69.129" /><path
         id="path18"
         style="fill:none;stroke:#6452a0;stroke-width:17.00799942;stroke-linecap:round;stroke-linejoin:round;stroke-miterlimit:22.92560005;stroke-dasharray:none;stroke-opacity:1"
         d="m 157.863,580.469 c 38.184,0 69.133,-30.946 69.133,-69.129 0,-25.457 -13.758,-47.692 -34.242,-59.688 65.391,-15.422 114.234,-73.699 115.25,-143.55 l -299.50009,0 C 9.51953,377.758 58.0859,435.898 123.199,451.516 102.59,463.48 88.7305,485.789 88.7305,511.34 c 0,38.183 30.9535,69.129 69.1325,69.129 z" /><path
         id="path20"
         style="fill:#6452a0;fill-opacity:1;fill-rule:evenodd;stroke:none"
         d="m 650.816,580.469 c 38.184,0 69.141,-30.946 69.141,-69.129 0,-25.457 -13.762,-47.692 -34.246,-59.688 65.391,-15.422 114.234,-73.699 115.254,-143.55 l -299.504,0 c 1.016,69.656 49.582,127.796 114.695,143.414 -20.613,11.964 -34.468,34.273 -34.468,59.824 0,38.183 30.957,69.129 69.128,69.129" /><path
         id="path22"
         style="fill:none;stroke:#6452a0;stroke-width:17.00799942;stroke-linecap:round;stroke-linejoin:round;stroke-miterlimit:22.92560005;stroke-dasharray:none;stroke-opacity:1"
         d="m 650.816,580.469 c 38.184,0 69.141,-30.946 69.141,-69.129 0,-25.457 -13.762,-47.692 -34.246,-59.688 65.391,-15.422 114.234,-73.699 115.254,-143.55 l -299.504,0 c 1.016,69.656 49.582,127.796 114.695,143.414 -20.613,11.964 -34.468,34.273 -34.468,59.824 0,38.183 30.957,69.129 69.128,69.129 z" /><path
         id="path24"
         style="fill:#fbc31e;fill-opacity:1;fill-rule:evenodd;stroke:none"
         d="m 404.195,533.316 c 52.414,0 94.895,-42.488 94.895,-94.894 0,-34.942 -18.891,-65.469 -47.004,-81.934 89.766,-21.16 156.809,-101.152 158.203,-197.05 l -411.113,0 c 1.39,95.625 68.058,175.429 157.437,196.867 -28.289,16.425 -47.308,47.047 -47.308,82.117 0,52.406 42.484,94.894 94.89,94.894" /><path
         id="path26"
         style="fill:none;stroke:#6452a0;stroke-width:17.00799942;stroke-linecap:round;stroke-linejoin:round;stroke-miterlimit:22.92560005;stroke-dasharray:none;stroke-opacity:1"
         d="m 404.195,533.316 c 52.414,0 94.895,-42.488 94.895,-94.894 0,-34.942 -18.891,-65.469 -47.004,-81.934 89.766,-21.16 156.809,-101.152 158.203,-197.05 l -411.113,0 c 1.39,95.625 68.058,175.429 157.437,196.867 -28.289,16.425 -47.308,47.047 -47.308,82.117 0,52.406 42.484,94.894 94.89,94.894 z" /><path
         id="path28"
         style="fill:none;stroke:#6452a0;stroke-width:17.00799942;stroke-linecap:round;stroke-linejoin:round;stroke-miterlimit:22.92560005;stroke-dasharray:none;stroke-opacity:1"
         d="M 346.527,663.059 405.023,604.563 526.559,726.09" /><path
         id="path30"
         style="fill:none;stroke:#4278c4;stroke-width:17.00799942;stroke-linecap:round;stroke-linejoin:round;stroke-miterlimit:22.92560005;stroke-dasharray:none;stroke-opacity:1"
         d="M 756.355,614.113 C 686.434,730.258 559.168,807.969 413.711,807.969 268.258,807.969 140.992,730.258 71.0664,614.113" /></g></g></svg>