<?xml version="1.0" encoding="UTF-8" standalone="no"?>
<svg
   xmlns:dc="http://purl.org/dc/elements/1.1/"
   xmlns:cc="http://creativecommons.org/ns#"
   xmlns:rdf="http://www.w3.org/1999/02/22-rdf-syntax-ns#"
   xmlns:svg="http://www.w3.org/2000/svg"
   xmlns="http://www.w3.org/2000/svg"
   viewBox="0 0 101.7875 101.7875"
   height="101.7875"
   width="101.7875"
   xml:space="preserve"
   version="1.1"
   id="svg2"><metadata
     id="metadata8"><rdf:RDF><cc:Work
         rdf:about=""><dc:format>image/svg+xml</dc:format><dc:type
           rdf:resource="http://purl.org/dc/dcmitype/StillImage" /></cc:Work></rdf:RDF></metadata><defs
     id="defs6" /><g
     transform="matrix(1.25,0,0,-1.25,0,101.7875)"
     id="g10"><g
       transform="scale(0.1,0.1)"
       id="g12"><path
         id="path14"
         style="fill:none;stroke:#4278c4;stroke-width:17.00799942;stroke-linecap:round;stroke-linejoin:round;stroke-miterlimit:22.92560005;stroke-dasharray:none;stroke-opacity:1"
         d="m 707.535,145.125 c 61.164,70.059 98.235,161.699 98.235,262.012 0,100.308 -37.071,191.949 -98.235,262.011 m -600.801,0 C 45.5742,599.086 8.50391,507.445 8.50391,407.137 8.50391,306.824 45.5742,215.184 106.734,145.125" /><path
         id="path16"
         style="fill:#fbc31e;fill-opacity:1;fill-rule:evenodd;stroke:none"
         d="m 543.18,354.734 -272.09,0 c -62.442,0 -113.535,-51.086 -113.535,-113.523 l 0,-119.172 C 157.555,59.5977 208.648,8.50391 271.09,8.50391 l 272.09,0 c 62.445,0 113.535,51.09379 113.535,113.53509 l 0,119.172 c 0,62.437 -51.09,113.523 -113.535,113.523" /><path
         id="path18"
         style="fill:none;stroke:#6452a0;stroke-width:17.00799942;stroke-linecap:round;stroke-linejoin:round;stroke-miterlimit:22.92560005;stroke-dasharray:none;stroke-opacity:1"
         d="m 543.18,354.734 -272.09,0 c -62.442,0 -113.535,-51.086 -113.535,-113.523 l 0,-119.172 C 157.555,59.5977 208.648,8.50391 271.09,8.50391 l 272.09,0 c 62.445,0 113.535,51.09379 113.535,113.53509 l 0,119.172 c 0,62.437 -51.09,113.523 -113.535,113.523 z" /><path
         id="path20"
         style="fill:none;stroke:#6452a0;stroke-width:17.00799942;stroke-linecap:round;stroke-linejoin:round;stroke-miterlimit:22.92560005;stroke-dasharray:none;stroke-opacity:1"
         d="m 407.137,354.734 0,35.594" /><path
         id="path22"
         style="fill:#ffffff;fill-opacity:1;fill-rule:evenodd;stroke:none"
         d="m 507.73,189.988 c 19.094,0 34.661,15.567 34.661,34.657 0,19.093 -15.567,34.66 -34.661,34.66 -19.089,0 -34.656,-15.567 -34.656,-34.66 0,-19.09 15.567,-34.657 34.656,-34.657" /><path
         id="path24"
         style="fill:none;stroke:#6452a0;stroke-width:17.00799942;stroke-linecap:round;stroke-linejoin:round;stroke-miterlimit:22.92560005;stroke-dasharray:none;stroke-opacity:1"
         d="m 507.73,189.988 c 19.094,0 34.661,15.567 34.661,34.657 0,19.093 -15.567,34.66 -34.661,34.66 -19.089,0 -34.656,-15.567 -34.656,-34.66 0,-19.09 15.567,-34.657 34.656,-34.657 z" /><path
         id="path26"
         style="fill:#ffffff;fill-opacity:1;fill-rule:evenodd;stroke:none"
         d="m 306.199,189.988 c 19.086,0 34.656,15.567 34.656,34.657 0,19.093 -15.57,34.66 -34.656,34.66 -19.094,0 -34.664,-15.567 -34.664,-34.66 0,-19.09 15.57,-34.657 34.664,-34.657" /><path
         id="path28"
         style="fill:none;stroke:#6452a0;stroke-width:17.00799942;stroke-linecap:round;stroke-linejoin:round;stroke-miterlimit:22.92560005;stroke-dasharray:none;stroke-opacity:1"
         d="m 306.199,189.988 c 19.086,0 34.656,15.567 34.656,34.657 0,19.093 -15.57,34.66 -34.656,34.66 -19.094,0 -34.664,-15.567 -34.664,-34.66 0,-19.09 15.57,-34.657 34.664,-34.657 z" /><path
         id="path30"
         style="fill:none;stroke:#6452a0;stroke-width:17.00799942;stroke-linecap:round;stroke-linejoin:round;stroke-miterlimit:22.92560005;stroke-dasharray:none;stroke-opacity:1"
         d="m 270.836,123.609 c 43.199,-12.793 88.945,-19.675 136.301,-19.675 47.351,0 93.093,6.882 136.297,19.687" /><path
         id="path32"
         style="fill:#ffffff;fill-opacity:1;fill-rule:evenodd;stroke:none"
         d="m 407.137,389.578 c 15.496,0 28.133,12.637 28.133,28.129 0,15.492 -12.637,28.133 -28.133,28.133 -15.492,0 -28.129,-12.641 -28.129,-28.133 0,-15.492 12.637,-28.129 28.129,-28.129" /><path
         id="path34"
         style="fill:none;stroke:#6452a0;stroke-width:17.00799942;stroke-linecap:round;stroke-linejoin:round;stroke-miterlimit:22.92560005;stroke-dasharray:none;stroke-opacity:1"
         d="m 407.137,389.578 c 15.496,0 28.133,12.637 28.133,28.129 0,15.492 -12.637,28.133 -28.133,28.133 -15.492,0 -28.129,-12.641 -28.129,-28.133 0,-15.492 12.637,-28.129 28.129,-28.129 z" /><path
         id="path36"
         style="fill:#6452a0;fill-opacity:1;fill-rule:evenodd;stroke:none"
         d="m 215.828,805.77 382.617,0 c 28.477,0 51.766,-23.309 51.766,-51.766 l 0,-155.301 c 0,-28.457 -23.309,-51.742 -51.766,-51.765 l -126.711,-0.137 -64.597,-60.36 -64.391,60.497 -126.918,0 c -28.453,0 -51.769,23.289 -51.769,51.765 l 0,155.301 c 0,28.469 23.293,51.766 51.769,51.766" /><path
         id="path38"
         style="fill:none;stroke:#6452a0;stroke-width:17.00799942;stroke-linecap:round;stroke-linejoin:round;stroke-miterlimit:22.92560005;stroke-dasharray:none;stroke-opacity:1"
         d="m 215.828,805.77 382.617,0 c 28.477,0 51.766,-23.309 51.766,-51.766 l 0,-155.301 c 0,-28.457 -23.309,-51.742 -51.766,-51.765 l -126.711,-0.137 -64.597,-60.36 -64.391,60.497 -126.918,0 c -28.453,0 -51.769,23.289 -51.769,51.765 l 0,155.301 c 0,28.469 23.293,51.766 51.769,51.766 z" /><path
         id="path40"
         style="fill:none;stroke:#ffffff;stroke-width:17.00799942;stroke-linecap:round;stroke-linejoin:round;stroke-miterlimit:22.92560005;stroke-dasharray:none;stroke-opacity:1"
         d="m 530.055,741.23 40.371,0" /><path
         id="path42"
         style="fill:none;stroke:#ffffff;stroke-width:17.00799942;stroke-linecap:round;stroke-linejoin:round;stroke-miterlimit:22.92560005;stroke-dasharray:none;stroke-opacity:1"
         d="m 372.273,676.164 36.329,0" /><path
         id="path44"
         style="fill:none;stroke:#ffffff;stroke-width:17.00799942;stroke-linecap:round;stroke-linejoin:round;stroke-miterlimit:22.92560005;stroke-dasharray:none;stroke-opacity:1"
         d="m 243.844,611.105 326.582,0" /><path
         id="path46"
         style="fill:none;stroke:#ffffff;stroke-width:17.00799942;stroke-linecap:round;stroke-linejoin:round;stroke-miterlimit:22.92560005;stroke-dasharray:none;stroke-opacity:1"
         d="m 243.852,676.172 83.656,0" /><path
         id="path48"
         style="fill:none;stroke:#ffffff;stroke-width:17.00799942;stroke-linecap:round;stroke-linejoin:round;stroke-miterlimit:22.92560005;stroke-dasharray:none;stroke-opacity:1"
         d="m 448.961,676.172 121.465,0" /><path
         id="path50"
         style="fill:none;stroke:#ffffff;stroke-width:17.00799942;stroke-linecap:round;stroke-linejoin:round;stroke-miterlimit:22.92560005;stroke-dasharray:none;stroke-opacity:1"
         d="m 243.852,741.23 250.98,0" /></g></g></svg>