<?xml version="1.0" encoding="UTF-8" standalone="no"?>
<svg
   xmlns:dc="http://purl.org/dc/elements/1.1/"
   xmlns:cc="http://creativecommons.org/ns#"
   xmlns:rdf="http://www.w3.org/1999/02/22-rdf-syntax-ns#"
   xmlns:svg="http://www.w3.org/2000/svg"
   xmlns="http://www.w3.org/2000/svg"
   viewBox="0 0 101.7875 100.675"
   height="100.675"
   width="101.7875"
   xml:space="preserve"
   version="1.1"
   id="svg2"><metadata
     id="metadata8"><rdf:RDF><cc:Work
         rdf:about=""><dc:format>image/svg+xml</dc:format><dc:type
           rdf:resource="http://purl.org/dc/dcmitype/StillImage" /></cc:Work></rdf:RDF></metadata><defs
     id="defs6" /><g
     transform="matrix(1.25,0,0,-1.25,0,100.675)"
     id="g10"><g
       transform="scale(0.1,0.1)"
       id="g12"><path
         id="path14"
         style="fill:none;stroke:#4278c4;stroke-width:17.00799942;stroke-linecap:round;stroke-linejoin:round;stroke-miterlimit:22.92560005;stroke-dasharray:none;stroke-opacity:1"
         d="M 754.012,603.672 C 698.766,700.957 603.785,772.699 491.148,796.867 M 707.957,145.578 c 60.918,70.012 97.813,161.477 97.813,261.559 0,9.261 -0.344,18.449 -0.969,27.558 M 261.219,36.0586 C 306.41,18.2734 355.633,8.5 407.137,8.5 c 51.504,0 100.722,9.7734 145.918,27.5586 M 9.46875,434.699 C 8.84375,425.59 8.50391,416.406 8.50391,407.137 8.50391,307.023 45.4219,215.531 106.371,145.52 M 323.234,796.895 C 210.539,772.746 115.512,700.988 60.2617,603.668" /><path
         id="path16"
         style="fill:#fbc31e;fill-opacity:1;fill-rule:evenodd;stroke:none"
         d="m 446.734,763.137 c 31.621,-47.344 63.243,-94.688 94.864,-142.032 9.629,-13.933 18.625,-19.738 33.273,-24.789 55.496,-15.644 111.004,-31.289 166.512,-46.929 24.355,-5.864 47.57,-40.891 23.965,-74.824 L 659.441,340.266 c -8.816,-11.59 -13.007,-20.203 -13.378,-39.551 2.265,-57.305 4.531,-114.598 6.785,-171.902 0.937,-34.2192 -28.192,-56.856 -63.739,-46.7192 L 427.496,141.742 c -16.992,5.137 -26.156,4.348 -41.281,-0.207 C 332.461,121.691 278.699,101.859 224.945,82.0156 189.242,70.9023 160.656,96.6523 161.434,128.961 l 6.757,171.219 c 0.004,18.386 -4.996,29.578 -12.777,39.367 -35.469,44.976 -70.9452,89.961 -106.4179,134.937 -16.707,22.594 -14.9453,59.903 24.1602,74.977 l 166.1447,46.828 c 17.605,6.117 23.679,12.07 33.172,24.512 31.625,47.344 63.254,94.695 94.879,142.051 19.078,28.39 61.453,28.937 79.382,0.285" /><path
         id="path18"
         style="fill:none;stroke:#6452a0;stroke-width:17.00799942;stroke-linecap:round;stroke-linejoin:round;stroke-miterlimit:22.92560005;stroke-dasharray:none;stroke-opacity:1"
         d="m 446.734,763.137 c 31.621,-47.344 63.243,-94.688 94.864,-142.032 9.629,-13.933 18.625,-19.738 33.273,-24.789 55.496,-15.644 111.004,-31.289 166.512,-46.929 24.355,-5.864 47.57,-40.891 23.965,-74.824 L 659.441,340.266 c -8.816,-11.59 -13.007,-20.203 -13.378,-39.551 2.265,-57.305 4.531,-114.598 6.785,-171.902 0.937,-34.2192 -28.192,-56.856 -63.739,-46.7192 L 427.496,141.742 c -16.992,5.137 -26.156,4.348 -41.281,-0.207 C 332.461,121.691 278.699,101.859 224.945,82.0156 189.242,70.9023 160.656,96.6523 161.434,128.961 l 6.757,171.219 c 0.004,18.386 -4.996,29.578 -12.777,39.367 -35.469,44.976 -70.9452,89.961 -106.4179,134.937 -16.707,22.594 -14.9453,59.903 24.1602,74.977 l 166.1447,46.828 c 17.605,6.117 23.679,12.07 33.172,24.512 31.625,47.344 63.254,94.695 94.879,142.051 19.078,28.39 61.453,28.937 79.382,0.285 z" /><path
         id="path20"
         style="fill:#6452a0;fill-opacity:1;fill-rule:evenodd;stroke:none"
         d="m 428.629,596.41 c 17.187,-25.722 34.367,-51.449 51.543,-77.172 5.234,-7.574 10.129,-10.73 18.078,-13.472 30.168,-8.496 60.32,-16.996 90.477,-25.5 13.234,-3.188 25.851,-22.219 13.019,-40.657 l -57.539,-72.964 c -4.797,-6.309 -7.07,-10.989 -7.266,-21.497 1.231,-31.132 2.45,-62.265 3.684,-93.406 0.504,-18.594 -15.316,-30.89 -34.633,-25.383 l -87.812,32.414 c -9.239,2.782 -14.219,2.356 -22.434,-0.117 -29.211,-10.781 -58.418,-21.562 -87.629,-32.343 -19.398,-6.036 -34.929,7.957 -34.512,25.507 l 3.676,93.035 c 0,9.993 -2.715,16.075 -6.941,21.387 -19.277,24.446 -38.551,48.883 -57.824,73.328 -9.082,12.274 -8.118,32.547 13.125,40.735 l 90.281,25.445 c 9.562,3.324 12.863,6.559 18.019,13.316 17.184,25.727 34.372,51.461 51.559,77.188 10.363,15.43 33.383,15.726 43.129,0.156" /><path
         id="path22"
         style="fill:#ffffff;fill-opacity:1;fill-rule:evenodd;stroke:none"
         d="m 417.762,499.813 c 8.515,-12.75 17.031,-25.493 25.547,-38.243 2.586,-3.754 5.007,-5.316 8.953,-6.675 14.953,-4.211 29.894,-8.422 44.843,-12.637 6.555,-1.574 12.805,-11.008 6.446,-20.145 l -28.516,-36.164 c -2.371,-3.125 -3.504,-5.437 -3.601,-10.644 0.613,-15.426 1.218,-30.86 1.824,-46.289 0.254,-9.215 -7.586,-15.313 -17.156,-12.586 l -43.516,16.062 c -4.574,1.391 -7.047,1.176 -11.117,-0.047 -14.473,-5.351 -28.953,-10.691 -43.426,-16.035 -9.613,-2.988 -17.309,3.945 -17.102,12.645 l 1.821,46.105 c 0.004,4.949 -1.344,7.957 -3.442,10.598 -9.55,12.105 -19.101,24.222 -28.652,36.336 -4.5,6.078 -4.023,16.121 6.504,20.183 l 44.738,12.61 c 4.742,1.648 6.375,3.25 8.934,6.601 8.515,12.75 17.031,25.496 25.547,38.246 5.136,7.649 16.547,7.793 21.371,0.079" /></g></g></svg>