<?xml version="1.0" encoding="UTF-8" standalone="no"?>
<svg
   xmlns:dc="http://purl.org/dc/elements/1.1/"
   xmlns:cc="http://creativecommons.org/ns#"
   xmlns:rdf="http://www.w3.org/1999/02/22-rdf-syntax-ns#"
   xmlns:svg="http://www.w3.org/2000/svg"
   xmlns="http://www.w3.org/2000/svg"
   viewBox="0 0 113.6625 101.7875"
   height="101.7875"
   width="113.6625"
   xml:space="preserve"
   version="1.1"
   id="svg2"><metadata
     id="metadata8"><rdf:RDF><cc:Work
         rdf:about=""><dc:format>image/svg+xml</dc:format><dc:type
           rdf:resource="http://purl.org/dc/dcmitype/StillImage" /></cc:Work></rdf:RDF></metadata><defs
     id="defs6" /><g
     transform="matrix(1.25,0,0,-1.25,0,101.7875)"
     id="g10"><g
       transform="scale(0.1,0.1)"
       id="g12"><path
         id="path14"
         style="fill:none;stroke:#4278c4;stroke-width:17.00799942;stroke-linecap:round;stroke-linejoin:round;stroke-miterlimit:22.92560005;stroke-dasharray:none;stroke-opacity:1"
         d="M 655.113,752.191 C 596.395,786.258 528.172,805.77 455.395,805.77 260.402,805.77 98.1523,665.75 63.5977,480.785 M 286.805,45.8398 C 338.012,21.8945 395.137,8.50391 455.395,8.50391 623.73,8.50391 767.664,112.867 826.102,260.406" /><path
         id="path16"
         style="fill:#fbc31e;fill-opacity:1;fill-rule:evenodd;stroke:none"
         d="m 860.848,695.379 -366.2,0 c -21.996,0 -39.984,-18.012 -39.984,-39.984 l 0,-239.899 c 0,-21.973 18.012,-39.98 39.984,-39.98 l 296.075,0 110.105,-91.067 0,370.946 c 0,21.992 -17.988,39.984 -39.98,39.984" /><path
         id="path18"
         style="fill:none;stroke:#6452a0;stroke-width:17.00799942;stroke-linecap:round;stroke-linejoin:round;stroke-miterlimit:22.92560005;stroke-dasharray:none;stroke-opacity:1"
         d="m 860.848,695.379 -366.2,0 c -21.996,0 -39.984,-18.012 -39.984,-39.984 l 0,-239.899 c 0,-21.973 18.012,-39.98 39.984,-39.98 l 296.075,0 110.105,-91.067 0,370.946 c 0,21.992 -17.988,39.984 -39.98,39.984 z" /><path
         id="path20"
         style="fill:none;stroke:#6452a0;stroke-width:17.00799942;stroke-linecap:round;stroke-linejoin:round;stroke-miterlimit:22.92560005;stroke-dasharray:none;stroke-opacity:1"
         d="m 842.918,567.43 -226.824,0" /><path
         id="path22"
         style="fill:none;stroke:#6452a0;stroke-width:17.00799942;stroke-linecap:round;stroke-linejoin:round;stroke-miterlimit:22.92560005;stroke-dasharray:none;stroke-opacity:1"
         d="m 842.918,504.734 -121.223,0" /><path
         id="path24"
         style="fill:none;stroke:#6452a0;stroke-width:17.00799942;stroke-linecap:round;stroke-linejoin:round;stroke-miterlimit:22.92560005;stroke-dasharray:none;stroke-opacity:1"
         d="m 673.172,503.461 -57.078,0" /><path
         id="path26"
         style="fill:none;stroke:#6452a0;stroke-width:17.00799942;stroke-linecap:round;stroke-linejoin:round;stroke-miterlimit:22.92560005;stroke-dasharray:none;stroke-opacity:1"
         d="m 842.918,439.484 -85.52,0" /><path
         id="path28"
         style="fill:none;stroke:#6452a0;stroke-width:17.00799942;stroke-linecap:round;stroke-linejoin:round;stroke-miterlimit:22.92560005;stroke-dasharray:none;stroke-opacity:1"
         d="m 709.41,439.922 -93.316,0" /><path
         id="path30"
         style="fill:none;stroke:#6452a0;stroke-width:17.00799942;stroke-linecap:round;stroke-linejoin:round;stroke-miterlimit:22.92560005;stroke-dasharray:none;stroke-opacity:1"
         d="m 529.18,632.863 313.738,0" /><path
         id="path32"
         style="fill:#fbc31e;fill-opacity:1;fill-rule:evenodd;stroke:none"
         d="m 48.4844,419.426 366.2036,0 c 21.984,0 39.976,-18 39.976,-39.985 l 0,-239.89 c 0,-21.985 -18.008,-39.9846 -39.976,-39.9846 l -296.083,0 L 8.50781,8.50391 l 0,90.48829 -0.0039,40.5588 0,239.89 c 0,21.993 17.99219,39.985 39.98049,39.985" /><path
         id="path34"
         style="fill:none;stroke:#6452a0;stroke-width:17.00799942;stroke-linecap:round;stroke-linejoin:round;stroke-miterlimit:22.92560005;stroke-dasharray:none;stroke-opacity:1"
         d="m 48.4844,419.426 366.2036,0 c 21.984,0 39.976,-18 39.976,-39.985 l 0,-239.89 c 0,-21.985 -18.008,-39.9846 -39.976,-39.9846 l -296.083,0 L 8.50781,8.50391 l 0,90.48829 -0.0039,40.5588 0,239.89 c 0,21.993 17.99219,39.985 39.98049,39.985 z" /><path
         id="path36"
         style="fill:none;stroke:#6452a0;stroke-width:17.00799942;stroke-linecap:round;stroke-linejoin:round;stroke-miterlimit:22.92560005;stroke-dasharray:none;stroke-opacity:1"
         d="m 66.418,355.457 211.164,0" /><path
         id="path38"
         style="fill:none;stroke:#6452a0;stroke-width:17.00799942;stroke-linecap:round;stroke-linejoin:round;stroke-miterlimit:22.92560005;stroke-dasharray:none;stroke-opacity:1"
         d="m 66.4102,291.48 211.1718,0" /><path
         id="path40"
         style="fill:none;stroke:#6452a0;stroke-width:17.00799942;stroke-linecap:round;stroke-linejoin:round;stroke-miterlimit:22.92560005;stroke-dasharray:none;stroke-opacity:1"
         d="m 66.4102,227.508 147.5978,0" /><path
         id="path42"
         style="fill:none;stroke:#6452a0;stroke-width:17.00799942;stroke-linecap:round;stroke-linejoin:round;stroke-miterlimit:22.92560005;stroke-dasharray:none;stroke-opacity:1"
         d="m 250.578,227.508 109.801,0" /><path
         id="path44"
         style="fill:none;stroke:#6452a0;stroke-width:17.00799942;stroke-linecap:round;stroke-linejoin:round;stroke-miterlimit:22.92560005;stroke-dasharray:none;stroke-opacity:1"
         d="m 66.4141,163.543 39.1249,0" /><path
         id="path46"
         style="fill:none;stroke:#6452a0;stroke-width:17.00799942;stroke-linecap:round;stroke-linejoin:round;stroke-miterlimit:22.92560005;stroke-dasharray:none;stroke-opacity:1"
         d="m 144.418,163.973 127.504,0" /><path
         id="path48"
         style="fill:none;stroke:#6452a0;stroke-width:17.00799942;stroke-linecap:round;stroke-linejoin:round;stroke-miterlimit:22.92560005;stroke-dasharray:none;stroke-opacity:1"
         d="m 360.379,163.973 -50.738,0" /><path
         id="path50"
         style="fill:#6452a0;fill-opacity:1;fill-rule:evenodd;stroke:none"
         d="m 387.863,452.102 135.067,0 c 18.054,0 32.832,-14.774 32.832,-32.832 l 0,-87.512 c 0,-18.059 -14.778,-32.832 -32.832,-32.832 l -135.067,0 c -18.054,0 -32.832,14.773 -32.832,32.832 l 0,87.512 c 0,18.058 14.778,32.832 32.832,32.832" /><path
         id="path52"
         style="fill:none;stroke:#6452a0;stroke-width:17.00799942;stroke-linecap:round;stroke-linejoin:round;stroke-miterlimit:22.92560005;stroke-dasharray:none;stroke-opacity:1"
         d="m 387.863,452.102 135.067,0 c 18.054,0 32.832,-14.774 32.832,-32.832 l 0,-87.512 c 0,-18.059 -14.778,-32.832 -32.832,-32.832 l -135.067,0 c -18.054,0 -32.832,14.773 -32.832,32.832 l 0,87.512 c 0,18.058 14.778,32.832 32.832,32.832 z" /><path
         id="path54"
         style="fill:#ffffff;fill-opacity:1;fill-rule:evenodd;stroke:none"
         d="m 405.219,452.102 100.355,0 0,50.179 c 0,27.606 -22.578,50.184 -50.179,50.184 l 0,0 c -27.598,0 -50.176,-22.578 -50.176,-50.184 l 0,-50.179" /><path
         id="path56"
         style="fill:none;stroke:#6452a0;stroke-width:17.00799942;stroke-linecap:round;stroke-linejoin:round;stroke-miterlimit:22.92560005;stroke-dasharray:none;stroke-opacity:1"
         d="m 405.219,452.102 100.355,0 0,50.179 c 0,27.606 -22.578,50.184 -50.179,50.184 l 0,0 c -27.598,0 -50.176,-22.578 -50.176,-50.184 l 0,-50.179 z" /><path
         id="path58"
         style="fill:#ffffff;fill-opacity:1;fill-rule:evenodd;stroke:none"
         d="m 455.395,413.582 c 5.906,0 11.261,-2.398 15.128,-6.266 3.872,-3.867 6.262,-9.218 6.262,-15.121 0,-5.91 -2.39,-11.257 -6.262,-15.129 -0.144,-0.144 -0.3,-0.281 -0.457,-0.41 -1.211,-1.148 -2.558,-2.156 -4.003,-2.996 l 10.285,-27.324 c 1.277,-3.391 -0.434,-7.18 -3.821,-8.457 -0.761,-0.281 -1.543,-0.418 -2.312,-0.418 l 0,-0.012 -29.637,0 c -3.629,0 -6.57,2.942 -6.57,6.571 0,0.976 0.211,1.906 0.594,2.738 l 10.125,26.89 c -1.633,0.942 -3.133,2.09 -4.454,3.418 -3.875,3.872 -6.269,9.219 -6.269,15.129 0,5.903 2.394,11.254 6.269,15.121 3.868,3.868 9.215,6.266 15.122,6.266" /></g></g></svg>