<?xml version="1.0" encoding="UTF-8" standalone="no"?>
<svg
   xmlns:dc="http://purl.org/dc/elements/1.1/"
   xmlns:cc="http://creativecommons.org/ns#"
   xmlns:rdf="http://www.w3.org/1999/02/22-rdf-syntax-ns#"
   xmlns:svg="http://www.w3.org/2000/svg"
   xmlns="http://www.w3.org/2000/svg"
   viewBox="0 0 100.7125 101.4"
   height="101.4"
   width="100.7125"
   xml:space="preserve"
   version="1.1"
   id="svg2"><metadata
     id="metadata8"><rdf:RDF><cc:Work
         rdf:about=""><dc:format>image/svg+xml</dc:format><dc:type
           rdf:resource="http://purl.org/dc/dcmitype/StillImage" /></cc:Work></rdf:RDF></metadata><defs
     id="defs6"><clipPath
       id="clipPath18"
       clipPathUnits="userSpaceOnUse"><path
         id="path20"
         d="m 0,0 805.684,0 0,811 L 0,811 0,0 Z" /></clipPath></defs><g
     transform="matrix(1.25,0,0,-1.25,0,101.4)"
     id="g10"><g
       transform="scale(0.1,0.1)"
       id="g12"><g
         id="g14"><g
           clip-path="url(#clipPath18)"
           id="g16"><path
             id="path22"
             style="fill:none;stroke:#4278c4;stroke-width:17.00799942;stroke-linecap:round;stroke-linejoin:round;stroke-miterlimit:22.92560005;stroke-dasharray:none;stroke-opacity:1"
             d="M 785.645,299.695 C 739.289,131.805 585.469,8.50391 402.844,8.50391 220.211,8.50391 66.3984,131.805 20.0391,299.695 m 89.8789,374.02 c 72.602,79.281 176.949,129.008 292.926,129.008 115.976,0 220.32,-49.727 292.929,-129.008" /><path
             id="path24"
             style="fill:#6452a0;fill-opacity:1;fill-rule:evenodd;stroke:none"
             d="m 150.773,619.949 c 36.372,0 65.856,-29.48 65.856,-65.847 0,-24.247 -13.109,-45.422 -32.621,-56.86 62.289,-14.687 108.808,-70.195 109.781,-136.738 l -285.289,0 c 0.96875,66.359 47.2344,121.738 109.258,136.613 -19.633,11.395 -32.8361,32.645 -32.8361,56.985 0,36.367 29.4841,65.847 65.8511,65.847" /><path
             id="path26"
             style="fill:none;stroke:#6452a0;stroke-width:17.00799942;stroke-linecap:round;stroke-linejoin:round;stroke-miterlimit:22.92560005;stroke-dasharray:none;stroke-opacity:1"
             d="m 150.773,619.949 c 36.372,0 65.856,-29.48 65.856,-65.847 0,-24.247 -13.109,-45.422 -32.621,-56.86 62.289,-14.687 108.808,-70.195 109.781,-136.738 l -285.289,0 c 0.96875,66.359 47.2344,121.738 109.258,136.613 -19.633,11.395 -32.8361,32.645 -32.8361,56.985 0,36.367 29.4841,65.847 65.8511,65.847 z" /><path
             id="path28"
             style="fill:#6452a0;fill-opacity:1;fill-rule:evenodd;stroke:none"
             d="m 654.16,619.949 c 36.379,0 65.86,-29.48 65.86,-65.847 0,-24.247 -13.114,-45.422 -32.618,-56.86 62.286,-14.687 108.809,-70.195 109.778,-136.738 l -285.285,0 c 0.968,66.359 47.226,121.738 109.257,136.613 -19.636,11.395 -32.839,32.645 -32.839,56.985 0,36.367 29.48,65.847 65.847,65.847" /><path
             id="path30"
             style="fill:none;stroke:#6452a0;stroke-width:17.00799942;stroke-linecap:round;stroke-linejoin:round;stroke-miterlimit:22.92560005;stroke-dasharray:none;stroke-opacity:1"
             d="m 654.16,619.949 c 36.379,0 65.86,-29.48 65.86,-65.847 0,-24.247 -13.114,-45.422 -32.618,-56.86 62.286,-14.687 108.809,-70.195 109.778,-136.738 l -285.285,0 c 0.968,66.359 47.226,121.738 109.257,136.613 -19.636,11.395 -32.839,32.645 -32.839,56.985 0,36.367 29.48,65.847 65.847,65.847 z" /><path
             id="path32"
             style="fill:#fbc31e;fill-opacity:1;fill-rule:evenodd;stroke:none"
             d="m 402.238,674.539 c 58.867,0 106.59,-47.726 106.59,-106.59 0,-39.246 -21.211,-73.527 -52.793,-92.027 C 556.855,452.148 632.16,362.301 633.73,254.598 l -461.769,0 c 1.566,107.402 76.437,197.035 176.836,221.117 -31.774,18.445 -53.141,52.84 -53.141,92.234 0,58.864 47.719,106.59 106.582,106.59" /><path
             id="path34"
             style="fill:none;stroke:#6452a0;stroke-width:17.00799942;stroke-linecap:round;stroke-linejoin:round;stroke-miterlimit:22.92560005;stroke-dasharray:none;stroke-opacity:1"
             d="m 402.238,674.539 c 58.867,0 106.59,-47.726 106.59,-106.59 0,-39.246 -21.211,-73.527 -52.793,-92.027 C 556.855,452.148 632.16,362.301 633.73,254.598 l -461.769,0 c 1.566,107.402 76.437,197.035 176.836,221.117 -31.774,18.445 -53.141,52.84 -53.141,92.234 0,58.864 47.719,106.59 106.582,106.59 z" /><path
             id="path36"
             style="fill:#ffffff;fill-opacity:1;fill-rule:evenodd;stroke:none"
             d="m 402.844,113.406 c 69.871,0 126.855,56.981 126.855,126.856 0,69.863 -56.984,126.843 -126.855,126.843 -69.871,0 -126.856,-56.98 -126.856,-126.843 0,-69.875 56.985,-126.856 126.856,-126.856" /><path
             id="path38"
             style="fill:none;stroke:#6452a0;stroke-width:17.00799942;stroke-linecap:round;stroke-linejoin:round;stroke-miterlimit:22.92560005;stroke-dasharray:none;stroke-opacity:1"
             d="m 402.844,113.406 c 69.871,0 126.855,56.981 126.855,126.856 0,69.863 -56.984,126.843 -126.855,126.843 -69.871,0 -126.856,-56.98 -126.856,-126.843 0,-69.875 56.985,-126.856 126.856,-126.856 z" /><path
             id="path40"
             style="fill:none;stroke:#6452a0;stroke-width:17.00799942;stroke-linecap:round;stroke-linejoin:round;stroke-miterlimit:22.92560005;stroke-dasharray:none;stroke-opacity:1"
             d="m 376.125,179.285 53.438,0" /><path
             id="path42"
             style="fill:none;stroke:#6452a0;stroke-width:17.00799942;stroke-linecap:round;stroke-linejoin:round;stroke-miterlimit:22.92560005;stroke-dasharray:none;stroke-opacity:1"
             d="m 402.844,263.777 0,-84.492" /><path
             id="path44"
             style="fill:none;stroke:#6452a0;stroke-width:17.00799942;stroke-linecap:round;stroke-linejoin:round;stroke-miterlimit:22.92560005;stroke-dasharray:none;stroke-opacity:1"
             d="m 376.125,263.766 26.719,0" /><path
             id="path46"
             style="fill:#6452a0;fill-opacity:1;fill-rule:evenodd;stroke:none"
             d="m 402.395,282.926 c 6.503,0 11.804,5.304 11.804,11.808 0,6.504 -5.301,11.805 -11.804,11.805 -6.504,0 -11.813,-5.301 -11.813,-11.805 0,-6.504 5.309,-11.808 11.813,-11.808" /></g></g></g></g></svg>