<?xml version="1.0" encoding="UTF-8" standalone="no"?>
<svg
   xmlns:dc="http://purl.org/dc/elements/1.1/"
   xmlns:cc="http://creativecommons.org/ns#"
   xmlns:rdf="http://www.w3.org/1999/02/22-rdf-syntax-ns#"
   xmlns:svg="http://www.w3.org/2000/svg"
   xmlns="http://www.w3.org/2000/svg"
   viewBox="0 0 110.4125 101.7875"
   height="101.7875"
   width="110.4125"
   xml:space="preserve"
   version="1.1"
   id="svg2"><metadata
     id="metadata8"><rdf:RDF><cc:Work
         rdf:about=""><dc:format>image/svg+xml</dc:format><dc:type
           rdf:resource="http://purl.org/dc/dcmitype/StillImage" /></cc:Work></rdf:RDF></metadata><defs
     id="defs6" /><g
     transform="matrix(1.25,0,0,-1.25,0,101.7875)"
     id="g10"><g
       transform="scale(0.1,0.1)"
       id="g12"><path
         id="path14"
         style="fill:none;stroke:#4278c4;stroke-width:17.00799942;stroke-linecap:round;stroke-linejoin:round;stroke-miterlimit:22.92560005;stroke-dasharray:none;stroke-opacity:1"
         d="M 256.266,54.168 C 311.645,25.0273 374.711,8.50391 441.641,8.50391 564.57,8.50391 674.492,64.168 747.617,151.641 M 737.234,674.574 C 664.297,755.148 558.887,805.77 441.641,805.77 324.395,805.77 218.98,755.148 146.039,674.574" /><path
         id="path16"
         style="fill:#fbc31e;fill-opacity:1;fill-rule:evenodd;stroke:none"
         d="m 62.2695,628.184 758.7345,0 c 29.582,0 53.769,-24.196 53.769,-53.774 l 0,-322.605 c 0,-29.571 -24.187,-53.77 -53.769,-53.77 l -479.711,0 -195.387,-184.1014 0,184.1014 -83.6365,0 c -29.5742,0 -53.76559,24.192 -53.76559,53.77 l 0,322.605 c 0,29.578 24.19139,53.774 53.76559,53.774" /><path
         id="path18"
         style="fill:none;stroke:#6452a0;stroke-width:17.00799942;stroke-linecap:round;stroke-linejoin:round;stroke-miterlimit:22.92560005;stroke-dasharray:none;stroke-opacity:1"
         d="m 62.2695,628.184 758.7345,0 c 29.582,0 53.769,-24.196 53.769,-53.774 l 0,-322.605 c 0,-29.571 -24.187,-53.77 -53.769,-53.77 l -479.711,0 -195.387,-184.1014 0,184.1014 -83.6365,0 c -29.5742,0 -53.76559,24.192 -53.76559,53.77 l 0,322.605 c 0,29.578 24.19139,53.774 53.76559,53.774 z" /><path
         id="path20"
         style="fill:none;stroke:#6452a0;stroke-width:17.00799942;stroke-linecap:round;stroke-linejoin:round;stroke-miterlimit:22.92560005;stroke-dasharray:none;stroke-opacity:1"
         d="m 408.227,513.402 0,-195.242 109.351,0" /><path
         id="path22"
         style="fill:none;stroke:#6452a0;stroke-width:17.00799942;stroke-linecap:round;stroke-linejoin:round;stroke-miterlimit:22.92560005;stroke-dasharray:none;stroke-opacity:1"
         d="m 82.0898,513.402 0,-195.242" /><path
         id="path24"
         style="fill:none;stroke:#6452a0;stroke-width:17.00799942;stroke-linecap:round;stroke-linejoin:round;stroke-miterlimit:22.92560005;stroke-dasharray:none;stroke-opacity:1"
         d="m 201.23,513.402 0,-195.242" /><path
         id="path26"
         style="fill:none;stroke:#6452a0;stroke-width:17.00799942;stroke-linecap:round;stroke-linejoin:round;stroke-miterlimit:22.92560005;stroke-dasharray:none;stroke-opacity:1"
         d="m 82.0898,415.777 119.1402,0" /><path
         id="path28"
         style="fill:none;stroke:#6452a0;stroke-width:17.00799942;stroke-linecap:round;stroke-linejoin:round;stroke-miterlimit:22.92560005;stroke-dasharray:none;stroke-opacity:1"
         d="m 362.617,318.16 -119.14,0 0,195.242 119.14,0" /><path
         id="path30"
         style="fill:none;stroke:#6452a0;stroke-width:17.00799942;stroke-linecap:round;stroke-linejoin:round;stroke-miterlimit:22.92560005;stroke-dasharray:none;stroke-opacity:1"
         d="m 243.477,415.777 78.203,0" /><path
         id="path32"
         style="fill:#fbc31e;fill-opacity:1;fill-rule:evenodd;stroke:none"
         d="m 741.621,513.402 0,0 c 32.762,0 59.57,-26.808 59.57,-59.57 l 0,-76.102 c 0,-32.761 -26.808,-59.57 -59.57,-59.57 l 0,0 c -32.754,0 -59.562,26.809 -59.562,59.57 l 0,76.102 c 0,32.762 26.808,59.57 59.562,59.57" /><path
         id="path34"
         style="fill:none;stroke:#6452a0;stroke-width:17.00799942;stroke-linecap:round;stroke-linejoin:round;stroke-miterlimit:22.92560005;stroke-dasharray:none;stroke-opacity:1"
         d="m 741.621,513.402 0,0 c 32.762,0 59.57,-26.808 59.57,-59.57 l 0,-76.102 c 0,-32.761 -26.808,-59.57 -59.57,-59.57 l 0,0 c -32.754,0 -59.562,26.809 -59.562,59.57 l 0,76.102 c 0,32.762 26.808,59.57 59.562,59.57 z" /><path
         id="path36"
         style="fill:none;stroke:#6452a0;stroke-width:17.00799942;stroke-linecap:round;stroke-linejoin:round;stroke-miterlimit:22.92560005;stroke-dasharray:none;stroke-opacity:1"
         d="m 560.145,513.402 0,-195.242 109.355,0" /></g></g></svg>