<?xml version="1.0" encoding="UTF-8" standalone="no"?>
<svg
   xmlns:dc="http://purl.org/dc/elements/1.1/"
   xmlns:cc="http://creativecommons.org/ns#"
   xmlns:rdf="http://www.w3.org/1999/02/22-rdf-syntax-ns#"
   xmlns:svg="http://www.w3.org/2000/svg"
   xmlns="http://www.w3.org/2000/svg"
   viewBox="0 0 103.25 101.5125"
   height="101.5125"
   width="103.25"
   xml:space="preserve"
   version="1.1"
   id="svg2"><metadata
     id="metadata8"><rdf:RDF><cc:Work
         rdf:about=""><dc:format>image/svg+xml</dc:format><dc:type
           rdf:resource="http://purl.org/dc/dcmitype/StillImage" /></cc:Work></rdf:RDF></metadata><defs
     id="defs6"><clipPath
       id="clipPath18"
       clipPathUnits="userSpaceOnUse"><path
         id="path20"
         d="m 0,0 825.984,0 0,812 L 0,812 0,0 Z" /></clipPath></defs><g
     transform="matrix(1.25,0,0,-1.25,0,101.5125)"
     id="g10"><g
       transform="scale(0.1,0.1)"
       id="g12"><g
         id="g14"><g
           clip-path="url(#clipPath18)"
           id="g16"><path
             id="path22"
             style="fill:none;stroke:#4278c4;stroke-width:17.00799942;stroke-linecap:round;stroke-linejoin:round;stroke-miterlimit:22.92560005;stroke-dasharray:none;stroke-opacity:1"
             d="M 809.32,375.488 C 793.707,170.215 622.262,8.50781 412.992,8.50781 203.719,8.50781 32.2734,170.215 16.6602,375.488 M 62.1484,593.129 C 129.07,718.375 261.07,803.602 412.992,803.602 c 151.926,0 283.926,-85.227 350.852,-210.473" /><path
             id="path24"
             style="fill:#ffffff;fill-opacity:1;fill-rule:evenodd;stroke:none"
             d="m 385.992,433.055 -35.269,-35.266 -0.035,-0.039 c -7.813,-7.809 -20.477,-7.809 -28.29,0 -2.07,2.07 -3.593,4.477 -4.566,7.051 -2.23,5.39 -5.543,10.449 -9.926,14.836 -17.859,17.859 -46.812,17.859 -64.668,0 -17.863,-17.86 -17.863,-46.817 0,-64.664 4.414,-4.418 9.5,-7.739 14.934,-9.973 l 0,0 c 2.531,-0.977 4.902,-2.488 6.945,-4.531 7.817,-7.813 7.817,-20.481 0,-28.289 L 229.82,276.887 c -14.851,-14.856 -39.156,-14.856 -54.004,0 L 19.6445,433.055 c -14.85544,14.851 -14.85544,39.152 0,54 L 175.816,643.23 c 14.852,14.852 39.153,14.852 54.004,0 l 35.145,-35.144 0,0 0.152,-0.152 c 7.817,-7.817 20.477,-7.817 28.297,0 2.008,2.007 3.5,4.339 4.477,6.828 l 0.004,0 c 2.226,5.476 5.566,10.609 10.011,15.047 17.86,17.863 46.809,17.863 64.668,0 17.86,-17.856 17.86,-46.805 0,-64.664 -4.445,-4.446 -9.582,-7.786 -15.066,-10.016 l 0,-0.008 c -2.481,-0.976 -4.809,-2.461 -6.817,-4.473 -7.808,-7.812 -7.808,-20.476 0,-28.289 0.305,-0.308 0.618,-0.597 0.942,-0.879 l -0.012,-0.054 34.371,-34.371 c 14.852,-14.848 14.852,-39.149 0,-54" /><path
             id="path26"
             style="fill:none;stroke:#6452a0;stroke-width:17.00799942;stroke-linecap:round;stroke-linejoin:round;stroke-miterlimit:22.92560005;stroke-dasharray:none;stroke-opacity:1"
             d="m 385.992,433.055 -35.269,-35.266 -0.035,-0.039 c -7.813,-7.809 -20.477,-7.809 -28.29,0 -2.07,2.07 -3.593,4.477 -4.566,7.051 -2.23,5.39 -5.543,10.449 -9.926,14.836 -17.859,17.859 -46.812,17.859 -64.668,0 -17.863,-17.86 -17.863,-46.817 0,-64.664 4.414,-4.418 9.5,-7.739 14.934,-9.973 l 0,0 c 2.531,-0.977 4.902,-2.488 6.945,-4.531 7.817,-7.813 7.817,-20.481 0,-28.289 L 229.82,276.887 c -14.851,-14.856 -39.156,-14.856 -54.004,0 L 19.6445,433.055 c -14.85544,14.851 -14.85544,39.152 0,54 L 175.816,643.23 c 14.852,14.852 39.153,14.852 54.004,0 l 35.145,-35.144 0,0 0.152,-0.152 c 7.817,-7.817 20.477,-7.817 28.297,0 2.008,2.007 3.5,4.339 4.477,6.828 l 0.004,0 c 2.226,5.476 5.566,10.609 10.011,15.047 17.86,17.863 46.809,17.863 64.668,0 17.86,-17.856 17.86,-46.805 0,-64.664 -4.445,-4.446 -9.582,-7.786 -15.066,-10.016 l 0,-0.008 c -2.481,-0.976 -4.809,-2.461 -6.817,-4.473 -7.808,-7.812 -7.808,-20.476 0,-28.289 0.305,-0.308 0.618,-0.597 0.942,-0.879 l -0.012,-0.054 34.371,-34.371 c 14.852,-14.848 14.852,-39.149 0,-54 z" /><path
             id="path28"
             style="fill:#fbc31e;fill-opacity:1;fill-rule:evenodd;stroke:none"
             d="m 439.996,433.055 35.274,-35.266 0.027,-0.039 c 7.812,-7.809 7.812,-20.484 0,-28.297 -2.07,-2.07 -4.473,-3.586 -7.039,-4.562 -5.403,-2.227 -10.461,-5.536 -14.844,-9.918 -17.863,-17.864 -17.863,-46.821 0,-64.668 17.859,-17.864 46.805,-17.864 64.668,0 4.414,4.402 7.734,9.5 9.969,14.929 l 0,0 c 0.976,2.528 2.492,4.903 4.523,6.946 7.821,7.808 20.477,7.808 28.301,0 l 35.293,-35.293 c 14.852,-14.856 14.852,-39.164 0,-54.004 L 439.996,66.7109 c -14.855,-14.8554 -39.152,-14.8554 -54.004,0 L 229.82,222.883 c -14.851,14.84 -14.851,39.148 0,54.004 l 35.145,35.144 -0.004,0 0.156,0.149 c 7.817,7.808 7.817,20.476 0,28.289 -2.008,2.011 -4.34,3.504 -6.828,4.48 l -0.004,0.012 c -5.472,2.227 -10.605,5.566 -15.047,10.012 -17.855,17.859 -17.855,46.804 0,64.664 17.86,17.859 46.809,17.859 64.668,0 4.446,-4.446 7.785,-9.582 10.02,-15.063 l 0,0 c 0.976,-2.484 2.465,-4.812 4.476,-6.82 7.809,-7.813 20.481,-7.813 28.289,0 0.305,0.309 0.598,0.621 0.879,0.937 l 0.051,-0.003 34.371,34.367 c 14.852,14.851 39.149,14.851 54.004,0" /><path
             id="path30"
             style="fill:none;stroke:#6452a0;stroke-width:17.00799942;stroke-linecap:round;stroke-linejoin:round;stroke-miterlimit:22.92560005;stroke-dasharray:none;stroke-opacity:1"
             d="m 439.996,433.055 35.274,-35.266 0.027,-0.039 c 7.812,-7.809 7.812,-20.484 0,-28.297 -2.07,-2.07 -4.473,-3.586 -7.039,-4.562 -5.403,-2.227 -10.461,-5.536 -14.844,-9.918 -17.863,-17.864 -17.863,-46.821 0,-64.668 17.859,-17.864 46.805,-17.864 64.668,0 4.414,4.402 7.734,9.5 9.969,14.929 l 0,0 c 0.976,2.528 2.492,4.903 4.523,6.946 7.821,7.808 20.477,7.808 28.301,0 l 35.293,-35.293 c 14.852,-14.856 14.852,-39.164 0,-54.004 L 439.996,66.7109 c -14.855,-14.8554 -39.152,-14.8554 -54.004,0 L 229.82,222.883 c -14.851,14.84 -14.851,39.148 0,54.004 l 35.145,35.144 -0.004,0 0.156,0.149 c 7.817,7.808 7.817,20.476 0,28.289 -2.008,2.011 -4.34,3.504 -6.828,4.48 l -0.004,0.012 c -5.472,2.227 -10.605,5.566 -15.047,10.012 -17.855,17.859 -17.855,46.804 0,64.664 17.86,17.859 46.809,17.859 64.668,0 4.446,-4.446 7.785,-9.582 10.02,-15.063 l 0,0 c 0.976,-2.484 2.465,-4.812 4.476,-6.82 7.809,-7.813 20.481,-7.813 28.289,0 0.305,0.309 0.598,0.621 0.879,0.937 l 0.051,-0.003 34.371,34.367 c 14.852,14.851 39.149,14.851 54.004,0 z" /><path
             id="path32"
             style="fill:#6452a0;fill-opacity:1;fill-rule:evenodd;stroke:none"
             d="m 439.996,487.055 35.274,35.269 0.027,0.039 c 7.812,7.813 20.48,7.813 28.293,0 2.07,-2.07 3.594,-4.476 4.558,-7.05 2.239,-5.395 5.547,-10.45 9.934,-14.84 17.859,-17.856 46.805,-17.856 64.668,0 17.859,17.863 17.859,46.812 0,64.672 -4.414,4.41 -9.504,7.738 -14.934,9.968 l 0,0.004 c -2.527,0.977 -4.902,2.481 -6.953,4.52 -7.812,7.812 -7.812,20.48 0,28.293 l 35.305,35.3 c 14.852,14.852 39.148,14.852 54.004,0 L 806.344,487.055 c 14.851,-14.848 14.851,-39.149 0,-54.004 L 650.172,276.887 c -14.856,-14.856 -39.152,-14.856 -54.004,0 l -35.148,35.133 0,0 -0.157,0.16 c -7.812,7.808 -20.476,7.808 -28.289,0 -2.011,-2.016 -3.496,-4.336 -4.472,-6.828 l -0.012,0 c -2.227,-5.477 -5.567,-10.606 -10.008,-15.047 -17.863,-17.864 -46.809,-17.864 -64.668,0 -17.863,17.847 -17.863,46.804 0,64.668 4.441,4.441 9.578,7.781 15.059,10.015 l 0,0 c 2.488,0.981 4.812,2.461 6.824,4.477 7.812,7.808 7.812,20.476 0,28.289 -0.313,0.301 -0.625,0.594 -0.938,0.879 l 0,0.055 -34.363,34.363 c -14.855,14.855 -14.855,39.156 0,54.004" /><path
             id="path34"
             style="fill:none;stroke:#6452a0;stroke-width:17.00799942;stroke-linecap:round;stroke-linejoin:round;stroke-miterlimit:22.92560005;stroke-dasharray:none;stroke-opacity:1"
             d="m 439.996,487.055 35.274,35.269 0.027,0.039 c 7.812,7.813 20.48,7.813 28.293,0 2.07,-2.07 3.594,-4.476 4.558,-7.05 2.239,-5.395 5.547,-10.45 9.934,-14.84 17.859,-17.856 46.805,-17.856 64.668,0 17.859,17.863 17.859,46.812 0,64.672 -4.414,4.41 -9.504,7.738 -14.934,9.968 l 0,0.004 c -2.527,0.977 -4.902,2.481 -6.953,4.52 -7.812,7.812 -7.812,20.48 0,28.293 l 35.305,35.3 c 14.852,14.852 39.148,14.852 54.004,0 L 806.344,487.055 c 14.851,-14.848 14.851,-39.149 0,-54.004 L 650.172,276.887 c -14.856,-14.856 -39.152,-14.856 -54.004,0 l -35.148,35.133 0,0 -0.157,0.16 c -7.812,7.808 -20.476,7.808 -28.289,0 -2.011,-2.016 -3.496,-4.336 -4.472,-6.828 l -0.012,0 c -2.227,-5.477 -5.567,-10.606 -10.008,-15.047 -17.863,-17.864 -46.809,-17.864 -64.668,0 -17.863,17.847 -17.863,46.804 0,64.668 4.441,4.441 9.578,7.781 15.059,10.015 l 0,0 c 2.488,0.981 4.812,2.461 6.824,4.477 7.812,7.808 7.812,20.476 0,28.289 -0.313,0.301 -0.625,0.594 -0.938,0.879 l 0,0.055 -34.363,34.363 c -14.855,14.855 -14.855,39.156 0,54.004 z" /></g></g></g></g></svg>