<?xml version="1.0" encoding="UTF-8" standalone="no"?>
<svg
   xmlns:dc="http://purl.org/dc/elements/1.1/"
   xmlns:cc="http://creativecommons.org/ns#"
   xmlns:rdf="http://www.w3.org/1999/02/22-rdf-syntax-ns#"
   xmlns:svg="http://www.w3.org/2000/svg"
   xmlns="http://www.w3.org/2000/svg"
   viewBox="0 0 89 101.4375"
   height="101.4375"
   width="89"
   xml:space="preserve"
   version="1.1"
   id="svg2"><metadata
     id="metadata8"><rdf:RDF><cc:Work
         rdf:about=""><dc:format>image/svg+xml</dc:format><dc:type
           rdf:resource="http://purl.org/dc/dcmitype/StillImage" /></cc:Work></rdf:RDF></metadata><defs
     id="defs6"><clipPath
       id="clipPath18"
       clipPathUnits="userSpaceOnUse"><path
         id="path20"
         d="m 0,0 712,0 0,811.504 -712,0 L 0,0 Z" /></clipPath></defs><g
     transform="matrix(1.25,0,0,-1.25,0,101.4375)"
     id="g10"><g
       transform="scale(0.1,0.1)"
       id="g12"><g
         id="g14"><g
           clip-path="url(#clipPath18)"
           id="g16"><path
             id="path22"
             style="fill:#fbc31e;fill-opacity:1;fill-rule:evenodd;stroke:none"
             d="m 25.0313,317.773 661.9727,0 c 9.094,0 16.535,-7.441 16.535,-16.535 l 0,-159.656 c 0,-9.094 -7.441,-16.523 -16.535,-16.523 l -661.9727,0 c -9.0899,0 -16.52739,7.429 -16.52739,16.523 l 0,159.656 c 0,9.094 7.43749,16.535 16.52739,16.535" /><path
             id="path24"
             style="fill:none;stroke:#6452a0;stroke-width:17.00799942;stroke-linecap:round;stroke-linejoin:round;stroke-miterlimit:22.92560005;stroke-dasharray:none;stroke-opacity:1"
             d="m 25.0313,317.773 661.9727,0 c 9.094,0 16.535,-7.441 16.535,-16.535 l 0,-159.656 c 0,-9.094 -7.441,-16.523 -16.535,-16.523 l -661.9727,0 c -9.0899,0 -16.52739,7.429 -16.52739,16.523 l 0,159.656 c 0,9.094 7.43749,16.535 16.52739,16.535 z" /><path
             id="path26"
             style="fill:#6452a0;fill-opacity:1;fill-rule:evenodd;stroke:none"
             d="m 383.957,513.34 302.551,0 c 9.09,0 16.523,-7.438 16.523,-16.531 l 0,-159.653 c 0,-9.09 -7.433,-16.531 -16.523,-16.531 l -302.551,0 c -9.09,0 -16.531,7.441 -16.531,16.531 l 0,159.653 c 0,9.093 7.441,16.531 16.531,16.531" /><path
             id="path28"
             style="fill:none;stroke:#6452a0;stroke-width:17.00799942;stroke-linecap:round;stroke-linejoin:round;stroke-miterlimit:22.92560005;stroke-dasharray:none;stroke-opacity:1"
             d="m 383.957,513.34 302.551,0 c 9.09,0 16.523,-7.438 16.523,-16.531 l 0,-159.653 c 0,-9.09 -7.433,-16.531 -16.523,-16.531 l -302.551,0 c -9.09,0 -16.531,7.441 -16.531,16.531 l 0,159.653 c 0,9.093 7.441,16.531 16.531,16.531 z" /><path
             id="path30"
             style="fill:#6452a0;fill-opacity:1;fill-rule:evenodd;stroke:none"
             d="m 416.527,561.719 74.825,0 c 3.418,0 6.199,-2.789 6.199,-6.203 l 0,-42.176 -84.492,0 c -1.504,0 -2.735,1.23 -2.735,2.734 l 0,39.442 c 0,3.414 2.793,6.203 6.203,6.203" /><path
             id="path32"
             style="fill:none;stroke:#6452a0;stroke-width:17.00799942;stroke-linecap:round;stroke-linejoin:round;stroke-miterlimit:22.92560005;stroke-dasharray:none;stroke-opacity:1"
             d="m 416.527,561.719 74.825,0 c 3.418,0 6.199,-2.789 6.199,-6.203 l 0,-42.176 -84.492,0 c -1.504,0 -2.735,1.23 -2.735,2.734 l 0,39.442 c 0,3.414 2.793,6.203 6.203,6.203 z" /><path
             id="path34"
             style="fill:#6452a0;fill-opacity:1;fill-rule:evenodd;stroke:none"
             d="m 579.105,561.719 74.825,0 c 3.418,0 6.199,-2.789 6.199,-6.203 l 0,-42.176 -84.492,0 c -1.504,0 -2.735,1.23 -2.735,2.734 l 0,39.442 c 0,3.414 2.793,6.203 6.203,6.203" /><path
             id="path36"
             style="fill:none;stroke:#6452a0;stroke-width:17.00799942;stroke-linecap:round;stroke-linejoin:round;stroke-miterlimit:22.92560005;stroke-dasharray:none;stroke-opacity:1"
             d="m 579.105,561.719 74.825,0 c 3.418,0 6.199,-2.789 6.199,-6.203 l 0,-42.176 -84.492,0 c -1.504,0 -2.735,1.23 -2.735,2.734 l 0,39.442 c 0,3.414 2.793,6.203 6.203,6.203 z" /><path
             id="path38"
             style="fill:#ffffff;fill-opacity:1;fill-rule:evenodd;stroke:none"
             d="m 35.1406,628.309 304.7894,0 c 14.652,0 26.636,-11.985 26.636,-26.633 l 0,-257.274 c 0,-14.644 -11.984,-26.629 -26.636,-26.629 l -304.7894,0 c -14.6523,0 -26.63669,11.985 -26.63669,26.629 l 0,257.274 c 0,14.648 11.98439,26.633 26.63669,26.633" /><path
             id="path40"
             style="fill:none;stroke:#6452a0;stroke-width:17.00799942;stroke-linecap:round;stroke-linejoin:round;stroke-miterlimit:22.92560005;stroke-dasharray:none;stroke-opacity:1"
             d="m 35.1406,628.309 304.7894,0 c 14.652,0 26.636,-11.985 26.636,-26.633 l 0,-257.274 c 0,-14.644 -11.984,-26.629 -26.636,-26.629 l -304.7894,0 c -14.6523,0 -26.63669,11.985 -26.63669,26.629 l 0,257.274 c 0,14.648 11.98439,26.633 26.63669,26.633 z" /><path
             id="path42"
             style="fill:#ffffff;fill-opacity:1;fill-rule:evenodd;stroke:none"
             d="m 62.7813,676.688 74.8237,0 c 3.411,0 6.204,-2.786 6.204,-6.2 l 0,-42.179 -84.4926,0 c -1.5039,0 -2.7344,1.23 -2.7344,2.738 l 0,39.441 c 0,3.414 2.7852,6.2 6.1993,6.2" /><path
             id="path44"
             style="fill:none;stroke:#6452a0;stroke-width:17.00799942;stroke-linecap:round;stroke-linejoin:round;stroke-miterlimit:22.92560005;stroke-dasharray:none;stroke-opacity:1"
             d="m 62.7813,676.688 74.8237,0 c 3.411,0 6.204,-2.786 6.204,-6.2 l 0,-42.179 -84.4926,0 c -1.5039,0 -2.7344,1.23 -2.7344,2.738 l 0,39.441 c 0,3.414 2.7852,6.2 6.1993,6.2 z" /><path
             id="path46"
             style="fill:#ffffff;fill-opacity:1;fill-rule:evenodd;stroke:none"
             d="m 225.359,676.688 74.825,0 c 3.41,0 6.203,-2.786 6.203,-6.2 l 0,-42.179 -84.492,0 c -1.504,0 -2.735,1.23 -2.735,2.738 l 0,39.441 c 0,3.414 2.785,6.2 6.199,6.2" /><path
             id="path48"
             style="fill:none;stroke:#6452a0;stroke-width:17.00799942;stroke-linecap:round;stroke-linejoin:round;stroke-miterlimit:22.92560005;stroke-dasharray:none;stroke-opacity:1"
             d="m 225.359,676.688 74.825,0 c 3.41,0 6.203,-2.786 6.203,-6.2 l 0,-42.179 -84.492,0 c -1.504,0 -2.735,1.23 -2.735,2.738 l 0,39.441 c 0,3.414 2.785,6.2 6.199,6.2 z" /><path
             id="path50"
             style="fill:none;stroke:#6452a0;stroke-width:17.00799942;stroke-linecap:round;stroke-linejoin:round;stroke-miterlimit:22.92560005;stroke-dasharray:none;stroke-opacity:1"
             d="m 77.9414,405.551 0,134.976 38.0856,0 c 20.95,0 38.082,-17.132 38.082,-38.082 l 0,-96.894" /><path
             id="path52"
             style="fill:none;stroke:#6452a0;stroke-width:17.00799942;stroke-linecap:round;stroke-linejoin:round;stroke-miterlimit:22.92560005;stroke-dasharray:none;stroke-opacity:1"
             d="m 187.539,405.551 0,134.976" /><path
             id="path54"
             style="fill:none;stroke:#6452a0;stroke-width:17.00799942;stroke-linecap:round;stroke-linejoin:round;stroke-miterlimit:22.92560005;stroke-dasharray:none;stroke-opacity:1"
             d="m 297.129,405.551 0,134.976" /><path
             id="path56"
             style="fill:none;stroke:#6452a0;stroke-width:17.00799942;stroke-linecap:round;stroke-linejoin:round;stroke-miterlimit:22.92560005;stroke-dasharray:none;stroke-opacity:1"
             d="m 77.9414,468.613 76.1676,0" /><path
             id="path58"
             style="fill:none;stroke:#6452a0;stroke-width:17.00799942;stroke-linecap:round;stroke-linejoin:round;stroke-miterlimit:22.92560005;stroke-dasharray:none;stroke-opacity:1"
             d="m 187.539,540.527 40.207,0 c 19.781,0 35.957,-16.175 35.957,-35.957 l 0,0 c 0,-19.773 -16.176,-35.957 -35.957,-35.957 l -40.207,0" /><path
             id="path60"
             style="fill:none;stroke:#4278c4;stroke-width:17.00799942;stroke-linecap:round;stroke-linejoin:round;stroke-miterlimit:22.92560005;stroke-dasharray:none;stroke-opacity:1"
             d="M 586.398,82.1289 C 521.43,35.7813 441.918,8.50781 356.02,8.50781 c -85.899,0 -165.411,27.27349 -230.387,73.62109" /><path
             id="path62"
             style="fill:none;stroke:#4278c4;stroke-width:17.00799942;stroke-linecap:round;stroke-linejoin:round;stroke-miterlimit:22.92560005;stroke-dasharray:none;stroke-opacity:1"
             d="M 696.535,610.348 C 627.043,725.77 500.57,802.996 356.02,802.996 c -87.016,0 -167.473,-27.992 -232.903,-75.449" /></g></g></g></g></svg>