<?xml version="1.0" encoding="UTF-8" standalone="no"?>
<svg
   xmlns:dc="http://purl.org/dc/elements/1.1/"
   xmlns:cc="http://creativecommons.org/ns#"
   xmlns:rdf="http://www.w3.org/1999/02/22-rdf-syntax-ns#"
   xmlns:svg="http://www.w3.org/2000/svg"
   xmlns="http://www.w3.org/2000/svg"
   viewBox="0 0 108.6 102.1"
   height="102.1"
   width="108.6"
   xml:space="preserve"
   version="1.1"
   id="svg2"><metadata
     id="metadata8"><rdf:RDF><cc:Work
         rdf:about=""><dc:format>image/svg+xml</dc:format><dc:type
           rdf:resource="http://purl.org/dc/dcmitype/StillImage" /></cc:Work></rdf:RDF></metadata><defs
     id="defs6"><clipPath
       id="clipPath18"
       clipPathUnits="userSpaceOnUse"><path
         id="path20"
         d="M 0,816.813 0,0 l 868.762,0 0,816.813 -868.762,0 z" /></clipPath></defs><g
     transform="matrix(1.25,0,0,-1.25,0,102.1)"
     id="g10"><g
       transform="scale(0.1,0.1)"
       id="g12"><g
         id="g14"><g
           clip-path="url(#clipPath18)"
           id="g16"><path
             id="path22"
             style="fill:none;stroke:#4278c4;stroke-width:17.00799942;stroke-linecap:round;stroke-linejoin:round;stroke-miterlimit:22.92560005;stroke-dasharray:none;stroke-opacity:1"
             d="m 186.918,762.859 c 55.402,29.028 118.453,45.45 185.332,45.45 62.391,0 121.441,-14.286 174.059,-39.766 M 655.801,126.414 C 583.379,53.582 483.074,8.50391 372.25,8.50391 227.027,8.50391 99.8828,85.918 29.8281,201.727" /><path
             id="path24"
             style="fill:#fbc31e;fill-opacity:1;fill-rule:evenodd;stroke:none"
             d="m 71.6992,707.953 601.1058,0 c 34.765,0 63.203,-28.437 63.203,-63.199 l 0,-318.066 c 0,-34.754 -28.438,-63.196 -63.203,-63.196 l -601.1058,0 c -34.7617,0 -63.19139,28.442 -63.19139,63.196 l 0,318.066 c 0,34.762 28.42969,63.199 63.19139,63.199" /><path
             id="path26"
             style="fill:none;stroke:#6452a0;stroke-width:17.00799942;stroke-linecap:round;stroke-linejoin:round;stroke-miterlimit:22.92560005;stroke-dasharray:none;stroke-opacity:1"
             d="m 71.6992,707.953 601.1058,0 c 34.765,0 63.203,-28.437 63.203,-63.199 l 0,-318.066 c 0,-34.754 -28.438,-63.196 -63.203,-63.196 l -601.1058,0 c -34.7617,0 -63.19139,28.442 -63.19139,63.196 l 0,318.066 c 0,34.762 28.42969,63.199 63.19139,63.199 z" /><path
             id="path28"
             style="fill:#fbc31e;fill-opacity:1;fill-rule:evenodd;stroke:none"
             d="m 169.27,108.863 385.359,0 c 3.332,0 6.055,2.715 6.055,6.047 l 0,30.469 c 0,3.332 -2.723,6.055 -6.055,6.055 l -385.359,0 c -3.332,0 -6.051,-2.723 -6.051,-6.055 l 0,-30.469 c 0,-3.332 2.719,-6.047 6.051,-6.047" /><path
             id="path30"
             style="fill:none;stroke:#6452a0;stroke-width:17.00799942;stroke-linecap:round;stroke-linejoin:round;stroke-miterlimit:22.92560005;stroke-dasharray:none;stroke-opacity:1"
             d="m 169.27,108.863 385.359,0 c 3.332,0 6.055,2.715 6.055,6.047 l 0,30.469 c 0,3.332 -2.723,6.055 -6.055,6.055 l -385.359,0 c -3.332,0 -6.051,-2.723 -6.051,-6.055 l 0,-30.469 c 0,-3.332 2.719,-6.047 6.051,-6.047 z" /><path
             id="path32"
             style="fill:#fbc31e;fill-opacity:1;fill-rule:evenodd;stroke:none"
             d="m 250.875,151.434 242.758,0 0,112.059 -242.758,0 0,-112.059 z" /><path
             id="path34"
             style="fill:none;stroke:#6452a0;stroke-width:17.00799942;stroke-linecap:round;stroke-linejoin:round;stroke-miterlimit:22.92560005;stroke-dasharray:none;stroke-opacity:1"
             d="m 250.875,151.434 242.758,0 0,112.059 -242.758,0 0,-112.059 z" /><path
             id="path36"
             style="fill:#ffffff;fill-opacity:1;fill-rule:evenodd;stroke:none"
             d="m 302.551,190.605 139.406,0 0,33.7305 -139.406,0 0,-33.7305 z" /><path
             id="path38"
             style="fill:none;stroke:#6452a0;stroke-width:17.00799942;stroke-linecap:round;stroke-linejoin:round;stroke-miterlimit:22.92560005;stroke-dasharray:none;stroke-opacity:1"
             d="m 302.551,190.605 139.406,0 0,33.7305 -139.406,0 0,-33.7305 z" /><path
             id="path40"
             style="fill:#ffffff;fill-opacity:1;fill-rule:evenodd;stroke:none"
             d="m 232.949,558.602 41.246,-127.868 215.895,0 48.086,127.868 -305.227,0" /><path
             id="path42"
             style="fill:none;stroke:#6452a0;stroke-width:17.00799942;stroke-linecap:round;stroke-linejoin:round;stroke-miterlimit:22.92560005;stroke-dasharray:none;stroke-opacity:1"
             d="m 232.949,558.602 41.246,-127.868 215.895,0 48.086,127.868 -305.227,0 z" /><path
             id="path44"
             style="fill:#ffffff;fill-opacity:1;fill-rule:evenodd;stroke:none"
             d="m 324.816,341.695 c 15.118,0 27.446,12.336 27.446,27.453 0,15.118 -12.328,27.442 -27.446,27.442 -15.113,0 -27.445,-12.324 -27.445,-27.442 0,-15.117 12.332,-27.453 27.445,-27.453" /><path
             id="path46"
             style="fill:none;stroke:#6452a0;stroke-width:17.00799942;stroke-linecap:round;stroke-linejoin:round;stroke-miterlimit:22.92560005;stroke-dasharray:none;stroke-opacity:1"
             d="m 324.816,341.695 c 15.118,0 27.446,12.336 27.446,27.453 0,15.118 -12.328,27.442 -27.446,27.442 -15.113,0 -27.445,-12.324 -27.445,-27.442 0,-15.117 12.332,-27.453 27.445,-27.453 z" /><path
             id="path48"
             style="fill:#ffffff;fill-opacity:1;fill-rule:evenodd;stroke:none"
             d="m 463.113,341.695 c 15.121,0 27.446,12.336 27.446,27.453 0,15.118 -12.325,27.442 -27.446,27.442 -15.117,0 -27.445,-12.324 -27.445,-27.442 0,-15.117 12.328,-27.453 27.445,-27.453" /><path
             id="path50"
             style="fill:none;stroke:#6452a0;stroke-width:17.00799942;stroke-linecap:round;stroke-linejoin:round;stroke-miterlimit:22.92560005;stroke-dasharray:none;stroke-opacity:1"
             d="m 463.113,341.695 c 15.121,0 27.446,12.336 27.446,27.453 0,15.118 -12.325,27.442 -27.446,27.442 -15.117,0 -27.445,-12.324 -27.445,-27.442 0,-15.117 12.328,-27.453 27.445,-27.453 z" /><path
             id="path52"
             style="fill:none;stroke:#6452a0;stroke-width:17.00799942;stroke-linecap:round;stroke-linejoin:round;stroke-miterlimit:22.92560005;stroke-dasharray:none;stroke-opacity:1"
             d="m 232.949,558.602 -17.797,55.312 -108.554,0" /><path
             id="path54"
             style="fill:#6452a0;fill-opacity:1;fill-rule:evenodd;stroke:none"
             d="m 710.898,246.813 42.461,48.41 94.844,-83.172 -42.461,-48.41 -94.844,83.172" /><path
             id="path56"
             style="fill:#6452a0;fill-opacity:1;fill-rule:evenodd;stroke:none"
             d="m 587.703,398.742 281.059,-89 L 748.566,256.426 717.461,139.883 587.703,398.742" /></g></g></g></g></svg>