<?xml version="1.0" encoding="UTF-8" standalone="no"?>
<svg
   xmlns:dc="http://purl.org/dc/elements/1.1/"
   xmlns:cc="http://creativecommons.org/ns#"
   xmlns:rdf="http://www.w3.org/1999/02/22-rdf-syntax-ns#"
   xmlns:svg="http://www.w3.org/2000/svg"
   xmlns="http://www.w3.org/2000/svg"
   viewBox="0 0 108.9875 102.35"
   height="102.35"
   width="108.9875"
   xml:space="preserve"
   version="1.1"
   id="svg2"><metadata
     id="metadata8"><rdf:RDF><cc:Work
         rdf:about=""><dc:format>image/svg+xml</dc:format><dc:type
           rdf:resource="http://purl.org/dc/dcmitype/StillImage" /></cc:Work></rdf:RDF></metadata><defs
     id="defs6"><clipPath
       id="clipPath18"
       clipPathUnits="userSpaceOnUse"><path
         id="path20"
         d="M 0,818.844 0,0 l 871.891,0 0,818.844 -871.891,0 z" /></clipPath></defs><g
     transform="matrix(1.25,0,0,-1.25,0,102.35)"
     id="g10"><g
       transform="scale(0.1,0.1)"
       id="g12"><g
         id="g14"><g
           clip-path="url(#clipPath18)"
           id="g16"><path
             id="path22"
             style="fill:none;stroke:#4278c4;stroke-width:17.00799942;stroke-linecap:round;stroke-linejoin:round;stroke-miterlimit:22.92560005;stroke-dasharray:none;stroke-opacity:1"
             d="m 230.578,753.816 c 60.07,35.895 130.309,56.524 205.367,56.524 77.227,0 149.344,-21.832 210.535,-59.66 M 667.574,82.1445 C 602.164,35.7695 522.242,8.50391 435.945,8.50391 354.781,8.50391 279.262,32.625 216.137,74.0781" /><path
             id="path24"
             style="fill:#fbc31e;fill-opacity:1;fill-rule:evenodd;stroke:none"
             d="m 85.1016,642.516 701.6914,0 c 42.129,0 76.594,-34.465 76.594,-76.59 l 0,-356.867 c 0,-42.129 -34.465,-76.59 -76.594,-76.59 l -701.6914,0 c -42.1289,0 -76.59769,34.461 -76.59769,76.59 l 0,356.867 c 0,42.125 34.46879,76.59 76.59769,76.59" /><path
             id="path26"
             style="fill:none;stroke:#6452a0;stroke-width:17.00799942;stroke-linecap:round;stroke-linejoin:round;stroke-miterlimit:22.92560005;stroke-dasharray:none;stroke-opacity:1"
             d="m 85.1016,642.516 701.6914,0 c 42.129,0 76.594,-34.465 76.594,-76.59 l 0,-356.867 c 0,-42.129 -34.465,-76.59 -76.594,-76.59 l -701.6914,0 c -42.1289,0 -76.59769,34.461 -76.59769,76.59 l 0,356.867 c 0,42.125 34.46879,76.59 76.59769,76.59 z" /><path
             id="path28"
             style="fill:#ffffff;fill-opacity:1;fill-rule:evenodd;stroke:none"
             d="m 331.457,731.297 0.004,0 c 20.582,0 37.43,-16.84 37.43,-37.422 l 0,-95.746 c 0,-20.586 -16.848,-37.43 -37.43,-37.43 l -0.004,0 c -20.582,0 -37.426,16.844 -37.426,37.43 l 0,95.746 c 0,20.582 16.844,37.422 37.426,37.422" /><path
             id="path30"
             style="fill:none;stroke:#6452a0;stroke-width:17.00799942;stroke-linecap:round;stroke-linejoin:round;stroke-miterlimit:22.92560005;stroke-dasharray:none;stroke-opacity:1"
             d="m 331.457,731.297 0.004,0 c 20.582,0 37.43,-16.84 37.43,-37.422 l 0,-95.746 c 0,-20.586 -16.848,-37.43 -37.43,-37.43 l -0.004,0 c -20.582,0 -37.426,16.844 -37.426,37.43 l 0,95.746 c 0,20.582 16.844,37.422 37.426,37.422 z" /><path
             id="path32"
             style="fill:#ffffff;fill-opacity:1;fill-rule:evenodd;stroke:none"
             d="m 540.426,731.297 0.012,0 c 20.574,0 37.421,-16.84 37.421,-37.422 l 0,-95.746 c 0,-20.586 -16.847,-37.43 -37.421,-37.43 l -0.012,0 c -20.574,0 -37.422,16.844 -37.422,37.43 l 0,95.746 c 0,20.582 16.848,37.422 37.422,37.422" /><path
             id="path34"
             style="fill:none;stroke:#6452a0;stroke-width:17.00799942;stroke-linecap:round;stroke-linejoin:round;stroke-miterlimit:22.92560005;stroke-dasharray:none;stroke-opacity:1"
             d="m 540.426,731.297 0.012,0 c 20.574,0 37.421,-16.84 37.421,-37.422 l 0,-95.746 c 0,-20.586 -16.847,-37.43 -37.421,-37.43 l -0.012,0 c -20.574,0 -37.422,16.844 -37.422,37.43 l 0,95.746 c 0,20.582 16.848,37.422 37.422,37.422 z" /><path
             id="path36"
             style="fill:#ffffff;fill-opacity:1;fill-rule:evenodd;stroke:none"
             d="m 122.488,731.297 0,0 c 20.59,0 37.43,-16.84 37.43,-37.422 l 0,-95.746 c 0,-20.586 -16.84,-37.43 -37.43,-37.43 l 0,0 c -20.582,0 -37.4255,16.844 -37.4255,37.43 l 0,95.746 c 0,20.582 16.8435,37.422 37.4255,37.422" /><path
             id="path38"
             style="fill:none;stroke:#6452a0;stroke-width:17.00799942;stroke-linecap:round;stroke-linejoin:round;stroke-miterlimit:22.92560005;stroke-dasharray:none;stroke-opacity:1"
             d="m 122.488,731.297 0,0 c 20.59,0 37.43,-16.84 37.43,-37.422 l 0,-95.746 c 0,-20.586 -16.84,-37.43 -37.43,-37.43 l 0,0 c -20.582,0 -37.4255,16.844 -37.4255,37.43 l 0,95.746 c 0,20.582 16.8435,37.422 37.4255,37.422 z" /><path
             id="path40"
             style="fill:#ffffff;fill-opacity:1;fill-rule:evenodd;stroke:none"
             d="m 749.402,731.297 0,0 c 20.586,0 37.43,-16.84 37.43,-37.422 l 0,-95.746 c 0,-20.586 -16.844,-37.43 -37.43,-37.43 l 0,0 c -20.586,0 -37.422,16.844 -37.422,37.43 l 0,95.746 c 0,20.582 16.836,37.422 37.422,37.422" /><path
             id="path42"
             style="fill:none;stroke:#6452a0;stroke-width:17.00799942;stroke-linecap:round;stroke-linejoin:round;stroke-miterlimit:22.92560005;stroke-dasharray:none;stroke-opacity:1"
             d="m 749.402,731.297 0,0 c 20.586,0 37.43,-16.84 37.43,-37.422 l 0,-95.746 c 0,-20.586 -16.844,-37.43 -37.43,-37.43 l 0,0 c -20.586,0 -37.422,16.844 -37.422,37.43 l 0,95.746 c 0,20.582 16.836,37.422 37.422,37.422 z" /><path
             id="path44"
             style="fill:#6452a0;fill-opacity:1;fill-rule:evenodd;stroke:none"
             d="m 97.25,494.109 162.602,0 c 6.699,0 12.179,-5.484 12.179,-12.187 l 0,-88.781 c 0,-6.707 -5.48,-12.188 -12.179,-12.188 l -162.602,0 c -6.707,0 -12.1875,5.481 -12.1875,12.188 l 0,88.781 c 0,6.703 5.4805,12.187 12.1875,12.187" /><path
             id="path46"
             style="fill:none;stroke:#6452a0;stroke-width:17.00799942;stroke-linecap:round;stroke-linejoin:round;stroke-miterlimit:22.92560005;stroke-dasharray:none;stroke-opacity:1"
             d="m 97.25,494.109 162.602,0 c 6.699,0 12.179,-5.484 12.179,-12.187 l 0,-88.781 c 0,-6.707 -5.48,-12.188 -12.179,-12.188 l -162.602,0 c -6.707,0 -12.1875,5.481 -12.1875,12.188 l 0,88.781 c 0,6.703 5.4805,12.187 12.1875,12.187 z" /><path
             id="path48"
             style="fill:#ffffff;fill-opacity:1;fill-rule:evenodd;stroke:none"
             d="m 354.645,494.109 162.597,0 c 6.711,0 12.188,-5.484 12.188,-12.187 l 0,-88.781 c 0,-6.707 -5.477,-12.188 -12.188,-12.188 l -162.597,0 c -6.704,0 -12.18,5.481 -12.18,12.188 l 0,88.781 c 0,6.703 5.476,12.187 12.18,12.187" /><path
             id="path50"
             style="fill:none;stroke:#6452a0;stroke-width:17.00799942;stroke-linecap:round;stroke-linejoin:round;stroke-miterlimit:22.92560005;stroke-dasharray:none;stroke-opacity:1"
             d="m 354.645,494.109 162.597,0 c 6.711,0 12.188,-5.484 12.188,-12.187 l 0,-88.781 c 0,-6.707 -5.477,-12.188 -12.188,-12.188 l -162.597,0 c -6.704,0 -12.18,5.481 -12.18,12.188 l 0,88.781 c 0,6.703 5.476,12.187 12.18,12.187 z" /><path
             id="path52"
             style="fill:#6452a0;fill-opacity:1;fill-rule:evenodd;stroke:none"
             d="m 612.047,494.109 162.598,0 c 6.699,0 12.187,-5.484 12.187,-12.187 l 0,-88.781 c 0,-6.707 -5.488,-12.188 -12.187,-12.188 l -162.598,0 c -6.707,0 -12.188,5.481 -12.188,12.188 l 0,88.781 c 0,6.703 5.481,12.187 12.188,12.187" /><path
             id="path54"
             style="fill:none;stroke:#6452a0;stroke-width:17.00799942;stroke-linecap:round;stroke-linejoin:round;stroke-miterlimit:22.92560005;stroke-dasharray:none;stroke-opacity:1"
             d="m 612.047,494.109 162.598,0 c 6.699,0 12.187,-5.484 12.187,-12.187 l 0,-88.781 c 0,-6.707 -5.488,-12.188 -12.187,-12.188 l -162.598,0 c -6.707,0 -12.188,5.481 -12.188,12.188 l 0,88.781 c 0,6.703 5.481,12.187 12.188,12.187 z" /><path
             id="path56"
             style="fill:#ffffff;fill-opacity:1;fill-rule:evenodd;stroke:none"
             d="m 97.25,323.512 162.602,0 c 6.699,0 12.179,-5.489 12.179,-12.188 l 0,-88.777 c 0,-6.711 -5.48,-12.188 -12.179,-12.188 l -162.602,0 c -6.707,0 -12.1875,5.477 -12.1875,12.188 l 0,88.777 c 0,6.699 5.4805,12.188 12.1875,12.188" /><path
             id="path58"
             style="fill:none;stroke:#6452a0;stroke-width:17.00799942;stroke-linecap:round;stroke-linejoin:round;stroke-miterlimit:22.92560005;stroke-dasharray:none;stroke-opacity:1"
             d="m 97.25,323.512 162.602,0 c 6.699,0 12.179,-5.489 12.179,-12.188 l 0,-88.777 c 0,-6.711 -5.48,-12.188 -12.179,-12.188 l -162.602,0 c -6.707,0 -12.1875,5.477 -12.1875,12.188 l 0,88.777 c 0,6.699 5.4805,12.188 12.1875,12.188 z" /><path
             id="path60"
             style="fill:#ffffff;fill-opacity:1;fill-rule:evenodd;stroke:none"
             d="m 354.645,323.512 162.597,0 c 6.711,0 12.188,-5.489 12.188,-12.188 l 0,-88.777 c 0,-6.711 -5.477,-12.188 -12.188,-12.188 l -162.597,0 c -6.704,0 -12.18,5.477 -12.18,12.188 l 0,88.777 c 0,6.699 5.476,12.188 12.18,12.188" /><path
             id="path62"
             style="fill:none;stroke:#6452a0;stroke-width:17.00799942;stroke-linecap:round;stroke-linejoin:round;stroke-miterlimit:22.92560005;stroke-dasharray:none;stroke-opacity:1"
             d="m 354.645,323.512 162.597,0 c 6.711,0 12.188,-5.489 12.188,-12.188 l 0,-88.777 c 0,-6.711 -5.477,-12.188 -12.188,-12.188 l -162.597,0 c -6.704,0 -12.18,5.477 -12.18,12.188 l 0,88.777 c 0,6.699 5.476,12.188 12.18,12.188 z" /><path
             id="path64"
             style="fill:#6452a0;fill-opacity:1;fill-rule:evenodd;stroke:none"
             d="m 612.047,323.512 162.598,0 c 6.699,0 12.187,-5.489 12.187,-12.188 l 0,-88.777 c 0,-6.711 -5.488,-12.188 -12.187,-12.188 l -162.598,0 c -6.707,0 -12.188,5.477 -12.188,12.188 l 0,88.777 c 0,6.699 5.481,12.188 12.188,12.188" /><path
             id="path66"
             style="fill:none;stroke:#6452a0;stroke-width:17.00799942;stroke-linecap:round;stroke-linejoin:round;stroke-miterlimit:22.92560005;stroke-dasharray:none;stroke-opacity:1"
             d="m 612.047,323.512 162.598,0 c 6.699,0 12.187,-5.489 12.187,-12.188 l 0,-88.777 c 0,-6.711 -5.488,-12.188 -12.187,-12.188 l -162.598,0 c -6.707,0 -12.188,5.477 -12.188,12.188 l 0,88.777 c 0,6.699 5.481,12.188 12.188,12.188 z" /></g></g></g></g></svg>