<?xml version="1.0" encoding="UTF-8" standalone="no"?>
<svg
   xmlns:dc="http://purl.org/dc/elements/1.1/"
   xmlns:cc="http://creativecommons.org/ns#"
   xmlns:rdf="http://www.w3.org/1999/02/22-rdf-syntax-ns#"
   xmlns:svg="http://www.w3.org/2000/svg"
   xmlns="http://www.w3.org/2000/svg"
   viewBox="0 0 101.9125 101.9125"
   height="101.9125"
   width="101.9125"
   xml:space="preserve"
   version="1.1"
   id="svg2"><metadata
     id="metadata8"><rdf:RDF><cc:Work
         rdf:about=""><dc:format>image/svg+xml</dc:format><dc:type
           rdf:resource="http://purl.org/dc/dcmitype/StillImage" /></cc:Work></rdf:RDF></metadata><defs
     id="defs6" /><g
     transform="matrix(1.25,0,0,-1.25,0,101.9125)"
     id="g10"><g
       transform="scale(0.1,0.1)"
       id="g12"><path
         id="path14"
         style="fill:none;stroke:#4278c4;stroke-width:17.00799942;stroke-linecap:round;stroke-linejoin:round;stroke-miterlimit:22.92560005;stroke-dasharray:none;stroke-opacity:1"
         d="M 48.0938,234.156 C 22.7305,286.625 8.50391,345.484 8.50391,407.672 M 642.621,84.9766 C 576.703,36.8984 495.504,8.5 407.672,8.5 319.836,8.5 238.637,36.8984 172.719,84.9766 M 766.246,583.207 C 792.23,530.23 806.84,470.66 806.84,407.672 c 0,-62.188 -14.227,-121.047 -39.59,-173.516 M 175.484,732.383 c 65.418,46.859 145.575,74.453 232.188,74.453 86.609,0 166.766,-27.594 232.187,-74.453 M 8.50391,407.672 c 0,62.988 14.60549,122.558 40.59769,175.535" /><path
         id="path16"
         style="fill:#fbc31e;fill-opacity:1;fill-rule:evenodd;stroke:none"
         d="m 698.637,638.145 0,-460.942 c 0,-18.867 -15.43,-34.297 -34.297,-34.297 l -91.453,0 c -18.867,0 -34.297,15.43 -34.297,34.297 l 0,460.942 c 0,18.863 15.43,34.293 34.297,34.293 l 91.453,0 c 18.867,0 34.297,-15.43 34.297,-34.293" /><path
         id="path18"
         style="fill:none;stroke:#6452a0;stroke-width:17.00799942;stroke-linecap:round;stroke-linejoin:round;stroke-miterlimit:22.92560005;stroke-dasharray:none;stroke-opacity:1"
         d="m 698.637,638.145 0,-460.942 c 0,-18.867 -15.43,-34.297 -34.297,-34.297 l -91.453,0 c -18.867,0 -34.297,15.43 -34.297,34.297 l 0,460.942 c 0,18.863 15.43,34.293 34.297,34.293 l 91.453,0 c 18.867,0 34.297,-15.43 34.297,-34.293 z" /><path
         id="path20"
         style="fill:#6452a0;fill-opacity:1;fill-rule:evenodd;stroke:none"
         d="m 487.699,638.145 0,-460.942 c 0,-18.867 -15.429,-34.297 -34.297,-34.297 l -91.461,0 c -18.867,0 -34.289,15.43 -34.289,34.297 l 0,460.942 c 0,18.863 15.422,34.293 34.289,34.293 l 91.461,0 c 18.868,0 34.297,-15.43 34.297,-34.293" /><path
         id="path22"
         style="fill:none;stroke:#6452a0;stroke-width:17.00799942;stroke-linecap:round;stroke-linejoin:round;stroke-miterlimit:22.92560005;stroke-dasharray:none;stroke-opacity:1"
         d="m 487.699,638.145 0,-460.942 c 0,-18.867 -15.429,-34.297 -34.297,-34.297 l -91.461,0 c -18.867,0 -34.289,15.43 -34.289,34.297 l 0,460.942 c 0,18.863 15.422,34.293 34.289,34.293 l 91.461,0 c 18.868,0 34.297,-15.43 34.297,-34.293 z" /><path
         id="path24"
         style="fill:#fbc31e;fill-opacity:1;fill-rule:evenodd;stroke:none"
         d="m 276.754,638.145 0,-460.942 c 0,-18.867 -15.43,-34.297 -34.297,-34.297 l -91.461,0 c -18.867,0 -34.293,15.43 -34.293,34.297 l 0,460.942 c 0,18.863 15.426,34.293 34.293,34.293 l 91.461,0 c 18.867,0 34.297,-15.43 34.297,-34.293" /><path
         id="path26"
         style="fill:none;stroke:#6452a0;stroke-width:17.00799942;stroke-linecap:round;stroke-linejoin:round;stroke-miterlimit:22.92560005;stroke-dasharray:none;stroke-opacity:1"
         d="m 276.754,638.145 0,-460.942 c 0,-18.867 -15.43,-34.297 -34.297,-34.297 l -91.461,0 c -18.867,0 -34.293,15.43 -34.293,34.297 l 0,460.942 c 0,18.863 15.426,34.293 34.293,34.293 l 91.461,0 c 18.867,0 34.297,-15.43 34.297,-34.293 z" /><path
         id="path28"
         style="fill:#ffffff;fill-opacity:1;fill-rule:evenodd;stroke:none"
         d="m 116.699,473.676 160.047,0 0,99.0625 -160.047,0 0,-99.0625 z" /><path
         id="path30"
         style="fill:none;stroke:#6452a0;stroke-width:17.00799942;stroke-linecap:round;stroke-linejoin:round;stroke-miterlimit:22.92560005;stroke-dasharray:none;stroke-opacity:1"
         d="m 116.699,473.676 160.047,0 0,99.0625 -160.047,0 0,-99.0625 z" /><path
         id="path32"
         style="fill:#fbc31e;fill-opacity:1;fill-rule:evenodd;stroke:none"
         d="m 327.645,261.059 160.047,0 0,99.0625 -160.047,0 0,-99.0625 z" /><path
         id="path34"
         style="fill:none;stroke:#6452a0;stroke-width:17.00799942;stroke-linecap:round;stroke-linejoin:round;stroke-miterlimit:22.92560005;stroke-dasharray:none;stroke-opacity:1"
         d="m 327.645,261.059 160.047,0 0,99.0625 -160.047,0 0,-99.0625 z" /><path
         id="path36"
         style="fill:#ffffff;fill-opacity:1;fill-rule:evenodd;stroke:none"
         d="m 538.59,473.676 160.047,0 0,99.0625 -160.047,0 0,-99.0625 z" /><path
         id="path38"
         style="fill:none;stroke:#6452a0;stroke-width:17.00799942;stroke-linecap:round;stroke-linejoin:round;stroke-miterlimit:22.92560005;stroke-dasharray:none;stroke-opacity:1"
         d="m 538.59,473.676 160.047,0 0,99.0625 -160.047,0 0,-99.0625 z" /><path
         id="path40"
         style="fill:none;stroke:#ffffff;stroke-width:17.00799942;stroke-linecap:round;stroke-linejoin:round;stroke-miterlimit:22.92560005;stroke-dasharray:none;stroke-opacity:1"
         d="m 372.223,590.215 70.898,0" /><path
         id="path42"
         style="fill:none;stroke:#ffffff;stroke-width:17.00799942;stroke-linecap:round;stroke-linejoin:round;stroke-miterlimit:22.92560005;stroke-dasharray:none;stroke-opacity:1"
         d="m 372.223,520.297 70.898,0" /><path
         id="path44"
         style="fill:none;stroke:#ffffff;stroke-width:17.00799942;stroke-linecap:round;stroke-linejoin:round;stroke-miterlimit:22.92560005;stroke-dasharray:none;stroke-opacity:1"
         d="m 372.223,450.375 70.898,0" /><path
         id="path46"
         style="fill:none;stroke:#6452a0;stroke-width:17.00799942;stroke-linecap:round;stroke-linejoin:round;stroke-miterlimit:22.92560005;stroke-dasharray:none;stroke-opacity:1"
         d="m 583.168,298.355 70.898,0" /><path
         id="path48"
         style="fill:none;stroke:#6452a0;stroke-width:17.00799942;stroke-linecap:round;stroke-linejoin:round;stroke-miterlimit:22.92560005;stroke-dasharray:none;stroke-opacity:1"
         d="m 583.168,250.289 70.898,0" /><path
         id="path50"
         style="fill:none;stroke:#6452a0;stroke-width:17.00799942;stroke-linecap:round;stroke-linejoin:round;stroke-miterlimit:22.92560005;stroke-dasharray:none;stroke-opacity:1"
         d="m 583.168,202.223 70.898,0" /><path
         id="path52"
         style="fill:none;stroke:#6452a0;stroke-width:17.00799942;stroke-linecap:round;stroke-linejoin:round;stroke-miterlimit:22.92560005;stroke-dasharray:none;stroke-opacity:1"
         d="m 161.277,419.684 70.903,0" /><path
         id="path54"
         style="fill:none;stroke:#6452a0;stroke-width:17.00799942;stroke-linecap:round;stroke-linejoin:round;stroke-miterlimit:22.92560005;stroke-dasharray:none;stroke-opacity:1"
         d="m 161.277,371.617 70.903,0" /><path
         id="path56"
         style="fill:none;stroke:#6452a0;stroke-width:17.00799942;stroke-linecap:round;stroke-linejoin:round;stroke-miterlimit:22.92560005;stroke-dasharray:none;stroke-opacity:1"
         d="m 161.277,323.551 70.903,0" /></g></g></svg>