<?xml version="1.0" encoding="UTF-8" standalone="no"?>
<svg
   xmlns:dc="http://purl.org/dc/elements/1.1/"
   xmlns:cc="http://creativecommons.org/ns#"
   xmlns:rdf="http://www.w3.org/1999/02/22-rdf-syntax-ns#"
   xmlns:svg="http://www.w3.org/2000/svg"
   xmlns="http://www.w3.org/2000/svg"
   viewBox="0 0 102.0625 104.6"
   height="104.6"
   width="102.0625"
   xml:space="preserve"
   version="1.1"
   id="svg2"><metadata
     id="metadata8"><rdf:RDF><cc:Work
         rdf:about=""><dc:format>image/svg+xml</dc:format><dc:type
           rdf:resource="http://purl.org/dc/dcmitype/StillImage" /></cc:Work></rdf:RDF></metadata><defs
     id="defs6"><clipPath
       id="clipPath18"
       clipPathUnits="userSpaceOnUse"><path
         id="path20"
         d="m 0,0 816,0 0,836.789 -816,0 L 0,0 Z" /></clipPath></defs><g
     transform="matrix(1.25,0,0,-1.25,0,104.6)"
     id="g10"><g
       transform="scale(0.1,0.1)"
       id="g12"><g
         id="g14"><g
           clip-path="url(#clipPath18)"
           id="g16"><path
             id="path22"
             style="fill:none;stroke:#4278c4;stroke-width:17.00799942;stroke-linecap:round;stroke-linejoin:round;stroke-miterlimit:22.92560005;stroke-dasharray:none;stroke-opacity:1"
             d="m 14.2188,340.66 c -3.7422,21.961 -5.71489,44.539 -5.71489,67.578 0,106.879 41.94919,203.961 110.28109,275.684 m 641.278,-85.797 c 30.558,-56.488 47.91,-121.16 47.91,-189.887 C 807.973,187.469 629,8.50391 408.238,8.50391 326.52,8.50391 250.531,33.043 187.227,75.1328" /><path
             id="path24"
             style="fill:#fbc31e;fill-opacity:1;fill-rule:evenodd;stroke:none"
             d="m 213.199,423.117 32.571,12.832 61.398,-73.543 -51.527,-42.437 -42.442,103.148" /><path
             id="path26"
             style="fill:none;stroke:#6452a0;stroke-width:17.00799942;stroke-linecap:round;stroke-linejoin:round;stroke-miterlimit:22.92560005;stroke-dasharray:none;stroke-opacity:1"
             d="m 213.199,423.117 32.571,12.832 61.398,-73.543 -51.527,-42.437 -42.442,103.148 z" /><path
             id="path28"
             style="fill:#fbc31e;fill-opacity:1;fill-rule:evenodd;stroke:none"
             d="m 436.988,423.117 -32.57,12.832 -61.402,-73.543 51.531,-42.437 42.441,103.148" /><path
             id="path30"
             style="fill:none;stroke:#6452a0;stroke-width:17.00799942;stroke-linecap:round;stroke-linejoin:round;stroke-miterlimit:22.92560005;stroke-dasharray:none;stroke-opacity:1"
             d="m 436.988,423.117 -32.57,12.832 -61.402,-73.543 51.531,-42.437 42.441,103.148 z" /><path
             id="path32"
             style="fill:none;stroke:#6452a0;stroke-width:17.00799942;stroke-linecap:round;stroke-linejoin:round;stroke-miterlimit:22.92560005;stroke-dasharray:none;stroke-opacity:1"
             d="m 245.77,435.949 c 9.89,7.543 7.144,21.176 4.929,38.992" /><path
             id="path34"
             style="fill:none;stroke:#6452a0;stroke-width:17.00799942;stroke-linecap:round;stroke-linejoin:round;stroke-miterlimit:22.92560005;stroke-dasharray:none;stroke-opacity:1"
             d="m 404.418,435.949 c -9.887,7.543 -7.148,21.176 -4.93,38.992" /><path
             id="path36"
             style="fill:#fbc31e;fill-opacity:1;fill-rule:evenodd;stroke:none"
             d="m 279.031,126.898 296.844,0 c 26.063,0 51.414,21.633 47.383,47.383 l -14.934,95.063 c -12.136,77.39 -93.015,153.773 -171.336,153.773 l -42.441,-103.148 -51.531,42.437 -35.844,0 -51.531,-42.437 -42.442,103.148 c -78.32,0 -160.9568,-76.402 -173.1013,-153.773 L 25.1758,174.281 c -4.0391,-25.738 21.3125,-47.383 47.3789,-47.383 l 206.4763,0" /><path
             id="path38"
             style="fill:none;stroke:#6452a0;stroke-width:17.00799942;stroke-linecap:round;stroke-linejoin:round;stroke-miterlimit:22.92560005;stroke-dasharray:none;stroke-opacity:1"
             d="m 279.031,126.898 296.844,0 c 26.063,0 51.414,21.633 47.383,47.383 l -14.934,95.063 c -12.136,77.39 -93.015,153.773 -171.336,153.773 l -42.441,-103.148 -51.531,42.437 -35.844,0 -51.531,-42.437 -42.442,103.148 c -78.32,0 -160.9568,-76.402 -173.1013,-153.773 L 25.1758,174.281 c -4.0391,-25.738 21.3125,-47.383 47.3789,-47.383 l 206.4763,0 z" /><path
             id="path40"
             style="fill:#fbc31e;fill-opacity:1;fill-rule:evenodd;stroke:none"
             d="m 208.051,608.109 c -10.36,4.774 -9.223,5.289 -19.586,10.063 -19.594,53.141 -35.363,122.769 14.156,147.875 111.324,139.004 193.664,-0.789 296.125,16.781 12.332,-90.484 -40.547,-129.711 -94.758,-130.793 -77.976,-4.273 -124.375,24.02 -162.871,53.797 -7.699,-11.34 -7.152,-26.961 -5.922,-42.937 -10.359,8.554 -20.73,17.113 -31.093,25.664 -4.02,-26.817 -0.618,-53.625 3.949,-80.45" /><path
             id="path42"
             style="fill:none;stroke:#6452a0;stroke-width:17.00799942;stroke-linecap:round;stroke-linejoin:round;stroke-miterlimit:22.92560005;stroke-dasharray:none;stroke-opacity:1"
             d="m 208.051,608.109 c -10.36,4.774 -9.223,5.289 -19.586,10.063 -19.594,53.141 -35.363,122.769 14.156,147.875 111.324,139.004 193.664,-0.789 296.125,16.781 12.332,-90.484 -40.547,-129.711 -94.758,-130.793 -77.976,-4.273 -124.375,24.02 -162.871,53.797 -7.699,-11.34 -7.152,-26.961 -5.922,-42.937 -10.359,8.554 -20.73,17.113 -31.093,25.664 -4.02,-26.817 -0.618,-53.625 3.949,-80.45 z" /><path
             id="path44"
             style="fill:#ffffff;fill-opacity:1;fill-rule:evenodd;stroke:none"
             d="m 453.051,664.707 c 0.851,-9.098 1.289,-18.387 1.289,-27.836 0,-108.867 -58.055,-197.129 -129.688,-197.129 -66.519,0 -121.332,76.133 -128.812,174.196 l 12.652,-5.829 c -4.566,26.825 -7.969,53.633 -3.953,80.45 10.367,-8.551 20.734,-17.11 31.102,-25.664 -1.239,15.976 -1.786,31.597 5.918,42.937 38.5,-29.777 84.89,-58.07 162.871,-53.797 16.992,0.34 33.855,4.438 48.621,12.672" /><path
             id="path46"
             style="fill:none;stroke:#6452a0;stroke-width:17.00799942;stroke-linecap:round;stroke-linejoin:round;stroke-miterlimit:22.92560005;stroke-dasharray:none;stroke-opacity:1"
             d="m 453.051,664.707 c 0.851,-9.098 1.289,-18.387 1.289,-27.836 0,-108.867 -58.055,-197.129 -129.688,-197.129 -66.519,0 -121.332,76.133 -128.812,174.196 l 12.652,-5.829 c -4.566,26.825 -7.969,53.633 -3.953,80.45 10.367,-8.551 20.734,-17.11 31.102,-25.664 -1.239,15.976 -1.786,31.597 5.918,42.937 38.5,-29.777 84.89,-58.07 162.871,-53.797 16.992,0.34 33.855,4.438 48.621,12.672 z" /><path
             id="path48"
             style="fill:#6452a0;fill-opacity:1;fill-rule:evenodd;stroke:none"
             d="m 277.324,112.563 47.774,-54.7857 47.761,54.7857 -29.843,249.843 -35.848,0 -29.844,-249.843" /><path
             id="path50"
             style="fill:none;stroke:#6452a0;stroke-width:17.00799942;stroke-linecap:round;stroke-linejoin:round;stroke-miterlimit:22.92560005;stroke-dasharray:none;stroke-opacity:1"
             d="m 277.324,112.563 47.774,-54.7857 47.761,54.7857 -29.843,249.843 -35.848,0 -29.844,-249.843 z" /><path
             id="path52"
             style="fill:#fbc31e;fill-opacity:1;fill-rule:evenodd;stroke:none"
             d="m 561.898,572.902 c 24.747,0 45.899,-15.347 54.485,-37.043 8.574,21.696 29.734,37.043 54.48,37.043 32.344,0 58.567,-26.222 58.567,-58.566 0,-71.063 -113.047,-122.16 -113.047,-122.16 0,0 -113.047,47.648 -113.047,122.16 0,32.344 26.211,58.566 58.562,58.566" /><path
             id="path54"
             style="fill:none;stroke:#6452a0;stroke-width:17.00799942;stroke-linecap:round;stroke-linejoin:round;stroke-miterlimit:22.92560005;stroke-dasharray:none;stroke-opacity:1"
             d="m 561.898,572.902 c 24.747,0 45.899,-15.347 54.485,-37.043 8.574,21.696 29.734,37.043 54.48,37.043 32.344,0 58.567,-26.222 58.567,-58.566 0,-71.063 -113.047,-122.16 -113.047,-122.16 0,0 -113.047,47.648 -113.047,122.16 0,32.344 26.211,58.566 58.562,58.566 z" /><path
             id="path56"
             style="fill:#6452a0;fill-opacity:1;fill-rule:evenodd;stroke:none"
             d="m 633.383,754.586 c 14.758,0 27.375,-9.152 32.492,-22.09 5.117,12.938 17.742,22.09 32.5,22.09 19.285,0 34.93,-15.637 34.93,-34.926 0,-42.383 -67.43,-72.863 -67.43,-72.863 0,0 -67.422,28.426 -67.422,72.863 0,19.289 15.633,34.926 34.93,34.926" /></g></g></g></g></svg>