<?xml version="1.0" encoding="UTF-8" standalone="no"?>
<svg
   xmlns:dc="http://purl.org/dc/elements/1.1/"
   xmlns:cc="http://creativecommons.org/ns#"
   xmlns:rdf="http://www.w3.org/1999/02/22-rdf-syntax-ns#"
   xmlns:svg="http://www.w3.org/2000/svg"
   xmlns="http://www.w3.org/2000/svg"
   viewBox="0 0 93.0625 102.1"
   height="102.1"
   width="93.0625"
   xml:space="preserve"
   version="1.1"
   id="svg2"><metadata
     id="metadata8"><rdf:RDF><cc:Work
         rdf:about=""><dc:format>image/svg+xml</dc:format><dc:type
           rdf:resource="http://purl.org/dc/dcmitype/StillImage" /></cc:Work></rdf:RDF></metadata><defs
     id="defs6"><clipPath
       id="clipPath18"
       clipPathUnits="userSpaceOnUse"><path
         id="path20"
         d="M 0,816.813 0,0 l 744.504,0 0,816.813 -744.504,0 z" /></clipPath></defs><g
     transform="matrix(1.25,0,0,-1.25,0,102.1)"
     id="g10"><g
       transform="scale(0.1,0.1)"
       id="g12"><g
         id="g14"><g
           clip-path="url(#clipPath18)"
           id="g16"><path
             id="path22"
             style="fill:none;stroke:#4278c4;stroke-width:17.00799942;stroke-linecap:round;stroke-linejoin:round;stroke-miterlimit:22.92560005;stroke-dasharray:none;stroke-opacity:1"
             d="m 154.156,743.656 c 62.731,40.887 137.637,64.653 218.098,64.653 77.586,0 150.019,-22.098 211.336,-60.34 M 122.188,96.3164 C 88.1953,123.594 58.7461,156.309 35.1758,193.133 M 540.594,45.5547 C 489.43,21.7852 432.391,8.50391 372.254,8.50391 310.664,8.50391 252.328,22.4297 200.227,47.293 M 709.188,192.906 C 685.281,155.613 655.348,122.547 620.77,95.0859" /><path
             id="path24"
             style="fill:#fbc31e;fill-opacity:1;fill-rule:evenodd;stroke:none"
             d="m 50.2734,691.609 643.9536,0 c 22.976,0 41.777,-18.796 41.777,-41.773 l 0,-360.902 c 0,-22.981 -18.801,-41.778 -41.777,-41.778 l -643.9536,0 c -22.9726,0 -41.76949,18.797 -41.76949,41.778 l 0,360.902 c 0,22.977 18.79689,41.773 41.76949,41.773" /><path
             id="path26"
             style="fill:none;stroke:#6452a0;stroke-width:17.00799942;stroke-linecap:round;stroke-linejoin:round;stroke-miterlimit:22.92560005;stroke-dasharray:none;stroke-opacity:1"
             d="m 50.2734,691.609 643.9536,0 c 22.976,0 41.777,-18.796 41.777,-41.773 l 0,-360.902 c 0,-22.981 -18.801,-41.778 -41.777,-41.778 l -643.9536,0 c -22.9726,0 -41.76949,18.797 -41.76949,41.778 l 0,360.902 c 0,22.977 18.79689,41.773 41.76949,41.773 z" /><path
             id="path28"
             style="fill:none;stroke:#6452a0;stroke-width:17.00799942;stroke-linecap:round;stroke-linejoin:round;stroke-miterlimit:22.92560005;stroke-dasharray:none;stroke-opacity:1"
             d="m 372.258,691.609 0,45.524" /><path
             id="path30"
             style="fill:none;stroke:#6452a0;stroke-width:17.00799942;stroke-linecap:round;stroke-linejoin:round;stroke-miterlimit:22.92560005;stroke-dasharray:none;stroke-opacity:1"
             d="m 372.547,86.8047 0,160.3513" /><path
             id="path32"
             style="fill:none;stroke:#6452a0;stroke-width:17.00799942;stroke-linecap:round;stroke-linejoin:round;stroke-miterlimit:22.92560005;stroke-dasharray:none;stroke-opacity:1"
             d="M 155.676,55.2227 248.535,247.156" /><path
             id="path34"
             style="fill:none;stroke:#6452a0;stroke-width:17.00799942;stroke-linecap:round;stroke-linejoin:round;stroke-miterlimit:22.92560005;stroke-dasharray:none;stroke-opacity:1"
             d="M 588.824,55.2227 495.965,247.156" /><path
             id="path36"
             style="fill:#ffffff;fill-opacity:1;fill-rule:evenodd;stroke:none"
             d="m 504.285,443.262 114.949,0 c 0,-63.489 -51.464,-114.961 -114.949,-114.961 -63.496,0 -114.961,51.472 -114.961,114.961 0,63.488 51.465,114.961 114.961,114.961 l 0,-114.961" /><path
             id="path38"
             style="fill:none;stroke:#6452a0;stroke-width:17.00799942;stroke-linecap:round;stroke-linejoin:round;stroke-miterlimit:22.92560005;stroke-dasharray:none;stroke-opacity:1"
             d="m 504.285,443.262 114.949,0 c 0,-63.489 -51.464,-114.961 -114.949,-114.961 -63.496,0 -114.961,51.472 -114.961,114.961 0,63.488 51.465,114.961 114.961,114.961 l 0,-114.961 z" /><path
             id="path40"
             style="fill:#6452a0;fill-opacity:1;fill-rule:evenodd;stroke:none"
             d="m 536.316,477.563 152.079,1.039 c -0.575,83.586 -68.497,151.039 -152.079,151.039 l 0,-152.078" /><path
             id="path42"
             style="fill:none;stroke:#6452a0;stroke-width:17.00799942;stroke-linecap:round;stroke-linejoin:round;stroke-miterlimit:22.92560005;stroke-dasharray:none;stroke-opacity:1"
             d="m 86.3242,347.77 229.6098,0" /><path
             id="path44"
             style="fill:none;stroke:#6452a0;stroke-width:17.00799942;stroke-linecap:round;stroke-linejoin:round;stroke-miterlimit:22.92560005;stroke-dasharray:none;stroke-opacity:1"
             d="m 86.3242,428.848 82.7268,0" /><path
             id="path46"
             style="fill:none;stroke:#6452a0;stroke-width:17.00799942;stroke-linecap:round;stroke-linejoin:round;stroke-miterlimit:22.92560005;stroke-dasharray:none;stroke-opacity:1"
             d="m 86.3242,509.922 225.8748,0" /><path
             id="path48"
             style="fill:none;stroke:#6452a0;stroke-width:17.00799942;stroke-linecap:round;stroke-linejoin:round;stroke-miterlimit:22.92560005;stroke-dasharray:none;stroke-opacity:1"
             d="m 86.3242,591 78.4568,0" /><path
             id="path50"
             style="fill:none;stroke:#6452a0;stroke-width:17.00799942;stroke-linecap:round;stroke-linejoin:round;stroke-miterlimit:22.92560005;stroke-dasharray:none;stroke-opacity:1"
             d="m 195.484,590.445 186.09,0" /><path
             id="path52"
             style="fill:none;stroke:#6452a0;stroke-width:17.00799942;stroke-linecap:round;stroke-linejoin:round;stroke-miterlimit:22.92560005;stroke-dasharray:none;stroke-opacity:1"
             d="m 205.465,428.848 106.734,0" /></g></g></g></g></svg>