<?xml version="1.0" encoding="UTF-8" standalone="no"?>
<svg
   xmlns:dc="http://purl.org/dc/elements/1.1/"
   xmlns:cc="http://creativecommons.org/ns#"
   xmlns:rdf="http://www.w3.org/1999/02/22-rdf-syntax-ns#"
   xmlns:svg="http://www.w3.org/2000/svg"
   xmlns="http://www.w3.org/2000/svg"
   viewBox="0 0 111.6875 102.5"
   height="102.5"
   width="111.6875"
   xml:space="preserve"
   version="1.1"
   id="svg2"><metadata
     id="metadata8"><rdf:RDF><cc:Work
         rdf:about=""><dc:format>image/svg+xml</dc:format><dc:type
           rdf:resource="http://purl.org/dc/dcmitype/StillImage" /></cc:Work></rdf:RDF></metadata><defs
     id="defs6" /><g
     transform="matrix(1.25,0,0,-1.25,0,102.5)"
     id="g10"><g
       transform="scale(0.1,0.1)"
       id="g12"><path
         id="path14"
         style="fill:none;stroke:#4278c4;stroke-width:17.00799942;stroke-linecap:round;stroke-linejoin:round;stroke-miterlimit:22.92560005;stroke-dasharray:none;stroke-opacity:1"
         d="M 610.285,63.4492 C 550.82,28.5273 481.543,8.50781 407.59,8.50781 325.344,8.50781 248.883,33.2734 185.262,75.7539 M 169.816,732.254 c 66.524,49.078 148.758,78.086 237.774,78.086 80.75,0 155.937,-23.879 218.855,-64.945" /><path
         id="path16"
         style="fill:#fbc31e;fill-opacity:1;fill-rule:evenodd;stroke:none"
         d="m 25.1367,320.898 666.1133,0 c 9.152,0 16.633,-7.476 16.633,-16.628 l 0,-160.657 c 0,-9.148 -7.481,-16.629 -16.633,-16.629 l -666.1133,0 c -9.1484,0 -16.63279,7.481 -16.63279,16.629 l 0,160.657 c 0,9.152 7.48439,16.628 16.63279,16.628" /><path
         id="path18"
         style="fill:none;stroke:#6452a0;stroke-width:17.00799942;stroke-linecap:round;stroke-linejoin:round;stroke-miterlimit:22.92560005;stroke-dasharray:none;stroke-opacity:1"
         d="m 25.1367,320.898 666.1133,0 c 9.152,0 16.633,-7.476 16.633,-16.628 l 0,-160.657 c 0,-9.148 -7.481,-16.629 -16.633,-16.629 l -666.1133,0 c -9.1484,0 -16.63279,7.481 -16.63279,16.629 l 0,160.657 c 0,9.152 7.48439,16.628 16.63279,16.628 z" /><path
         id="path20"
         style="fill:#fbc31e;fill-opacity:1;fill-rule:evenodd;stroke:none"
         d="m 63.1211,369.582 75.2929,0 c 3.434,0 6.242,-2.805 6.242,-6.238 l 0,-42.446 -85.0271,0 c -1.5117,0 -2.7461,1.243 -2.7461,2.754 l 0,39.692 c 0,3.433 2.8047,6.238 6.2383,6.238" /><path
         id="path22"
         style="fill:none;stroke:#6452a0;stroke-width:17.00799942;stroke-linecap:round;stroke-linejoin:round;stroke-miterlimit:22.92560005;stroke-dasharray:none;stroke-opacity:1"
         d="m 63.1211,369.582 75.2929,0 c 3.434,0 6.242,-2.805 6.242,-6.238 l 0,-42.446 -85.0271,0 c -1.5117,0 -2.7461,1.243 -2.7461,2.754 l 0,39.692 c 0,3.433 2.8047,6.238 6.2383,6.238 z" /><path
         id="path24"
         style="fill:#fbc31e;fill-opacity:1;fill-rule:evenodd;stroke:none"
         d="m 226.715,369.582 75.293,0 c 3.433,0 6.242,-2.805 6.242,-6.238 l 0,-42.446 -85.027,0 c -1.508,0 -2.746,1.243 -2.746,2.754 l 0,39.692 c 0,3.433 2.804,6.238 6.238,6.238" /><path
         id="path26"
         style="fill:none;stroke:#6452a0;stroke-width:17.00799942;stroke-linecap:round;stroke-linejoin:round;stroke-miterlimit:22.92560005;stroke-dasharray:none;stroke-opacity:1"
         d="m 226.715,369.582 75.293,0 c 3.433,0 6.242,-2.805 6.242,-6.238 l 0,-42.446 -85.027,0 c -1.508,0 -2.746,1.243 -2.746,2.754 l 0,39.692 c 0,3.433 2.804,6.238 6.238,6.238 z" /><path
         id="path28"
         style="fill:#fbc31e;fill-opacity:1;fill-rule:evenodd;stroke:none"
         d="m 419.43,369.582 75.289,0 c 3.437,0 6.238,-2.805 6.238,-6.238 l 0,-42.446 -85.019,0 c -1.512,0 -2.747,1.243 -2.747,2.754 l 0,39.692 c 0,3.433 2.805,6.238 6.239,6.238" /><path
         id="path30"
         style="fill:none;stroke:#6452a0;stroke-width:17.00799942;stroke-linecap:round;stroke-linejoin:round;stroke-miterlimit:22.92560005;stroke-dasharray:none;stroke-opacity:1"
         d="m 419.43,369.582 75.289,0 c 3.437,0 6.238,-2.805 6.238,-6.238 l 0,-42.446 -85.019,0 c -1.512,0 -2.747,1.243 -2.747,2.754 l 0,39.692 c 0,3.433 2.805,6.238 6.239,6.238 z" /><path
         id="path32"
         style="fill:#fbc31e;fill-opacity:1;fill-rule:evenodd;stroke:none"
         d="m 583.02,369.582 75.3,0 c 3.43,0 6.231,-2.805 6.231,-6.238 l 0,-42.446 -85.02,0 c -1.511,0 -2.742,1.243 -2.742,2.754 l 0,39.692 c 0,3.433 2.801,6.238 6.231,6.238" /><path
         id="path34"
         style="fill:none;stroke:#6452a0;stroke-width:17.00799942;stroke-linecap:round;stroke-linejoin:round;stroke-miterlimit:22.92560005;stroke-dasharray:none;stroke-opacity:1"
         d="m 583.02,369.582 75.3,0 c 3.43,0 6.231,-2.805 6.231,-6.238 l 0,-42.446 -85.02,0 c -1.511,0 -2.742,1.243 -2.742,2.754 l 0,39.692 c 0,3.433 2.801,6.238 6.231,6.238 z" /><path
         id="path36"
         style="fill:#fbc31e;fill-opacity:1;fill-rule:evenodd;stroke:none"
         d="m 386.309,517.695 479.406,0 c 9.148,0 16.64,-7.484 16.64,-16.636 l 0,-160.649 c 0,-9.148 -7.492,-16.629 -16.64,-16.629 l -479.406,0 c -9.149,0 -16.633,7.481 -16.633,16.629 l 0,160.649 c 0,9.152 7.484,16.636 16.633,16.636" /><path
         id="path38"
         style="fill:none;stroke:#6452a0;stroke-width:17.00799942;stroke-linecap:round;stroke-linejoin:round;stroke-miterlimit:22.92560005;stroke-dasharray:none;stroke-opacity:1"
         d="m 386.309,517.695 479.406,0 c 9.148,0 16.64,-7.484 16.64,-16.636 l 0,-160.649 c 0,-9.148 -7.492,-16.629 -16.64,-16.629 l -479.406,0 c -9.149,0 -16.633,7.481 -16.633,16.629 l 0,160.649 c 0,9.152 7.484,16.636 16.633,16.636 z" /><path
         id="path40"
         style="fill:#fbc31e;fill-opacity:1;fill-rule:evenodd;stroke:none"
         d="m 424.684,566.379 75.289,0 c 3.437,0 6.238,-2.809 6.238,-6.238 l 0,-42.446 -85.02,0 c -1.511,0 -2.746,1.239 -2.746,2.75 l 0,39.696 c 0,3.429 2.805,6.238 6.239,6.238" /><path
         id="path42"
         style="fill:none;stroke:#6452a0;stroke-width:17.00799942;stroke-linecap:round;stroke-linejoin:round;stroke-miterlimit:22.92560005;stroke-dasharray:none;stroke-opacity:1"
         d="m 424.684,566.379 75.289,0 c 3.437,0 6.238,-2.809 6.238,-6.238 l 0,-42.446 -85.02,0 c -1.511,0 -2.746,1.239 -2.746,2.75 l 0,39.696 c 0,3.429 2.805,6.238 6.239,6.238 z" /><path
         id="path44"
         style="fill:#fbc31e;fill-opacity:1;fill-rule:evenodd;stroke:none"
         d="m 588.281,566.379 75.293,0 c 3.43,0 6.231,-2.809 6.231,-6.238 l 0,-42.446 -85.02,0 c -1.512,0 -2.742,1.239 -2.742,2.75 l 0,39.696 c 0,3.429 2.801,6.238 6.238,6.238" /><path
         id="path46"
         style="fill:none;stroke:#6452a0;stroke-width:17.00799942;stroke-linecap:round;stroke-linejoin:round;stroke-miterlimit:22.92560005;stroke-dasharray:none;stroke-opacity:1"
         d="m 588.281,566.379 75.293,0 c 3.43,0 6.231,-2.809 6.231,-6.238 l 0,-42.446 -85.02,0 c -1.512,0 -2.742,1.239 -2.742,2.75 l 0,39.696 c 0,3.429 2.801,6.238 6.238,6.238 z" /><path
         id="path48"
         style="fill:#fbc31e;fill-opacity:1;fill-rule:evenodd;stroke:none"
         d="m 751.875,566.379 75.293,0 c 3.43,0 6.242,-2.809 6.242,-6.238 l 0,-42.446 -85.031,0 c -1.512,0 -2.742,1.239 -2.742,2.75 l 0,39.696 c 0,3.429 2.801,6.238 6.238,6.238" /><path
         id="path50"
         style="fill:none;stroke:#6452a0;stroke-width:17.00799942;stroke-linecap:round;stroke-linejoin:round;stroke-miterlimit:22.92560005;stroke-dasharray:none;stroke-opacity:1"
         d="m 751.875,566.379 75.293,0 c 3.43,0 6.242,-2.809 6.242,-6.238 l 0,-42.446 -85.031,0 c -1.512,0 -2.742,1.239 -2.742,2.75 l 0,39.696 c 0,3.429 2.801,6.238 6.238,6.238 z" /><path
         id="path52"
         style="fill:#ffffff;fill-opacity:1;fill-rule:evenodd;stroke:none"
         d="m 35.3086,633.387 306.6954,0 c 14.746,0 26.805,-12.063 26.805,-26.809 l 0,-258.871 c 0,-14.746 -12.059,-26.809 -26.805,-26.809 l -306.6954,0 c -14.7461,0 -26.80469,12.063 -26.80469,26.809 l 0,258.871 c 0,14.746 12.05859,26.809 26.80469,26.809" /><path
         id="path54"
         style="fill:none;stroke:#6452a0;stroke-width:17.00799942;stroke-linecap:round;stroke-linejoin:round;stroke-miterlimit:22.92560005;stroke-dasharray:none;stroke-opacity:1"
         d="m 35.3086,633.387 306.6954,0 c 14.746,0 26.805,-12.063 26.805,-26.809 l 0,-258.871 c 0,-14.746 -12.059,-26.809 -26.805,-26.809 l -306.6954,0 c -14.7461,0 -26.80469,12.063 -26.80469,26.809 l 0,258.871 c 0,14.746 12.05859,26.809 26.80469,26.809 z" /><path
         id="path56"
         style="fill:#ffffff;fill-opacity:1;fill-rule:evenodd;stroke:none"
         d="m 63.1211,682.066 75.2929,0 c 3.434,0 6.242,-2.804 6.242,-6.238 l 0,-42.441 -85.0271,0 c -1.5117,0 -2.7461,1.234 -2.7461,2.75 l 0,39.691 c 0,3.434 2.8047,6.238 6.2383,6.238" /><path
         id="path58"
         style="fill:none;stroke:#6452a0;stroke-width:17.00799942;stroke-linecap:round;stroke-linejoin:round;stroke-miterlimit:22.92560005;stroke-dasharray:none;stroke-opacity:1"
         d="m 63.1211,682.066 75.2929,0 c 3.434,0 6.242,-2.804 6.242,-6.238 l 0,-42.441 -85.0271,0 c -1.5117,0 -2.7461,1.234 -2.7461,2.75 l 0,39.691 c 0,3.434 2.8047,6.238 6.2383,6.238 z" /><path
         id="path60"
         style="fill:#ffffff;fill-opacity:1;fill-rule:evenodd;stroke:none"
         d="m 226.715,682.066 75.293,0 c 3.433,0 6.242,-2.804 6.242,-6.238 l 0,-42.441 -85.027,0 c -1.508,0 -2.746,1.234 -2.746,2.75 l 0,39.691 c 0,3.434 2.804,6.238 6.238,6.238" /><path
         id="path62"
         style="fill:none;stroke:#6452a0;stroke-width:17.00799942;stroke-linecap:round;stroke-linejoin:round;stroke-miterlimit:22.92560005;stroke-dasharray:none;stroke-opacity:1"
         d="m 226.715,682.066 75.293,0 c 3.433,0 6.242,-2.804 6.242,-6.238 l 0,-42.441 -85.027,0 c -1.508,0 -2.746,1.234 -2.746,2.75 l 0,39.691 c 0,3.434 2.804,6.238 6.238,6.238 z" /><path
         id="path64"
         style="fill:#6452a0;fill-opacity:1;fill-rule:evenodd;stroke:none"
         d="m 718.223,762.855 153.351,0 c 7.371,0 13.399,-6.031 13.399,-13.398 l 0,-129.445 c 0,-7.367 -6.028,-13.399 -13.399,-13.399 l -153.351,0 c -7.371,0 -13.399,6.032 -13.399,13.399 l 0,129.445 c 0,7.367 6.028,13.398 13.399,13.398" /><path
         id="path66"
         style="fill:none;stroke:#6452a0;stroke-width:17.00799942;stroke-linecap:round;stroke-linejoin:round;stroke-miterlimit:22.92560005;stroke-dasharray:none;stroke-opacity:1"
         d="m 718.223,762.855 153.351,0 c 7.371,0 13.399,-6.031 13.399,-13.398 l 0,-129.445 c 0,-7.367 -6.028,-13.399 -13.399,-13.399 l -153.351,0 c -7.371,0 -13.399,6.032 -13.399,13.399 l 0,129.445 c 0,7.367 6.028,13.398 13.399,13.398 z" /><path
         id="path68"
         style="fill:#6452a0;fill-opacity:1;fill-rule:evenodd;stroke:none"
         d="m 759.434,811.539 75.293,0 c 3.437,0 6.242,-2.805 6.242,-6.238 l 0,-42.446 -85.02,0 c -1.515,0 -2.754,1.239 -2.754,2.754 l 0,39.692 c 0,3.433 2.813,6.238 6.239,6.238" /><path
         id="path70"
         style="fill:none;stroke:#6452a0;stroke-width:17.00799942;stroke-linecap:round;stroke-linejoin:round;stroke-miterlimit:22.92560005;stroke-dasharray:none;stroke-opacity:1"
         d="m 759.434,811.539 75.293,0 c 3.437,0 6.242,-2.805 6.242,-6.238 l 0,-42.446 -85.02,0 c -1.515,0 -2.754,1.239 -2.754,2.754 l 0,39.692 c 0,3.433 2.813,6.238 6.239,6.238 z" /><path
         id="path72"
         style="fill:none;stroke:#4278c4;stroke-width:17.00799942;stroke-linecap:round;stroke-linejoin:round;stroke-miterlimit:22.92560005;stroke-dasharray:none;stroke-opacity:1"
         d="M 777.734,278.73 C 770.313,255.344 760.91,233.066 749.766,212.055" /></g></g></svg>