<?xml version="1.0" encoding="UTF-8" standalone="no"?>
<svg
   xmlns:dc="http://purl.org/dc/elements/1.1/"
   xmlns:cc="http://creativecommons.org/ns#"
   xmlns:rdf="http://www.w3.org/1999/02/22-rdf-syntax-ns#"
   xmlns:svg="http://www.w3.org/2000/svg"
   xmlns="http://www.w3.org/2000/svg"
   viewBox="0 0 101.4 101.4"
   height="101.4"
   width="101.4"
   xml:space="preserve"
   version="1.1"
   id="svg2"><metadata
     id="metadata8"><rdf:RDF><cc:Work
         rdf:about=""><dc:format>image/svg+xml</dc:format><dc:type
           rdf:resource="http://purl.org/dc/dcmitype/StillImage" /></cc:Work></rdf:RDF></metadata><defs
     id="defs6" /><g
     transform="matrix(1.25,0,0,-1.25,0,101.4)"
     id="g10"><g
       transform="scale(0.1,0.1)"
       id="g12"><path
         id="path14"
         style="fill:none;stroke:#4278c4;stroke-width:17.00799942;stroke-linecap:round;stroke-linejoin:round;stroke-miterlimit:22.92560005;stroke-dasharray:none;stroke-opacity:1"
         d="M 88.9844,165.945 C 38.4883,232.555 8.50391,315.574 8.50391,405.613 c 0,72.274 19.30859,140.035 53.05079,198.418 M 582.105,49.8125 C 528.941,23.3867 469.02,8.50391 405.613,8.50391 343.516,8.50391 284.746,22.7617 232.41,48.1797 M 716.91,652.16 c 53.723,-67.73 85.813,-153.387 85.813,-246.547 0,-89.297 -29.485,-171.711 -79.231,-238.039 m -502.898,589.5 c 55.254,29.145 118.207,45.649 185.019,45.649 65.078,0 126.504,-15.657 180.703,-43.41" /><path
         id="path16"
         style="fill:#fbc31e;fill-opacity:1;fill-rule:evenodd;stroke:none"
         d="m 608.727,702.215 -349.852,0 0,-595.11 349.852,0 c 24.101,0 43.828,19.719 43.828,43.821 l 0,507.469 c 0,24.101 -19.727,43.82 -43.828,43.82" /><path
         id="path18"
         style="fill:none;stroke:#6452a0;stroke-width:17.00799942;stroke-linecap:round;stroke-linejoin:round;stroke-miterlimit:22.92560005;stroke-dasharray:none;stroke-opacity:1"
         d="m 608.727,702.215 -349.852,0 0,-595.11 349.852,0 c 24.101,0 43.828,19.719 43.828,43.821 l 0,507.469 c 0,24.101 -19.727,43.82 -43.828,43.82 z" /><path
         id="path20"
         style="fill:#ffffff;fill-opacity:1;fill-rule:evenodd;stroke:none"
         d="m 200.035,702.215 58.84,0 0,-595.11 -58.84,0 c -32.363,0 -58.844,26.477 -58.844,58.84 l 0,477.43 c 0,32.363 26.481,58.84 58.844,58.84" /><path
         id="path22"
         style="fill:none;stroke:#6452a0;stroke-width:17.00799942;stroke-linecap:round;stroke-linejoin:round;stroke-miterlimit:22.92560005;stroke-dasharray:none;stroke-opacity:1"
         d="m 200.035,702.215 58.84,0 0,-595.11 -58.84,0 c -32.363,0 -58.844,26.477 -58.844,58.84 l 0,477.43 c 0,32.363 26.481,58.84 58.844,58.84 z" /><path
         id="path24"
         style="fill:none;stroke:#6452a0;stroke-width:17.00799942;stroke-linecap:round;stroke-linejoin:round;stroke-miterlimit:22.92560005;stroke-dasharray:none;stroke-opacity:1"
         d="m 346.434,327.281 48.554,0" /><path
         id="path26"
         style="fill:none;stroke:#6452a0;stroke-width:17.00799942;stroke-linecap:round;stroke-linejoin:round;stroke-miterlimit:22.92560005;stroke-dasharray:none;stroke-opacity:1"
         d="m 515.309,327.281 48.554,0" /><path
         id="path28"
         style="fill:none;stroke:#6452a0;stroke-width:17.00799942;stroke-linecap:round;stroke-linejoin:round;stroke-miterlimit:22.92560005;stroke-dasharray:none;stroke-opacity:1"
         d="m 461.883,261.461 101.98,0" /><path
         id="path30"
         style="fill:none;stroke:#6452a0;stroke-width:17.00799942;stroke-linecap:round;stroke-linejoin:round;stroke-miterlimit:22.92560005;stroke-dasharray:none;stroke-opacity:1"
         d="m 346.434,195.641 126.074,0" /><path
         id="path32"
         style="fill:#6452a0;fill-opacity:1;fill-rule:evenodd;stroke:none"
         d="m 455.445,613.684 c 26.524,0 48.039,-21.508 48.039,-48.043 0,-17.684 -9.562,-33.137 -23.8,-41.481 45.449,-10.711 79.386,-51.203 80.089,-99.75 l -208.121,0 c 0.707,48.41 34.457,88.809 79.703,99.66 -14.316,8.317 -23.953,23.817 -23.953,41.571 0,26.535 21.512,48.043 48.043,48.043" /><path
         id="path34"
         style="fill:none;stroke:#6452a0;stroke-width:17.00799942;stroke-linecap:round;stroke-linejoin:round;stroke-miterlimit:22.92560005;stroke-dasharray:none;stroke-opacity:1"
         d="m 346.434,261.461 77.761,0" /><path
         id="path36"
         style="fill:none;stroke:#6452a0;stroke-width:17.00799942;stroke-linecap:round;stroke-linejoin:round;stroke-miterlimit:22.92560005;stroke-dasharray:none;stroke-opacity:1"
         d="m 507.781,195.641 56.082,0" /><path
         id="path38"
         style="fill:none;stroke:#6452a0;stroke-width:17.00799942;stroke-linecap:round;stroke-linejoin:round;stroke-miterlimit:22.92560005;stroke-dasharray:none;stroke-opacity:1"
         d="m 431.434,327.281 48.554,0" /><path
         id="path40"
         style="fill:none;stroke:#6452a0;stroke-width:17.00799942;stroke-linecap:round;stroke-linejoin:round;stroke-miterlimit:22.92560005;stroke-dasharray:none;stroke-opacity:1"
         d="m 178.309,404.66 c 0,20.496 -16.618,37.113 -37.118,37.113 -20.492,0 -37.105,-16.617 -37.105,-37.113 0,-20.492 16.613,-37.113 37.105,-37.113" /><path
         id="path42"
         style="fill:none;stroke:#6452a0;stroke-width:17.00799942;stroke-linecap:round;stroke-linejoin:round;stroke-miterlimit:22.92560005;stroke-dasharray:none;stroke-opacity:1"
         d="m 178.367,260.066 c 0,20.497 -16.617,37.11 -37.113,37.11 -20.5,0 -37.117,-16.613 -37.117,-37.11 0,-20.5 16.617,-37.121 37.117,-37.121" /><path
         id="path44"
         style="fill:none;stroke:#6452a0;stroke-width:17.00799942;stroke-linecap:round;stroke-linejoin:round;stroke-miterlimit:22.92560005;stroke-dasharray:none;stroke-opacity:1"
         d="m 178.367,549.254 c 0,20.5 -16.617,37.113 -37.113,37.113 -20.5,0 -37.117,-16.613 -37.117,-37.113 0,-20.496 16.617,-37.109 37.117,-37.109" /></g></g></svg>