<?xml version="1.0" encoding="UTF-8" standalone="no"?>
<svg
   xmlns:dc="http://purl.org/dc/elements/1.1/"
   xmlns:cc="http://creativecommons.org/ns#"
   xmlns:rdf="http://www.w3.org/1999/02/22-rdf-syntax-ns#"
   xmlns:svg="http://www.w3.org/2000/svg"
   xmlns="http://www.w3.org/2000/svg"
   viewBox="0 0 116.675 101.4"
   height="101.4"
   width="116.675"
   xml:space="preserve"
   version="1.1"
   id="svg2"><metadata
     id="metadata8"><rdf:RDF><cc:Work
         rdf:about=""><dc:format>image/svg+xml</dc:format><dc:type
           rdf:resource="http://purl.org/dc/dcmitype/StillImage" /></cc:Work></rdf:RDF></metadata><defs
     id="defs6" /><g
     transform="matrix(1.25,0,0,-1.25,0,101.4)"
     id="g10"><g
       transform="scale(0.1,0.1)"
       id="g12"><path
         id="path14"
         style="fill:none;stroke:#4278c4;stroke-width:17.00799942;stroke-linecap:round;stroke-linejoin:round;stroke-miterlimit:22.92560005;stroke-dasharray:none;stroke-opacity:1"
         d="m 914.809,494.855 c 6.593,-28.687 10.078,-58.558 10.078,-89.242 0,-219.316 -177.793,-397.10909 -397.11,-397.10909 -219.316,0 -397.109,177.79309 -397.109,397.10909 0,44.168 7.207,86.657 20.523,126.34 m 128.207,183.52 c 68.02,54.59 154.379,87.25 248.379,87.25 131.133,0 247.414,-63.586 319.727,-161.586" /><path
         id="path16"
         style="fill:#fbc31e;fill-opacity:1;fill-rule:evenodd;stroke:none"
         d="m 217.48,575.023 601.793,-0.339 c 15.165,0 47.43,-14.454 37.411,-51.829 C 840.934,464.09 825.172,405.316 809.41,346.551 803.832,327.645 791.02,319.215 773.98,316.902 L 287.371,284.461 217.48,575.023" /><path
         id="path18"
         style="fill:none;stroke:#6452a0;stroke-width:17.00799942;stroke-linecap:round;stroke-linejoin:round;stroke-miterlimit:22.92560005;stroke-dasharray:none;stroke-opacity:1"
         d="m 217.48,575.023 601.793,-0.339 c 15.165,0 47.43,-14.454 37.411,-51.829 C 840.934,464.09 825.172,405.316 809.41,346.551 803.832,327.645 791.02,319.215 773.98,316.902 L 287.371,284.461 217.48,575.023 Z" /><path
         id="path20"
         style="fill:none;stroke:#6452a0;stroke-width:17.00799942;stroke-linecap:round;stroke-linejoin:round;stroke-miterlimit:22.92560005;stroke-dasharray:none;stroke-opacity:1"
         d="m 724.723,250.223 -396.993,0 c -21.64,0 -34.921,11.609 -40.406,34.422 -29.996,124.726 -60.441,251.066 -90.664,376.601 -6.246,19.488 -19.191,31.559 -39.34,31.559 l -148.81609,0" /><path
         id="path22"
         style="fill:#6452a0;fill-opacity:1;fill-rule:evenodd;stroke:none"
         d="m 416.992,113.063 c 27.91,0 50.672,22.765 50.672,50.675 0,27.91 -22.762,50.672 -50.672,50.672 -27.91,0 -50.676,-22.762 -50.676,-50.672 0,-27.91 22.766,-50.675 50.676,-50.675" /><path
         id="path24"
         style="fill:#6452a0;fill-opacity:1;fill-rule:evenodd;stroke:none"
         d="m 672.348,113.063 c 27.902,0 50.664,22.765 50.664,50.675 0,27.91 -22.762,50.672 -50.664,50.672 -27.91,0 -50.672,-22.762 -50.672,-50.672 0,-27.91 22.762,-50.675 50.672,-50.675" /><path
         id="path26"
         style="fill:none;stroke:#6452a0;stroke-width:17.00799942;stroke-linecap:round;stroke-linejoin:round;stroke-miterlimit:22.92560005;stroke-dasharray:none;stroke-opacity:1"
         d="m 352.078,536.891 41.07,-202.93" /><path
         id="path28"
         style="fill:none;stroke:#6452a0;stroke-width:17.00799942;stroke-linecap:round;stroke-linejoin:round;stroke-miterlimit:22.92560005;stroke-dasharray:none;stroke-opacity:1"
         d="m 496.938,369.391 2.929,-32.059" /><path
         id="path30"
         style="fill:none;stroke:#6452a0;stroke-width:17.00799942;stroke-linecap:round;stroke-linejoin:round;stroke-miterlimit:22.92560005;stroke-dasharray:none;stroke-opacity:1"
         d="m 613.371,378.805 -0.164,-38.907" /><path
         id="path32"
         style="fill:none;stroke:#6452a0;stroke-width:17.00799942;stroke-linecap:round;stroke-linejoin:round;stroke-miterlimit:22.92560005;stroke-dasharray:none;stroke-opacity:1"
         d="M 740.621,536.672 727.797,352.43" /><path
         id="path34"
         style="fill:none;stroke:#6452a0;stroke-width:17.00799942;stroke-linecap:round;stroke-linejoin:round;stroke-miterlimit:22.92560005;stroke-dasharray:none;stroke-opacity:1"
         d="m 217.48,575.027 601.793,-0.343 c 15.165,0 47.43,-14.454 37.411,-51.829 C 840.934,464.09 825.172,405.316 809.41,346.551 803.832,327.645 791.02,319.215 773.98,316.902 L 287.367,284.461 217.48,575.027 Z" /><path
         id="path36"
         style="fill:#ffffff;fill-opacity:1;fill-rule:evenodd;stroke:none"
         d="m 550.297,422.871 c 69.875,0 126.855,56.984 126.855,126.852 0,69.871 -56.98,126.851 -126.855,126.851 -69.863,0 -126.856,-56.98 -126.856,-126.851 0,-69.868 56.993,-126.852 126.856,-126.852" /><path
         id="path38"
         style="fill:none;stroke:#6452a0;stroke-width:17.00799942;stroke-linecap:round;stroke-linejoin:round;stroke-miterlimit:22.92560005;stroke-dasharray:none;stroke-opacity:1"
         d="m 550.297,422.871 c 69.875,0 126.855,56.984 126.855,126.852 0,69.871 -56.98,126.851 -126.855,126.851 -69.863,0 -126.856,-56.98 -126.856,-126.851 0,-69.868 56.993,-126.852 126.856,-126.852 z" /><path
         id="path40"
         style="fill:none;stroke:#6452a0;stroke-width:17.00799942;stroke-linecap:round;stroke-linejoin:round;stroke-miterlimit:22.92560005;stroke-dasharray:none;stroke-opacity:1"
         d="m 487.68,551.93 41.886,-41.891 87.032,87.035" /></g></g></svg>