<?xml version="1.0" encoding="UTF-8" standalone="no"?>
<svg
   xmlns:dc="http://purl.org/dc/elements/1.1/"
   xmlns:cc="http://creativecommons.org/ns#"
   xmlns:rdf="http://www.w3.org/1999/02/22-rdf-syntax-ns#"
   xmlns:svg="http://www.w3.org/2000/svg"
   xmlns="http://www.w3.org/2000/svg"
   viewBox="0 0 97.8125 102.1"
   height="102.1"
   width="97.8125"
   xml:space="preserve"
   version="1.1"
   id="svg2"><metadata
     id="metadata8"><rdf:RDF><cc:Work
         rdf:about=""><dc:format>image/svg+xml</dc:format><dc:type
           rdf:resource="http://purl.org/dc/dcmitype/StillImage" /></cc:Work></rdf:RDF></metadata><defs
     id="defs6"><clipPath
       id="clipPath18"
       clipPathUnits="userSpaceOnUse"><path
         id="path20"
         d="m 0,0 782,0 0,816.813 -782,0 L 0,0 Z" /></clipPath></defs><g
     transform="matrix(1.25,0,0,-1.25,0,102.1)"
     id="g10"><g
       transform="scale(0.1,0.1)"
       id="g12"><g
         id="g14"><g
           clip-path="url(#clipPath18)"
           id="g16"><path
             id="path22"
             style="fill:none;stroke:#4278c4;stroke-width:17.00799942;stroke-linecap:round;stroke-linejoin:round;stroke-miterlimit:22.92560005;stroke-dasharray:none;stroke-opacity:1"
             d="m 84.2422,664.691 c 73.3558,87.778 183.6558,143.618 306.9958,143.618 121.926,0 231.106,-54.571 304.453,-140.61 M 600.84,67.7695 C 539.891,30.1836 468.094,8.50391 391.238,8.50391 c -74.16,0 -143.601,20.18359 -203.133,55.35939" /><path
             id="path24"
             style="fill:#fbc31e;fill-opacity:1;fill-rule:evenodd;stroke:none"
             d="m 227.992,714.195 326.488,0 c 23.059,0 41.915,-18.859 41.915,-41.914 l 0,-557.996 -410.313,0 0,557.996 c 0,23.055 18.859,41.914 41.91,41.914" /><path
             id="path26"
             style="fill:none;stroke:#6452a0;stroke-width:17.00799942;stroke-linecap:round;stroke-linejoin:round;stroke-miterlimit:22.92560005;stroke-dasharray:none;stroke-opacity:1"
             d="m 227.992,714.195 326.488,0 c 23.059,0 41.915,-18.859 41.915,-41.914 l 0,-557.996 -410.313,0 0,557.996 c 0,23.055 18.859,41.914 41.91,41.914 z" /><path
             id="path28"
             style="fill:#fbc31e;fill-opacity:1;fill-rule:evenodd;stroke:none"
             d="m 54.1836,588.156 131.8944,0 0,-473.871 -177.57409,0 0,428.195 c 0,25.125 20.55079,45.676 45.67969,45.676" /><path
             id="path30"
             style="fill:none;stroke:#6452a0;stroke-width:17.00799942;stroke-linecap:round;stroke-linejoin:round;stroke-miterlimit:22.92560005;stroke-dasharray:none;stroke-opacity:1"
             d="m 54.1836,588.156 131.8944,0 0,-473.871 -177.57409,0 0,428.195 c 0,25.125 20.55079,45.676 45.67969,45.676 z" /><path
             id="path32"
             style="fill:#fbc31e;fill-opacity:1;fill-rule:evenodd;stroke:none"
             d="m 728.301,588.156 -131.906,0 0,-473.871 177.578,0 0,428.195 c 0,25.125 -20.555,45.676 -45.672,45.676" /><path
             id="path34"
             style="fill:none;stroke:#6452a0;stroke-width:17.00799942;stroke-linecap:round;stroke-linejoin:round;stroke-miterlimit:22.92560005;stroke-dasharray:none;stroke-opacity:1"
             d="m 728.301,588.156 -131.906,0 0,-473.871 177.578,0 0,428.195 c 0,25.125 -20.555,45.676 -45.672,45.676 z" /><path
             id="path36"
             style="fill:#ffffff;fill-opacity:1;fill-rule:evenodd;stroke:none"
             d="m 365.457,650.684 51.563,0 c 8.019,0 14.57,-6.559 14.57,-14.575 l 0,-70.617 70.617,0 c 8.016,0 14.578,-6.558 14.578,-14.57 l 0,-51.563 c 0,-8.011 -6.562,-14.57 -14.578,-14.57 l -70.617,0 0,-70.621 c 0,-8.012 -6.551,-14.57 -14.57,-14.57 l -51.563,0 c -8.012,0 -14.57,6.558 -14.57,14.57 l 0,70.621 -70.614,0 c -8.019,0 -14.578,6.559 -14.578,14.57 l 0,51.563 c 0,8.012 6.559,14.57 14.578,14.57 l 70.614,0 0,70.617 c 0,8.016 6.558,14.575 14.57,14.575" /><path
             id="path38"
             style="fill:none;stroke:#6452a0;stroke-width:17.00799942;stroke-linecap:round;stroke-linejoin:round;stroke-miterlimit:22.92560005;stroke-dasharray:none;stroke-opacity:1"
             d="m 365.457,650.684 51.563,0 c 8.019,0 14.57,-6.559 14.57,-14.575 l 0,-70.617 70.617,0 c 8.016,0 14.578,-6.558 14.578,-14.57 l 0,-51.563 c 0,-8.011 -6.562,-14.57 -14.578,-14.57 l -70.617,0 0,-70.621 c 0,-8.012 -6.551,-14.57 -14.57,-14.57 l -51.563,0 c -8.012,0 -14.57,6.558 -14.57,14.57 l 0,70.621 -70.614,0 c -8.019,0 -14.578,6.559 -14.578,14.57 l 0,51.563 c 0,8.012 6.559,14.57 14.578,14.57 l 70.614,0 0,70.617 c 0,8.016 6.558,14.575 14.57,14.575 z" /><path
             id="path40"
             style="fill:#6452a0;fill-opacity:1;fill-rule:evenodd;stroke:none"
             d="m 326.418,114.285 135.699,0 0,179.18 -135.699,0 0,-179.18 z" /><path
             id="path42"
             style="fill:none;stroke:#6452a0;stroke-width:17.00799942;stroke-linecap:round;stroke-linejoin:round;stroke-miterlimit:22.92560005;stroke-dasharray:none;stroke-opacity:1"
             d="m 326.418,114.285 135.699,0 0,179.18 -135.699,0 0,-179.18 z" /><path
             id="path44"
             style="fill:#ffffff;fill-opacity:1;fill-rule:evenodd;stroke:none"
             d="m 62.0391,457.984 70.5039,0 0,70.5039 -70.5039,0 0,-70.5039 z" /><path
             id="path46"
             style="fill:none;stroke:#6452a0;stroke-width:17.00799942;stroke-linecap:round;stroke-linejoin:round;stroke-miterlimit:22.92560005;stroke-dasharray:none;stroke-opacity:1"
             d="m 62.0391,457.984 70.5039,0 0,70.5039 -70.5039,0 0,-70.5039 z" /><path
             id="path48"
             style="fill:#ffffff;fill-opacity:1;fill-rule:evenodd;stroke:none"
             d="m 62.0391,315.977 70.5039,0 0,70.4961 -70.5039,0 0,-70.4961 z" /><path
             id="path50"
             style="fill:none;stroke:#6452a0;stroke-width:17.00799942;stroke-linecap:round;stroke-linejoin:round;stroke-miterlimit:22.92560005;stroke-dasharray:none;stroke-opacity:1"
             d="m 62.0391,315.977 70.5039,0 0,70.4961 -70.5039,0 0,-70.4961 z" /><path
             id="path52"
             style="fill:#ffffff;fill-opacity:1;fill-rule:evenodd;stroke:none"
             d="m 62.0391,173.953 70.5039,0 0,70.5078 -70.5039,0 0,-70.5078 z" /><path
             id="path54"
             style="fill:none;stroke:#6452a0;stroke-width:17.00799942;stroke-linecap:round;stroke-linejoin:round;stroke-miterlimit:22.92560005;stroke-dasharray:none;stroke-opacity:1"
             d="m 62.0391,173.953 70.5039,0 0,70.5078 -70.5039,0 0,-70.5078 z" /><path
             id="path56"
             style="fill:#ffffff;fill-opacity:1;fill-rule:evenodd;stroke:none"
             d="m 649.941,457.984 70.4961,0 0,70.5039 -70.4961,0 0,-70.5039 z" /><path
             id="path58"
             style="fill:none;stroke:#6452a0;stroke-width:17.00799942;stroke-linecap:round;stroke-linejoin:round;stroke-miterlimit:22.92560005;stroke-dasharray:none;stroke-opacity:1"
             d="m 649.941,457.984 70.4961,0 0,70.5039 -70.4961,0 0,-70.5039 z" /><path
             id="path60"
             style="fill:#ffffff;fill-opacity:1;fill-rule:evenodd;stroke:none"
             d="m 649.941,315.977 70.4961,0 0,70.4961 -70.4961,0 0,-70.4961 z" /><path
             id="path62"
             style="fill:none;stroke:#6452a0;stroke-width:17.00799942;stroke-linecap:round;stroke-linejoin:round;stroke-miterlimit:22.92560005;stroke-dasharray:none;stroke-opacity:1"
             d="m 649.941,315.977 70.4961,0 0,70.4961 -70.4961,0 0,-70.4961 z" /><path
             id="path64"
             style="fill:#ffffff;fill-opacity:1;fill-rule:evenodd;stroke:none"
             d="m 649.941,173.953 70.4961,0 0,70.5078 -70.4961,0 0,-70.5078 z" /><path
             id="path66"
             style="fill:none;stroke:#6452a0;stroke-width:17.00799942;stroke-linecap:round;stroke-linejoin:round;stroke-miterlimit:22.92560005;stroke-dasharray:none;stroke-opacity:1"
             d="m 649.941,173.953 70.4961,0 0,70.5078 -70.4961,0 0,-70.5078 z" /></g></g></g></g></svg>