<?xml version="1.0" encoding="UTF-8" standalone="no"?>
<svg
   xmlns:dc="http://purl.org/dc/elements/1.1/"
   xmlns:cc="http://creativecommons.org/ns#"
   xmlns:rdf="http://www.w3.org/1999/02/22-rdf-syntax-ns#"
   xmlns:svg="http://www.w3.org/2000/svg"
   xmlns="http://www.w3.org/2000/svg"
   viewBox="0 0 110.5375 104.55"
   height="104.55"
   width="110.5375"
   xml:space="preserve"
   version="1.1"
   id="svg2"><metadata
     id="metadata8"><rdf:RDF><cc:Work
         rdf:about=""><dc:format>image/svg+xml</dc:format><dc:type
           rdf:resource="http://purl.org/dc/dcmitype/StillImage" /></cc:Work></rdf:RDF></metadata><defs
     id="defs6" /><g
     transform="matrix(1.25,0,0,-1.25,0,104.55)"
     id="g10"><g
       transform="scale(0.1,0.1)"
       id="g12"><path
         id="path14"
         style="fill:none;stroke:#4278c4;stroke-width:17.00799942;stroke-linecap:round;stroke-linejoin:round;stroke-miterlimit:22.92560005;stroke-dasharray:none;stroke-opacity:1"
         d="m 785.57,616.383 c 37.637,-62.313 57.188,-132.977 57.481,-205.344 m -507.996,384.84 c 34.086,9.426 69.992,14.457 107.078,14.457 31.277,0 61.719,-3.582 90.937,-10.356 M 41.2148,409.418 c 0,73.937 20.0157,143.195 54.918,202.656 M 670.141,79.6094 C 605.406,34.7773 526.84,8.50781 442.133,8.50781 c -89.36,0 -171.899,29.23439 -238.559,78.66019" /><path
         id="path16"
         style="fill:#fbc31e;fill-opacity:1;fill-rule:evenodd;stroke:none"
         d="m 96.168,336.105 691.934,0 c 48.211,0 87.664,-39.453 87.664,-87.667 l 0,0 c 0,-48.211 -39.453,-87.665 -87.664,-87.665 l -691.934,0 c -48.2149,0 -87.66409,39.454 -87.66409,87.665 l 0,0 c 0,48.214 39.44919,87.667 87.66409,87.667" /><path
         id="path18"
         style="fill:none;stroke:#6452a0;stroke-width:17.00799942;stroke-linecap:round;stroke-linejoin:round;stroke-miterlimit:22.92560005;stroke-dasharray:none;stroke-opacity:1"
         d="m 96.168,336.105 691.934,0 c 48.211,0 87.664,-39.453 87.664,-87.667 l 0,0 c 0,-48.211 -39.453,-87.665 -87.664,-87.665 l -691.934,0 c -48.2149,0 -87.66409,39.454 -87.66409,87.665 l 0,0 c 0,48.214 39.44919,87.667 87.66409,87.667 z" /><path
         id="path20"
         style="fill:#fbc31e;fill-opacity:1;fill-rule:evenodd;stroke:none"
         d="m 241.199,641.398 472.789,0 c 13.809,0 25.117,11.305 25.117,25.118 l 0,25.117 c 0,13.812 -11.308,25.117 -25.117,25.117 l -543.707,0 c -13.812,0 -25.117,-11.301 -25.117,-25.117 l 0,-25.117 c 0,-13.817 11.309,-25.118 25.117,-25.118 l 70.918,0" /><path
         id="path22"
         style="fill:none;stroke:#6452a0;stroke-width:17.00799942;stroke-linecap:round;stroke-linejoin:round;stroke-miterlimit:22.92560005;stroke-dasharray:none;stroke-opacity:1"
         d="m 241.199,641.398 472.789,0 c 13.809,0 25.117,11.305 25.117,25.118 l 0,25.117 c 0,13.812 -11.308,25.117 -25.117,25.117 l -543.707,0 c -13.812,0 -25.117,-11.301 -25.117,-25.117 l 0,-25.117 c 0,-13.817 11.309,-25.118 25.117,-25.118 l 70.918,0 z" /><path
         id="path24"
         style="fill:#fbc31e;fill-opacity:1;fill-rule:evenodd;stroke:none"
         d="m 188.012,641.398 508.242,0 -36.66,-208.863 -0.086,-0.09 c -4.973,-25.55 -24.727,-44.789 -48.547,-45.519 l -0.027,-0.024 -335.196,0 -0.019,0.012 c -0.367,-0.012 -0.739,-0.012 -1.11,-0.012 -25.449,0 -46.558,21.133 -50.492,48.813 l -36.105,205.683" /><path
         id="path26"
         style="fill:none;stroke:#6452a0;stroke-width:17.00799942;stroke-linecap:round;stroke-linejoin:round;stroke-miterlimit:22.92560005;stroke-dasharray:none;stroke-opacity:1"
         d="m 188.012,641.398 508.242,0 -36.66,-208.863 -0.086,-0.09 c -4.973,-25.55 -24.727,-44.789 -48.547,-45.519 l -0.027,-0.024 -335.196,0 -0.019,0.012 c -0.367,-0.012 -0.739,-0.012 -1.11,-0.012 -25.449,0 -46.558,21.133 -50.492,48.813 l -36.105,205.683 z" /><path
         id="path28"
         style="fill:none;stroke:#6452a0;stroke-width:17.00799942;stroke-linecap:round;stroke-linejoin:round;stroke-miterlimit:22.92560005;stroke-dasharray:none;stroke-opacity:1"
         d="M 600.902,716.75 699.66,827.922" /><path
         id="path30"
         style="fill:none;stroke:#6452a0;stroke-width:17.00799942;stroke-linecap:round;stroke-linejoin:round;stroke-miterlimit:22.92560005;stroke-dasharray:none;stroke-opacity:1"
         d="M 251.844,716.75 153.078,827.922" /><path
         id="path32"
         style="fill:#6452a0;fill-opacity:1;fill-rule:evenodd;stroke:none"
         d="m 299.598,579.094 32.863,0 c 5.336,0 9.699,-4.367 9.699,-9.707 l 0,-110.524 c 0,-5.343 -4.363,-9.707 -9.699,-9.707 l -32.863,0 c -5.336,0 -9.7,4.364 -9.7,9.707 l 0,110.524 c 0,5.34 4.364,9.707 9.7,9.707" /><path
         id="path34"
         style="fill:#6452a0;fill-opacity:1;fill-rule:evenodd;stroke:none"
         d="m 425.707,579.094 32.852,0 c 5.343,0 9.718,-4.367 9.718,-9.707 l 0,-110.524 c 0,-5.343 -4.375,-9.707 -9.718,-9.707 l -32.852,0 c -5.34,0 -9.707,4.364 -9.707,9.707 l 0,110.524 c 0,5.34 4.367,9.707 9.707,9.707" /><path
         id="path36"
         style="fill:#6452a0;fill-opacity:1;fill-rule:evenodd;stroke:none"
         d="m 551.813,579.094 32.859,0 c 5.344,0 9.707,-4.367 9.707,-9.707 l 0,-110.524 c 0,-5.343 -4.363,-9.707 -9.707,-9.707 l -32.859,0 c -5.344,0 -9.708,4.364 -9.708,9.707 l 0,110.524 c 0,5.34 4.364,9.707 9.708,9.707" /><path
         id="path38"
         style="fill:#ffffff;fill-opacity:1;fill-rule:evenodd;stroke:none"
         d="m 134.137,206.953 c 22.843,0 41.48,18.633 41.48,41.485 0,22.851 -18.637,41.484 -41.48,41.484 -22.852,0 -41.4847,-18.633 -41.4847,-41.484 0,-22.852 18.6327,-41.485 41.4847,-41.485" /><path
         id="path40"
         style="fill:none;stroke:#6452a0;stroke-width:17.00799942;stroke-linecap:butt;stroke-linejoin:miter;stroke-miterlimit:22.92560005;stroke-dasharray:none;stroke-opacity:1"
         d="m 134.137,206.953 c 22.843,0 41.48,18.633 41.48,41.485 0,22.851 -18.637,41.484 -41.48,41.484 -22.852,0 -41.4847,-18.633 -41.4847,-41.484 0,-22.852 18.6327,-41.485 41.4847,-41.485 z" /><path
         id="path42"
         style="fill:#ffffff;fill-opacity:1;fill-rule:evenodd;stroke:none"
         d="m 339.469,206.953 c 22.851,0 41.48,18.633 41.48,41.485 0,22.851 -18.629,41.484 -41.48,41.484 -22.848,0 -41.485,-18.633 -41.485,-41.484 0,-22.852 18.637,-41.485 41.485,-41.485" /><path
         id="path44"
         style="fill:none;stroke:#6452a0;stroke-width:17.00799942;stroke-linecap:butt;stroke-linejoin:miter;stroke-miterlimit:22.92560005;stroke-dasharray:none;stroke-opacity:1"
         d="m 339.469,206.953 c 22.851,0 41.48,18.633 41.48,41.485 0,22.851 -18.629,41.484 -41.48,41.484 -22.848,0 -41.485,-18.633 -41.485,-41.484 0,-22.852 18.637,-41.485 41.485,-41.485 z" /><path
         id="path46"
         style="fill:#ffffff;fill-opacity:1;fill-rule:evenodd;stroke:none"
         d="m 544.801,206.953 c 22.851,0 41.492,18.633 41.492,41.485 0,22.851 -18.641,41.484 -41.492,41.484 -22.852,0 -41.485,-18.633 -41.485,-41.484 0,-22.852 18.633,-41.485 41.485,-41.485" /><path
         id="path48"
         style="fill:none;stroke:#6452a0;stroke-width:17.00799942;stroke-linecap:butt;stroke-linejoin:miter;stroke-miterlimit:22.92560005;stroke-dasharray:none;stroke-opacity:1"
         d="m 544.801,206.953 c 22.851,0 41.492,18.633 41.492,41.485 0,22.851 -18.641,41.484 -41.492,41.484 -22.852,0 -41.485,-18.633 -41.485,-41.484 0,-22.852 18.633,-41.485 41.485,-41.485 z" /><path
         id="path50"
         style="fill:#ffffff;fill-opacity:1;fill-rule:evenodd;stroke:none"
         d="m 750.141,206.953 c 22.851,0 41.484,18.633 41.484,41.485 0,22.851 -18.633,41.484 -41.484,41.484 -22.852,0 -41.485,-18.633 -41.485,-41.484 0,-22.852 18.633,-41.485 41.485,-41.485" /><path
         id="path52"
         style="fill:none;stroke:#6452a0;stroke-width:17.00799942;stroke-linecap:butt;stroke-linejoin:miter;stroke-miterlimit:22.92560005;stroke-dasharray:none;stroke-opacity:1"
         d="m 750.141,206.953 c 22.851,0 41.484,18.633 41.484,41.485 0,22.851 -18.633,41.484 -41.484,41.484 -22.852,0 -41.485,-18.633 -41.485,-41.484 0,-22.852 18.633,-41.485 41.485,-41.485 z" /></g></g></svg>