<?xml version="1.0" encoding="UTF-8" standalone="no"?>
<svg
   xmlns:dc="http://purl.org/dc/elements/1.1/"
   xmlns:cc="http://creativecommons.org/ns#"
   xmlns:rdf="http://www.w3.org/1999/02/22-rdf-syntax-ns#"
   xmlns:svg="http://www.w3.org/2000/svg"
   xmlns="http://www.w3.org/2000/svg"
   viewBox="0 0 100.8375 108"
   height="108"
   width="100.8375"
   xml:space="preserve"
   version="1.1"
   id="svg2"><metadata
     id="metadata8"><rdf:RDF><cc:Work
         rdf:about=""><dc:format>image/svg+xml</dc:format><dc:type
           rdf:resource="http://purl.org/dc/dcmitype/StillImage" /></cc:Work></rdf:RDF></metadata><defs
     id="defs6"><clipPath
       id="clipPath18"
       clipPathUnits="userSpaceOnUse"><path
         id="path20"
         d="M 0,863.977 0,0 l 806.738,0 0,863.977 -806.738,0 z" /></clipPath></defs><g
     transform="matrix(1.25,0,0,-1.25,0,108)"
     id="g10"><g
       transform="scale(0.1,0.1)"
       id="g12"><g
         id="g14"><g
           clip-path="url(#clipPath18)"
           id="g16"><path
             id="path22"
             style="fill:none;stroke:#4278c4;stroke-width:17.00799942;stroke-linecap:round;stroke-linejoin:round;stroke-miterlimit:22.92560005;stroke-dasharray:none;stroke-opacity:1"
             d="m 22.0469,529.238 c 20.375,64.367 56.6015,121.688 104.0861,167.375 M 56.293,209.625 C 40.8438,236.539 28.4336,265.426 19.5352,295.816 M 577.52,48.3164 C 524.871,22.8086 465.789,8.50391 403.367,8.50391 333.844,8.50391 268.461,26.2461 211.508,57.4453 M 782.137,279.801 c -9.102,-26.817 -20.965,-52.356 -35.262,-76.27 m -64.23,491.106 c 44.484,-43.41 78.886,-97.106 99.367,-157.242" /><path
             id="path24"
             style="fill:#fbc31e;fill-opacity:1;fill-rule:evenodd;stroke:none"
             d="m 207.715,215.199 394.344,0 0,542.871 -394.344,0 0,-542.871 z" /><path
             id="path26"
             style="fill:none;stroke:#6452a0;stroke-width:17.00799942;stroke-linecap:round;stroke-linejoin:round;stroke-miterlimit:22.92560005;stroke-dasharray:none;stroke-opacity:1"
             d="m 207.715,215.199 394.344,0 0,542.871 -394.344,0 0,-542.871 z" /><path
             id="path28"
             style="fill:#ffffff;fill-opacity:1;fill-rule:evenodd;stroke:none"
             d="m 272.133,450.25 55.5898,0 0,84.0977 -55.5898,0 0,-84.0977 z" /><path
             id="path30"
             style="fill:none;stroke:#6452a0;stroke-width:17.00799942;stroke-linecap:round;stroke-linejoin:round;stroke-miterlimit:22.92560005;stroke-dasharray:none;stroke-opacity:1"
             d="m 272.133,450.25 55.5898,0 0,84.0977 -55.5898,0 0,-84.0977 z" /><path
             id="path32"
             style="fill:#ffffff;fill-opacity:1;fill-rule:evenodd;stroke:none"
             d="m 377.094,450.25 55.5898,0 0,84.0977 -55.5898,0 0,-84.0977 z" /><path
             id="path34"
             style="fill:none;stroke:#6452a0;stroke-width:17.00799942;stroke-linecap:round;stroke-linejoin:round;stroke-miterlimit:22.92560005;stroke-dasharray:none;stroke-opacity:1"
             d="m 377.094,450.25 55.5898,0 0,84.0977 -55.5898,0 0,-84.0977 z" /><path
             id="path36"
             style="fill:#ffffff;fill-opacity:1;fill-rule:evenodd;stroke:none"
             d="m 482.051,450.25 55.5938,0 0,84.0977 -55.5938,0 0,-84.0977 z" /><path
             id="path38"
             style="fill:none;stroke:#6452a0;stroke-width:17.00799942;stroke-linecap:round;stroke-linejoin:round;stroke-miterlimit:22.92560005;stroke-dasharray:none;stroke-opacity:1"
             d="m 482.051,450.25 55.5938,0 0,84.0977 -55.5938,0 0,-84.0977 z" /><path
             id="path40"
             style="fill:#ffffff;fill-opacity:1;fill-rule:evenodd;stroke:none"
             d="m 272.133,574.684 55.5898,0 0,84.0898 -55.5898,0 0,-84.0898 z" /><path
             id="path42"
             style="fill:none;stroke:#6452a0;stroke-width:17.00799942;stroke-linecap:round;stroke-linejoin:round;stroke-miterlimit:22.92560005;stroke-dasharray:none;stroke-opacity:1"
             d="m 272.133,574.684 55.5898,0 0,84.0898 -55.5898,0 0,-84.0898 z" /><path
             id="path44"
             style="fill:#ffffff;fill-opacity:1;fill-rule:evenodd;stroke:none"
             d="m 377.094,574.684 55.5898,0 0,84.0898 -55.5898,0 0,-84.0898 z" /><path
             id="path46"
             style="fill:none;stroke:#6452a0;stroke-width:17.00799942;stroke-linecap:round;stroke-linejoin:round;stroke-miterlimit:22.92560005;stroke-dasharray:none;stroke-opacity:1"
             d="m 377.094,574.684 55.5898,0 0,84.0898 -55.5898,0 0,-84.0898 z" /><path
             id="path48"
             style="fill:#ffffff;fill-opacity:1;fill-rule:evenodd;stroke:none"
             d="m 482.051,574.684 55.5938,0 0,84.0898 -55.5938,0 0,-84.0898 z" /><path
             id="path50"
             style="fill:none;stroke:#6452a0;stroke-width:17.00799942;stroke-linecap:round;stroke-linejoin:round;stroke-miterlimit:22.92560005;stroke-dasharray:none;stroke-opacity:1"
             d="m 482.051,574.684 55.5938,0 0,84.0898 -55.5938,0 0,-84.0898 z" /><path
             id="path52"
             style="fill:#fbc31e;fill-opacity:1;fill-rule:evenodd;stroke:none"
             d="m 14.418,95.8633 780.941,0 0,59.668 -780.941,0 0,-59.668 z" /><path
             id="path54"
             style="fill:none;stroke:#6452a0;stroke-width:17.00799942;stroke-linecap:round;stroke-linejoin:round;stroke-miterlimit:22.92560005;stroke-dasharray:none;stroke-opacity:1"
             d="m 14.418,95.8633 780.941,0 0,59.668 -780.941,0 0,-59.668 z" /><path
             id="path56"
             style="fill:#fbc31e;fill-opacity:1;fill-rule:evenodd;stroke:none"
             d="m 172.426,155.531 464.926,0 0,59.668 -464.926,0 0,-59.668 z" /><path
             id="path58"
             style="fill:none;stroke:#6452a0;stroke-width:17.00799942;stroke-linecap:round;stroke-linejoin:round;stroke-miterlimit:22.92560005;stroke-dasharray:none;stroke-opacity:1"
             d="m 172.426,155.531 464.926,0 0,59.668 -464.926,0 0,-59.668 z" /><path
             id="path60"
             style="fill:#6452a0;fill-opacity:1;fill-rule:evenodd;stroke:none"
             d="m 404.887,375.008 0.004,0 c 41.086,0 74.699,-33.613 74.699,-74.699 l 0,-85.11 -149.399,0 0,85.11 c 0,41.086 33.614,74.699 74.696,74.699" /><path
             id="path62"
             style="fill:none;stroke:#6452a0;stroke-width:17.00799942;stroke-linecap:round;stroke-linejoin:round;stroke-miterlimit:22.92560005;stroke-dasharray:none;stroke-opacity:1"
             d="m 404.887,375.008 0.004,0 c 41.086,0 74.699,-33.613 74.699,-74.699 l 0,-85.11 -149.399,0 0,85.11 c 0,41.086 33.614,74.699 74.696,74.699 z" /><path
             id="path64"
             style="fill:#fbc31e;fill-opacity:1;fill-rule:evenodd;stroke:none"
             d="m 172.426,712.359 464.926,0 0,59.668 -464.926,0 0,-59.668 z" /><path
             id="path66"
             style="fill:none;stroke:#6452a0;stroke-width:17.00799942;stroke-linecap:round;stroke-linejoin:round;stroke-miterlimit:22.92560005;stroke-dasharray:none;stroke-opacity:1"
             d="m 172.426,712.359 464.926,0 0,59.668 -464.926,0 0,-59.668 z" /><path
             id="path68"
             style="fill:#fbc31e;fill-opacity:1;fill-rule:evenodd;stroke:none"
             d="m 272.129,772.027 62.6211,0 0,83.4492 -62.6211,0 0,-83.4492 z" /><path
             id="path70"
             style="fill:none;stroke:#6452a0;stroke-width:17.00799942;stroke-linecap:round;stroke-linejoin:round;stroke-miterlimit:22.92560005;stroke-dasharray:none;stroke-opacity:1"
             d="m 272.129,772.027 62.6211,0 0,83.4492 -62.6211,0 0,-83.4492 z" /><path
             id="path72"
             style="fill:#fbc31e;fill-opacity:1;fill-rule:evenodd;stroke:none"
             d="m 692.313,298.285 c 58.339,0 105.917,47.578 105.917,105.91 0,58.34 -47.578,105.918 -105.917,105.918 -58.329,0 -105.907,-47.578 -105.907,-105.918 0,-58.332 47.578,-105.91 105.907,-105.91" /><path
             id="path74"
             style="fill:none;stroke:#6452a0;stroke-width:17.00799942;stroke-linecap:round;stroke-linejoin:round;stroke-miterlimit:22.92560005;stroke-dasharray:none;stroke-opacity:1"
             d="m 692.313,298.285 c 58.339,0 105.917,47.578 105.917,105.91 0,58.34 -47.578,105.918 -105.917,105.918 -58.329,0 -105.907,-47.578 -105.907,-105.918 0,-58.332 47.578,-105.91 105.907,-105.91 z" /><path
             id="path76"
             style="fill:none;stroke:#6452a0;stroke-width:17.00799942;stroke-linecap:round;stroke-linejoin:round;stroke-miterlimit:22.92560005;stroke-dasharray:none;stroke-opacity:1"
             d="m 692.313,421.52 0,-265.989" /><path
             id="path78"
             style="fill:none;stroke:#6452a0;stroke-width:17.00799942;stroke-linecap:round;stroke-linejoin:round;stroke-miterlimit:22.92560005;stroke-dasharray:none;stroke-opacity:1"
             d="m 692.313,359.664 40.226,23.223" /><path
             id="path80"
             style="fill:none;stroke:#6452a0;stroke-width:17.00799942;stroke-linecap:round;stroke-linejoin:round;stroke-miterlimit:22.92560005;stroke-dasharray:none;stroke-opacity:1"
             d="M 692.313,359.664 652.09,382.887" /><path
             id="path82"
             style="fill:none;stroke:#211d1d;stroke-width:17.00799942;stroke-linecap:butt;stroke-linejoin:miter;stroke-miterlimit:22.92560005;stroke-dasharray:none;stroke-opacity:1"
             d="M 113.367,359.664 73.1445,382.887" /><path
             id="path84"
             style="fill:#fbc31e;fill-opacity:1;fill-rule:evenodd;stroke:none"
             d="m 114.418,298.285 c 58.336,0 105.914,47.578 105.914,105.91 0,58.34 -47.578,105.918 -105.914,105.918 -58.336,0 -105.91409,-47.578 -105.91409,-105.918 0,-58.332 47.57809,-105.91 105.91409,-105.91" /><path
             id="path86"
             style="fill:none;stroke:#6452a0;stroke-width:17.00799942;stroke-linecap:round;stroke-linejoin:round;stroke-miterlimit:22.92560005;stroke-dasharray:none;stroke-opacity:1"
             d="m 114.418,298.285 c 58.336,0 105.914,47.578 105.914,105.91 0,58.34 -47.578,105.918 -105.914,105.918 -58.336,0 -105.91409,-47.578 -105.91409,-105.918 0,-58.332 47.57809,-105.91 105.91409,-105.91 z" /><path
             id="path88"
             style="fill:none;stroke:#6452a0;stroke-width:17.00799942;stroke-linecap:round;stroke-linejoin:round;stroke-miterlimit:22.92560005;stroke-dasharray:none;stroke-opacity:1"
             d="m 114.418,421.52 0,-265.989" /><path
             id="path90"
             style="fill:none;stroke:#6452a0;stroke-width:17.00799942;stroke-linecap:round;stroke-linejoin:round;stroke-miterlimit:22.92560005;stroke-dasharray:none;stroke-opacity:1"
             d="m 114.418,359.664 40.227,23.223" /><path
             id="path92"
             style="fill:none;stroke:#6452a0;stroke-width:17.00799942;stroke-linecap:round;stroke-linejoin:round;stroke-miterlimit:22.92560005;stroke-dasharray:none;stroke-opacity:1"
             d="M 114.418,359.664 74.1953,382.887" /></g></g></g></g></svg>