<?xml version="1.0" encoding="UTF-8" standalone="no"?>
<svg
   xmlns:dc="http://purl.org/dc/elements/1.1/"
   xmlns:cc="http://creativecommons.org/ns#"
   xmlns:rdf="http://www.w3.org/1999/02/22-rdf-syntax-ns#"
   xmlns:svg="http://www.w3.org/2000/svg"
   xmlns="http://www.w3.org/2000/svg"
   viewBox="0 0 101.7875 95.199997"
   height="95.199997"
   width="101.7875"
   xml:space="preserve"
   version="1.1"
   id="svg2"><metadata
     id="metadata8"><rdf:RDF><cc:Work
         rdf:about=""><dc:format>image/svg+xml</dc:format><dc:type
           rdf:resource="http://purl.org/dc/dcmitype/StillImage" /></cc:Work></rdf:RDF></metadata><defs
     id="defs6"><clipPath
       id="clipPath18"
       clipPathUnits="userSpaceOnUse"><path
         id="path20"
         d="m 0,0 814,0 0,761.633 -814,0 L 0,0 Z" /></clipPath></defs><g
     transform="matrix(1.25,0,0,-1.25,0,95.2)"
     id="g10"><g
       transform="scale(0.1,0.1)"
       id="g12"><g
         id="g14"><g
           clip-path="url(#clipPath18)"
           id="g16"><path
             id="path22"
             style="fill:#fbc31e;fill-opacity:1;fill-rule:evenodd;stroke:none"
             d="m 622.984,638.91 0,-548.953 C 622.984,45.1602 586.324,8.5 541.543,8.5 l -268.813,0 c -44.796,0 -81.449,36.6523 -81.449,81.457 l 0,581.723 c 0,44.8 36.653,81.445 81.449,81.445 l 268.813,0 c 44.801,0 81.441,-36.648 81.441,-81.445 l 0,-32.77" /><path
             id="path24"
             style="fill:none;stroke:#6452a0;stroke-width:17.00799942;stroke-linecap:round;stroke-linejoin:round;stroke-miterlimit:22.92560005;stroke-dasharray:none;stroke-opacity:1"
             d="m 622.984,638.91 0,-548.953 C 622.984,45.1602 586.324,8.5 541.543,8.5 l -268.813,0 c -44.796,0 -81.449,36.6523 -81.449,81.457 l 0,581.723 c 0,44.8 36.653,81.445 81.449,81.445 l 268.813,0 c 44.801,0 81.441,-36.648 81.441,-81.445 l 0,-32.77 z" /><path
             id="path26"
             style="fill:#6452a0;fill-opacity:1;fill-rule:evenodd;stroke:none"
             d="m 403.188,86.0195 c 18.285,0 33.195,14.9145 33.195,33.2035 0,18.293 -14.91,33.203 -33.195,33.203 -18.293,0 -33.211,-14.91 -33.211,-33.203 0,-18.289 14.918,-33.2035 33.211,-33.2035" /><path
             id="path28"
             style="fill:none;stroke:#6452a0;stroke-width:17.00799942;stroke-linecap:round;stroke-linejoin:round;stroke-miterlimit:22.92560005;stroke-dasharray:none;stroke-opacity:1"
             d="m 383.625,661.914 47.027,0" /><path
             id="path30"
             style="fill:none;stroke:#4278c4;stroke-width:17.00799942;stroke-linecap:round;stroke-linejoin:round;stroke-miterlimit:22.92560005;stroke-dasharray:none;stroke-opacity:1"
             d="M 669.012,80.2969 C 752.809,153.363 805.77,260.902 805.77,380.816 c 0,119.918 -52.961,227.446 -136.758,300.524 m -523.754,0 C 61.4609,608.262 8.50391,500.727 8.50391,380.816 8.50391,260.902 61.4609,153.363 145.258,80.2969" /><path
             id="path32"
             style="fill:#6452a0;fill-opacity:1;fill-rule:evenodd;stroke:none"
             d="m 407.137,620.441 0,0 c 21.015,0 38.203,-17.195 38.203,-38.207 l 0,-62.972 62.969,0 c 21.015,0 38.203,-17.188 38.203,-38.196 l 0,0 c 0,-21.011 -17.188,-38.207 -38.203,-38.207 l -62.969,0 0,-62.976 c 0,-21.012 -17.188,-38.199 -38.203,-38.199 l 0,0 c -21.012,0 -38.199,17.187 -38.199,38.199 l 0,62.976 -62.977,0 c -21.012,0 -38.199,17.196 -38.199,38.207 l 0,0 c 0,21.008 17.187,38.196 38.199,38.196 l 62.977,0 0,62.972 c 0,21.012 17.187,38.207 38.199,38.207" /><path
             id="path34"
             style="fill:#ffffff;fill-opacity:1;fill-rule:evenodd;stroke:none"
             d="m 623.766,392.277 0,0 c 16.093,0 29.257,-13.16 29.257,-29.254 l 0,-48.222 48.227,0 c 16.082,0 29.246,-13.164 29.246,-29.25 l 0,0 c 0,-16.094 -13.164,-29.258 -29.246,-29.258 l -48.227,0 0,-48.223 c 0,-16.082 -13.164,-29.246 -29.257,-29.246 l 0,0 c -16.082,0 -29.246,13.164 -29.246,29.246 l 0,48.223 -48.223,0 c -16.094,0 -29.258,13.164 -29.258,29.258 l 0,0 c 0,16.086 13.164,29.25 29.258,29.25 l 48.223,0 0,48.222 c 0,16.094 13.164,29.254 29.246,29.254" /><path
             id="path36"
             style="fill:none;stroke:#6452a0;stroke-width:17.00799942;stroke-linecap:round;stroke-linejoin:round;stroke-miterlimit:22.92560005;stroke-dasharray:none;stroke-opacity:1"
             d="m 623.766,392.277 0,0 c 16.093,0 29.257,-13.16 29.257,-29.254 l 0,-48.222 48.227,0 c 16.082,0 29.246,-13.164 29.246,-29.25 l 0,0 c 0,-16.094 -13.164,-29.258 -29.246,-29.258 l -48.227,0 0,-48.223 c 0,-16.082 -13.164,-29.246 -29.257,-29.246 l 0,0 c -16.082,0 -29.246,13.164 -29.246,29.246 l 0,48.223 -48.223,0 c -16.094,0 -29.258,13.164 -29.258,29.258 l 0,0 c 0,16.086 13.164,29.25 29.258,29.25 l 48.223,0 0,48.222 c 0,16.094 13.164,29.254 29.246,29.254 z" /><path
             id="path38"
             style="fill:#ffffff;fill-opacity:1;fill-rule:evenodd;stroke:none"
             d="m 190.504,392.277 0,0 c 16.086,0 29.25,-13.16 29.25,-29.254 l 0,-48.222 48.223,0 c 16.093,0 29.253,-13.164 29.253,-29.25 l 0,0 c 0,-16.094 -13.16,-29.258 -29.253,-29.258 l -48.223,0 0,-48.223 c 0,-16.082 -13.164,-29.246 -29.25,-29.246 l 0,0 c -16.086,0 -29.25,13.164 -29.25,29.246 l 0,48.223 -48.231,0 c -16.0855,0 -29.2496,13.164 -29.2496,29.258 l 0,0 c 0,16.086 13.1641,29.25 29.2496,29.25 l 48.231,0 0,48.222 c 0,16.094 13.164,29.254 29.25,29.254" /><path
             id="path40"
             style="fill:none;stroke:#6452a0;stroke-width:17.00799942;stroke-linecap:round;stroke-linejoin:round;stroke-miterlimit:22.92560005;stroke-dasharray:none;stroke-opacity:1"
             d="m 190.504,392.277 0,0 c 16.086,0 29.25,-13.16 29.25,-29.254 l 0,-48.222 48.223,0 c 16.093,0 29.253,-13.164 29.253,-29.25 l 0,0 c 0,-16.094 -13.16,-29.258 -29.253,-29.258 l -48.223,0 0,-48.223 c 0,-16.082 -13.164,-29.246 -29.25,-29.246 l 0,0 c -16.086,0 -29.25,13.164 -29.25,29.246 l 0,48.223 -48.231,0 c -16.0855,0 -29.2496,13.164 -29.2496,29.258 l 0,0 c 0,16.086 13.1641,29.25 29.2496,29.25 l 48.231,0 0,48.222 c 0,16.094 13.164,29.254 29.25,29.254 z" /></g></g></g></g></svg>