<?xml version="1.0" encoding="UTF-8" standalone="no"?>
<svg
   xmlns:dc="http://purl.org/dc/elements/1.1/"
   xmlns:cc="http://creativecommons.org/ns#"
   xmlns:rdf="http://www.w3.org/1999/02/22-rdf-syntax-ns#"
   xmlns:svg="http://www.w3.org/2000/svg"
   xmlns="http://www.w3.org/2000/svg"
   viewBox="0 0 101.125 101.7875"
   height="101.7875"
   width="101.125"
   xml:space="preserve"
   version="1.1"
   id="svg2"><metadata
     id="metadata8"><rdf:RDF><cc:Work
         rdf:about=""><dc:format>image/svg+xml</dc:format><dc:type
           rdf:resource="http://purl.org/dc/dcmitype/StillImage" /></cc:Work></rdf:RDF></metadata><defs
     id="defs6" /><g
     transform="matrix(1.25,0,0,-1.25,0,101.7875)"
     id="g10"><g
       transform="scale(0.1,0.1)"
       id="g12"><path
         id="path14"
         style="fill:#fbc31e;fill-opacity:1;fill-rule:evenodd;stroke:none"
         d="m 746.781,628.184 -684.5076,0 c -29.5742,0 -53.76949,-24.227 -53.76949,-53.774 l 0,-322.605 c 0,-29.551 24.21489,-53.77 53.76949,-53.77 l 405.4846,0 195.379,-184.1014 0,184.1014 83.644,0 c 29.551,0 53.77,24.192 53.77,53.77 l 0,322.605 c 0,29.578 -24.199,53.774 -53.77,53.774" /><path
         id="path16"
         style="fill:none;stroke:#6452a0;stroke-width:17.00799942;stroke-linecap:round;stroke-linejoin:round;stroke-miterlimit:22.92560005;stroke-dasharray:none;stroke-opacity:1"
         d="m 746.781,628.184 -684.5076,0 c -29.5742,0 -53.76949,-24.227 -53.76949,-53.774 l 0,-322.605 c 0,-29.551 24.21489,-53.77 53.76949,-53.77 l 405.4846,0 195.379,-184.1014 0,184.1014 83.644,0 c 29.551,0 53.77,24.192 53.77,53.77 l 0,322.605 c 0,29.578 -24.199,53.774 -53.77,53.774 z" /><path
         id="path18"
         style="fill:#ffffff;fill-opacity:1;fill-rule:evenodd;stroke:none"
         d="m 173.133,272.637 c 50.019,0 90.82,40.801 90.82,90.816 0,50.027 -40.801,90.828 -90.82,90.828 -50.024,0 -90.8244,-40.801 -90.8244,-90.828 0,-50.015 40.8004,-90.816 90.8244,-90.816" /><path
         id="path20"
         style="fill:none;stroke:#6452a0;stroke-width:17.00799942;stroke-linecap:round;stroke-linejoin:round;stroke-miterlimit:22.92560005;stroke-dasharray:none;stroke-opacity:1"
         d="m 173.133,272.637 c 50.019,0 90.82,40.801 90.82,90.816 0,50.027 -40.801,90.828 -90.82,90.828 -50.024,0 -90.8244,-40.801 -90.8244,-90.828 0,-50.015 40.8004,-90.816 90.8244,-90.816 z" /><path
         id="path22"
         style="fill:#ffffff;fill-opacity:1;fill-rule:evenodd;stroke:none"
         d="m 559.602,386.52 166.797,0 0,166.789 -166.797,0 0,-166.789 z" /><path
         id="path24"
         style="fill:none;stroke:#6452a0;stroke-width:17.00799942;stroke-linecap:round;stroke-linejoin:round;stroke-miterlimit:22.92560005;stroke-dasharray:none;stroke-opacity:1"
         d="m 559.602,386.52 166.797,0 0,166.789 -166.797,0 0,-166.789 z" /><path
         id="path26"
         style="fill:#6452a0;fill-opacity:1;fill-rule:evenodd;stroke:none"
         d="m 416.117,516.641 51.805,-90.555 51.816,-90.551 -207.25,0 51.813,90.551 51.816,90.555" /><path
         id="path28"
         style="fill:none;stroke:#6452a0;stroke-width:17.00799942;stroke-linecap:round;stroke-linejoin:round;stroke-miterlimit:22.92560005;stroke-dasharray:none;stroke-opacity:1"
         d="m 416.117,516.641 51.805,-90.555 51.816,-90.551 -207.25,0 51.813,90.551 51.816,90.555 z" /><path
         id="path30"
         style="fill:none;stroke:#4278c4;stroke-width:17.00799942;stroke-linecap:round;stroke-linejoin:round;stroke-miterlimit:22.92560005;stroke-dasharray:none;stroke-opacity:1"
         d="M 98.543,151.641 C 171.668,64.168 281.586,8.50391 404.516,8.50391 c 57.246,0 111.648,12.08989 160.847,33.81639 M 700.121,674.574 C 627.18,755.148 521.762,805.77 404.516,805.77 287.273,805.77 181.859,755.148 108.914,674.574" /></g></g></svg>