<?xml version="1.0" encoding="UTF-8" standalone="no"?>
<svg
   xmlns:dc="http://purl.org/dc/elements/1.1/"
   xmlns:cc="http://creativecommons.org/ns#"
   xmlns:rdf="http://www.w3.org/1999/02/22-rdf-syntax-ns#"
   xmlns:svg="http://www.w3.org/2000/svg"
   xmlns="http://www.w3.org/2000/svg"
   viewBox="0 0 102.0875 100.425"
   height="100.425"
   width="102.0875"
   xml:space="preserve"
   version="1.1"
   id="svg2"><metadata
     id="metadata8"><rdf:RDF><cc:Work
         rdf:about=""><dc:format>image/svg+xml</dc:format><dc:type
           rdf:resource="http://purl.org/dc/dcmitype/StillImage" /></cc:Work></rdf:RDF></metadata><defs
     id="defs6"><clipPath
       id="clipPath18"
       clipPathUnits="userSpaceOnUse"><path
         id="path20"
         d="m 0,0 816.727,0 0,803 L 0,803 0,0 Z" /></clipPath></defs><g
     transform="matrix(1.25,0,0,-1.25,0,100.425)"
     id="g10"><g
       transform="scale(0.1,0.1)"
       id="g12"><g
         id="g14"><g
           clip-path="url(#clipPath18)"
           id="g16"><path
             id="path22"
             style="fill:none;stroke:#4278c4;stroke-width:17.00799942;stroke-linecap:round;stroke-linejoin:round;stroke-miterlimit:22.92560005;stroke-dasharray:none;stroke-opacity:1"
             d="m 799.691,477.539 c 5.586,-26.637 8.536,-54.25 8.536,-82.551 0,-175.871 -115.118,-331.5622 -283.418,-382.6677 M 139.477,691.035 c 71.011,64.528 165.336,103.856 268.843,103.856 100.18,0 191.762,-36.84 261.93,-97.711" /><path
             id="path24"
             style="fill:#fbc31e;fill-opacity:1;fill-rule:evenodd;stroke:none"
             d="m 408.32,107.75 c 159.184,0 289.008,129.836 289.008,289.012 0,159.183 -129.824,289.011 -289.008,289.011 -159.179,0 -289.011,-129.828 -289.011,-289.011 0,-159.176 129.832,-289.012 289.011,-289.012" /><path
             id="path26"
             style="fill:none;stroke:#6452a0;stroke-width:17.00799942;stroke-linecap:round;stroke-linejoin:round;stroke-miterlimit:22.92560005;stroke-dasharray:none;stroke-opacity:1"
             d="m 408.32,107.75 c 159.184,0 289.008,129.836 289.008,289.012 0,159.183 -129.824,289.011 -289.008,289.011 -159.179,0 -289.011,-129.828 -289.011,-289.011 0,-159.176 129.832,-289.012 289.011,-289.012 z" /><path
             id="path28"
             style="fill:none;stroke:#6452a0;stroke-width:17.00799942;stroke-linecap:round;stroke-linejoin:round;stroke-miterlimit:22.92560005;stroke-dasharray:none;stroke-opacity:1"
             d="m 338.172,460.102 c 0,38.738 31.406,70.144 70.148,70.144 38.735,0 70.141,-31.406 70.141,-70.144 0,-33.465 -23.43,-61.442 -54.777,-68.454 C 414.035,389.488 408.32,381.422 408.32,372 l 0,-45.586" /><path
             id="path30"
             style="fill:#6452a0;fill-opacity:1;fill-rule:evenodd;stroke:none"
             d="m 408.402,265.992 c 8.637,0 15.672,7.051 15.672,15.684 0,8.633 -7.035,15.676 -15.672,15.676 -8.636,0 -15.683,-7.043 -15.683,-15.676 0,-8.633 7.047,-15.684 15.683,-15.684" /><path
             id="path32"
             style="fill:none;stroke:#6452a0;stroke-width:17.00799942;stroke-linecap:round;stroke-linejoin:round;stroke-miterlimit:22.92560005;stroke-dasharray:none;stroke-opacity:1"
             d="m 408.402,265.992 c 8.637,0 15.672,7.051 15.672,15.684 0,8.633 -7.035,15.676 -15.672,15.676 -8.636,0 -15.683,-7.043 -15.683,-15.676 0,-8.633 7.047,-15.684 15.683,-15.684 z" /><path
             id="path34"
             style="fill:#ffffff;fill-opacity:1;fill-rule:evenodd;stroke:none"
             d="m 158.145,442.301 c 54.66,0 99.246,44.586 99.246,99.25 0,54.664 -44.586,99.246 -99.246,99.246 -54.668,0 -99.2544,-44.582 -99.2544,-99.246 0,-54.664 44.5864,-99.25 99.2544,-99.25" /><path
             id="path36"
             style="fill:none;stroke:#6452a0;stroke-width:17.00799942;stroke-linecap:round;stroke-linejoin:round;stroke-miterlimit:22.92560005;stroke-dasharray:none;stroke-opacity:1"
             d="m 158.145,442.301 c 54.66,0 99.246,44.586 99.246,99.25 0,54.664 -44.586,99.246 -99.246,99.246 -54.668,0 -99.2544,-44.582 -99.2544,-99.246 0,-54.664 44.5864,-99.25 99.2544,-99.25 z" /><path
             id="path38"
             style="fill:#ffffff;fill-opacity:1;fill-rule:evenodd;stroke:none"
             d="m 658.5,442.301 c 54.668,0 99.25,44.586 99.25,99.25 0,54.664 -44.582,99.246 -99.25,99.246 -54.668,0 -99.246,-44.582 -99.246,-99.246 0,-54.664 44.578,-99.25 99.246,-99.25" /><path
             id="path40"
             style="fill:none;stroke:#6452a0;stroke-width:17.00799942;stroke-linecap:round;stroke-linejoin:round;stroke-miterlimit:22.92560005;stroke-dasharray:none;stroke-opacity:1"
             d="m 658.5,442.301 c 54.668,0 99.25,44.586 99.25,99.25 0,54.664 -44.582,99.246 -99.25,99.246 -54.668,0 -99.246,-44.582 -99.246,-99.246 0,-54.664 44.578,-99.25 99.246,-99.25 z" /><path
             id="path42"
             style="fill:#6452a0;fill-opacity:1;fill-rule:evenodd;stroke:none"
             d="m 408.32,8.50391 c 54.66,0 99.25,44.58989 99.25,99.24609 0,54.668 -44.59,99.25 -99.25,99.25 -54.664,0 -99.254,-44.582 -99.254,-99.25 0,-54.6562 44.59,-99.24609 99.254,-99.24609" /><path
             id="path44"
             style="fill:none;stroke:#6452a0;stroke-width:17.00799942;stroke-linecap:round;stroke-linejoin:round;stroke-miterlimit:22.92560005;stroke-dasharray:none;stroke-opacity:1"
             d="m 408.32,8.50391 c 54.66,0 99.25,44.58989 99.25,99.24609 0,54.668 -44.59,99.25 -99.25,99.25 -54.664,0 -99.254,-44.582 -99.254,-99.25 0,-54.6562 44.59,-99.24609 99.254,-99.24609 z" /><path
             id="path46"
             style="fill:none;stroke:#4278c4;stroke-width:17.00799942;stroke-linecap:round;stroke-linejoin:round;stroke-miterlimit:22.92560005;stroke-dasharray:none;stroke-opacity:1"
             d="M 17.0352,477.539 C 11.4453,450.902 8.50391,423.289 8.50391,394.988 8.50391,219.117 123.621,63.4258 291.918,12.3203" /><path
             id="path48"
             style="fill:none;stroke:#6452a0;stroke-width:17.00799942;stroke-linecap:round;stroke-linejoin:round;stroke-miterlimit:22.92560005;stroke-dasharray:none;stroke-opacity:1"
             d="m 113.273,545.063 35.457,-35.458 63.934,63.938" /><path
             id="path50"
             style="fill:none;stroke:#6452a0;stroke-width:17.00799942;stroke-linecap:round;stroke-linejoin:round;stroke-miterlimit:22.92560005;stroke-dasharray:none;stroke-opacity:1"
             d="m 608.605,541.551 99.786,0" /><path
             id="path52"
             style="fill:none;stroke:#6452a0;stroke-width:17.00799942;stroke-linecap:round;stroke-linejoin:round;stroke-miterlimit:22.92560005;stroke-dasharray:none;stroke-opacity:1"
             d="m 658.5,491.363 0,100.371" /><path
             id="path54"
             style="fill:none;stroke:#ffffff;stroke-width:17.00799942;stroke-linecap:round;stroke-linejoin:round;stroke-miterlimit:22.92560005;stroke-dasharray:none;stroke-opacity:1"
             d="m 461.371,94.3906 c -6.699,-22.9687 -27.91,-39.7539 -53.051,-39.7539 -25.144,0 -46.359,16.7852 -53.054,39.7539" /><path
             id="path56"
             style="fill:none;stroke:#ffffff;stroke-width:17.00799942;stroke-linecap:round;stroke-linejoin:round;stroke-miterlimit:22.92560005;stroke-dasharray:none;stroke-opacity:1"
             d="m 377.395,146.551 0,-19.465" /><path
             id="path58"
             style="fill:none;stroke:#ffffff;stroke-width:17.00799942;stroke-linecap:round;stroke-linejoin:round;stroke-miterlimit:22.92560005;stroke-dasharray:none;stroke-opacity:1"
             d="m 439.242,146.551 0,-19.465" /></g></g></g></g></svg>