<?xml version="1.0" encoding="UTF-8" standalone="no"?>
<svg
   xmlns:dc="http://purl.org/dc/elements/1.1/"
   xmlns:cc="http://creativecommons.org/ns#"
   xmlns:rdf="http://www.w3.org/1999/02/22-rdf-syntax-ns#"
   xmlns:svg="http://www.w3.org/2000/svg"
   xmlns="http://www.w3.org/2000/svg"
   viewBox="0 0 101.4 101.4"
   height="101.4"
   width="101.4"
   xml:space="preserve"
   version="1.1"
   id="svg2"><metadata
     id="metadata8"><rdf:RDF><cc:Work
         rdf:about=""><dc:format>image/svg+xml</dc:format><dc:type
           rdf:resource="http://purl.org/dc/dcmitype/StillImage" /></cc:Work></rdf:RDF></metadata><defs
     id="defs6" /><g
     transform="matrix(1.25,0,0,-1.25,0,101.4)"
     id="g10"><g
       transform="scale(0.1,0.1)"
       id="g12"><path
         id="path14"
         style="fill:none;stroke:#4278c4;stroke-width:17.00799942;stroke-linecap:round;stroke-linejoin:round;stroke-miterlimit:22.92560005;stroke-dasharray:none;stroke-opacity:1"
         d="M 660.855,101.422 C 591.832,43.4453 502.809,8.50391 405.613,8.50391 c -97.199,0 -186.222,34.94139 -255.246,92.91809 m 0,608.379 c 69.024,57.98 158.047,92.922 255.246,92.922 97.196,0 186.211,-34.942 255.242,-92.922" /><path
         id="path16"
         style="fill:#ffffff;fill-opacity:1;fill-rule:evenodd;stroke:none"
         d="m 87.3906,663.367 573.8364,0 c 43.398,0 78.898,-35.5 78.898,-78.887 l 0,-295.128 c 0,-43.399 -35.5,-78.887 -78.898,-78.887 l -573.8364,0 C 44,210.465 8.50391,245.953 8.50391,289.352 l 0,295.128 c 0,43.387 35.49609,78.887 78.88669,78.887" /><path
         id="path18"
         style="fill:none;stroke:#6452a0;stroke-width:17.00799942;stroke-linecap:round;stroke-linejoin:round;stroke-miterlimit:22.92560005;stroke-dasharray:none;stroke-opacity:1"
         d="m 87.3906,663.367 573.8364,0 c 43.398,0 78.898,-35.5 78.898,-78.887 l 0,-295.128 c 0,-43.399 -35.5,-78.887 -78.898,-78.887 l -573.8364,0 C 44,210.465 8.50391,245.953 8.50391,289.352 l 0,295.128 c 0,43.387 35.49609,78.887 78.88669,78.887 z" /><path
         id="path20"
         style="fill:#fbc31e;fill-opacity:1;fill-rule:evenodd;stroke:none"
         d="m 149.992,600.762 573.844,0 c 43.387,0 78.887,-35.496 78.887,-78.883 l 0,-295.133 c 0,-43.391 -35.5,-78.887 -78.887,-78.887 l -573.844,0 c -43.387,0 -78.8865,35.496 -78.8865,78.887 l 0,295.133 c 0,43.387 35.4995,78.883 78.8865,78.883" /><path
         id="path22"
         style="fill:none;stroke:#6452a0;stroke-width:17.00799942;stroke-linecap:round;stroke-linejoin:round;stroke-miterlimit:22.92560005;stroke-dasharray:none;stroke-opacity:1"
         d="m 149.992,600.762 573.844,0 c 43.387,0 78.887,-35.496 78.887,-78.883 l 0,-295.133 c 0,-43.391 -35.5,-78.887 -78.887,-78.887 l -573.844,0 c -43.387,0 -78.8865,35.496 -78.8865,78.887 l 0,295.133 c 0,43.387 35.4995,78.883 78.8865,78.883 z" /><path
         id="path24"
         style="fill:#6452a0;fill-opacity:1;fill-rule:evenodd;stroke:none"
         d="m 71.1055,428.25 731.617,0 0,93.6289 -731.617,0 0,-93.6289 z" /><path
         id="path26"
         style="fill:#ffffff;fill-opacity:1;fill-rule:evenodd;stroke:none"
         d="m 620.398,195.262 c 30.508,0 55.399,24.89 55.399,55.398 0,30.52 -24.891,55.403 -55.399,55.403 -30.519,0 -55.402,-24.883 -55.402,-55.403 0,-30.508 24.883,-55.398 55.402,-55.398" /><path
         id="path28"
         style="fill:none;stroke:#6452a0;stroke-width:17.00799942;stroke-linecap:round;stroke-linejoin:round;stroke-miterlimit:22.92560005;stroke-dasharray:none;stroke-opacity:1"
         d="m 620.398,195.262 c 30.508,0 55.399,24.89 55.399,55.398 0,30.52 -24.891,55.403 -55.399,55.403 -30.519,0 -55.402,-24.883 -55.402,-55.403 0,-30.508 24.883,-55.398 55.402,-55.398 z" /><path
         id="path30"
         style="fill:#fbc31e;fill-opacity:1;fill-rule:evenodd;stroke:none"
         d="m 690.75,195.262 c 30.516,0 55.398,24.89 55.398,55.398 0,30.52 -24.882,55.403 -55.398,55.403 -30.52,0 -55.402,-24.883 -55.402,-55.403 0,-30.508 24.882,-55.398 55.402,-55.398" /><path
         id="path32"
         style="fill:none;stroke:#6452a0;stroke-width:17.00799942;stroke-linecap:round;stroke-linejoin:round;stroke-miterlimit:22.92560005;stroke-dasharray:none;stroke-opacity:1"
         d="m 690.75,195.262 c 30.516,0 55.398,24.89 55.398,55.398 0,30.52 -24.882,55.403 -55.398,55.403 -30.52,0 -55.402,-24.883 -55.402,-55.403 0,-30.508 24.882,-55.398 55.402,-55.398 z" /><path
         id="path34"
         style="fill:#ffffff;fill-opacity:1;fill-rule:evenodd;stroke:none"
         d="m 131.695,372.566 80.371,0 c 5.168,0 9.391,-4.23 9.391,-9.394 l 0,0 c 0,-5.168 -4.223,-9.387 -9.391,-9.387 l -80.371,0 c -5.164,0 -9.386,4.219 -9.386,9.387 l 0,0 c 0,5.164 4.222,9.394 9.386,9.394" /><path
         id="path36"
         style="fill:#ffffff;fill-opacity:1;fill-rule:evenodd;stroke:none"
         d="m 254.895,372.566 80.375,0 c 5.164,0 9.386,-4.23 9.386,-9.394 l 0,0 c 0,-5.168 -4.222,-9.387 -9.386,-9.387 l -80.375,0 c -5.165,0 -9.391,4.219 -9.391,9.387 l 0,0 c 0,5.164 4.226,9.394 9.391,9.394" /><path
         id="path38"
         style="fill:#ffffff;fill-opacity:1;fill-rule:evenodd;stroke:none"
         d="m 378.094,372.566 80.371,0 c 5.164,0 9.394,-4.23 9.394,-9.394 l 0,0 c 0,-5.168 -4.23,-9.387 -9.394,-9.387 l -80.371,0 c -5.16,0 -9.391,4.219 -9.391,9.387 l 0,0 c 0,5.164 4.231,9.394 9.391,9.394" /><path
         id="path40"
         style="fill:#ffffff;fill-opacity:1;fill-rule:evenodd;stroke:none"
         d="m 501.285,372.566 80.383,0 c 5.164,0 9.383,-4.23 9.383,-9.394 l 0,0 c 0,-5.168 -4.219,-9.387 -9.383,-9.387 l -80.383,0 c -5.156,0 -9.383,4.219 -9.383,9.387 l 0,0 c 0,5.164 4.227,9.394 9.383,9.394" /><path
         id="path42"
         style="fill:#6452a0;fill-opacity:1;fill-rule:evenodd;stroke:none"
         d="m 130.145,220.652 168.773,0 c 4.312,0 7.844,-3.527 7.844,-7.843 l 0,0 c 0,-4.317 -3.532,-7.84 -7.844,-7.84 l -168.773,0 c -4.313,0 -7.836,3.523 -7.836,7.84 l 0,0 c 0,4.316 3.523,7.843 7.836,7.843" /><path
         id="path44"
         style="fill:#6452a0;fill-opacity:1;fill-rule:evenodd;stroke:none"
         d="m 357.234,220.652 93.133,0 c 4.309,0 7.844,-3.527 7.844,-7.843 l 0,0 c 0,-4.317 -3.535,-7.84 -7.844,-7.84 l -93.133,0 c -4.312,0 -7.843,3.523 -7.843,7.84 l 0,0 c 0,4.316 3.531,7.843 7.843,7.843" /><path
         id="path46"
         style="fill:#6452a0;fill-opacity:1;fill-rule:evenodd;stroke:none"
         d="m 130.145,263.328 67.113,0 c 4.312,0 7.844,-3.527 7.844,-7.832 l 0,-0.012 c 0,-4.304 -3.532,-7.832 -7.844,-7.832 l -67.113,0 c -4.313,0 -7.836,3.528 -7.836,7.832 l 0,0.012 c 0,4.305 3.523,7.832 7.836,7.832" /><path
         id="path48"
         style="fill:#6452a0;fill-opacity:1;fill-rule:evenodd;stroke:none"
         d="m 252.32,263.328 67.11,0 c 4.312,0 7.843,-3.527 7.843,-7.832 l 0,-0.012 c 0,-4.304 -3.531,-7.832 -7.843,-7.832 l -67.11,0 c -4.316,0 -7.84,3.528 -7.84,7.832 l 0,0.012 c 0,4.305 3.524,7.832 7.84,7.832" /></g></g></svg>