<?xml version="1.0" encoding="UTF-8" standalone="no"?>
<svg
   xmlns:dc="http://purl.org/dc/elements/1.1/"
   xmlns:cc="http://creativecommons.org/ns#"
   xmlns:rdf="http://www.w3.org/1999/02/22-rdf-syntax-ns#"
   xmlns:svg="http://www.w3.org/2000/svg"
   xmlns="http://www.w3.org/2000/svg"
   viewBox="0 0 101.7875 101.7875"
   height="101.7875"
   width="101.7875"
   xml:space="preserve"
   version="1.1"
   id="svg2"><metadata
     id="metadata8"><rdf:RDF><cc:Work
         rdf:about=""><dc:format>image/svg+xml</dc:format><dc:type
           rdf:resource="http://purl.org/dc/dcmitype/StillImage" /></cc:Work></rdf:RDF></metadata><defs
     id="defs6" /><g
     transform="matrix(1.25,0,0,-1.25,0,101.7875)"
     id="g10"><g
       transform="scale(0.1,0.1)"
       id="g12"><path
         id="path14"
         style="fill:none;stroke:#4278c4;stroke-width:17.00799942;stroke-linecap:round;stroke-linejoin:round;stroke-miterlimit:22.92560005;stroke-dasharray:none;stroke-opacity:1"
         d="m 786.188,283.492 c 12.695,38.93 19.582,80.481 19.582,123.645 0,220.156 -178.477,398.633 -398.633,398.633 -33,0 -65.059,-4.02 -95.727,-11.579 M 29.6992,535.711 C 15.9609,495.375 8.50391,452.121 8.50391,407.137 8.50391,186.98 186.98,8.50391 407.137,8.50391 c 78.855,0 152.363,22.89839 214.226,62.41409" /><path
         id="path16"
         style="fill:#fbc31e;fill-opacity:1;fill-rule:evenodd;stroke:none"
         d="m 154.125,420.402 c 0,-75.668 47.348,-142.433 119.461,-182.093 l 0.07,-65.586 85.418,0.007 0,34.336 c 21.852,-4.531 44.781,-6.953 68.395,-6.953 23.066,0 45.469,2.309 66.867,6.645 l 0,-34.082 87.254,0.027 0.008,65.75 c 48.859,26.926 86.34,66.328 105.363,112.5 l 44.043,-0.066 0.019,110.445 -34.902,-0.078 c -10.734,46.156 -39.348,87.25 -79.816,118.418 0,0 2.05,82 -2.821,86.238 -8.761,7.637 -83.535,-41.222 -83.535,-41.222 -137.16,44.707 -375.824,-30.426 -375.824,-204.286" /><path
         id="path18"
         style="fill:none;stroke:#6452a0;stroke-width:17.00799942;stroke-linecap:round;stroke-linejoin:round;stroke-miterlimit:22.92560005;stroke-dasharray:none;stroke-opacity:1"
         d="m 154.125,420.402 c 0,-75.668 47.348,-142.433 119.461,-182.093 l 0.07,-65.586 85.418,0.007 0,34.336 c 21.852,-4.531 44.781,-6.953 68.395,-6.953 23.066,0 45.469,2.309 66.867,6.645 l 0,-34.082 87.254,0.027 0.008,65.75 c 48.859,26.926 86.34,66.328 105.363,112.5 l 44.043,-0.066 0.019,110.445 -34.902,-0.078 c -10.734,46.156 -39.348,87.25 -79.816,118.418 0,0 2.05,82 -2.821,86.238 -8.761,7.637 -83.535,-41.222 -83.535,-41.222 -137.16,44.707 -375.824,-30.426 -375.824,-204.286 z" /><path
         id="path20"
         style="fill:#6452a0;fill-opacity:1;fill-rule:evenodd;stroke:none"
         d="m 617.633,475.23 c 0,10.942 -8.922,19.86 -19.863,19.86 -10.934,0 -19.852,-8.918 -19.852,-19.86 0,-10.933 8.918,-19.863 19.852,-19.863 10.941,0 19.863,8.93 19.863,19.863" /><path
         id="path22"
         style="fill:none;stroke:#6452a0;stroke-width:17.00799942;stroke-linecap:round;stroke-linejoin:round;stroke-miterlimit:22.92560005;stroke-dasharray:none;stroke-opacity:1"
         d="m 109.039,468.488 c -24.9257,0 -45.1249,-20.203 -45.1249,-45.133 0,-24.917 20.1992,-45.125 45.1249,-45.125 24.922,0 45.129,20.208 45.129,45.125" /><path
         id="path24"
         style="fill:#ffffff;fill-opacity:1;fill-rule:evenodd;stroke:none"
         d="m 177.691,515.598 c 77.985,0 141.59,63.605 141.59,141.59 0,77.98 -63.605,141.585 -141.59,141.585 -77.9801,0 -141.5855,-63.605 -141.5855,-141.585 0,-77.985 63.6054,-141.59 141.5855,-141.59" /><path
         id="path26"
         style="fill:none;stroke:#6452a0;stroke-width:17.00799942;stroke-linecap:round;stroke-linejoin:round;stroke-miterlimit:22.92560005;stroke-dasharray:none;stroke-opacity:1"
         d="m 177.691,515.598 c 77.985,0 141.59,63.605 141.59,141.59 0,77.98 -63.605,141.585 -141.59,141.585 -77.9801,0 -141.5855,-63.605 -141.5855,-141.585 0,-77.985 63.6054,-141.59 141.5855,-141.59 z" /><path
         id="path28"
         style="fill:none;stroke:#6452a0;stroke-width:17.00799942;stroke-linecap:round;stroke-linejoin:round;stroke-miterlimit:22.92560005;stroke-dasharray:none;stroke-opacity:1"
         d="m 153.473,722.746 0,-131.129" /><path
         id="path30"
         style="fill:none;stroke:#6452a0;stroke-width:17.00799942;stroke-linecap:round;stroke-linejoin:round;stroke-miterlimit:22.92560005;stroke-dasharray:none;stroke-opacity:1"
         d="m 153.473,722.746 51.648,0 c 17.039,0 30.984,-13.937 30.984,-30.98 l 0,-0.004 c 0,-17.035 -13.949,-30.985 -30.984,-30.985 l -83.008,0" /><path
         id="path32"
         style="fill:none;stroke:#6452a0;stroke-width:17.00799942;stroke-linecap:round;stroke-linejoin:round;stroke-miterlimit:22.92560005;stroke-dasharray:none;stroke-opacity:1"
         d="m 122.113,626.117 69.953,0" /><path
         id="path34"
         style="fill:#6452a0;fill-opacity:1;fill-rule:evenodd;stroke:none"
         d="m 710.973,76.8242 c 52.207,0 94.797,42.5858 94.797,94.7928 0,52.219 -42.59,94.797 -94.797,94.797 -52.215,0 -94.793,-42.578 -94.793,-94.797 0,-52.207 42.578,-94.7928 94.793,-94.7928" /><path
         id="path36"
         style="fill:none;stroke:#ffffff;stroke-width:17.00799942;stroke-linecap:round;stroke-linejoin:round;stroke-miterlimit:22.92560005;stroke-dasharray:none;stroke-opacity:1"
         d="m 696.043,216.609 0,-89.98" /><path
         id="path38"
         style="fill:none;stroke:#ffffff;stroke-width:17.00799942;stroke-linecap:round;stroke-linejoin:round;stroke-miterlimit:22.92560005;stroke-dasharray:none;stroke-opacity:1"
         d="m 696.043,216.609 35.437,0 c 11.692,0 21.262,-9.57 21.262,-21.257 l 0,-0.012 c 0,-11.692 -9.57,-21.262 -21.262,-21.262 l -56.96,0" /><path
         id="path40"
         style="fill:none;stroke:#ffffff;stroke-width:17.00799942;stroke-linecap:round;stroke-linejoin:round;stroke-miterlimit:22.92560005;stroke-dasharray:none;stroke-opacity:1"
         d="m 674.52,150.301 47.996,0" /><path
         id="path42"
         style="fill:none;stroke:#6452a0;stroke-width:17.00799942;stroke-linecap:round;stroke-linejoin:round;stroke-miterlimit:22.92560005;stroke-dasharray:none;stroke-opacity:1"
         d="m 215.438,452.836 c 73.707,13.523 133.808,65.949 158.238,135.211" /></g></g></svg>