<?xml version="1.0" encoding="UTF-8" standalone="no"?>
<svg
   xmlns:dc="http://purl.org/dc/elements/1.1/"
   xmlns:cc="http://creativecommons.org/ns#"
   xmlns:rdf="http://www.w3.org/1999/02/22-rdf-syntax-ns#"
   xmlns:svg="http://www.w3.org/2000/svg"
   xmlns="http://www.w3.org/2000/svg"
   viewBox="0 0 111.0875 102.225"
   height="102.225"
   width="111.0875"
   xml:space="preserve"
   version="1.1"
   id="svg2"><metadata
     id="metadata8"><rdf:RDF><cc:Work
         rdf:about=""><dc:format>image/svg+xml</dc:format><dc:type
           rdf:resource="http://purl.org/dc/dcmitype/StillImage" /></cc:Work></rdf:RDF></metadata><defs
     id="defs6"><clipPath
       id="clipPath18"
       clipPathUnits="userSpaceOnUse"><path
         id="path20"
         d="M 0,817.84 0,0 l 888.699,0 0,817.84 -888.699,0 z" /></clipPath></defs><g
     transform="matrix(1.25,0,0,-1.25,0,102.225)"
     id="g10"><g
       transform="scale(0.1,0.1)"
       id="g12"><g
         id="g14"><g
           clip-path="url(#clipPath18)"
           id="g16"><path
             id="path22"
             style="fill:none;stroke:#4278c4;stroke-width:17.00799942;stroke-linecap:round;stroke-linejoin:round;stroke-miterlimit:22.92560005;stroke-dasharray:none;stroke-opacity:1"
             d="M 750.152,150.426 C 676.703,63.6172 566.969,8.5 444.352,8.5 382.754,8.5 324.406,22.418 272.285,47.2617 M 168.156,698.844 c 71.848,68.461 169.114,110.492 276.196,110.492 109.031,0 207.898,-43.59 280.105,-114.281" /><path
             id="path24"
             style="fill:#fbc31e;fill-opacity:1;fill-rule:evenodd;stroke:none"
             d="m 62.6055,633.559 763.4845,0 c 29.754,0 54.109,-24.344 54.109,-54.102 l 0,-324.629 c 0,-29.758 -24.355,-54.109 -54.109,-54.109 l -482.719,0 -196.598,-185.2463 0,185.2463 -84.1675,0 c -29.7539,0 -54.10159,24.344 -54.10159,54.109 l 0,324.629 c 0,29.758 24.34769,54.102 54.10159,54.102" /><path
             id="path26"
             style="fill:none;stroke:#6452a0;stroke-width:17.00799942;stroke-linecap:round;stroke-linejoin:round;stroke-miterlimit:22.92560005;stroke-dasharray:none;stroke-opacity:1"
             d="m 62.6055,633.559 763.4845,0 c 29.754,0 54.109,-24.344 54.109,-54.102 l 0,-324.629 c 0,-29.758 -24.355,-54.109 -54.109,-54.109 l -482.719,0 -196.598,-185.2463 0,185.2463 -84.1675,0 c -29.7539,0 -54.10159,24.344 -54.10159,54.109 l 0,324.629 c 0,29.758 24.34769,54.102 54.10159,54.102 z" /><path
             id="path28"
             style="fill:none;stroke:#6452a0;stroke-width:17.00799942;stroke-linecap:round;stroke-linejoin:round;stroke-miterlimit:22.92560005;stroke-dasharray:none;stroke-opacity:1"
             d="m 475.738,510.23 0,-177.726 118.258,0" /><path
             id="path30"
             style="fill:none;stroke:#6452a0;stroke-width:17.00799942;stroke-linecap:round;stroke-linejoin:round;stroke-miterlimit:22.92560005;stroke-dasharray:none;stroke-opacity:1"
             d="m 112.199,510.23 0,-177.726" /><path
             id="path32"
             style="fill:none;stroke:#6452a0;stroke-width:17.00799942;stroke-linecap:round;stroke-linejoin:round;stroke-miterlimit:22.92560005;stroke-dasharray:none;stroke-opacity:1"
             d="m 230.457,510.23 0,-177.726" /><path
             id="path34"
             style="fill:none;stroke:#6452a0;stroke-width:17.00799942;stroke-linecap:round;stroke-linejoin:round;stroke-miterlimit:22.92560005;stroke-dasharray:none;stroke-opacity:1"
             d="m 112.199,421.367 118.258,0" /><path
             id="path36"
             style="fill:none;stroke:#6452a0;stroke-width:17.00799942;stroke-linecap:round;stroke-linejoin:round;stroke-miterlimit:22.92560005;stroke-dasharray:none;stroke-opacity:1"
             d="m 293.773,510.363 0,-177.722" /><path
             id="path38"
             style="fill:none;stroke:#6452a0;stroke-width:17.00799942;stroke-linecap:round;stroke-linejoin:round;stroke-miterlimit:22.92560005;stroke-dasharray:none;stroke-opacity:1"
             d="m 293.77,421.504 70.093,0" /><path
             id="path40"
             style="fill:none;stroke:#6452a0;stroke-width:17.00799942;stroke-linecap:round;stroke-linejoin:round;stroke-miterlimit:22.92560005;stroke-dasharray:none;stroke-opacity:1"
             d="m 293.77,510.359 118.257,0" /><path
             id="path42"
             style="fill:none;stroke:#6452a0;stroke-width:17.00799942;stroke-linecap:round;stroke-linejoin:round;stroke-miterlimit:22.92560005;stroke-dasharray:none;stroke-opacity:1"
             d="m 293.77,332.648 118.257,0" /><path
             id="path44"
             style="fill:none;stroke:#6452a0;stroke-width:17.00799942;stroke-linecap:round;stroke-linejoin:round;stroke-miterlimit:22.92560005;stroke-dasharray:none;stroke-opacity:1"
             d="m 658.246,510.23 0,-177.726" /><path
             id="path46"
             style="fill:none;stroke:#6452a0;stroke-width:17.00799942;stroke-linecap:round;stroke-linejoin:round;stroke-miterlimit:22.92560005;stroke-dasharray:none;stroke-opacity:1"
             d="m 658.246,510.23 73.828,0 c 24.434,0 44.426,-19.996 44.426,-44.433 l 0,0 c 0,-24.442 -19.992,-44.43 -44.426,-44.43 l -73.828,0 0,88.863 z" /></g></g></g></g></svg>