<?xml version="1.0" encoding="UTF-8" standalone="no"?>
<svg
   xmlns:dc="http://purl.org/dc/elements/1.1/"
   xmlns:cc="http://creativecommons.org/ns#"
   xmlns:rdf="http://www.w3.org/1999/02/22-rdf-syntax-ns#"
   xmlns:svg="http://www.w3.org/2000/svg"
   xmlns="http://www.w3.org/2000/svg"
   viewBox="0 0 102.0625 102.0625"
   height="102.0625"
   width="102.0625"
   xml:space="preserve"
   version="1.1"
   id="svg2"><metadata
     id="metadata8"><rdf:RDF><cc:Work
         rdf:about=""><dc:format>image/svg+xml</dc:format><dc:type
           rdf:resource="http://purl.org/dc/dcmitype/StillImage" /></cc:Work></rdf:RDF></metadata><defs
     id="defs6" /><g
     transform="matrix(1.25,0,0,-1.25,0,102.0625)"
     id="g10"><g
       transform="scale(0.1,0.1)"
       id="g12"><path
         id="path14"
         style="fill:none;stroke:#4278c4;stroke-width:17.00799942;stroke-linecap:round;stroke-linejoin:round;stroke-miterlimit:22.92560005;stroke-dasharray:none;stroke-opacity:1"
         d="M 41.9609,247.965 C 20.4648,297.035 8.50391,351.234 8.50391,408.238 c 0,220.766 178.96509,399.731 399.73409,399.731 65.321,0 126.981,-15.668 181.426,-43.446 M 595.492,55.0156 C 539.633,25.3359 475.902,8.5 408.238,8.5 336.973,8.5 270.078,27.1719 212.145,59.8594 M 766.734,585.227 c 26.395,-53.356 41.239,-113.442 41.239,-176.989 0,-66.211 -16.102,-128.664 -44.598,-183.652" /><path
         id="path16"
         style="fill:#fbc31e;fill-opacity:1;fill-rule:evenodd;stroke:none"
         d="m 183.75,108.609 -9.047,0 0,0.528 c 2.969,-0.344 5.985,-0.528 9.047,-0.528 z m 457.66,599.262 -345.41,0 c -18.988,0 -34.52,-15.531 -34.52,-34.519 l 0,-487.02 c 0,-42.754 -34.98,-77.723 -77.73,-77.723 l 492.184,0 c 18.984,0 34.519,15.528 34.519,34.52 l 0,530.223 c 0,18.988 -15.535,34.519 -34.519,34.519 l -34.524,0 0,0" /><path
         id="path18"
         style="fill:none;stroke:#6452a0;stroke-width:17.00799942;stroke-linecap:round;stroke-linejoin:round;stroke-miterlimit:22.92560005;stroke-dasharray:none;stroke-opacity:1"
         d="m 183.75,108.609 -9.047,0 0,0.528 c 2.969,-0.344 5.985,-0.528 9.047,-0.528 z m 457.66,599.262 -345.41,0 c -18.988,0 -34.52,-15.531 -34.52,-34.519 l 0,-487.02 c 0,-42.754 -34.98,-77.723 -77.73,-77.723 l 492.184,0 c 18.984,0 34.519,15.528 34.519,34.52 l 0,530.223 c 0,18.988 -15.535,34.519 -34.519,34.519 l -34.524,0 0,0 z" /><path
         id="path20"
         style="fill:#ffffff;fill-opacity:1;fill-rule:evenodd;stroke:none"
         d="m 136.434,593.781 125.046,0 0,-407.449 c 0,-42.754 -34.976,-77.723 -77.73,-77.723 l 0,0 c -42.754,0 -77.727,34.969 -77.727,77.723 l 0,377.031 c 0,16.731 13.684,30.418 30.411,30.418" /><path
         id="path22"
         style="fill:none;stroke:#6452a0;stroke-width:17.00799942;stroke-linecap:round;stroke-linejoin:round;stroke-miterlimit:22.92560005;stroke-dasharray:none;stroke-opacity:1"
         d="m 136.434,593.781 125.046,0 0,-407.449 c 0,-42.754 -34.976,-77.723 -77.73,-77.723 l 0,0 c -42.754,0 -77.727,34.969 -77.727,77.723 l 0,377.031 c 0,16.731 13.684,30.418 30.411,30.418 z" /><path
         id="path24"
         style="fill:#6452a0;fill-opacity:1;fill-rule:evenodd;stroke:none"
         d="m 563.5,509.242 68.684,0 c 9.336,0 16.98,-7.64 16.98,-16.98 l 0,-103.926 c 0,-9.336 -7.644,-16.984 -16.98,-16.984 l -68.684,0 c -9.344,0 -16.98,7.648 -16.98,16.984 l 0,103.926 c 0,9.34 7.636,16.98 16.98,16.98" /><path
         id="path26"
         style="fill:none;stroke:#6452a0;stroke-width:17.00799942;stroke-linecap:butt;stroke-linejoin:miter;stroke-miterlimit:22.92560005;stroke-dasharray:none;stroke-opacity:1"
         d="m 563.5,509.242 68.684,0 c 9.336,0 16.98,-7.64 16.98,-16.98 l 0,-103.926 c 0,-9.336 -7.644,-16.984 -16.98,-16.984 l -68.684,0 c -9.344,0 -16.98,7.648 -16.98,16.984 l 0,103.926 c 0,9.34 7.636,16.98 16.98,16.98 z" /><path
         id="path28"
         style="fill:#ffffff;fill-opacity:1;fill-rule:evenodd;stroke:none"
         d="m 342.781,266.656 74.414,0 c 9.801,0 17.809,-8.019 17.809,-17.812 l 0,-52.785 c 0,-9.793 -8.008,-17.813 -17.809,-17.813 l -74.414,0 c -9.793,0 -17.804,8.02 -17.804,17.813 l 0,52.785 c 0,9.793 8.011,17.812 17.804,17.812" /><path
         id="path30"
         style="fill:none;stroke:#6452a0;stroke-width:17.00799942;stroke-linecap:butt;stroke-linejoin:miter;stroke-miterlimit:22.92560005;stroke-dasharray:none;stroke-opacity:1"
         d="m 342.781,266.656 74.414,0 c 9.801,0 17.809,-8.019 17.809,-17.812 l 0,-52.785 c 0,-9.793 -8.008,-17.813 -17.809,-17.813 l -74.414,0 c -9.793,0 -17.804,8.02 -17.804,17.813 l 0,52.785 c 0,9.793 8.011,17.812 17.804,17.812 z" /><path
         id="path32"
         style="fill:none;stroke:#6452a0;stroke-width:17.00799942;stroke-linecap:round;stroke-linejoin:round;stroke-miterlimit:22.92560005;stroke-dasharray:none;stroke-opacity:1"
         d="m 608.551,621.836 40.613,0" /><path
         id="path34"
         style="fill:none;stroke:#6452a0;stroke-width:17.00799942;stroke-linecap:round;stroke-linejoin:round;stroke-miterlimit:22.92560005;stroke-dasharray:none;stroke-opacity:1"
         d="m 449.781,549.219 36.551,0" /><path
         id="path36"
         style="fill:none;stroke:#6452a0;stroke-width:17.00799942;stroke-linecap:round;stroke-linejoin:round;stroke-miterlimit:22.92560005;stroke-dasharray:none;stroke-opacity:1"
         d="m 320.547,476.605 169.848,0" /><path
         id="path38"
         style="fill:none;stroke:#6452a0;stroke-width:17.00799942;stroke-linecap:round;stroke-linejoin:round;stroke-miterlimit:22.92560005;stroke-dasharray:none;stroke-opacity:1"
         d="m 320.547,403.988 169.848,0" /><path
         id="path40"
         style="fill:none;stroke:#6452a0;stroke-width:17.00799942;stroke-linecap:round;stroke-linejoin:round;stroke-miterlimit:22.92560005;stroke-dasharray:none;stroke-opacity:1"
         d="m 320.547,331.371 62.769,0" /><path
         id="path42"
         style="fill:none;stroke:#6452a0;stroke-width:17.00799942;stroke-linecap:round;stroke-linejoin:round;stroke-miterlimit:22.92560005;stroke-dasharray:none;stroke-opacity:1"
         d="m 491.129,258.754 158.035,0" /><path
         id="path44"
         style="fill:none;stroke:#6452a0;stroke-width:17.00799942;stroke-linecap:round;stroke-linejoin:round;stroke-miterlimit:22.92560005;stroke-dasharray:none;stroke-opacity:1"
         d="m 491.129,186.148 158.035,0" /><path
         id="path46"
         style="fill:none;stroke:#6452a0;stroke-width:17.00799942;stroke-linecap:round;stroke-linejoin:round;stroke-miterlimit:22.92560005;stroke-dasharray:none;stroke-opacity:1"
         d="m 320.547,549.223 84.183,0" /><path
         id="path48"
         style="fill:none;stroke:#6452a0;stroke-width:17.00799942;stroke-linecap:round;stroke-linejoin:round;stroke-miterlimit:22.92560005;stroke-dasharray:none;stroke-opacity:1"
         d="m 526.949,549.223 122.215,0" /><path
         id="path50"
         style="fill:none;stroke:#6452a0;stroke-width:17.00799942;stroke-linecap:round;stroke-linejoin:round;stroke-miterlimit:22.92560005;stroke-dasharray:none;stroke-opacity:1"
         d="m 320.547,621.836 252.555,0" /><path
         id="path52"
         style="fill:none;stroke:#6452a0;stroke-width:17.00799942;stroke-linecap:round;stroke-linejoin:round;stroke-miterlimit:22.92560005;stroke-dasharray:none;stroke-opacity:1"
         d="m 430.57,331.371 218.594,0" /></g></g></svg>