<?xml version="1.0" encoding="UTF-8" standalone="no"?>
<svg
   xmlns:dc="http://purl.org/dc/elements/1.1/"
   xmlns:cc="http://creativecommons.org/ns#"
   xmlns:rdf="http://www.w3.org/1999/02/22-rdf-syntax-ns#"
   xmlns:svg="http://www.w3.org/2000/svg"
   xmlns="http://www.w3.org/2000/svg"
   viewBox="0 0 98.525002 95.199997"
   height="95.199997"
   width="98.525002"
   xml:space="preserve"
   version="1.1"
   id="svg2"><metadata
     id="metadata8"><rdf:RDF><cc:Work
         rdf:about=""><dc:format>image/svg+xml</dc:format><dc:type
           rdf:resource="http://purl.org/dc/dcmitype/StillImage" /></cc:Work></rdf:RDF></metadata><defs
     id="defs6"><clipPath
       id="clipPath18"
       clipPathUnits="userSpaceOnUse"><path
         id="path20"
         d="m 0,0 788,0 0,761.633 -788,0 L 0,0 Z" /></clipPath></defs><g
     transform="matrix(1.25,0,0,-1.25,0,95.2)"
     id="g10"><g
       transform="scale(0.1,0.1)"
       id="g12"><g
         id="g14"><g
           clip-path="url(#clipPath18)"
           id="g16"><path
             id="path22"
             style="fill:none;stroke:#4278c4;stroke-width:17.00799942;stroke-linecap:round;stroke-linejoin:round;stroke-miterlimit:22.92560005;stroke-dasharray:none;stroke-opacity:1"
             d="M 117.105,679.492 C 71.5273,639.172 35.2422,588.578 11.8789,531.344 M 725.73,581.215 c -21.535,36.949 -48.839,70.125 -80.675,98.289 m 0,-597.3712 c 31.836,28.1642 59.14,61.3282 80.675,98.2812 M 11.8789,230.289 C 35.2422,173.051 71.5273,122.465 117.105,82.1445" /><path
             id="path24"
             style="fill:#fbc31e;fill-opacity:1;fill-rule:evenodd;stroke:none"
             d="m 596.93,638.91 0,-548.953 C 596.93,45.1602 560.27,8.5 515.484,8.5 l -268.808,0 c -44.797,0 -81.449,36.6523 -81.449,81.457 l 0,581.723 c 0,44.8 36.652,81.445 81.449,81.445 l 268.808,0 c 44.805,0 81.446,-36.648 81.446,-81.445 l 0,-32.77" /><path
             id="path26"
             style="fill:none;stroke:#6452a0;stroke-width:17.00799942;stroke-linecap:round;stroke-linejoin:round;stroke-miterlimit:22.92560005;stroke-dasharray:none;stroke-opacity:1"
             d="m 596.93,638.91 0,-548.953 C 596.93,45.1602 560.27,8.5 515.484,8.5 l -268.808,0 c -44.797,0 -81.449,36.6523 -81.449,81.457 l 0,581.723 c 0,44.8 36.652,81.445 81.449,81.445 l 268.808,0 c 44.805,0 81.446,-36.648 81.446,-81.445 l 0,-32.77 z" /><path
             id="path28"
             style="fill:#6452a0;fill-opacity:1;fill-rule:evenodd;stroke:none"
             d="m 377.133,86.0195 c 18.285,0 33.195,14.9145 33.195,33.2035 0,18.293 -14.91,33.203 -33.195,33.203 -18.293,0 -33.211,-14.91 -33.211,-33.203 0,-18.289 14.918,-33.2035 33.211,-33.2035" /><path
             id="path30"
             style="fill:none;stroke:#6452a0;stroke-width:17.00799942;stroke-linecap:round;stroke-linejoin:round;stroke-miterlimit:22.92560005;stroke-dasharray:none;stroke-opacity:1"
             d="m 357.57,661.914 47.028,0" /><path
             id="path32"
             style="fill:#ffffff;fill-opacity:1;fill-rule:evenodd;stroke:none"
             d="m 401.656,537.488 318.938,0 c 32.519,0 59.121,-26.597 59.121,-59.121 l 0,-195.101 c 0,-32.52 -26.602,-59.121 -59.121,-59.121 l -318.938,0 c -32.519,0 -59.113,26.601 -59.113,59.121 l 0,195.101 c 0,32.524 26.594,59.121 59.113,59.121" /><path
             id="path34"
             style="fill:none;stroke:#6452a0;stroke-width:17.00799942;stroke-linecap:round;stroke-linejoin:round;stroke-miterlimit:22.92560005;stroke-dasharray:none;stroke-opacity:1"
             d="m 401.656,537.488 318.938,0 c 32.519,0 59.121,-26.597 59.121,-59.121 l 0,-195.101 c 0,-32.52 -26.602,-59.121 -59.121,-59.121 l -318.938,0 c -32.519,0 -59.113,26.601 -59.113,59.121 l 0,195.101 c 0,32.524 26.594,59.121 59.113,59.121 z" /><path
             id="path36"
             style="fill:none;stroke:#6452a0;stroke-width:17.00799942;stroke-linecap:round;stroke-linejoin:round;stroke-miterlimit:22.92560005;stroke-dasharray:none;stroke-opacity:1"
             d="M 392.957,453.535 559.891,357.152" /><path
             id="path38"
             style="fill:none;stroke:#6452a0;stroke-width:17.00799942;stroke-linecap:round;stroke-linejoin:round;stroke-miterlimit:22.92560005;stroke-dasharray:none;stroke-opacity:1"
             d="M 726.824,453.535 559.891,357.152" /><path
             id="path40"
             style="fill:none;stroke:#6452a0;stroke-width:17.00799942;stroke-linecap:round;stroke-linejoin:round;stroke-miterlimit:22.92560005;stroke-dasharray:none;stroke-opacity:1"
             d="M 706.551,296.129 647.008,399.262" /><path
             id="path42"
             style="fill:none;stroke:#6452a0;stroke-width:17.00799942;stroke-linecap:round;stroke-linejoin:round;stroke-miterlimit:22.92560005;stroke-dasharray:none;stroke-opacity:1"
             d="m 412.762,296.129 59.539,103.133" /><path
             id="path44"
             style="fill:#6452a0;fill-opacity:1;fill-rule:evenodd;stroke:none"
             d="m 45.1289,477.887 197.6131,0 c 20.145,0 36.625,-16.481 36.625,-36.633 l 0,-120.887 c 0,-20.148 -16.48,-36.621 -36.625,-36.621 l -197.6131,0 c -20.1445,0 -36.62499,16.473 -36.62499,36.621 l 0,120.887 c 0,20.152 16.48049,36.633 36.62499,36.633" /><path
             id="path46"
             style="fill:none;stroke:#6452a0;stroke-width:17.00799942;stroke-linecap:round;stroke-linejoin:round;stroke-miterlimit:22.92560005;stroke-dasharray:none;stroke-opacity:1"
             d="m 45.1289,477.887 197.6131,0 c 20.145,0 36.625,-16.481 36.625,-36.633 l 0,-120.887 c 0,-20.148 -16.48,-36.621 -36.625,-36.621 l -197.6131,0 c -20.1445,0 -36.62499,16.473 -36.62499,36.621 l 0,120.887 c 0,20.152 16.48049,36.633 36.62499,36.633 z" /><path
             id="path48"
             style="fill:none;stroke:#ffffff;stroke-width:17.00799942;stroke-linecap:round;stroke-linejoin:round;stroke-miterlimit:22.92560005;stroke-dasharray:none;stroke-opacity:1"
             d="M 39.7383,425.867 143.172,366.156" /><path
             id="path50"
             style="fill:none;stroke:#e9eaea;stroke-width:17.00799942;stroke-linecap:round;stroke-linejoin:round;stroke-miterlimit:22.92560005;stroke-dasharray:none;stroke-opacity:1"
             d="M 246.598,425.867 143.172,366.156" /><path
             id="path52"
             style="fill:none;stroke:#ffffff;stroke-width:17.00799942;stroke-linecap:round;stroke-linejoin:round;stroke-miterlimit:22.92560005;stroke-dasharray:none;stroke-opacity:1"
             d="m 234.035,328.344 -36.89,63.898" /><path
             id="path54"
             style="fill:none;stroke:#ffffff;stroke-width:17.00799942;stroke-linecap:round;stroke-linejoin:round;stroke-miterlimit:22.92560005;stroke-dasharray:none;stroke-opacity:1"
             d="m 52.0156,328.344 36.8867,63.898" /></g></g></g></g></svg>