<?xml version="1.0" encoding="UTF-8" standalone="no"?>
<svg
   xmlns:dc="http://purl.org/dc/elements/1.1/"
   xmlns:cc="http://creativecommons.org/ns#"
   xmlns:rdf="http://www.w3.org/1999/02/22-rdf-syntax-ns#"
   xmlns:svg="http://www.w3.org/2000/svg"
   xmlns="http://www.w3.org/2000/svg"
   viewBox="0 0 95.0625 101.4"
   height="101.4"
   width="95.0625"
   xml:space="preserve"
   version="1.1"
   id="svg2"><metadata
     id="metadata8"><rdf:RDF><cc:Work
         rdf:about=""><dc:format>image/svg+xml</dc:format><dc:type
           rdf:resource="http://purl.org/dc/dcmitype/StillImage" /></cc:Work></rdf:RDF></metadata><defs
     id="defs6" /><g
     transform="matrix(1.25,0,0,-1.25,0,101.4)"
     id="g10"><g
       transform="scale(0.1,0.1)"
       id="g12"><path
         id="path14"
         style="fill:none;stroke:#4278c4;stroke-width:17.00799942;stroke-linecap:round;stroke-linejoin:round;stroke-miterlimit:22.92560005;stroke-dasharray:none;stroke-opacity:1"
         d="M 646.848,121.09 C 575.313,51.4219 477.609,8.50391 369.859,8.50391 262.121,8.50391 164.418,51.4219 92.8789,121.09 m -0.0078,569.043 c 71.5469,69.668 169.2499,112.59 276.9879,112.59 81.286,0 156.852,-24.434 219.782,-66.344" /><path
         id="path16"
         style="fill:#fbc31e;fill-opacity:1;fill-rule:evenodd;stroke:none"
         d="m 50,626.379 639.727,0 c 22.824,0 41.496,-18.676 41.496,-41.5 l 0,-358.535 c 0,-22.821 -18.672,-41.504 -41.496,-41.504 L 50,184.84 c -22.8203,0 -41.49609,18.683 -41.49609,41.504 l 0,358.535 c 0,22.824 18.67579,41.5 41.49609,41.5" /><path
         id="path18"
         style="fill:none;stroke:#6452a0;stroke-width:17.00799942;stroke-linecap:round;stroke-linejoin:round;stroke-miterlimit:22.92560005;stroke-dasharray:none;stroke-opacity:1"
         d="m 50,626.379 639.727,0 c 22.824,0 41.496,-18.676 41.496,-41.5 l 0,-358.535 c 0,-22.821 -18.672,-41.504 -41.496,-41.504 L 50,184.84 c -22.8203,0 -41.49609,18.683 -41.49609,41.504 l 0,358.535 c 0,22.824 18.67579,41.5 41.49609,41.5 z" /><path
         id="path20"
         style="fill:none;stroke:#6452a0;stroke-width:17.00799942;stroke-linecap:round;stroke-linejoin:round;stroke-miterlimit:22.92560005;stroke-dasharray:none;stroke-opacity:1"
         d="m 85.8125,284.801 228.1015,0" /><path
         id="path22"
         style="fill:none;stroke:#6452a0;stroke-width:17.00799942;stroke-linecap:round;stroke-linejoin:round;stroke-miterlimit:22.92560005;stroke-dasharray:none;stroke-opacity:1"
         d="m 85.8125,365.34 82.1835,0" /><path
         id="path24"
         style="fill:none;stroke:#6452a0;stroke-width:17.00799942;stroke-linecap:round;stroke-linejoin:round;stroke-miterlimit:22.92560005;stroke-dasharray:none;stroke-opacity:1"
         d="m 85.8125,445.883 224.3905,0" /><path
         id="path26"
         style="fill:none;stroke:#6452a0;stroke-width:17.00799942;stroke-linecap:round;stroke-linejoin:round;stroke-miterlimit:22.92560005;stroke-dasharray:none;stroke-opacity:1"
         d="m 85.8125,526.426 77.9455,0" /><path
         id="path28"
         style="fill:none;stroke:#6452a0;stroke-width:17.00799942;stroke-linecap:round;stroke-linejoin:round;stroke-miterlimit:22.92560005;stroke-dasharray:none;stroke-opacity:1"
         d="m 194.254,525.883 184.867,0" /><path
         id="path30"
         style="fill:none;stroke:#6452a0;stroke-width:17.00799942;stroke-linecap:round;stroke-linejoin:round;stroke-miterlimit:22.92560005;stroke-dasharray:none;stroke-opacity:1"
         d="m 204.172,365.34 106.031,0" /><path
         id="path32"
         style="fill:#ffffff;fill-opacity:1;fill-rule:evenodd;stroke:none"
         d="M 644.992,652.211 734.465,600.551 494.445,184.84 404.98,236.492 644.992,652.211" /><path
         id="path34"
         style="fill:none;stroke:#6452a0;stroke-width:17.00799942;stroke-linecap:round;stroke-linejoin:round;stroke-miterlimit:22.92560005;stroke-dasharray:none;stroke-opacity:1"
         d="M 644.992,652.211 734.465,600.551 494.445,184.84 404.98,236.492 644.992,652.211 Z" /><path
         id="path36"
         style="fill:#6452a0;fill-opacity:1;fill-rule:evenodd;stroke:none"
         d="m 389.016,105.535 c 35.144,26.434 70.293,52.871 105.429,79.305 -23.679,41.281 -54.355,55.156 -89.465,51.652 L 389.016,105.535" /><path
         id="path38"
         style="fill:none;stroke:#6452a0;stroke-width:17.00799942;stroke-linecap:round;stroke-linejoin:round;stroke-miterlimit:22.92560005;stroke-dasharray:none;stroke-opacity:1"
         d="m 389.016,105.535 c 35.144,26.434 70.293,52.871 105.429,79.305 -23.679,41.281 -54.355,55.156 -89.465,51.652 L 389.016,105.535 Z" /><path
         id="path40"
         style="fill:#6452a0;fill-opacity:1;fill-rule:evenodd;stroke:none"
         d="m 630.488,627.098 c 35.403,-5.075 66.02,-20.75 89.477,-51.657 l 29.508,51.118 c 6.632,11.492 -0.321,28.031 -15.465,36.777 l -35.278,20.367 c -14.667,8.469 -31.921,6.293 -38.347,-4.836 -9.961,-17.254 -19.922,-34.515 -29.895,-51.769" /><path
         id="path42"
         style="fill:none;stroke:#6452a0;stroke-width:17.00799942;stroke-linecap:round;stroke-linejoin:round;stroke-miterlimit:22.92560005;stroke-dasharray:none;stroke-opacity:1"
         d="m 630.488,627.098 c 35.403,-5.075 66.02,-20.75 89.477,-51.657 l 29.508,51.118 c 6.632,11.492 -0.321,28.031 -15.465,36.777 l -35.278,20.367 c -14.667,8.469 -31.921,6.293 -38.347,-4.836 -9.961,-17.254 -19.922,-34.515 -29.895,-51.769 z" /><path
         id="path44"
         style="fill:none;stroke:#6452a0;stroke-width:17.00799942;stroke-linecap:round;stroke-linejoin:round;stroke-miterlimit:22.92560005;stroke-dasharray:none;stroke-opacity:1"
         d="m 649.172,659.441 c -19.219,11.098 -44.016,4.454 -55.109,-14.765 L 492.52,468.797" /><path
         id="path46"
         style="fill:none;stroke:#6452a0;stroke-width:17.00799942;stroke-linecap:round;stroke-linejoin:round;stroke-miterlimit:22.92560005;stroke-dasharray:none;stroke-opacity:1"
         d="M 487.57,228.004 614.98,448.672" /></g></g></svg>