<?xml version="1.0" encoding="UTF-8" standalone="no"?>
<svg
   xmlns:dc="http://purl.org/dc/elements/1.1/"
   xmlns:cc="http://creativecommons.org/ns#"
   xmlns:rdf="http://www.w3.org/1999/02/22-rdf-syntax-ns#"
   xmlns:svg="http://www.w3.org/2000/svg"
   xmlns="http://www.w3.org/2000/svg"
   viewBox="0 0 101.4 112.1375"
   height="112.1375"
   width="101.4"
   xml:space="preserve"
   version="1.1"
   id="svg2"><metadata
     id="metadata8"><rdf:RDF><cc:Work
         rdf:about=""><dc:format>image/svg+xml</dc:format><dc:type
           rdf:resource="http://purl.org/dc/dcmitype/StillImage" /></cc:Work></rdf:RDF></metadata><defs
     id="defs6" /><g
     transform="matrix(1.25,0,0,-1.25,0,112.1375)"
     id="g10"><g
       transform="scale(0.1,0.1)"
       id="g12"><path
         id="path14"
         style="fill:none;stroke:#4278c4;stroke-width:17.00799942;stroke-linecap:round;stroke-linejoin:round;stroke-miterlimit:22.92560005;stroke-dasharray:none;stroke-opacity:1"
         d="M 61.1367,207.914 C 27.6484,266.129 8.50391,333.637 8.50391,405.609 c 0,137.602 69.98829,258.844 176.30909,330.098 M 685.281,123.715 C 613.512,52.5039 514.703,8.5 405.613,8.5 296.52,8.5 197.711,52.5039 125.941,123.715 M 626.414,735.703 C 732.73,664.445 802.723,543.211 802.723,405.609 c 0,-71.972 -19.153,-139.472 -52.629,-197.683" /><path
         id="path16"
         style="fill:#fbc31e;fill-opacity:1;fill-rule:evenodd;stroke:none"
         d="m 666.238,489.887 0,-283.985 -260.625,-102.187 -260.621,102.187 0,283.985 260.621,-102.199 260.625,102.199" /><path
         id="path18"
         style="fill:none;stroke:#6452a0;stroke-width:17.00799942;stroke-linecap:round;stroke-linejoin:round;stroke-miterlimit:22.92560005;stroke-dasharray:none;stroke-opacity:1"
         d="m 666.238,489.887 0,-283.985 -260.625,-102.187 -260.621,102.187 0,283.985 260.621,-102.199 260.625,102.199 z" /><path
         id="path20"
         style="fill:#fbc31e;fill-opacity:1;fill-rule:evenodd;stroke:none"
         d="M 144.992,489.887 405.613,387.688 362.336,263.527 101.707,365.719 144.992,489.887" /><path
         id="path22"
         style="fill:none;stroke:#6452a0;stroke-width:17.00799942;stroke-linecap:round;stroke-linejoin:round;stroke-miterlimit:22.92560005;stroke-dasharray:none;stroke-opacity:1"
         d="M 144.992,489.887 405.613,387.688 362.336,263.527 101.707,365.719 144.992,489.887 Z" /><path
         id="path24"
         style="fill:none;stroke:#6452a0;stroke-width:17.00799942;stroke-linecap:round;stroke-linejoin:round;stroke-miterlimit:22.92560005;stroke-dasharray:none;stroke-opacity:1"
         d="m 405.613,103.715 0,283.973" /><path
         id="path26"
         style="fill:#fbc31e;fill-opacity:1;fill-rule:evenodd;stroke:none"
         d="M 666.238,489.887 405.613,592.074 144.992,489.887 405.613,387.688 666.238,489.887" /><path
         id="path28"
         style="fill:none;stroke:#6452a0;stroke-width:17.00799942;stroke-linecap:round;stroke-linejoin:round;stroke-miterlimit:22.92560005;stroke-dasharray:none;stroke-opacity:1"
         d="M 666.238,489.887 405.613,592.074 144.992,489.887 405.613,387.688 666.238,489.887 Z" /><path
         id="path30"
         style="fill:#fbc31e;fill-opacity:1;fill-rule:evenodd;stroke:none"
         d="M 666.238,489.887 405.613,387.688 448.895,263.527 709.52,365.719 666.238,489.887" /><path
         id="path32"
         style="fill:none;stroke:#6452a0;stroke-width:17.00799942;stroke-linecap:round;stroke-linejoin:round;stroke-miterlimit:22.92560005;stroke-dasharray:none;stroke-opacity:1"
         d="M 666.238,489.887 405.613,387.688 448.895,263.527 709.52,365.719 666.238,489.887 Z" /><path
         id="path34"
         style="fill:none;stroke:#6452a0;stroke-width:17.00799942;stroke-linecap:round;stroke-linejoin:round;stroke-miterlimit:22.92560005;stroke-dasharray:none;stroke-opacity:1"
         d="m 468.172,202.445 152.891,59.942" /><path
         id="path36"
         style="fill:none;stroke:#6452a0;stroke-width:17.00799942;stroke-linecap:round;stroke-linejoin:round;stroke-miterlimit:22.92560005;stroke-dasharray:none;stroke-opacity:1"
         d="M 345.898,202.445 193.016,262.387" /><path
         id="path38"
         style="fill:#ffffff;fill-opacity:1;fill-rule:evenodd;stroke:none"
         d="m 405.613,888.613 c 85.782,0 155.313,-69.543 155.313,-155.316 0,-132.668 -155.313,-276.969 -155.313,-276.969 0,0 -155.316,140.496 -155.316,276.969 0,85.773 69.535,155.316 155.316,155.316" /><path
         id="path40"
         style="fill:none;stroke:#6452a0;stroke-width:17.00799942;stroke-linecap:round;stroke-linejoin:round;stroke-miterlimit:22.92560005;stroke-dasharray:none;stroke-opacity:1"
         d="m 405.613,888.613 c 85.782,0 155.313,-69.543 155.313,-155.316 0,-132.668 -155.313,-276.969 -155.313,-276.969 0,0 -155.316,140.496 -155.316,276.969 0,85.773 69.535,155.316 155.316,155.316 z" /><path
         id="path42"
         style="fill:#6452a0;fill-opacity:1;fill-rule:evenodd;stroke:none"
         d="m 405.617,652.191 c 44.672,0 81.11,36.438 81.11,81.106 0,44.672 -36.438,81.105 -81.11,81.105 -44.672,0 -81.109,-36.433 -81.109,-81.105 0,-44.668 36.437,-81.106 81.109,-81.106" /></g></g></svg>