<?xml version="1.0" encoding="UTF-8" standalone="no"?>
<svg
   xmlns:dc="http://purl.org/dc/elements/1.1/"
   xmlns:cc="http://creativecommons.org/ns#"
   xmlns:rdf="http://www.w3.org/1999/02/22-rdf-syntax-ns#"
   xmlns:svg="http://www.w3.org/2000/svg"
   xmlns="http://www.w3.org/2000/svg"
   viewBox="0 0 111.9375 102.2375"
   height="102.2375"
   width="111.9375"
   xml:space="preserve"
   version="1.1"
   id="svg2"><metadata
     id="metadata8"><rdf:RDF><cc:Work
         rdf:about=""><dc:format>image/svg+xml</dc:format><dc:type
           rdf:resource="http://purl.org/dc/dcmitype/StillImage" /></cc:Work></rdf:RDF></metadata><defs
     id="defs6"><clipPath
       id="clipPath18"
       clipPathUnits="userSpaceOnUse"><path
         id="path20"
         d="m 0,0 895,0 0,817.867 -895,0 L 0,0 Z" /></clipPath></defs><g
     transform="matrix(1.25,0,0,-1.25,0,102.2375)"
     id="g10"><g
       transform="scale(0.1,0.1)"
       id="g12"><g
         id="g14"><g
           clip-path="url(#clipPath18)"
           id="g16"><path
             id="path22"
             style="fill:none;stroke:#4278c4;stroke-width:17.00799942;stroke-linecap:round;stroke-linejoin:round;stroke-miterlimit:22.92560005;stroke-dasharray:none;stroke-opacity:1"
             d="M 725.504,86.8242 C 658.988,37.6055 576.684,8.50391 487.582,8.50391 287.383,8.50391 121.496,155.418 91.8633,347.313 M 827.785,620.238 c 52.539,-84.422 69.758,-185.687 53.031,-281.375 M 156.922,634.855 c 72.137,105.372 193.32,174.508 330.66,174.508 61.453,0 119.668,-13.843 171.699,-38.578" /><path
             id="path24"
             style="fill:#6452a0;fill-opacity:1;fill-rule:evenodd;stroke:none"
             d="m 715.68,297.242 119.531,0 c 9.344,0 16.988,-7.644 16.988,-16.988 l 0,-101.984 c 0,-9.344 -7.644,-16.985 -16.988,-16.993 l -26.367,-0.047 -33.403,-32.003 -33.328,32.05 -26.433,0 c -9.348,0 -16.992,7.649 -16.992,16.993 l 0,101.984 c 0,9.344 7.644,16.988 16.992,16.988" /><path
             id="path26"
             style="fill:#6452a0;fill-opacity:1;fill-rule:evenodd;stroke:none"
             d="m 19.043,580.43 133.922,0 c 10.473,0 19.043,-8.571 19.043,-19.043 l 0,-114.254 c 0,-10.477 -8.57,-19.024 -19.043,-19.043 l -29.547,-0.051 -37.4141,-35.851 -37.3437,35.902 -29.6172,0 C 8.57031,428.09 0,436.656 0,447.133 l 0,114.254 c 0,10.472 8.57031,19.043 19.043,19.043" /><path
             id="path28"
             style="fill:#fbc31e;fill-opacity:1;fill-rule:evenodd;stroke:none"
             d="m 750.797,648.637 -43.711,11.758 -3.645,45.117 111.809,93.101 3.641,-45.117 43.718,-11.754 -111.812,-93.105" /><path
             id="path30"
             style="fill:none;stroke:#6452a0;stroke-width:17.00799942;stroke-linecap:round;stroke-linejoin:round;stroke-miterlimit:22.92560005;stroke-dasharray:none;stroke-opacity:1"
             d="m 750.797,648.637 -43.711,11.758 -3.645,45.117 111.809,93.101 3.641,-45.117 43.718,-11.754 -111.812,-93.105 z" /><path
             id="path32"
             style="fill:#fbc31e;fill-opacity:1;fill-rule:evenodd;stroke:none"
             d="m 491.098,689.773 c 113.855,0 206.164,-92.3 206.164,-206.156 0,-176.097 -206.164,-367.64 -206.164,-367.64 0,0 -206.16,186.503 -206.16,367.64 0,113.856 92.296,206.156 206.16,206.156" /><path
             id="path34"
             style="fill:none;stroke:#6452a0;stroke-width:17.00799942;stroke-linecap:round;stroke-linejoin:round;stroke-miterlimit:22.92560005;stroke-dasharray:none;stroke-opacity:1"
             d="m 491.098,689.773 c 113.855,0 206.164,-92.3 206.164,-206.156 0,-176.097 -206.164,-367.64 -206.164,-367.64 0,0 -206.16,186.503 -206.16,367.64 0,113.856 92.296,206.156 206.16,206.156 z" /><path
             id="path36"
             style="fill:#ffffff;fill-opacity:1;fill-rule:evenodd;stroke:none"
             d="m 491.098,375.953 c 59.297,0 107.668,48.367 107.668,107.664 0,59.289 -48.371,107.656 -107.668,107.656 -59.293,0 -107.657,-48.367 -107.657,-107.656 0,-59.297 48.364,-107.664 107.657,-107.664" /><path
             id="path38"
             style="fill:none;stroke:#6452a0;stroke-width:17.00799942;stroke-linecap:round;stroke-linejoin:round;stroke-miterlimit:22.92560005;stroke-dasharray:none;stroke-opacity:1"
             d="m 491.098,375.953 c 59.297,0 107.668,48.367 107.668,107.664 0,59.289 -48.371,107.656 -107.668,107.656 -59.293,0 -107.657,-48.367 -107.657,-107.656 0,-59.297 48.364,-107.664 107.657,-107.664 z" /><path
             id="path40"
             style="fill:none;stroke:#6452a0;stroke-width:17.00799942;stroke-linecap:round;stroke-linejoin:round;stroke-miterlimit:22.92560005;stroke-dasharray:none;stroke-opacity:1"
             d="M 491.098,483.617 775.375,716.688" /></g></g></g></g></svg>