<?xml version="1.0" encoding="UTF-8" standalone="no"?>
<svg
   xmlns:dc="http://purl.org/dc/elements/1.1/"
   xmlns:cc="http://creativecommons.org/ns#"
   xmlns:rdf="http://www.w3.org/1999/02/22-rdf-syntax-ns#"
   xmlns:svg="http://www.w3.org/2000/svg"
   xmlns="http://www.w3.org/2000/svg"
   viewBox="0 0 109.7 102.1"
   height="102.1"
   width="109.7"
   xml:space="preserve"
   version="1.1"
   id="svg2"><metadata
     id="metadata8"><rdf:RDF><cc:Work
         rdf:about=""><dc:format>image/svg+xml</dc:format><dc:type
           rdf:resource="http://purl.org/dc/dcmitype/StillImage" /></cc:Work></rdf:RDF></metadata><defs
     id="defs6"><clipPath
       id="clipPath18"
       clipPathUnits="userSpaceOnUse"><path
         id="path20"
         d="M 0,816.813 0,0 l 877.563,0 0,816.813 -877.563,0 z" /></clipPath></defs><g
     transform="matrix(1.25,0,0,-1.25,0,102.1)"
     id="g10"><g
       transform="scale(0.1,0.1)"
       id="g12"><g
         id="g14"><g
           clip-path="url(#clipPath18)"
           id="g16"><path
             id="path22"
             style="fill:none;stroke:#4278c4;stroke-width:17.00799942;stroke-linecap:round;stroke-linejoin:round;stroke-miterlimit:22.92560005;stroke-dasharray:none;stroke-opacity:1"
             d="M 623.594,54.2188 C 568.078,25.0273 504.844,8.50391 437.766,8.50391 366.574,8.50391 299.727,27.1055 241.828,59.7148 M 68.5898,562.41 C 128.902,706.82 271.48,808.309 437.766,808.309 c 168.172,0 312.109,-103.821 371.199,-250.856" /><path
             id="path24"
             style="fill:#6452a0;fill-opacity:1;fill-rule:evenodd;stroke:none"
             d="m 66.9609,153.902 135.5591,0 0,-43.339 c 0,-23.8364 -19.5,-43.3364 -43.34,-43.3364 l -48.879,0 c -23.8401,0 -43.3401,19.5 -43.3401,43.3364 l 0,43.339" /><path
             id="path26"
             style="fill:#6452a0;fill-opacity:1;fill-rule:evenodd;stroke:none"
             d="m 671.133,153.902 135.558,0 0,-43.339 c 0,-23.8364 -19.492,-43.3364 -43.332,-43.3364 l -48.886,0 c -23.836,0 -43.34,19.5 -43.34,43.3364 l 0,43.339" /><path
             id="path28"
             style="fill:#fbc31e;fill-opacity:1;fill-rule:evenodd;stroke:none"
             d="m 66.8086,153.902 739.6754,0 c 5.371,59.219 16.504,127.832 20.293,189.321 -0.566,17.332 -3.445,32.593 -9.648,44.882 L 727.91,585.988 c -18.972,38.606 -46.719,50.758 -71.797,50.758 -146.297,0 -292.59,0 -438.89,0 -30.289,-0.437 -54.012,-17.101 -71.332,-49.633 C 115.91,520.609 85.9258,454.105 55.9453,387.605 49.3281,374.488 46.4766,359.578 46.5156,343.27 l 20.293,-189.368" /><path
             id="path30"
             style="fill:none;stroke:#6452a0;stroke-width:17.00799942;stroke-linecap:round;stroke-linejoin:round;stroke-miterlimit:22.92560005;stroke-dasharray:none;stroke-opacity:1"
             d="m 66.8086,153.902 739.6754,0 c 5.371,59.219 16.504,127.832 20.293,189.321 -0.566,17.332 -3.445,32.593 -9.648,44.882 L 727.91,585.988 c -18.972,38.606 -46.719,50.758 -71.797,50.758 -146.297,0 -292.59,0 -438.89,0 -30.289,-0.437 -54.012,-17.101 -71.332,-49.633 C 115.91,520.609 85.9258,454.105 55.9453,387.605 49.3281,374.488 46.4766,359.578 46.5156,343.27 l 20.293,-189.368 z" /><path
             id="path32"
             style="fill:#ffffff;fill-opacity:1;fill-rule:evenodd;stroke:none"
             d="m 747.52,380.242 -75.868,176.313 c -6.047,12.535 -13.32,19.664 -25.539,19.664 -139.597,0 -279.191,0.359 -418.793,0 -12.289,-0.031 -19.234,-7.449 -25.629,-19.555 l -75.914,-176.422 621.743,0" /><path
             id="path34"
             style="fill:none;stroke:#6452a0;stroke-width:17.00799942;stroke-linecap:round;stroke-linejoin:round;stroke-miterlimit:22.92560005;stroke-dasharray:none;stroke-opacity:1"
             d="m 747.52,380.242 -75.868,176.313 c -6.047,12.535 -13.32,19.664 -25.539,19.664 -139.597,0 -279.191,0.359 -418.793,0 -12.289,-0.031 -19.234,-7.449 -25.629,-19.555 l -75.914,-176.422 621.743,0 z" /><path
             id="path36"
             style="fill:#fbc31e;fill-opacity:1;fill-rule:evenodd;stroke:none"
             d="m 38.9414,477.961 57.7383,0 -36,-79.856 -52.17579,0 30.43749,79.856" /><path
             id="path38"
             style="fill:none;stroke:#6452a0;stroke-width:17.00799942;stroke-linecap:round;stroke-linejoin:round;stroke-miterlimit:22.92560005;stroke-dasharray:none;stroke-opacity:1"
             d="m 38.9414,477.961 57.7383,0 -36,-79.856 -52.17579,0 30.43749,79.856 z" /><path
             id="path40"
             style="fill:#fbc31e;fill-opacity:1;fill-rule:evenodd;stroke:none"
             d="m 838.613,477.961 -57.734,0 36.008,-79.856 52.168,0 -30.442,79.856" /><path
             id="path42"
             style="fill:none;stroke:#6452a0;stroke-width:17.00799942;stroke-linecap:round;stroke-linejoin:round;stroke-miterlimit:22.92560005;stroke-dasharray:none;stroke-opacity:1"
             d="m 838.613,477.961 -57.734,0 36.008,-79.856 52.168,0 -30.442,79.856 z" /><path
             id="path44"
             style="fill:#fbc31e;fill-opacity:1;fill-rule:evenodd;stroke:none"
             d="m 284.16,636.746 304.973,0 -15.031,35.789 c -13.125,31.242 -27.079,61.883 -60.145,61.883 l -154.625,0 c -33.062,0 -47.027,-30.648 -60.137,-61.883 L 284.16,636.746" /><path
             id="path46"
             style="fill:none;stroke:#6452a0;stroke-width:17.00799942;stroke-linecap:round;stroke-linejoin:round;stroke-miterlimit:22.92560005;stroke-dasharray:none;stroke-opacity:1"
             d="m 284.16,636.746 304.973,0 -15.031,35.789 c -13.125,31.242 -27.079,61.883 -60.145,61.883 l -154.625,0 c -33.062,0 -47.027,-30.648 -60.137,-61.883 L 284.16,636.746 Z" /><path
             id="path48"
             style="fill:#ffffff;fill-opacity:1;fill-rule:evenodd;stroke:none"
             d="m 293.484,298.465 286.332,0 30.438,-79.863 -347.207,0 30.437,79.863" /><path
             id="path50"
             style="fill:none;stroke:#6452a0;stroke-width:17.00799942;stroke-linecap:round;stroke-linejoin:round;stroke-miterlimit:22.92560005;stroke-dasharray:none;stroke-opacity:1"
             d="m 293.484,298.465 286.332,0 30.438,-79.863 -347.207,0 30.437,79.863 z" /><path
             id="path52"
             style="fill:#ffffff;fill-opacity:1;fill-rule:evenodd;stroke:none"
             d="m 107.102,298.465 143.168,0 -39.805,-79.863 -103.363,0 0,79.863" /><path
             id="path54"
             style="fill:none;stroke:#6452a0;stroke-width:17.00799942;stroke-linecap:round;stroke-linejoin:round;stroke-miterlimit:22.92560005;stroke-dasharray:none;stroke-opacity:1"
             d="m 107.102,298.465 143.168,0 -39.805,-79.863 -103.363,0 0,79.863 z" /><path
             id="path56"
             style="fill:#ffffff;fill-opacity:1;fill-rule:evenodd;stroke:none"
             d="m 766.191,298.465 -143.164,0 39.805,-79.863 103.359,0 0,79.863" /><path
             id="path58"
             style="fill:none;stroke:#6452a0;stroke-width:17.00799942;stroke-linecap:round;stroke-linejoin:round;stroke-miterlimit:22.92560005;stroke-dasharray:none;stroke-opacity:1"
             d="m 766.191,298.465 -143.164,0 39.805,-79.863 103.359,0 0,79.863 z" /><path
             id="path60"
             style="fill:#6452a0;fill-opacity:1;fill-rule:evenodd;stroke:none"
             d="m 218.703,380.242 195.063,0 0,36.742 c 0,17.942 -14.672,32.618 -32.618,32.618 l -129.832,0 c -17.937,0 -32.613,-14.676 -32.613,-32.618 l 0,-36.742" /><path
             id="path62"
             style="fill:#6452a0;fill-opacity:1;fill-rule:evenodd;stroke:none"
             d="m 270.594,467.707 91.277,0 0,36.75 c 0,17.938 -14.672,32.617 -32.613,32.617 l -26.047,0 c -17.941,0 -32.617,-14.679 -32.617,-32.617 l 0,-36.75" /><path
             id="path64"
             style="fill:#6452a0;fill-opacity:1;fill-rule:evenodd;stroke:none"
             d="m 477.297,380.242 195.058,0 0,36.742 c 0,17.942 -14.667,32.618 -32.617,32.618 l -129.824,0 c -17.941,0 -32.617,-14.676 -32.617,-32.618 l 0,-36.742" /><path
             id="path66"
             style="fill:#6452a0;fill-opacity:1;fill-rule:evenodd;stroke:none"
             d="m 529.191,467.707 91.278,0 0,36.75 c 0,17.938 -14.676,32.617 -32.617,32.617 l -26.043,0 c -17.942,0 -32.618,-14.679 -32.618,-32.617 l 0,-36.75" /><path
             id="path68"
             style="fill:#ffffff;fill-opacity:1;fill-rule:evenodd;stroke:none"
             d="m 576.016,455.738 c 38.359,0 69.464,-33.797 69.464,-75.496 l -138.925,0 c 0,41.699 31.093,75.496 69.461,75.496" /><path
             id="path70"
             style="fill:none;stroke:#6452a0;stroke-width:17.00799942;stroke-linecap:round;stroke-linejoin:round;stroke-miterlimit:22.92560005;stroke-dasharray:none;stroke-opacity:1"
             d="m 576.016,455.738 c 38.359,0 69.464,-33.797 69.464,-75.496 l -138.925,0 c 0,41.699 31.093,75.496 69.461,75.496 z" /><path
             id="path72"
             style="fill:#6452a0;fill-opacity:1;fill-rule:evenodd;stroke:none"
             d="m 362.598,713.113 13.511,0 c 2.442,0 4.434,-1.996 4.434,-4.433 l 0,-15.453 c 0,-2.438 -1.992,-4.434 -4.434,-4.434 l -13.511,0 c -2.438,0 -4.426,1.996 -4.426,4.434 l 0,15.453 c 0,2.437 1.988,4.433 4.426,4.433" /><path
             id="path74"
             style="fill:#6452a0;fill-opacity:1;fill-rule:evenodd;stroke:none"
             d="m 407.461,713.113 13.512,0 c 2.437,0 4.429,-1.996 4.429,-4.433 l 0,-15.453 c 0,-2.438 -1.992,-4.434 -4.429,-4.434 l -13.512,0 c -2.434,0 -4.434,1.996 -4.434,4.434 l 0,15.453 c 0,2.437 2,4.433 4.434,4.433" /><path
             id="path76"
             style="fill:#6452a0;fill-opacity:1;fill-rule:evenodd;stroke:none"
             d="m 452.324,713.113 13.508,0 c 2.441,0 4.434,-1.996 4.434,-4.433 l 0,-15.453 c 0,-2.438 -1.993,-4.434 -4.434,-4.434 l -13.508,0 c -2.441,0 -4.433,1.996 -4.433,4.434 l 0,15.453 c 0,2.437 1.992,4.433 4.433,4.433" /><path
             id="path78"
             style="fill:#6452a0;fill-opacity:1;fill-rule:evenodd;stroke:none"
             d="m 497.18,713.113 13.515,0 c 2.442,0 4.434,-1.996 4.434,-4.433 l 0,-15.453 c 0,-2.438 -1.992,-4.434 -4.434,-4.434 l -13.515,0 c -2.434,0 -4.426,1.996 -4.426,4.434 l 0,15.453 c 0,2.437 1.992,4.433 4.426,4.433" /><path
             id="path80"
             style="fill:#6452a0;fill-opacity:1;fill-rule:evenodd;stroke:none"
             d="m 384.973,682.371 13.511,0 c 2.442,0 4.43,-1.992 4.43,-4.43 l 0,-15.457 c 0,-2.437 -1.988,-4.429 -4.43,-4.429 l -13.511,0 c -2.438,0 -4.43,1.992 -4.43,4.429 l 0,15.457 c 0,2.438 1.992,4.43 4.43,4.43" /><path
             id="path82"
             style="fill:#6452a0;fill-opacity:1;fill-rule:evenodd;stroke:none"
             d="m 429.836,682.371 13.512,0 c 2.433,0 4.425,-1.992 4.425,-4.43 l 0,-15.457 c 0,-2.437 -1.992,-4.429 -4.425,-4.429 l -13.512,0 c -2.438,0 -4.434,1.992 -4.434,4.429 l 0,15.457 c 0,2.438 1.996,4.43 4.434,4.43" /><path
             id="path84"
             style="fill:#6452a0;fill-opacity:1;fill-rule:evenodd;stroke:none"
             d="m 474.699,682.371 13.504,0 c 2.442,0 4.434,-1.992 4.434,-4.43 l 0,-15.457 c 0,-2.437 -1.992,-4.429 -4.434,-4.429 l -13.504,0 c -2.441,0 -4.433,1.992 -4.433,4.429 l 0,15.457 c 0,2.438 1.992,4.43 4.433,4.43" /></g></g></g></g></svg>