<?xml version="1.0" encoding="UTF-8" standalone="no"?>
<svg
   xmlns:dc="http://purl.org/dc/elements/1.1/"
   xmlns:cc="http://creativecommons.org/ns#"
   xmlns:rdf="http://www.w3.org/1999/02/22-rdf-syntax-ns#"
   xmlns:svg="http://www.w3.org/2000/svg"
   xmlns="http://www.w3.org/2000/svg"
   viewBox="0 0 62.5 52.5"
   height="52.5"
   width="62.5"
   xml:space="preserve"
   version="1.1"
   id="svg2"><metadata
     id="metadata8"><rdf:RDF><cc:Work
         rdf:about=""><dc:format>image/svg+xml</dc:format><dc:type
           rdf:resource="http://purl.org/dc/dcmitype/StillImage" /></cc:Work></rdf:RDF></metadata><defs
     id="defs6" /><g
     transform="matrix(1.25,0,0,-1.25,0,52.5)"
     id="g10"><g
       transform="scale(0.1,0.1)"
       id="g12"><path
         id="path14"
         style="fill:#006df0;fill-opacity:1;fill-rule:evenodd;stroke:none"
         d="M 459.918,409.879 17.4258,237.441 C 3.09375,231.855 3.96094,211.289 18.7148,206.938 L 131.156,173.73 173.121,40.5781 c 4.383,-13.9062 22.012,-18.1211 32.215,-7.707 L 263.469,92.2344 377.535,8.50391 c 13.961,-10.2461 33.84,-2.63282 37.383,14.31639 l 75.547,361.1837 c 3.703,17.695 -13.703,32.437 -30.547,25.875 z m -55.48,-80.16 -205.532,-181.754 c -2.047,-1.813 -3.351,-4.32 -3.656,-7.035 l -7.914,-70.3441 c -0.258,-2.2968 -3.469,-2.5976 -4.156,-0.3945 L 150.625,175.102 c -1.488,4.8 0.453,10.003 4.727,12.652 l 242.714,150.539 c 5.582,3.457 11.297,-4.227 6.372,-8.574" /></g></g></svg>