<?xml version="1.0" encoding="UTF-8" standalone="no"?>
<svg
   xmlns:dc="http://purl.org/dc/elements/1.1/"
   xmlns:cc="http://creativecommons.org/ns#"
   xmlns:rdf="http://www.w3.org/1999/02/22-rdf-syntax-ns#"
   xmlns:svg="http://www.w3.org/2000/svg"
   xmlns="http://www.w3.org/2000/svg"
   viewBox="0 0 102.0625 99.862503"
   height="99.862503"
   width="102.0625"
   xml:space="preserve"
   version="1.1"
   id="svg2"><metadata
     id="metadata8"><rdf:RDF><cc:Work
         rdf:about=""><dc:format>image/svg+xml</dc:format><dc:type
           rdf:resource="http://purl.org/dc/dcmitype/StillImage" /></cc:Work></rdf:RDF></metadata><defs
     id="defs6"><clipPath
       id="clipPath18"
       clipPathUnits="userSpaceOnUse"><path
         id="path20"
         d="m 0,0 816,0 0,798.879 -816,0 L 0,0 Z" /></clipPath></defs><g
     transform="matrix(1.25,0,0,-1.25,0,99.8625)"
     id="g10"><g
       transform="scale(0.1,0.1)"
       id="g12"><g
         id="g14"><g
           clip-path="url(#clipPath18)"
           id="g16"><path
             id="path22"
             style="fill:#fbc31e;fill-opacity:1;fill-rule:evenodd;stroke:none"
             d="m 123.609,552.84 564.903,0 0,-221.652 -201.719,0 0,-236.2192 -195.758,0 -81.984,64.8832 -85.442,-64.8832 0,457.8712" /><path
             id="path24"
             style="fill:none;stroke:#6452a0;stroke-width:17.00799942;stroke-linecap:round;stroke-linejoin:round;stroke-miterlimit:22.92560005;stroke-dasharray:none;stroke-opacity:1"
             d="m 123.609,552.84 564.903,0 0,-221.652 -201.719,0 0,-236.2192 -195.758,0 -81.984,64.8832 -85.442,-64.8832 0,457.8712 z" /><path
             id="path26"
             style="fill:#ffffff;fill-opacity:1;fill-rule:evenodd;stroke:none"
             d="m 486.793,42.8789 285.41,0 0,288.309 -285.41,0 0,-288.309 z" /><path
             id="path28"
             style="fill:none;stroke:#6452a0;stroke-width:17.00799942;stroke-linecap:round;stroke-linejoin:round;stroke-miterlimit:22.92560005;stroke-dasharray:none;stroke-opacity:1"
             d="m 486.793,42.8789 285.41,0 0,288.309 -285.41,0 0,-288.309 z" /><path
             id="path30"
             style="fill:none;stroke:#6452a0;stroke-width:17.00799942;stroke-linecap:round;stroke-linejoin:round;stroke-miterlimit:22.92560005;stroke-dasharray:none;stroke-opacity:1"
             d="m 209.051,159.813 0,393.027" /><path
             id="path32"
             style="fill:none;stroke:#6452a0;stroke-width:17.00799942;stroke-linecap:round;stroke-linejoin:round;stroke-miterlimit:22.92560005;stroke-dasharray:none;stroke-opacity:1"
             d="m 292.301,552.84 0,-457.8712" /><path
             id="path34"
             style="fill:none;stroke:#6452a0;stroke-width:17.00799942;stroke-linecap:round;stroke-linejoin:round;stroke-miterlimit:22.92560005;stroke-dasharray:none;stroke-opacity:1"
             d="m 439.684,552.84 0,88.879 c 0,63.726 -52.137,115.867 -115.86,115.867 l 0,0 c -63.73,0 -115.871,-52.141 -115.871,-115.867 l 0,-88.879" /><path
             id="path36"
             style="fill:none;stroke:#6452a0;stroke-width:17.00799942;stroke-linecap:round;stroke-linejoin:round;stroke-miterlimit:22.92560005;stroke-dasharray:none;stroke-opacity:1"
             d="m 609.313,471.852 0,202.656 c 0,63.726 -52.141,115.871 -115.86,115.871 l 0,0 c -63.73,0 -115.871,-52.149 -115.871,-115.871 l 0,-202.656" /><path
             id="path38"
             style="fill:none;stroke:#6452a0;stroke-width:17.00799942;stroke-linecap:round;stroke-linejoin:round;stroke-miterlimit:22.92560005;stroke-dasharray:none;stroke-opacity:1"
             d="m 700.004,247.879 0,-28.508 c 0,-39.695 -32.481,-72.176 -72.176,-72.176 l 0,0 c -39.707,0 -72.18,32.481 -72.18,72.176 l 0,28.508" /><path
             id="path40"
             style="fill:none;stroke:#4278c4;stroke-width:17.00799942;stroke-linecap:round;stroke-linejoin:round;stroke-miterlimit:22.92560005;stroke-dasharray:none;stroke-opacity:1"
             d="M 43.7383,243.895 C 21.1016,294.02 8.50391,349.656 8.50391,408.238 8.50391,517.5 52.3438,616.523 123.387,688.68 M 408.238,8.50391 c -77.078,0 -149.054,21.81639 -210.105,59.60939 M 668.844,711.348 c 85.183,-73.305 139.129,-181.907 139.129,-303.11" /><path
             id="path42"
             style="fill:#6452a0;fill-opacity:1;fill-rule:evenodd;stroke:none"
             d="m 486.793,433.309 c 45.391,0 83.855,-29.621 97.148,-70.579 l -97.433,0 c -7.93,0 -15.176,-3.027 -20.672,-7.968 l -2.383,0 0,-2.395 c -4.902,-5.476 -7.89,-12.703 -7.89,-20.586 l 0,-97.847 c -41.129,13.191 -70.895,51.746 -70.895,97.254 0,56.398 45.727,102.121 102.125,102.121" /></g></g></g></g></svg>