<?xml version="1.0" encoding="UTF-8" standalone="no"?>
<svg
   xmlns:dc="http://purl.org/dc/elements/1.1/"
   xmlns:cc="http://creativecommons.org/ns#"
   xmlns:rdf="http://www.w3.org/1999/02/22-rdf-syntax-ns#"
   xmlns:svg="http://www.w3.org/2000/svg"
   xmlns="http://www.w3.org/2000/svg"
   viewBox="0 0 67.5 68.75"
   height="68.75"
   width="67.5"
   xml:space="preserve"
   version="1.1"
   id="svg2"><metadata
     id="metadata8"><rdf:RDF><cc:Work
         rdf:about=""><dc:format>image/svg+xml</dc:format><dc:type
           rdf:resource="http://purl.org/dc/dcmitype/StillImage" /></cc:Work></rdf:RDF></metadata><defs
     id="defs6" /><g
     transform="matrix(1.25,0,0,-1.25,0,68.75)"
     id="g10"><g
       transform="scale(0.1,0.1)"
       id="g12"><path
         id="path14"
         style="fill:#006df0;fill-opacity:1;fill-rule:evenodd;stroke:none"
         d="m 531.469,281.293 c 0,-142.969 -116.785,-258.8633 -260.875,-258.8633 -45.746,0 -88.719,11.6953 -126.106,32.2109 L 0.0546875,8.74609 47.1484,147.633 c -23.7578,39.004 -37.43746,84.754 -37.43746,133.66 0,142.969 116.80106,258.863 260.88306,258.863 144.101,0 260.875,-115.894 260.875,-258.863 z M 270.594,498.93 c -120.949,0 -219.3323,-97.633 -219.3323,-217.637 0,-47.621 15.5235,-91.719 41.7813,-127.598 L 65.6406,72.8672 149.926,99.6523 c 34.633,-22.7343 76.117,-35.9921 120.676,-35.9921 120.929,0 219.328,97.6168 219.328,217.6208 0,120.004 -98.391,217.649 -219.336,217.649 z M 402.332,221.676 c -1.613,2.637 -5.867,4.234 -12.258,7.402 -6.402,3.172 -37.847,18.531 -43.695,20.637 -5.863,2.113 -10.137,3.176 -14.399,-3.168 -4.253,-6.356 -16.511,-20.637 -20.25,-24.871 -3.73,-4.246 -7.457,-4.781 -13.859,-1.602 -6.387,3.172 -26.988,9.879 -51.418,31.489 -19.004,16.82 -31.84,37.578 -35.574,43.933 -3.727,6.352 -0.391,9.781 2.805,12.938 2.879,2.851 6.402,7.414 9.597,11.117 3.207,3.707 4.266,6.344 6.383,10.586 2.149,4.234 1.074,7.937 -0.527,11.113 -1.59,3.176 -14.395,34.398 -19.719,47.105 -5.328,12.696 -10.648,10.583 -14.387,10.583 -3.722,0 -7.992,0.531 -12.254,0.531 -4.269,0 -11.195,-1.586 -17.058,-7.934 -5.86,-6.355 -22.375,-21.707 -22.375,-52.926 0,-31.222 22.906,-61.386 26.109,-65.617 3.192,-4.23 44.227,-70.379 109.238,-95.789 65.016,-25.398 65.016,-16.926 76.739,-15.859 11.715,1.054 37.824,15.344 43.172,30.152 5.316,14.828 5.316,27.531 3.73,30.18" /></g></g></svg>