<?xml version="1.0" encoding="UTF-8" standalone="no"?>
<svg
   xmlns:dc="http://purl.org/dc/elements/1.1/"
   xmlns:cc="http://creativecommons.org/ns#"
   xmlns:rdf="http://www.w3.org/1999/02/22-rdf-syntax-ns#"
   xmlns:svg="http://www.w3.org/2000/svg"
   xmlns="http://www.w3.org/2000/svg"
   viewBox="0 0 92.462502 101.4"
   height="101.4"
   width="92.462502"
   xml:space="preserve"
   version="1.1"
   id="svg2"><metadata
     id="metadata8"><rdf:RDF><cc:Work
         rdf:about=""><dc:format>image/svg+xml</dc:format><dc:type
           rdf:resource="http://purl.org/dc/dcmitype/StillImage" /></cc:Work></rdf:RDF></metadata><defs
     id="defs6"><clipPath
       id="clipPath18"
       clipPathUnits="userSpaceOnUse"><path
         id="path20"
         d="m 0,0 739.727,0 0,811 L 0,811 0,0 Z" /></clipPath></defs><g
     transform="matrix(1.25,0,0,-1.25,0,101.4)"
     id="g10"><g
       transform="scale(0.1,0.1)"
       id="g12"><g
         id="g14"><g
           clip-path="url(#clipPath18)"
           id="g16"><path
             id="path22"
             style="fill:none;stroke:#4278c4;stroke-width:17.00799942;stroke-linecap:round;stroke-linejoin:round;stroke-miterlimit:22.92560005;stroke-dasharray:none;stroke-opacity:1"
             d="M 715,209.09 C 646.621,89.2734 517.688,8.50391 369.863,8.50391 222.039,8.50391 93.1016,89.2734 24.7266,209.09 M 172.406,750.227 c 58.16,33.394 125.578,52.496 197.457,52.496 71.875,0 139.297,-19.102 197.453,-52.496" /><path
             id="path24"
             style="fill:#fbc31e;fill-opacity:1;fill-rule:evenodd;stroke:none"
             d="m 71.2852,703.191 597.1638,0 c 34.531,0 62.774,-28.25 62.774,-62.781 l 0,-315.98 c 0,-34.52 -28.243,-62.774 -62.774,-62.774 l -597.1638,0 c -34.5313,0 -62.77739,28.254 -62.77739,62.774 l 0,315.98 c 0,34.531 28.24609,62.781 62.77739,62.781" /><path
             id="path26"
             style="fill:none;stroke:#6452a0;stroke-width:17.00799942;stroke-linecap:round;stroke-linejoin:round;stroke-miterlimit:22.92560005;stroke-dasharray:none;stroke-opacity:1"
             d="m 71.2852,703.191 597.1638,0 c 34.531,0 62.774,-28.25 62.774,-62.781 l 0,-315.98 c 0,-34.52 -28.243,-62.774 -62.774,-62.774 l -597.1638,0 c -34.5313,0 -62.77739,28.254 -62.77739,62.774 l 0,315.98 c 0,34.531 28.24609,62.781 62.77739,62.781 z" /><path
             id="path28"
             style="fill:#fbc31e;fill-opacity:1;fill-rule:evenodd;stroke:none"
             d="m 168.215,108.035 382.832,0 c 3.308,0 6.004,2.703 6.004,6.016 l 0,30.262 c 0,3.312 -2.696,6.007 -6.004,6.007 l -382.832,0 c -3.313,0 -6.012,-2.695 -6.012,-6.007 l 0,-30.262 c 0,-3.313 2.699,-6.016 6.012,-6.016" /><path
             id="path30"
             style="fill:none;stroke:#6452a0;stroke-width:17.00799942;stroke-linecap:round;stroke-linejoin:round;stroke-miterlimit:22.92560005;stroke-dasharray:none;stroke-opacity:1"
             d="m 168.215,108.035 382.832,0 c 3.308,0 6.004,2.703 6.004,6.016 l 0,30.262 c 0,3.312 -2.696,6.007 -6.004,6.007 l -382.832,0 c -3.313,0 -6.012,-2.695 -6.012,-6.007 l 0,-30.262 c 0,-3.313 2.699,-6.016 6.012,-6.016 z" /><path
             id="path32"
             style="fill:#fbc31e;fill-opacity:1;fill-rule:evenodd;stroke:none"
             d="m 249.281,150.32 241.16,0 0,111.336 -241.16,0 0,-111.336 z" /><path
             id="path34"
             style="fill:none;stroke:#6452a0;stroke-width:17.00799942;stroke-linecap:round;stroke-linejoin:round;stroke-miterlimit:22.92560005;stroke-dasharray:none;stroke-opacity:1"
             d="m 249.281,150.32 241.16,0 0,111.336 -241.16,0 0,-111.336 z" /><path
             id="path36"
             style="fill:#ffffff;fill-opacity:1;fill-rule:evenodd;stroke:none"
             d="m 300.617,189.234 138.496,0 0,33.5156 -138.496,0 0,-33.5156 z" /><path
             id="path38"
             style="fill:none;stroke:#6452a0;stroke-width:17.00799942;stroke-linecap:round;stroke-linejoin:round;stroke-miterlimit:22.92560005;stroke-dasharray:none;stroke-opacity:1"
             d="m 300.617,189.234 138.496,0 0,33.5156 -138.496,0 0,-33.5156 z" /><path
             id="path40"
             style="fill:#ffffff;fill-opacity:1;fill-rule:evenodd;stroke:none"
             d="m 521.711,353.777 c 70.859,0 128.652,57.786 128.652,128.653 0,70.859 -57.793,128.652 -128.652,128.652 -70.859,0 -128.652,-57.793 -128.652,-128.652 0,-70.867 57.793,-128.653 128.652,-128.653" /><path
             id="path42"
             style="fill:none;stroke:#6452a0;stroke-width:17.00799942;stroke-linecap:round;stroke-linejoin:round;stroke-miterlimit:22.92560005;stroke-dasharray:none;stroke-opacity:1"
             d="m 521.711,353.777 c 70.859,0 128.652,57.786 128.652,128.653 0,70.859 -57.793,128.652 -128.652,128.652 -70.859,0 -128.652,-57.793 -128.652,-128.652 0,-70.867 57.793,-128.653 128.652,-128.653 z" /><path
             id="path44"
             style="fill:#6452a0;fill-opacity:1;fill-rule:evenodd;stroke:none"
             d="m 369.863,449.086 118.235,0 0,-33.348 118.242,66.684 -118.242,66.687 0,-33.339 -118.235,0 0,-66.684" /><path
             id="path46"
             style="fill:none;stroke:#6452a0;stroke-width:14.17300034;stroke-linecap:round;stroke-linejoin:round;stroke-miterlimit:22.92560005;stroke-dasharray:none;stroke-opacity:1"
             d="M 193.273,469.367 184.34,457.07 m 16.473,50.703 0,-14.964" /><path
             id="path48"
             style="fill:none;stroke:#6452a0;stroke-width:14.17300034;stroke-linecap:round;stroke-linejoin:round;stroke-miterlimit:22.92560005;stroke-dasharray:none;stroke-opacity:1"
             d="m 213.156,483.758 14.309,4.652 m -10.18,-31.34 -8.93,12.297" /><path
             id="path50"
             style="fill:none;stroke:#6452a0;stroke-width:14.17300034;stroke-linecap:round;stroke-linejoin:round;stroke-miterlimit:22.92560005;stroke-dasharray:none;stroke-opacity:1"
             d="m 188.469,483.758 -14.313,4.652" /><path
             id="path52"
             style="fill:none;stroke:#6452a0;stroke-width:14.17300034;stroke-linecap:round;stroke-linejoin:round;stroke-miterlimit:22.92560005;stroke-dasharray:none;stroke-opacity:1"
             d="m 274.277,469.367 -8.929,-12.297 m 16.472,50.703 0,-14.964" /><path
             id="path54"
             style="fill:none;stroke:#6452a0;stroke-width:14.17300034;stroke-linecap:round;stroke-linejoin:round;stroke-miterlimit:22.92560005;stroke-dasharray:none;stroke-opacity:1"
             d="m 294.164,483.758 14.313,4.652 m -10.18,-31.34 -8.938,12.297" /><path
             id="path56"
             style="fill:none;stroke:#6452a0;stroke-width:14.17300034;stroke-linecap:round;stroke-linejoin:round;stroke-miterlimit:22.92560005;stroke-dasharray:none;stroke-opacity:1"
             d="M 269.477,483.758 255.16,488.41" /><path
             id="path58"
             style="fill:none;stroke:#6452a0;stroke-width:14.17300034;stroke-linecap:round;stroke-linejoin:round;stroke-miterlimit:22.92560005;stroke-dasharray:none;stroke-opacity:1"
             d="m 112.262,469.367 -8.93,-12.297 m 16.473,50.703 0,-14.964" /><path
             id="path60"
             style="fill:none;stroke:#6452a0;stroke-width:14.17300034;stroke-linecap:round;stroke-linejoin:round;stroke-miterlimit:22.92560005;stroke-dasharray:none;stroke-opacity:1"
             d="m 132.148,483.758 14.313,4.652 m -10.188,-31.34 -8.929,12.297" /><path
             id="path62"
             style="fill:none;stroke:#6452a0;stroke-width:14.17300034;stroke-linecap:round;stroke-linejoin:round;stroke-miterlimit:22.92560005;stroke-dasharray:none;stroke-opacity:1"
             d="M 107.461,483.758 93.1445,488.41" /><path
             id="path64"
             style="fill:none;stroke:#6452a0;stroke-width:17.00799942;stroke-linecap:round;stroke-linejoin:round;stroke-miterlimit:22.92560005;stroke-dasharray:none;stroke-opacity:1"
             d="m 81.9492,335.328 228.1058,0" /><path
             id="path66"
             style="fill:none;stroke:#6452a0;stroke-width:17.00799942;stroke-linecap:round;stroke-linejoin:round;stroke-miterlimit:22.92560005;stroke-dasharray:none;stroke-opacity:1"
             d="m 81.9492,390.895 82.1838,0" /><path
             id="path68"
             style="fill:none;stroke:#6452a0;stroke-width:17.00799942;stroke-linecap:round;stroke-linejoin:round;stroke-miterlimit:22.92560005;stroke-dasharray:none;stroke-opacity:1"
             d="m 81.9492,573.465 224.3908,0" /><path
             id="path70"
             style="fill:none;stroke:#6452a0;stroke-width:17.00799942;stroke-linecap:round;stroke-linejoin:round;stroke-miterlimit:22.92560005;stroke-dasharray:none;stroke-opacity:1"
             d="m 81.9492,632.527 77.9458,0" /><path
             id="path72"
             style="fill:none;stroke:#6452a0;stroke-width:17.00799942;stroke-linecap:round;stroke-linejoin:round;stroke-miterlimit:22.92560005;stroke-dasharray:none;stroke-opacity:1"
             d="m 190.391,631.98 92.437,0" /><path
             id="path74"
             style="fill:none;stroke:#6452a0;stroke-width:17.00799942;stroke-linecap:round;stroke-linejoin:round;stroke-miterlimit:22.92560005;stroke-dasharray:none;stroke-opacity:1"
             d="m 200.309,390.895 106.031,0" /></g></g></g></g></svg>