<?xml version="1.0" encoding="UTF-8" standalone="no"?>
<svg
   xmlns:dc="http://purl.org/dc/elements/1.1/"
   xmlns:cc="http://creativecommons.org/ns#"
   xmlns:rdf="http://www.w3.org/1999/02/22-rdf-syntax-ns#"
   xmlns:svg="http://www.w3.org/2000/svg"
   xmlns="http://www.w3.org/2000/svg"
   viewBox="0 0 102.0625 102.0625"
   height="102.0625"
   width="102.0625"
   xml:space="preserve"
   version="1.1"
   id="svg2"><metadata
     id="metadata8"><rdf:RDF><cc:Work
         rdf:about=""><dc:format>image/svg+xml</dc:format><dc:type
           rdf:resource="http://purl.org/dc/dcmitype/StillImage" /></cc:Work></rdf:RDF></metadata><defs
     id="defs6" /><g
     transform="matrix(1.25,0,0,-1.25,0,102.0625)"
     id="g10"><g
       transform="scale(0.1,0.1)"
       id="g12"><path
         id="path14"
         style="fill:none;stroke:#4278c4;stroke-width:17.00799942;stroke-linecap:round;stroke-linejoin:round;stroke-miterlimit:22.92560005;stroke-dasharray:none;stroke-opacity:1"
         d="M 628.59,74.6719 C 565.414,32.8555 489.664,8.5 408.238,8.5 326.809,8.5 251.07,32.8555 187.895,74.6719 M 792.828,517.598 c 9.863,-34.754 15.145,-71.446 15.145,-109.36 0,-63.39 -14.766,-123.332 -41.024,-176.582 M 246.445,773.871 c 49.457,21.922 104.203,34.098 161.793,34.098 57.586,0 112.325,-12.176 161.785,-34.098 M 49.5234,231.656 C 23.2617,284.906 8.50781,344.848 8.50781,408.238 c 0,37.918 5.27739,74.606 15.14059,109.36" /><path
         id="path16"
         style="fill:#fbc31e;fill-opacity:1;fill-rule:evenodd;stroke:none"
         d="m 103.734,127.008 597.109,0 0,407.031 -597.109,0 0,-407.031 z" /><path
         id="path18"
         style="fill:none;stroke:#6452a0;stroke-width:17.00799942;stroke-linecap:round;stroke-linejoin:round;stroke-miterlimit:22.92560005;stroke-dasharray:none;stroke-opacity:1"
         d="m 103.734,127.008 597.109,0 0,407.031 -597.109,0 0,-407.031 z" /><path
         id="path20"
         style="fill:#ffffff;fill-opacity:1;fill-rule:evenodd;stroke:none"
         d="M 254.82,722.992 230.797,565.336 c -0.598,-2.902 -1.051,-5.859 -1.356,-8.859 -0.293,-2.93 -0.441,-5.895 -0.441,-8.899 0,-48.558 39.363,-87.926 87.926,-87.926 48.558,0 87.918,39.368 87.918,87.926 l 0,0.004 0.074,-0.004 0,175.414 -150.098,0" /><path
         id="path22"
         style="fill:none;stroke:#6452a0;stroke-width:17.00799942;stroke-linecap:round;stroke-linejoin:round;stroke-miterlimit:22.92560005;stroke-dasharray:none;stroke-opacity:1"
         d="M 254.82,722.992 230.797,565.336 c -0.598,-2.902 -1.051,-5.859 -1.356,-8.859 -0.293,-2.93 -0.441,-5.895 -0.441,-8.899 0,-48.558 39.363,-87.926 87.926,-87.926 48.558,0 87.918,39.368 87.918,87.926 l 0,0.004 0.074,-0.004 0,175.414 -150.098,0 z" /><path
         id="path24"
         style="fill:#6452a0;fill-opacity:1;fill-rule:evenodd;stroke:none"
         d="m 122.387,722.992 -49.0901,-127.547 0.1992,-0.054 c -3.3906,-8.911 -5.25,-18.578 -5.25,-28.68 0,-44.621 36.1719,-80.789 80.7849,-80.789 41.578,0 75.809,31.406 80.285,71.781 l 25.45,165.289 -132.379,0" /><path
         id="path26"
         style="fill:none;stroke:#6452a0;stroke-width:17.00799942;stroke-linecap:round;stroke-linejoin:round;stroke-miterlimit:22.92560005;stroke-dasharray:none;stroke-opacity:1"
         d="m 122.387,722.992 -49.0901,-127.547 0.1992,-0.054 c -3.3906,-8.911 -5.25,-18.578 -5.25,-28.68 0,-44.621 36.1719,-80.789 80.7849,-80.789 41.578,0 75.809,31.406 80.285,71.781 l 25.45,165.289 -132.379,0 z" /><path
         id="path28"
         style="fill:#6452a0;fill-opacity:1;fill-rule:evenodd;stroke:none"
         d="m 555.016,722.992 24.023,-157.656 c 0.594,-2.902 1.043,-5.859 1.348,-8.859 0.293,-2.93 0.437,-5.895 0.437,-8.899 0,-48.558 -39.355,-87.926 -87.918,-87.926 -48.554,0 -87.922,39.368 -87.922,87.926 l 0,0.004 -0.066,-0.004 0,175.414 150.098,0" /><path
         id="path30"
         style="fill:none;stroke:#6452a0;stroke-width:17.00799942;stroke-linecap:round;stroke-linejoin:round;stroke-miterlimit:22.92560005;stroke-dasharray:none;stroke-opacity:1"
         d="m 555.016,722.992 24.023,-157.656 c 0.594,-2.902 1.043,-5.859 1.348,-8.859 0.293,-2.93 0.437,-5.895 0.437,-8.899 0,-48.558 -39.355,-87.926 -87.918,-87.926 -48.554,0 -87.922,39.368 -87.922,87.926 l 0,0.004 -0.066,-0.004 0,175.414 150.098,0 z" /><path
         id="path32"
         style="fill:#ffffff;fill-opacity:1;fill-rule:evenodd;stroke:none"
         d="m 687.445,722.992 49.094,-127.547 -0.207,-0.054 c 3.391,-8.911 5.254,-18.578 5.254,-28.68 0,-44.621 -36.172,-80.789 -80.789,-80.789 -41.574,0 -75.801,31.406 -80.285,71.781 l -25.449,165.289 132.382,0" /><path
         id="path34"
         style="fill:none;stroke:#6452a0;stroke-width:17.00799942;stroke-linecap:round;stroke-linejoin:round;stroke-miterlimit:22.92560005;stroke-dasharray:none;stroke-opacity:1"
         d="m 687.445,722.992 49.094,-127.547 -0.207,-0.054 c 3.391,-8.911 5.254,-18.578 5.254,-28.68 0,-44.621 -36.172,-80.789 -80.789,-80.789 -41.574,0 -75.801,31.406 -80.285,71.781 l -25.449,165.289 132.382,0 z" /><path
         id="path36"
         style="fill:none;stroke:#6452a0;stroke-width:17.00799942;stroke-linecap:round;stroke-linejoin:round;stroke-miterlimit:22.92560005;stroke-dasharray:none;stroke-opacity:1"
         d="m 68.4531,127.016 679.7739,0" /><path
         id="path38"
         style="fill:#ffffff;fill-opacity:1;fill-rule:evenodd;stroke:none"
         d="m 176.047,221.656 468.918,0 0,188.574 -468.918,0 0,-188.574 z" /><path
         id="path40"
         style="fill:none;stroke:#6452a0;stroke-width:17.00799942;stroke-linecap:round;stroke-linejoin:round;stroke-miterlimit:22.92560005;stroke-dasharray:none;stroke-opacity:1"
         d="m 176.047,221.656 468.918,0 0,188.574 -468.918,0 0,-188.574 z" /><path
         id="path42"
         style="fill:none;stroke:#6452a0;stroke-width:17.00799942;stroke-linecap:round;stroke-linejoin:round;stroke-miterlimit:22.92560005;stroke-dasharray:none;stroke-opacity:1"
         d="m 532.348,373.297 70.39,-70.402" /><path
         id="path44"
         style="fill:none;stroke:#6452a0;stroke-width:17.00799942;stroke-linecap:round;stroke-linejoin:round;stroke-miterlimit:22.92560005;stroke-dasharray:none;stroke-opacity:1"
         d="m 573.98,371.109 27.071,-27.082" /></g></g></svg>