<?xml version="1.0" encoding="UTF-8" standalone="no"?>
<svg
   xmlns:dc="http://purl.org/dc/elements/1.1/"
   xmlns:cc="http://creativecommons.org/ns#"
   xmlns:rdf="http://www.w3.org/1999/02/22-rdf-syntax-ns#"
   xmlns:svg="http://www.w3.org/2000/svg"
   xmlns="http://www.w3.org/2000/svg"
   viewBox="0 0 72.5 42.5"
   height="42.5"
   width="72.5"
   xml:space="preserve"
   version="1.1"
   id="svg2"><metadata
     id="metadata8"><rdf:RDF><cc:Work
         rdf:about=""><dc:format>image/svg+xml</dc:format><dc:type
           rdf:resource="http://purl.org/dc/dcmitype/StillImage" /></cc:Work></rdf:RDF></metadata><defs
     id="defs6" /><g
     transform="matrix(1.25,0,0,-1.25,0,42.5)"
     id="g10"><g
       transform="scale(0.1,0.1)"
       id="g12"><path
         id="path14"
         style="fill:#006df0;fill-opacity:1;fill-rule:evenodd;stroke:none"
         d="m 127.703,303.254 c 15.942,-39.371 36.149,-76.488 62.758,-109.813 3.531,-4.433 7.98,-8.375 12.668,-11.586 6.844,-4.703 13.305,-3.046 16.09,4.786 2.941,8.214 5.644,24.867 5.804,33.5 0.442,22.547 -0.066,37.324 -1.281,59.847 -0.781,14.422 -5.91,27.09 -27.129,30.914 -6.55,1.184 -7.16,6.575 -2.949,11.957 8.762,11.2 20.969,12.985 34.211,13.692 21.453,1.16 42.992,0.215 64.48,0 8.747,-0.082 17.551,-0.785 26.172,-2.664 11.243,-2.449 17.258,-10.336 19.11,-21.309 0.957,-5.66 1.453,-11.48 1.32,-17.211 -0.562,-24.609 -1.746,-49.207 -2.027,-73.808 -0.117,-9.657 0.586,-19.555 2.652,-28.957 2.887,-13.102 11.813,-16.399 20.938,-6.926 11.585,12.023 21.804,25.558 31.394,39.304 17.422,25 30.43,52.434 41.633,80.719 5.793,14.602 10.23,17.77 25.933,17.813 29.512,0.062 59.024,0.09 88.543,0 5.231,-0.024 10.704,-0.52 15.649,-2.098 8.019,-2.551 11.203,-9.094 9.32,-17.391 -4.379,-19.449 -14.887,-35.976 -26.14,-51.863 -18.063,-25.492 -36.989,-50.371 -55.477,-75.566 -2.352,-3.211 -4.43,-6.637 -6.363,-10.114 -6.918,-12.492 -6.438,-19.5 3.648,-29.894 16.047,-16.563 33.231,-32.047 48.774,-49.0547 11.296,-12.3711 21.75,-25.7969 30.699,-39.9297 11.32,-17.8789 4.328,-34.711 -16.82,-37.70316 -13.305,-1.88281 -78.301,-0.01563 -81.661,0 -17.472,0.07422 -32.789,6.13676 -45.125,18.00386 -13.714,13.2071 -26.183,27.7071 -39.355,41.4883 -3.969,4.1563 -8.203,8.1407 -12.77,11.6133 -10.777,8.2188 -21.355,6.3945 -26.386,-6.2617 -4.301,-10.8672 -8.02,-39.4063 -8.192,-41.8438 -0.902,-12.7461 -9.019,-20.8671 -23.297,-21.6562 -41.222,-2.23439 -81.164,2.3594 -118.375,22.2969 -31.539,16.8828 -56.726,40.7734 -78.543,68.6169 -34.6559,44.231 -62.0309,92.856 -87.0192,142.907 -1.2773,2.562 -26.59371,56.421 -27.26949,58.964 -2.26172,8.52 -0.15234,16.653 7.04689,19.461 4.4844,1.742 87.9375,0 89.3281,-0.074 13.3167,-0.719 22.3947,-6.34 28.0077,-20.16" /></g></g></svg>