<?xml version="1.0" encoding="UTF-8" standalone="no"?>
<svg
   xmlns:dc="http://purl.org/dc/elements/1.1/"
   xmlns:cc="http://creativecommons.org/ns#"
   xmlns:rdf="http://www.w3.org/1999/02/22-rdf-syntax-ns#"
   xmlns:svg="http://www.w3.org/2000/svg"
   xmlns="http://www.w3.org/2000/svg"
   viewBox="0 0 111.15 101.5125"
   height="101.5125"
   width="111.15"
   xml:space="preserve"
   version="1.1"
   id="svg2"><metadata
     id="metadata8"><rdf:RDF><cc:Work
         rdf:about=""><dc:format>image/svg+xml</dc:format><dc:type
           rdf:resource="http://purl.org/dc/dcmitype/StillImage" /></cc:Work></rdf:RDF></metadata><defs
     id="defs6" /><g
     transform="matrix(1.25,0,0,-1.25,0,101.5125)"
     id="g10"><g
       transform="scale(0.1,0.1)"
       id="g12"><path
         id="path14"
         style="fill:none;stroke:#4278c4;stroke-width:17.00799942;stroke-linecap:round;stroke-linejoin:round;stroke-miterlimit:22.92560005;stroke-dasharray:none;stroke-opacity:1"
         d="M 790.379,209.766 C 722,89.5703 592.77,8.50781 444.605,8.50781 296.434,8.50781 167.215,89.5703 98.8359,209.766 m 0,392.578 C 167.215,722.539 296.434,803.602 444.605,803.602 592.77,803.602 722,722.539 790.379,602.344" /><path
         id="path16"
         style="fill:#fbc31e;fill-opacity:1;fill-rule:evenodd;stroke:none"
         d="m 262.57,639.465 364.067,0 c 28.468,0 51.769,-23.293 51.769,-51.77 l 0,-310.605 c 0,-28.465 -23.301,-51.719 -51.769,-51.758 l -80.313,-0.137 -101.719,-97.48 -101.507,97.617 -80.528,0 c -28.472,0 -51.765,23.293 -51.765,51.758 l 0,310.605 c 0,28.477 23.293,51.77 51.765,51.77" /><path
         id="path18"
         style="fill:none;stroke:#6452a0;stroke-width:17.00799942;stroke-linecap:round;stroke-linejoin:round;stroke-miterlimit:22.92560005;stroke-dasharray:none;stroke-opacity:1"
         d="m 262.57,639.465 364.067,0 c 28.468,0 51.769,-23.293 51.769,-51.77 l 0,-310.605 c 0,-28.465 -23.301,-51.719 -51.769,-51.758 l -80.313,-0.137 -101.719,-97.48 -101.507,97.617 -80.528,0 c -28.472,0 -51.765,23.293 -51.765,51.758 l 0,310.605 c 0,28.477 23.293,51.77 51.765,51.77 z" /><path
         id="path20"
         style="fill:#ffffff;fill-opacity:1;fill-rule:evenodd;stroke:none"
         d="m 741.531,266.875 c 76.649,0 139.18,62.52 139.18,139.184 0,76.66 -62.531,139.179 -139.18,139.179 -76.66,0 -139.191,-62.519 -139.191,-139.179 0,-76.664 62.531,-139.184 139.191,-139.184" /><path
         id="path22"
         style="fill:none;stroke:#6452a0;stroke-width:17.00799942;stroke-linecap:round;stroke-linejoin:round;stroke-miterlimit:22.92560005;stroke-dasharray:none;stroke-opacity:1"
         d="m 741.531,266.875 c 76.649,0 139.18,62.52 139.18,139.184 0,76.66 -62.531,139.179 -139.18,139.179 -76.66,0 -139.191,-62.519 -139.191,-139.179 0,-76.664 62.531,-139.184 139.191,-139.184 z" /><path
         id="path24"
         style="fill:none;stroke:#6452a0;stroke-width:17.00799942;stroke-linecap:round;stroke-linejoin:round;stroke-miterlimit:22.92560005;stroke-dasharray:none;stroke-opacity:1"
         d="m 659.977,410.84 58.136,-58.137 99.317,99.324" /><path
         id="path26"
         style="fill:none;stroke:#6452a0;stroke-width:17.00799942;stroke-linecap:round;stroke-linejoin:round;stroke-miterlimit:22.92560005;stroke-dasharray:none;stroke-opacity:1"
         d="m 374.895,480.387 c 0,38.496 31.21,69.707 69.71,69.707 38.497,0 69.708,-31.211 69.708,-69.707 0,-33.258 -23.282,-61.067 -54.434,-68.035 -9.59,-2.141 -15.274,-10.157 -15.274,-19.52 l 0,-45.305" /><path
         id="path28"
         style="fill:#6452a0;fill-opacity:1;fill-rule:evenodd;stroke:none"
         d="m 444.691,287.488 c 8.582,0 15.579,6.992 15.579,15.578 0,8.582 -6.997,15.586 -15.579,15.586 -8.586,0 -15.586,-7.004 -15.586,-15.586 0,-8.586 7,-15.578 15.586,-15.578" /><path
         id="path30"
         style="fill:#6452a0;fill-opacity:1;fill-rule:evenodd;stroke:none"
         d="m 147.688,266.875 c 76.656,0 139.179,62.52 139.179,139.184 0,76.66 -62.523,139.179 -139.179,139.179 -76.6607,0 -139.18409,-62.519 -139.18409,-139.179 0,-76.664 62.52339,-139.184 139.18409,-139.184" /><path
         id="path32"
         style="fill:none;stroke:#6452a0;stroke-width:17.00799942;stroke-linecap:round;stroke-linejoin:round;stroke-miterlimit:22.92560005;stroke-dasharray:none;stroke-opacity:1"
         d="m 147.688,266.875 c 76.656,0 139.179,62.52 139.179,139.184 0,76.66 -62.523,139.179 -139.179,139.179 -76.6607,0 -139.18409,-62.519 -139.18409,-139.179 0,-76.664 62.52339,-139.184 139.18409,-139.184 z" /><path
         id="path34"
         style="fill:none;stroke:#ffffff;stroke-width:17.00799942;stroke-linecap:round;stroke-linejoin:round;stroke-miterlimit:22.92560005;stroke-dasharray:none;stroke-opacity:1"
         d="m 98.0234,356.395 99.3166,99.32" /><path
         id="path36"
         style="fill:none;stroke:#ffffff;stroke-width:17.00799942;stroke-linecap:round;stroke-linejoin:round;stroke-miterlimit:22.92560005;stroke-dasharray:none;stroke-opacity:1"
         d="m 197.348,356.395 -99.3246,99.32" /></g></g></svg>