<?xml version="1.0" encoding="UTF-8" standalone="no"?>
<svg
   xmlns:dc="http://purl.org/dc/elements/1.1/"
   xmlns:cc="http://creativecommons.org/ns#"
   xmlns:rdf="http://www.w3.org/1999/02/22-rdf-syntax-ns#"
   xmlns:svg="http://www.w3.org/2000/svg"
   xmlns="http://www.w3.org/2000/svg"
   viewBox="0 0 102.0625 112.2"
   height="112.2"
   width="102.0625"
   xml:space="preserve"
   version="1.1"
   id="svg2"><metadata
     id="metadata8"><rdf:RDF><cc:Work
         rdf:about=""><dc:format>image/svg+xml</dc:format><dc:type
           rdf:resource="http://purl.org/dc/dcmitype/StillImage" /></cc:Work></rdf:RDF></metadata><defs
     id="defs6"><clipPath
       id="clipPath18"
       clipPathUnits="userSpaceOnUse"><path
         id="path20"
         d="m 0,0 816,0 0,897.602 -816,0 L 0,0 Z" /></clipPath></defs><g
     transform="matrix(1.25,0,0,-1.25,0,112.2)"
     id="g10"><g
       transform="scale(0.1,0.1)"
       id="g12"><g
         id="g14"><g
           clip-path="url(#clipPath18)"
           id="g16"><path
             id="path22"
             style="fill:none;stroke:#4278c4;stroke-width:17.00799942;stroke-linecap:round;stroke-linejoin:round;stroke-miterlimit:22.92560005;stroke-dasharray:none;stroke-opacity:1"
             d="m 695.895,744.094 c 69.394,-71.899 112.078,-169.746 112.078,-277.559 0,-173.394 -110.41,-321.012 -264.754,-376.3748 m -281.61,4.3867 C 113.387,153.023 8.50391,297.527 8.50391,466.535 c 0,104.281 39.93359,199.238 105.34009,270.41" /><path
             id="path24"
             style="fill:#fbc31e;fill-opacity:1;fill-rule:evenodd;stroke:none"
             d="m 130.848,649.793 c 184.304,0 368.609,0 552.918,0 37.07,0 45.867,-42.215 27.019,-61.063 L 464.77,348.246 l 0,-339.74209 -113.059,62.22659 0,277.5155 c -81.242,79.406 -162.477,158.82 -243.715,238.231 -23.6054,23.609 -11.4257,63.316 22.852,63.316" /><path
             id="path26"
             style="fill:none;stroke:#6452a0;stroke-width:17.00799942;stroke-linecap:round;stroke-linejoin:round;stroke-miterlimit:22.92560005;stroke-dasharray:none;stroke-opacity:1"
             d="m 130.848,649.793 c 184.304,0 368.609,0 552.918,0 37.07,0 45.867,-42.215 27.019,-61.063 L 464.77,348.246 l 0,-339.74209 -113.059,62.22659 0,277.5155 c -81.242,79.406 -162.477,158.82 -243.715,238.231 -23.6054,23.609 -11.4257,63.316 22.852,63.316 z" /><path
             id="path28"
             style="fill:#ffffff;fill-opacity:1;fill-rule:evenodd;stroke:none"
             d="m 408.285,190.484 c 89.641,0 162.754,73.118 162.754,162.762 0,89.641 -73.113,162.758 -162.754,162.758 -89.648,0 -162.758,-73.117 -162.758,-162.758 0,-89.644 73.11,-162.762 162.758,-162.762" /><path
             id="path30"
             style="fill:none;stroke:#6452a0;stroke-width:17.00799942;stroke-linecap:round;stroke-linejoin:round;stroke-miterlimit:22.92560005;stroke-dasharray:none;stroke-opacity:1"
             d="m 408.285,190.484 c 89.641,0 162.754,73.118 162.754,162.762 0,89.641 -73.113,162.758 -162.754,162.758 -89.648,0 -162.758,-73.117 -162.758,-162.758 0,-89.644 73.11,-162.762 162.758,-162.762 z" /><path
             id="path32"
             style="fill:#6452a0;fill-opacity:1;fill-rule:evenodd;stroke:none"
             d="m 408.09,797.363 c 27.609,0 50.117,22.516 50.117,50.117 0,27.61 -22.508,50.125 -50.117,50.125 -27.602,0 -50.117,-22.515 -50.117,-50.125 0,-27.601 22.515,-50.117 50.117,-50.117" /><path
             id="path34"
             style="fill:#6452a0;fill-opacity:1;fill-rule:evenodd;stroke:none"
             d="m 658.336,797.363 c 27.605,0 50.117,22.516 50.117,50.117 0,27.61 -22.512,50.125 -50.117,50.125 -27.609,0 -50.117,-22.515 -50.117,-50.125 0,-27.601 22.508,-50.117 50.117,-50.117" /><path
             id="path36"
             style="fill:#6452a0;fill-opacity:1;fill-rule:evenodd;stroke:none"
             d="m 157.84,797.363 c 27.605,0 50.121,22.516 50.121,50.117 0,27.61 -22.516,50.125 -50.121,50.125 -27.602,0 -50.117,-22.515 -50.117,-50.125 0,-27.601 22.515,-50.117 50.117,-50.117" /><path
             id="path38"
             style="fill:#6452a0;fill-opacity:1;fill-rule:evenodd;stroke:none"
             d="m 282.969,686.883 c 27.601,0 50.117,22.508 50.117,50.113 0,27.606 -22.516,50.121 -50.117,50.121 -27.61,0 -50.121,-22.515 -50.121,-50.121 0,-27.605 22.511,-50.113 50.121,-50.113" /><path
             id="path40"
             style="fill:#6452a0;fill-opacity:1;fill-rule:evenodd;stroke:none"
             d="m 533.219,686.883 c 27.597,0 50.117,22.508 50.117,50.113 0,27.606 -22.52,50.121 -50.117,50.121 -27.61,0 -50.129,-22.515 -50.129,-50.121 0,-27.605 22.519,-50.113 50.129,-50.113" /><path
             id="path42"
             style="fill:none;stroke:#6452a0;stroke-width:17.00799942;stroke-linecap:round;stroke-linejoin:round;stroke-miterlimit:22.92560005;stroke-dasharray:none;stroke-opacity:1"
             d="m 371.688,436.676 0,-166.863" /><path
             id="path44"
             style="fill:none;stroke:#6452a0;stroke-width:17.00799942;stroke-linecap:round;stroke-linejoin:round;stroke-miterlimit:22.92560005;stroke-dasharray:none;stroke-opacity:1"
             d="m 371.688,436.676 57.253,0 c 27.188,0 49.442,-22.246 49.442,-49.442 l 0,0 c 0,-27.187 -22.254,-49.433 -49.442,-49.433 l -90.757,0" /><path
             id="path46"
             style="fill:none;stroke:#6452a0;stroke-width:17.00799942;stroke-linecap:round;stroke-linejoin:round;stroke-miterlimit:22.92560005;stroke-dasharray:none;stroke-opacity:1"
             d="m 338.184,304.617 101.488,0" /></g></g></g></g></svg>