<?xml version="1.0" encoding="UTF-8" standalone="no"?>
<svg
   xmlns:dc="http://purl.org/dc/elements/1.1/"
   xmlns:cc="http://creativecommons.org/ns#"
   xmlns:rdf="http://www.w3.org/1999/02/22-rdf-syntax-ns#"
   xmlns:svg="http://www.w3.org/2000/svg"
   xmlns="http://www.w3.org/2000/svg"
   viewBox="0 0 21.25 21.25"
   height="21.25"
   width="21.25"
   xml:space="preserve"
   version="1.1"
   id="svg2"><metadata
     id="metadata8"><rdf:RDF><cc:Work
         rdf:about=""><dc:format>image/svg+xml</dc:format><dc:type
           rdf:resource="http://purl.org/dc/dcmitype/StillImage" /></cc:Work></rdf:RDF></metadata><defs
     id="defs6" /><g
     transform="matrix(1.25,0,0,-1.25,0,21.25)"
     id="g10"><g
       transform="scale(0.1,0.1)"
       id="g12"><path
         id="path14"
         style="fill:#006df0;fill-opacity:1;fill-rule:evenodd;stroke:none"
         d="m 161.066,90.0547 c 0,-43.2578 -35.339,-78.3281 -78.941,-78.3281 -13.8398,0 -26.8437,3.539 -38.1562,9.7461 L 0.265625,7.58594 14.5156,49.6094 C 7.32422,61.4141 3.1875,75.2539 3.1875,90.0547 3.18359,133.32 38.5313,168.383 82.125,168.383 c 43.605,0 78.941,-35.063 78.941,-78.3283 z M 82.125,155.914 c -36.5977,0 -66.3633,-29.547 -66.3633,-65.8593 0,-14.4063 4.6953,-27.75 12.6406,-38.6055 l -8.2929,-24.4609 25.5078,8.1055 c 10.4805,-6.875 23.0273,-10.8946 36.5117,-10.8946 36.5941,0 66.3671,29.543 66.3671,65.8555 0,36.3083 -29.773,65.8593 -66.371,65.8593 z m 39.867,-83.8984 c -0.488,0.8008 -1.777,1.2813 -3.711,2.2422 -1.937,0.957 -11.453,5.6055 -13.226,6.2461 -1.766,0.6406 -3.067,0.957 -4.352,-0.9609 -1.2889,-1.9219 -4.9999,-6.2461 -6.1249,-7.5274 -1.1328,-1.2851 -2.2617,-1.4414 -4.1953,-0.4804 -1.9336,0.957 -8.168,2.9882 -15.5586,9.5273 -5.75,5.0859 -9.6367,11.3672 -10.7656,13.2969 -1.1289,1.9179 -0.1172,2.957 0.8477,3.9101 0.875,0.8633 1.9375,2.2425 2.9023,3.3675 0.9727,1.117 1.2891,1.918 1.9375,3.203 0.6445,1.277 0.3203,2.394 -0.1641,3.363 -0.4843,0.961 -4.3554,10.406 -5.9687,14.25 -1.6094,3.84 -3.2188,3.199 -4.3477,3.199 -1.1289,0 -2.4218,0.161 -3.7109,0.161 -1.2891,0 -3.3867,-0.477 -5.1641,-2.399 -1.7734,-1.922 -6.7656,-6.57 -6.7656,-16.016 0,-9.4449 6.9258,-18.5738 7.8984,-19.855 0.9688,-1.2735 13.3789,-21.2969 33.0508,-28.9844 19.6758,-7.6836 19.6758,-5.1211 23.2228,-4.7969 3.543,0.3203 11.445,4.6446 13.066,9.125 1.606,4.4844 1.606,8.3281 1.129,9.1289" /></g></g></svg>