<?xml version="1.0" encoding="UTF-8" standalone="no"?>
<svg
   xmlns:dc="http://purl.org/dc/elements/1.1/"
   xmlns:cc="http://creativecommons.org/ns#"
   xmlns:rdf="http://www.w3.org/1999/02/22-rdf-syntax-ns#"
   xmlns:svg="http://www.w3.org/2000/svg"
   xmlns="http://www.w3.org/2000/svg"
   viewBox="0 0 102.0625 102.0625"
   height="102.0625"
   width="102.0625"
   xml:space="preserve"
   version="1.1"
   id="svg2"><metadata
     id="metadata8"><rdf:RDF><cc:Work
         rdf:about=""><dc:format>image/svg+xml</dc:format><dc:type
           rdf:resource="http://purl.org/dc/dcmitype/StillImage" /></cc:Work></rdf:RDF></metadata><defs
     id="defs6" /><g
     transform="matrix(1.25,0,0,-1.25,0,102.0625)"
     id="g10"><g
       transform="scale(0.1,0.1)"
       id="g12"><path
         id="path14"
         style="fill:none;stroke:#4278c4;stroke-width:17.00799942;stroke-linecap:round;stroke-linejoin:round;stroke-miterlimit:22.92560005;stroke-dasharray:none;stroke-opacity:1"
         d="M 89.5156,166.977 C 38.6875,234.039 8.50781,317.602 8.50781,408.238 c 0,72.75 19.43359,140.961 53.39849,199.727 M 585.902,50.0938 C 532.379,23.4922 472.055,8.5 408.238,8.5 345.73,8.5 286.578,22.8555 233.891,48.4414 M 721.598,656.418 c 54.07,-68.18 86.375,-154.406 86.375,-248.18 0,-89.883 -29.676,-172.843 -79.754,-239.609 M 221.996,762.023 c 55.617,29.336 118.988,45.946 186.242,45.946 65.508,0 127.344,-15.758 181.903,-43.692" /><path
         id="path16"
         style="fill:#fbc31e;fill-opacity:1;fill-rule:evenodd;stroke:none"
         d="m 612.699,706.801 -352.172,0 0,-599.051 352.172,0 c 24.258,0 44.114,19.852 44.114,44.109 l 0,510.832 c 0,24.262 -19.856,44.11 -44.114,44.11" /><path
         id="path18"
         style="fill:none;stroke:#6452a0;stroke-width:17.00799942;stroke-linecap:round;stroke-linejoin:round;stroke-miterlimit:22.92560005;stroke-dasharray:none;stroke-opacity:1"
         d="m 612.699,706.801 -352.172,0 0,-599.051 352.172,0 c 24.258,0 44.114,19.852 44.114,44.109 l 0,510.832 c 0,24.262 -19.856,44.11 -44.114,44.11 z" /><path
         id="path20"
         style="fill:#ffffff;fill-opacity:1;fill-rule:evenodd;stroke:none"
         d="m 201.301,706.801 59.226,0 0,-599.051 -59.226,0 c -32.574,0 -59.231,26.66 -59.231,59.227 l 0,480.597 c 0,32.578 26.657,59.227 59.231,59.227" /><path
         id="path22"
         style="fill:none;stroke:#6452a0;stroke-width:17.00799942;stroke-linecap:round;stroke-linejoin:round;stroke-miterlimit:22.92560005;stroke-dasharray:none;stroke-opacity:1"
         d="m 201.301,706.801 59.226,0 0,-599.051 -59.226,0 c -32.574,0 -59.231,26.66 -59.231,59.227 l 0,480.597 c 0,32.578 26.657,59.227 59.231,59.227 z" /><path
         id="path24"
         style="fill:none;stroke:#6452a0;stroke-width:17.00799942;stroke-linecap:round;stroke-linejoin:round;stroke-miterlimit:22.92560005;stroke-dasharray:none;stroke-opacity:1"
         d="m 177.086,569.762 -85.7813,0" /><path
         id="path26"
         style="fill:none;stroke:#6452a0;stroke-width:17.00799942;stroke-linecap:round;stroke-linejoin:round;stroke-miterlimit:22.92560005;stroke-dasharray:none;stroke-opacity:1"
         d="m 177.086,492.73 -85.7813,0" /><path
         id="path28"
         style="fill:none;stroke:#6452a0;stroke-width:17.00799942;stroke-linecap:round;stroke-linejoin:round;stroke-miterlimit:22.92560005;stroke-dasharray:none;stroke-opacity:1"
         d="m 177.086,301.324 -85.7813,0" /><path
         id="path30"
         style="fill:none;stroke:#6452a0;stroke-width:17.00799942;stroke-linecap:round;stroke-linejoin:round;stroke-miterlimit:22.92560005;stroke-dasharray:none;stroke-opacity:1"
         d="m 177.086,224.301 -85.7813,0" /><path
         id="path32"
         style="fill:#6452a0;fill-opacity:1;fill-rule:evenodd;stroke:none"
         d="m 446.039,615.258 40.188,0 c 6.25,0 11.355,-5.11 11.355,-11.356 l 0,-55.039 55.039,0 c 6.25,0 11.359,-5.109 11.359,-11.359 l 0,-40.184 c 0,-6.246 -5.109,-11.359 -11.359,-11.359 l -55.039,0 0,-55.039 c 0,-6.242 -5.105,-11.352 -11.355,-11.352 l -40.188,0 c -6.238,0 -11.355,5.11 -11.355,11.352 l 0,55.039 -55.039,0 c -6.247,0 -11.352,5.113 -11.352,11.359 l 0,40.184 c 0,6.25 5.105,11.359 11.352,11.359 l 55.039,0 0,55.039 c 0,6.246 5.117,11.356 11.355,11.356" /><path
         id="path34"
         style="fill:none;stroke:#6452a0;stroke-width:17.00799942;stroke-linecap:round;stroke-linejoin:round;stroke-miterlimit:22.92560005;stroke-dasharray:none;stroke-opacity:1"
         d="m 349.297,340.172 218.863,0" /><path
         id="path36"
         style="fill:none;stroke:#6452a0;stroke-width:17.00799942;stroke-linecap:round;stroke-linejoin:round;stroke-miterlimit:22.92560005;stroke-dasharray:none;stroke-opacity:1"
         d="m 349.297,260.074 218.863,0" /><path
         id="path38"
         style="fill:none;stroke:#6452a0;stroke-width:17.00799942;stroke-linecap:round;stroke-linejoin:round;stroke-miterlimit:22.92560005;stroke-dasharray:none;stroke-opacity:1"
         d="m 349.297,179.965 218.863,0" /></g></g></svg>