<?xml version="1.0" encoding="UTF-8" standalone="no"?>
<svg
   xmlns:dc="http://purl.org/dc/elements/1.1/"
   xmlns:cc="http://creativecommons.org/ns#"
   xmlns:rdf="http://www.w3.org/1999/02/22-rdf-syntax-ns#"
   xmlns:svg="http://www.w3.org/2000/svg"
   xmlns="http://www.w3.org/2000/svg"
   viewBox="0 0 99.875 101.4"
   height="101.4"
   width="99.875"
   xml:space="preserve"
   version="1.1"
   id="svg2"><metadata
     id="metadata8"><rdf:RDF><cc:Work
         rdf:about=""><dc:format>image/svg+xml</dc:format><dc:type
           rdf:resource="http://purl.org/dc/dcmitype/StillImage" /></cc:Work></rdf:RDF></metadata><defs
     id="defs6" /><g
     transform="matrix(1.25,0,0,-1.25,0,101.4)"
     id="g10"><g
       transform="scale(0.1,0.1)"
       id="g12"><path
         id="path14"
         style="fill:none;stroke:#4278c4;stroke-width:17.00799942;stroke-linecap:round;stroke-linejoin:round;stroke-miterlimit:22.92560005;stroke-dasharray:none;stroke-opacity:1"
         d="M 714.348,163.609 C 641.742,69.293 527.727,8.50391 399.508,8.50391 332.684,8.50391 269.73,25.0352 214.473,54.1875 M 159.895,722.285 c 66.601,50.469 149.601,80.438 239.613,80.438 90.008,0 173.004,-29.969 239.605,-80.438" /><path
         id="path16"
         style="fill:#fbc31e;fill-opacity:1;fill-rule:evenodd;stroke:none"
         d="m 745.813,668.27 -692.6177,0 c -24.5781,0 -44.69139,-20.125 -44.69139,-44.7 l 0,-268.172 c 0,-24.57 20.12109,-44.687 44.69139,-44.687 l 614.2307,0 123.078,-101.797 0,101.152 0.008,45.332 0,268.172 c 0,24.586 -20.117,44.7 -44.699,44.7" /><path
         id="path18"
         style="fill:none;stroke:#6452a0;stroke-width:17.00799942;stroke-linecap:round;stroke-linejoin:round;stroke-miterlimit:22.92560005;stroke-dasharray:none;stroke-opacity:1"
         d="m 745.813,668.27 -692.6177,0 c -24.5781,0 -44.69139,-20.125 -44.69139,-44.7 l 0,-268.172 c 0,-24.57 20.12109,-44.687 44.69139,-44.687 l 614.2307,0 123.078,-101.797 0,101.152 0.008,45.332 0,268.172 c 0,24.586 -20.117,44.7 -44.699,44.7 z" /><path
         id="path20"
         style="fill:#6452a0;fill-opacity:1;fill-rule:evenodd;stroke:none"
         d="m 138.996,238.543 306.445,0 c 32.657,0 59.368,-26.711 59.368,-59.367 l 0,0 c 0,-32.656 -26.711,-59.363 -59.368,-59.363 l -306.445,0 c -32.648,0 -59.3632,26.707 -59.3632,59.363 l 0,0 c 0,32.656 26.7152,59.367 59.3632,59.367" /><path
         id="path22"
         style="fill:none;stroke:#ffffff;stroke-width:17.00799942;stroke-linecap:round;stroke-linejoin:round;stroke-miterlimit:22.92560005;stroke-dasharray:none;stroke-opacity:1"
         d="m 191.121,179.176 107.774,0" /><path
         id="path24"
         style="fill:none;stroke:#ffffff;stroke-width:17.00799942;stroke-linecap:round;stroke-linejoin:round;stroke-miterlimit:22.92560005;stroke-dasharray:none;stroke-opacity:1"
         d="m 344.484,179.176 48.84,0" /><path
         id="path26"
         style="fill:none;stroke:#6452a0;stroke-width:17.00799942;stroke-linecap:round;stroke-linejoin:round;stroke-miterlimit:22.92560005;stroke-dasharray:none;stroke-opacity:1"
         d="m 582.805,552.398 39.347,-39.343 81.739,81.738" /><path
         id="path28"
         style="fill:none;stroke:#6452a0;stroke-width:17.00799942;stroke-linecap:round;stroke-linejoin:round;stroke-miterlimit:22.92560005;stroke-dasharray:none;stroke-opacity:1"
         d="m 582.805,429.879 39.336,-39.336 81.75,81.738" /><path
         id="path30"
         style="fill:#ffffff;fill-opacity:1;fill-rule:evenodd;stroke:none"
         d="m 90.7539,509.137 402.93,0 0,85.4805 -402.93,0 0,-85.4805 z" /><path
         id="path32"
         style="fill:none;stroke:#6452a0;stroke-width:17.00799942;stroke-linecap:round;stroke-linejoin:round;stroke-miterlimit:22.92560005;stroke-dasharray:none;stroke-opacity:1"
         d="m 90.7539,509.137 402.93,0 0,85.4805 -402.93,0 0,-85.4805 z" /><path
         id="path34"
         style="fill:#ffffff;fill-opacity:1;fill-rule:evenodd;stroke:none"
         d="m 90.7539,384.352 402.93,0 0,85.4844 -402.93,0 0,-85.4844 z" /><path
         id="path36"
         style="fill:none;stroke:#6452a0;stroke-width:17.00799942;stroke-linecap:round;stroke-linejoin:round;stroke-miterlimit:22.92560005;stroke-dasharray:none;stroke-opacity:1"
         d="m 90.7539,384.352 402.93,0 0,85.4844 -402.93,0 0,-85.4844 z" /></g></g></svg>