<?xml version="1.0" encoding="UTF-8" standalone="no"?>
<svg
   xmlns:dc="http://purl.org/dc/elements/1.1/"
   xmlns:cc="http://creativecommons.org/ns#"
   xmlns:rdf="http://www.w3.org/1999/02/22-rdf-syntax-ns#"
   xmlns:svg="http://www.w3.org/2000/svg"
   xmlns="http://www.w3.org/2000/svg"
   viewBox="0 0 101.4 101.4"
   height="101.4"
   width="101.4"
   xml:space="preserve"
   version="1.1"
   id="svg2"><metadata
     id="metadata8"><rdf:RDF><cc:Work
         rdf:about=""><dc:format>image/svg+xml</dc:format><dc:type
           rdf:resource="http://purl.org/dc/dcmitype/StillImage" /></cc:Work></rdf:RDF></metadata><defs
     id="defs6" /><g
     transform="matrix(1.25,0,0,-1.25,0,101.4)"
     id="g10"><g
       transform="scale(0.1,0.1)"
       id="g12"><path
         id="path14"
         style="fill:none;stroke:#4278c4;stroke-width:17.00799942;stroke-linecap:round;stroke-linejoin:round;stroke-miterlimit:22.92560005;stroke-dasharray:none;stroke-opacity:1"
         d="M 88.9844,165.945 C 38.4883,232.555 8.50391,315.574 8.50391,405.613 c 0,72.274 19.30859,140.035 53.05079,198.418 M 582.105,49.8125 C 528.941,23.3867 469.02,8.50391 405.613,8.50391 343.516,8.50391 284.746,22.7617 232.41,48.1797 M 716.91,652.16 c 53.723,-67.73 85.813,-153.387 85.813,-246.547 0,-89.297 -29.485,-171.711 -79.231,-238.039 m -502.898,589.5 c 55.254,29.145 118.207,45.649 185.019,45.649 65.078,0 126.504,-15.657 180.703,-43.41" /><path
         id="path16"
         style="fill:#fbc31e;fill-opacity:1;fill-rule:evenodd;stroke:none"
         d="m 608.727,702.215 -349.852,0 0,-595.11 349.852,0 c 24.101,0 43.828,19.719 43.828,43.821 l 0,507.469 c 0,24.101 -19.727,43.82 -43.828,43.82" /><path
         id="path18"
         style="fill:none;stroke:#6452a0;stroke-width:17.00799942;stroke-linecap:round;stroke-linejoin:round;stroke-miterlimit:22.92560005;stroke-dasharray:none;stroke-opacity:1"
         d="m 608.727,702.215 -349.852,0 0,-595.11 349.852,0 c 24.101,0 43.828,19.719 43.828,43.821 l 0,507.469 c 0,24.101 -19.727,43.82 -43.828,43.82 z" /><path
         id="path20"
         style="fill:#ffffff;fill-opacity:1;fill-rule:evenodd;stroke:none"
         d="m 200.035,702.215 58.84,0 0,-595.11 -58.84,0 c -32.363,0 -58.844,26.477 -58.844,58.84 l 0,477.43 c 0,32.363 26.481,58.84 58.844,58.84" /><path
         id="path22"
         style="fill:none;stroke:#6452a0;stroke-width:17.00799942;stroke-linecap:round;stroke-linejoin:round;stroke-miterlimit:22.92560005;stroke-dasharray:none;stroke-opacity:1"
         d="m 200.035,702.215 58.84,0 0,-595.11 -58.84,0 c -32.363,0 -58.844,26.477 -58.844,58.84 l 0,477.43 c 0,32.363 26.481,58.84 58.844,58.84 z" /><path
         id="path24"
         style="fill:none;stroke:#6452a0;stroke-width:17.00799942;stroke-linecap:round;stroke-linejoin:round;stroke-miterlimit:22.92560005;stroke-dasharray:none;stroke-opacity:1"
         d="m 175.977,566.074 -85.2192,0" /><path
         id="path26"
         style="fill:none;stroke:#6452a0;stroke-width:17.00799942;stroke-linecap:round;stroke-linejoin:round;stroke-miterlimit:22.92560005;stroke-dasharray:none;stroke-opacity:1"
         d="m 175.977,489.555 -85.2192,0" /><path
         id="path28"
         style="fill:none;stroke:#6452a0;stroke-width:17.00799942;stroke-linecap:round;stroke-linejoin:round;stroke-miterlimit:22.92560005;stroke-dasharray:none;stroke-opacity:1"
         d="m 175.977,299.402 -85.2192,0" /><path
         id="path30"
         style="fill:none;stroke:#6452a0;stroke-width:17.00799942;stroke-linecap:round;stroke-linejoin:round;stroke-miterlimit:22.92560005;stroke-dasharray:none;stroke-opacity:1"
         d="m 175.977,222.879 -85.2192,0" /><path
         id="path32"
         style="fill:#6452a0;fill-opacity:1;fill-rule:evenodd;stroke:none"
         d="m 443.172,611.273 39.922,0 c 6.199,0 11.277,-5.074 11.277,-11.281 l 0,-54.676 54.68,0 c 6.199,0 11.277,-5.074 11.277,-11.285 l 0,-39.918 c 0,-6.207 -5.078,-11.285 -11.277,-11.285 l -54.68,0 0,-54.676 c 0,-6.207 -5.078,-11.285 -11.277,-11.285 l -39.922,0 c -6.211,0 -11.289,5.078 -11.289,11.285 l 0,54.676 -54.672,0 c -6.207,0 -11.285,5.078 -11.285,11.285 l 0,39.918 c 0,6.211 5.078,11.285 11.285,11.285 l 54.672,0 0,54.676 c 0,6.207 5.078,11.281 11.289,11.281" /><path
         id="path34"
         style="fill:none;stroke:#6452a0;stroke-width:17.00799942;stroke-linecap:round;stroke-linejoin:round;stroke-miterlimit:22.92560005;stroke-dasharray:none;stroke-opacity:1"
         d="m 347.059,337.996 217.421,0" /><path
         id="path36"
         style="fill:none;stroke:#6452a0;stroke-width:17.00799942;stroke-linecap:round;stroke-linejoin:round;stroke-miterlimit:22.92560005;stroke-dasharray:none;stroke-opacity:1"
         d="m 347.059,258.414 217.421,0" /><path
         id="path38"
         style="fill:none;stroke:#6452a0;stroke-width:17.00799942;stroke-linecap:round;stroke-linejoin:round;stroke-miterlimit:22.92560005;stroke-dasharray:none;stroke-opacity:1"
         d="m 347.059,178.844 217.421,0" /></g></g></svg>