<?xml version="1.0" encoding="UTF-8" standalone="no"?>
<svg
   xmlns:dc="http://purl.org/dc/elements/1.1/"
   xmlns:cc="http://creativecommons.org/ns#"
   xmlns:rdf="http://www.w3.org/1999/02/22-rdf-syntax-ns#"
   xmlns:svg="http://www.w3.org/2000/svg"
   xmlns="http://www.w3.org/2000/svg"
   viewBox="0 0 101.4 101.4"
   height="101.4"
   width="101.4"
   xml:space="preserve"
   version="1.1"
   id="svg2"><metadata
     id="metadata8"><rdf:RDF><cc:Work
         rdf:about=""><dc:format>image/svg+xml</dc:format><dc:type
           rdf:resource="http://purl.org/dc/dcmitype/StillImage" /></cc:Work></rdf:RDF></metadata><defs
     id="defs6" /><g
     transform="matrix(1.25,0,0,-1.25,0,101.4)"
     id="g10"><g
       transform="scale(0.1,0.1)"
       id="g12"><path
         id="path14"
         style="fill:none;stroke:#4278c4;stroke-width:17.00799942;stroke-linecap:round;stroke-linejoin:round;stroke-miterlimit:22.92560005;stroke-dasharray:none;stroke-opacity:1"
         d="M 133.422,116.492 C 56.5273,188.902 8.50391,291.648 8.50391,405.613 M 506.871,21.5508 C 474.547,13.043 440.613,8.50391 405.613,8.50391 c -37.324,0 -73.441,5.16409 -107.691,14.78519 M 671.375,700.66 C 752.02,627.977 802.723,522.723 802.723,405.613 802.723,288.504 752.02,183.25 671.375,110.563 M 297.922,787.934 c 34.25,9.629 70.367,14.789 107.691,14.789 35,0 68.934,-4.547 101.258,-13.051 M 8.50391,405.613 c 0,113.965 48.02339,216.703 124.91809,289.121" /><path
         id="path16"
         style="fill:#fbc31e;fill-opacity:1;fill-rule:evenodd;stroke:none"
         d="m 207.555,117.469 0,576.289 c 0,20.476 16.754,37.23 37.23,37.23 l 321.656,0 c 20.481,0 37.227,-16.754 37.227,-37.23 l 0,-576.289 c 0,-20.4807 -16.746,-37.2268 -37.227,-37.2268 l -321.656,0 c -20.476,0 -37.23,16.7461 -37.23,37.2268" /><path
         id="path18"
         style="fill:none;stroke:#6452a0;stroke-width:17.00799942;stroke-linecap:round;stroke-linejoin:round;stroke-miterlimit:22.92560005;stroke-dasharray:none;stroke-opacity:1"
         d="m 207.555,117.469 0,576.289 c 0,20.476 16.754,37.23 37.23,37.23 l 321.656,0 c 20.481,0 37.227,-16.754 37.227,-37.23 l 0,-576.289 c 0,-20.4807 -16.746,-37.2268 -37.227,-37.2268 l -321.656,0 c -20.476,0 -37.23,16.7461 -37.23,37.2268 z" /><path
         id="path20"
         style="fill:none;stroke:#6452a0;stroke-width:17.00799942;stroke-linecap:round;stroke-linejoin:round;stroke-miterlimit:22.92560005;stroke-dasharray:none;stroke-opacity:1"
         d="m 358.336,673.875 94.406,0" /><path
         id="path22"
         style="fill:#6452a0;fill-opacity:1;fill-rule:evenodd;stroke:none"
         d="m 405.543,124.371 c 18.164,0 32.969,14.817 32.969,32.969 0,18.164 -14.805,32.969 -32.969,32.969 -18.156,0 -32.969,-14.805 -32.969,-32.969 0,-18.152 14.813,-32.969 32.969,-32.969" /><path
         id="path24"
         style="fill:#ffffff;fill-opacity:1;fill-rule:evenodd;stroke:none"
         d="m 405.543,283.797 c 81.738,0 148.41,66.668 148.41,148.406 0,81.746 -66.672,148.41 -148.41,148.41 -81.738,0 -148.406,-66.664 -148.406,-148.41 0,-81.738 66.668,-148.406 148.406,-148.406" /><path
         id="path26"
         style="fill:none;stroke:#6452a0;stroke-width:17.00799942;stroke-linecap:round;stroke-linejoin:round;stroke-miterlimit:22.92560005;stroke-dasharray:none;stroke-opacity:1"
         d="m 405.543,283.797 c 81.738,0 148.41,66.668 148.41,148.406 0,81.746 -66.672,148.41 -148.41,148.41 -81.738,0 -148.406,-66.664 -148.406,-148.41 0,-81.738 66.668,-148.406 148.406,-148.406 z" /><path
         id="path28"
         style="fill:#6452a0;fill-opacity:1;fill-rule:evenodd;stroke:none"
         d="m 378.551,488.789 c 5.832,-6.223 5.711,-16 -0.371,-22.074 -0.086,-0.094 -0.184,-0.18 -0.278,-0.274 -0.121,-0.156 -0.254,-0.316 -0.375,-0.476 l 0,0 c -0.164,-0.211 -0.328,-0.426 -0.484,-0.641 l 0,-0.004 c -0.16,-0.215 -0.316,-0.433 -0.465,-0.656 l 0,0 c -0.156,-0.219 -0.301,-0.434 -0.449,-0.656 -0.149,-0.223 -0.293,-0.445 -0.43,-0.672 l 0,0 c -0.14,-0.227 -0.277,-0.453 -0.414,-0.68 l 0,0 c -0.133,-0.226 -0.258,-0.457 -0.39,-0.687 l 0,0 c -0.133,-0.227 -0.254,-0.461 -0.375,-0.692 l 0,0 c -0.122,-0.234 -0.243,-0.464 -0.36,-0.703 l 0,0 c -0.109,-0.234 -0.226,-0.469 -0.336,-0.707 l 0,0 c -0.109,-0.242 -0.215,-0.48 -0.32,-0.719 l 0,0 c -0.106,-0.234 -0.199,-0.472 -0.301,-0.722 l 0,0 c -0.094,-0.238 -0.187,-0.481 -0.281,-0.723 l 0,0 c -0.094,-0.246 -0.18,-0.488 -0.266,-0.734 l 0,0 c -0.086,-0.242 -0.168,-0.492 -0.246,-0.735 l 0,0 c -0.078,-0.25 -0.156,-0.496 -0.23,-0.75 l 0,0 c -0.075,-0.242 -0.141,-0.492 -0.211,-0.742 -0.067,-0.25 -0.129,-0.5 -0.192,-0.75 -0.054,-0.25 -0.121,-0.504 -0.172,-0.754 -0.054,-0.254 -0.109,-0.508 -0.16,-0.754 l 0,0 c -0.043,-0.261 -0.09,-0.515 -0.129,-0.769 l 0,0 c -0.05,-0.246 -0.089,-0.508 -0.125,-0.762 -0.031,-0.254 -0.066,-0.508 -0.101,-0.765 -0.027,-0.254 -0.059,-0.508 -0.082,-0.766 l 0,0 c -0.02,-0.254 -0.043,-0.508 -0.063,-0.766 -0.015,-0.254 -0.031,-0.515 -0.047,-0.773 -0.007,-0.254 -0.015,-0.512 -0.027,-0.766 -0.004,-0.258 -0.004,-0.512 -0.004,-0.777 0,-0.254 0,-0.508 0.004,-0.766 0.012,-0.258 0.02,-0.511 0.027,-0.773 0.016,-0.258 0.032,-0.512 0.047,-0.766 0.02,-0.258 0.043,-0.512 0.063,-0.769 0.023,-0.262 0.055,-0.516 0.082,-0.77 0.035,-0.254 0.07,-0.508 0.101,-0.766 0.036,-0.25 0.075,-0.507 0.125,-0.761 0.039,-0.254 0.086,-0.508 0.129,-0.762 0.051,-0.254 0.106,-0.508 0.16,-0.758 0.051,-0.254 0.118,-0.5 0.172,-0.754 l 0,0 c 0.063,-0.25 0.125,-0.5 0.192,-0.75 l 0,0 c 0.07,-0.254 0.136,-0.496 0.211,-0.746 l 0,0 c 0.074,-0.25 0.152,-0.5 0.23,-0.742 l 0,0 c 0.078,-0.25 0.16,-0.492 0.246,-0.742 l 0,0 c 0.086,-0.238 0.172,-0.488 0.266,-0.731 l 0,0 c 0.09,-0.242 0.187,-0.484 0.281,-0.722 l 0,0 c 0.102,-0.246 0.195,-0.485 0.301,-0.727 l 0,0 c 0.105,-0.238 0.211,-0.476 0.32,-0.715 0.11,-0.234 0.227,-0.468 0.336,-0.707 l 0,0 c 0.117,-0.234 0.238,-0.468 0.36,-0.707 l 0,0 c 0.121,-0.226 0.242,-0.457 0.375,-0.691 l 0,0 c 0.132,-0.231 0.257,-0.457 0.39,-0.684 l 0,0 c 0.137,-0.23 0.274,-0.453 0.414,-0.683 l 0,0 c 0.137,-0.219 0.281,-0.446 0.43,-0.668 l 0,0 c 0.148,-0.219 0.293,-0.442 0.449,-0.66 0.149,-0.219 0.305,-0.442 0.465,-0.653 l 0,0 c 0.156,-0.215 0.32,-0.429 0.484,-0.644 l 0,0 c 0.164,-0.211 0.332,-0.422 0.5,-0.633 l 0,0 c 0.172,-0.207 0.344,-0.418 0.524,-0.625 l 0,0 c 0.176,-0.203 0.355,-0.41 0.535,-0.613 l 0,0 c 0.184,-0.2 0.367,-0.403 0.559,-0.602 l 0,0 c 0.187,-0.199 0.382,-0.395 0.578,-0.59 l 0,0 16.855,-16.851 0,0 c 0.195,-0.196 0.391,-0.391 0.59,-0.575 l 0,0 c 0.195,-0.191 0.395,-0.379 0.602,-0.558 l 0,0 c 0.199,-0.184 0.406,-0.367 0.609,-0.543 l 0,0 c 0.207,-0.176 0.414,-0.348 0.625,-0.516 l 0,0 c 0.211,-0.172 0.422,-0.344 0.629,-0.504 l 0,0 c 0.215,-0.164 0.43,-0.328 0.644,-0.484 l 0,0 c 0.219,-0.16 0.438,-0.316 0.657,-0.469 0.218,-0.148 0.437,-0.297 0.664,-0.441 l 0,0 c 0.218,-0.153 0.445,-0.293 0.668,-0.434 l 0,0 c 0.222,-0.144 0.449,-0.277 0.679,-0.414 l 0,0.008 c 0.223,-0.137 0.453,-0.27 0.688,-0.399 l 0,0 c 0.23,-0.128 0.461,-0.253 0.691,-0.375 l 0,0 c 0.239,-0.121 0.465,-0.242 0.703,-0.355 l 0,0 c 0.239,-0.117 0.469,-0.23 0.711,-0.344 0.235,-0.105 0.473,-0.215 0.711,-0.316 l 0,0 c 0.242,-0.102 0.485,-0.203 0.723,-0.297 l 0,0 c 0.238,-0.102 0.484,-0.195 0.726,-0.285 l 0,0 c 0.247,-0.094 0.493,-0.18 0.731,-0.266 l 0,0 c 0.25,-0.086 0.492,-0.168 0.742,-0.246 l 0,0 c 0.242,-0.082 0.492,-0.156 0.742,-0.23 l 0,0 c 0.242,-0.071 0.496,-0.145 0.746,-0.207 l 0,0 c 0.25,-0.071 0.5,-0.133 0.75,-0.192 l 0,0 c 0.25,-0.062 0.5,-0.125 0.758,-0.176 0.25,-0.054 0.5,-0.109 0.754,-0.156 0.254,-0.043 0.508,-0.094 0.762,-0.137 0.254,-0.043 0.508,-0.078 0.762,-0.117 0.257,-0.039 0.507,-0.074 0.761,-0.101 0.262,-0.032 0.516,-0.063 0.77,-0.086 0.254,-0.024 0.519,-0.043 0.773,-0.063 0.254,-0.019 0.508,-0.027 0.77,-0.043 0.254,-0.011 0.508,-0.023 0.773,-0.023 0.254,-0.012 0.508,-0.012 0.762,-0.012 0.262,0 0.516,0 0.769,0.012 0.266,0 0.52,0.012 0.774,0.023 0.262,0.016 0.516,0.024 0.769,0.043 0.254,0.02 0.52,0.039 0.774,0.063 l 0,0.008 c 0.254,0.015 0.508,0.046 0.762,0.078 0.261,0.027 0.515,0.062 0.769,0.101 0.254,0.039 0.508,0.074 0.762,0.117 l 0,0 c 0.254,0.043 0.508,0.094 0.762,0.137 l 0,0 c 0.253,0.047 0.507,0.102 0.753,0.156 0.254,0.051 0.508,0.114 0.762,0.176 0.242,0.059 0.496,0.121 0.75,0.192 0.246,0.062 0.488,0.136 0.742,0.207 l 0,0 c 0.246,0.074 0.5,0.148 0.743,0.23 l 0,0 c 0.246,0.078 0.488,0.16 0.742,0.246 l 0,0 c 0.234,0.086 0.488,0.172 0.734,0.266 l 0,0 c 0.234,0.09 0.477,0.183 0.723,0.285 l 0,0 c 0.242,0.094 0.476,0.195 0.722,0.297 l 0,0 c 0.235,0.101 0.477,0.211 0.711,0.316 l 0,0 c 0.235,0.114 0.469,0.227 0.715,0.344 l 0,0 c 0.235,0.113 0.469,0.234 0.703,0.355 l 0,0 c 0.223,0.122 0.457,0.247 0.692,0.375 l 0,0 c 0.226,0.129 0.461,0.262 0.683,0.391 l 0,0.008 c 0.227,0.129 0.45,0.262 0.684,0.406 l 0,0 c 0.215,0.141 0.441,0.281 0.664,0.434 0.227,0.144 0.449,0.293 0.664,0.441 l 0,0 c 0.215,0.153 0.441,0.309 0.656,0.469 l 0,0 c 0.215,0.156 0.43,0.32 0.645,0.484 l 0,0 c 0.203,0.16 0.418,0.332 0.633,0.504 l 0,0 c 0.089,0.078 0.187,0.153 0.285,0.235 5.711,5.527 14.558,5.918 20.722,1.16 l 22.645,-16.739 0,-0.019 c 0.625,-0.469 1.23,-0.984 1.797,-1.551 6.203,-6.203 6.203,-16.25 0,-22.461 -0.242,-0.246 -0.508,-0.488 -0.77,-0.722 l -0.371,-0.372 c -23.84,-23.839 -59.551,-20.011 -86.679,0 -24.036,17.715 -43.649,37.989 -60.082,60.079 -20.125,27.046 -23.989,62.582 -0.149,86.421 l 0.449,0.454 c 0.289,0.336 0.586,0.664 0.903,0.98 6.207,6.203 16.257,6.203 22.461,0 0.984,-0.98 1.812,-2.066 2.488,-3.215 l 14.836,-20.078" /></g></g></svg>